<svg xmlns="http://www.w3.org/2000/svg" viewBox="0 0 418.73 344.53"><defs><style>.cls-1{fill:#ffe1ab;}.cls-2{fill:#af5252;}.cls-3,.cls-4,.cls-6,.cls-7{fill:none;stroke:#896f4a;stroke-miterlimit:10;}.cls-3,.cls-4{stroke-width:5px;}.cls-4{stroke-dasharray:12.22 12.22;}.cls-5{fill:#896f4a;}.cls-7{stroke-width:2px;}</style></defs><g id="Layer_2" data-name="Layer 2"><g id="OBJECTS"><path class="cls-1" d="M418.73,0,404.6,2.36l-2.51,14.37L398.67,3.35l-12.08,2V15.73L383.43,5.9l-41.5,6.93L338.59,31l-1.68-17.31-12.32,2.05V27L319.93,16.5l-5.85,1-2.24,10.75-2.68-9.93-30,5V344.53l25.5-4.25c-.2-5.44-.38-10.53-.38-10.53l3.39,10,14.82-2.47-1.21-14.36,4.33,13.84,12.63-2.11,2.54-11.73,3.07,10.79,21.58-3.6,2.6-12.27,1.63,11.56L380,327.7l-.92-8.51,4.35,7.94,15.36-2.57-1.46-4.87,3.57,4.52,17.83-3v-9.16l-14.37-1.6,14.37-3.92v-4.41h-5.37l5.37-1.43V242l-16.62-7.74,16.62-4.11v-9.39h-8.37l8.37-3.69V189.7l-30.12-4.83,30.12-1.36v-32H408.61l10.12-6V87.18l-20.12-1.71,20.12-3.61V55.36L389.6,47.22l29.13-6.59V17.47H406.86l11.87-6.54Z"/><path class="cls-1" d="M274.09,24.73c0-.23-.06-1.08-.17-2.31l-21.51-3.59-.83,6-1.13-6.31-16.23-2.71-.7,2.94-1.17-3.25-27.26-4.56-2,8.31.69-8.53-11-1.83L190.34,17l-.22-8.56L170.07,5.07l-3,7.84.45-8.26L139.69,0V321.23l18.54,3.1c1.15-3.51,2.35-7.05,2.35-6.39,0,.45.26,3.36.59,6.88l20.48,3.42,1.45-10.38,2,10.95,14.37,2.4,1.72-7.27,2.91,8,24.48,4.09,3-12.63-1.05,13,10,1.68,3.78-12.39.34,13.08L263,341.83l4.58-12.08-.69,12.73,12.32,2V23.3l-4.2-.7C274.47,24.13,274.09,25.1,274.09,24.73Z"/><path class="cls-1" d="M129.93,1.6c.22,5.73.41,11.31.41,11.31L126.7,2.14,112.07,4.59l1.27,15.14-4.56-14.6L96.56,7.18,93.84,19.73,90.56,8.18,69.37,11.72,66.59,24.81,64.86,12.47,54.6,14.18l1,9.3-4.74-8.67L35.66,17.35,37.34,23l-4.12-5.23L0,23.3V33.57l12.33,1.37L0,38.3v5H3.33L0,44.16V104.4l14.58,6.79L0,114.79v9.9H6.33L0,127.48V156l28.08,4.5L0,161.81v32.13H8.08L0,198.71V258.4l18.08,1.54L0,263.18v27.44l27.09,7.57L0,304.31v23.63H9.83L0,333.36v11.17l30.22-5,2.36-13.55,3.23,12.61,12.27-2.05v-9.56L51,336l41.89-7,3.18-17.33,1.61,16.53,12.39-2.07V315.69l4.33,9.74,6.35-1.07,2.07-9.92,2.48,9.17,14.21-2.38V0Z"/><polygon class="cls-2" points="338.88 271.12 329 257.75 342.37 247.86 338.76 242.98 325.39 252.87 315.5 239.5 310.62 243.11 320.51 256.48 307.14 266.36 310.75 271.24 324.12 261.36 334 274.73 338.88 271.12"/><path class="cls-3" d="M75.9,224a50.22,50.22,0,0,0,4,4.43"/><path class="cls-4" d="M89.26,236.3c13.15,9.47,35.57,19.47,65.35,10.11,49.54-15.56,53.23-83.12,53.76-117.95s61.75-59.11,100.81-22.69c30.54,28.47,24.47,92.61,20.37,119.22"/><path class="cls-3" d="M328.55,231c-.66,3.75-1.13,5.89-1.13,5.89"/><polygon class="cls-5" points="63.86 77.15 66.26 75.56 69.96 74.76 73.72 75.69 76.07 77.15 69.96 46.56 63.86 77.15"/><polygon class="cls-5" points="76.07 87.93 73.67 89.52 69.96 90.33 66.2 89.39 63.86 87.93 69.96 118.53 76.07 87.93"/><polygon class="cls-5" points="75.36 76.44 76.94 78.83 77.75 82.54 76.82 86.3 75.36 88.64 105.95 82.54 75.36 76.44"/><polygon class="cls-5" points="64.57 88.64 62.99 86.25 62.18 82.54 63.11 78.78 64.57 76.44 33.98 82.54 64.57 88.64"/><path class="cls-5" d="M70,90.69a8.47,8.47,0,1,1,8.47-8.47A8.48,8.48,0,0,1,70,90.69Zm0-15.6a7.13,7.13,0,1,0,7.14,7.13A7.14,7.14,0,0,0,70,75.09Z"/><path class="cls-5" d="M70,105.94A23.72,23.72,0,1,1,93.69,82.22,23.75,23.75,0,0,1,70,105.94Zm0-46.11A22.39,22.39,0,1,0,92.35,82.22,22.41,22.41,0,0,0,70,59.83Z"/><circle class="cls-5" cx="69.96" cy="82.22" r="4.79"/><rect class="cls-5" x="42.19" y="81.11" width="55.93" height="1.34" transform="translate(-36.9 69.57) rotate(-42.87)"/><rect class="cls-5" x="69.48" y="53.81" width="1.34" height="55.93" transform="translate(-36.9 69.56) rotate(-42.86)"/><circle class="cls-6" cx="69.04" cy="215.41" r="9.1"/><path class="cls-5" d="M62.71,215.41A6.34,6.34,0,1,1,69,221.74,6.33,6.33,0,0,1,62.71,215.41Z"/><path class="cls-7" d="M44.17,179.44s5.16-17.79,14.83-18.9S76,175.1,84.33,175.1s4.34-4.68,12-5.17S98,173.1,108,174.1s13-26,19.67-31.33,12-1.67,12-1.67,16.31,10.67,18.64,22.34,16-3.67,13.34-12.67-15-11.25-12-19.12,12.66,2.21,15,0-4-5.55-2.34-14.88,10.34-5,12.67-15.47-18.67-16.53-19.67-26.2,11.34-10.66,17.34-6.66,5.33-24,18-28,11,6,15.33,6.33,12.67-8.32,14-2.83,10.67,6.83,14.33,4.16,23.76-17.66,34.88.67c0,0,24.12-9,28.79-.33s20.67,18,23.67,17.33,24.42-9,27.37.33-12.62,12.34,0,25.34,26,26.68,24,35.5-8.67,11.33-8.67,11.33,7.67,5.94,6,14.89-11.33,12.43-7,20.69,13,16.09,12.59,21.59-7.84,1.75-8.5,2-6.5,1.25-2.67,11.5c0,0,5.25,11.66-3.92,14.5s-14,22.66,1.67,32.5,2.17,39.33-14.67,36.33-23.16-.67-19.83,7.17-6,21.33-19.83,13.16-18.67-9.16-22.84-5.5-20.16,6-23.66-4.16-9-21.17,1-43.5,2.54-44.72-3.23-47-22.76-13.15-24.76,12.1-14.26,12.26-18,10.26-12.86,5-8.95,13.33-.89,29.58-11,26.62-36.18-10.28-39.18,5.47-14,15.13-15.25,8.56-12.75-13.31-17.75-4.81-26.25,11.75-29.25-.75-27.5-10.75-38.25-9.5-32.5-9.25-25.75-19.25,8.67-13.5,2.84-18-12.09-11.5-7.09-17,11-17,5.75-22.75S35,183.44,44.17,179.44Z"/><path class="cls-5" d="M234.08,166.1s3.25-27.53,20-27.53,19.24,26.66,19.24,26.66S268,143,254.89,141c0,0,10.53,24.49-.13,25.06S234.08,166.1,234.08,166.1Z"/><path class="cls-5" d="M256.8,140.36s2-16.74,12.18-16.74,11.7,16.21,11.7,16.21-3.24-13.52-11.23-14.71c0,0,6.41,14.9-.08,15.24S256.8,140.36,256.8,140.36Z"/><path class="cls-5" d="M275.7,158.69s2-16.75,12.18-16.75,11.7,16.22,11.7,16.22-3.24-13.53-11.23-14.71c0,0,6.41,14.89-.08,15.24S275.7,158.69,275.7,158.69Z"/><path class="cls-5" d="M316.36,85.1S318,71.44,326.3,71.44s9.56,13.23,9.56,13.23-2.65-11-9.17-12c0,0,5.23,12.15-.06,12.43S316.36,85.1,316.36,85.1Z"/><path class="cls-5" d="M256.8,62.94s1.61-13.67,9.94-13.67,9.55,13.24,9.55,13.24-2.65-11-9.17-12c0,0,5.23,12.15-.06,12.44S256.8,62.94,256.8,62.94Z"/><path class="cls-5" d="M238.8,68.1s1.61-13.66,9.94-13.66,9.55,13.23,9.55,13.23-2.65-11-9.17-12c0,0,5.23,12.15-.06,12.43S238.8,68.1,238.8,68.1Z"/><path class="cls-5" d="M214.13,61.89s1.37-11.56,8.41-11.56,8.08,11.2,8.08,11.2-2.24-9.34-7.75-10.16c0,0,4.42,10.29-.06,10.52S214.13,61.89,214.13,61.89Z"/><path class="cls-5" d="M194.64,60.17s1.36-11.56,8.41-11.56,8.08,11.19,8.08,11.19-2.24-9.34-7.76-10.15c0,0,4.43,10.28-.05,10.52S194.64,60.17,194.64,60.17Z"/><path class="cls-5" d="M189.3,79s1.37-11.56,8.41-11.56,8.09,11.2,8.09,11.2S203.56,69.3,198,68.48c0,0,4.42,10.28,0,10.52S189.3,79,189.3,79Z"/><path class="cls-5" d="M181.06,124.25s1.36-11.56,8.41-11.56,8.08,11.2,8.08,11.2-2.24-9.34-7.76-10.16c0,0,4.43,10.28,0,10.52S181.06,124.25,181.06,124.25Z"/><path class="cls-5" d="M120.55,178s1.37-11.55,8.41-11.55,8.09,11.19,8.09,11.19-2.24-9.34-7.76-10.16c0,0,4.42,10.29,0,10.52S120.55,178,120.55,178Z"/><path class="cls-5" d="M131.44,186.32s1.37-11.56,8.41-11.56,8.09,11.2,8.09,11.2-2.24-9.34-7.76-10.16c0,0,4.42,10.28-.05,10.52S131.44,186.32,131.44,186.32Z"/><path class="cls-5" d="M141.94,274.75s1.37-11.56,8.41-11.56,8.09,11.2,8.09,11.2-2.24-9.34-7.76-10.16c0,0,4.42,10.29-.05,10.52S141.94,274.75,141.94,274.75Z"/><path class="cls-5" d="M156.07,265.32s1.36-11.56,8.41-11.56,8.08,11.2,8.08,11.2-2.24-9.34-7.75-10.16c0,0,4.42,10.28-.06,10.52S156.07,265.32,156.07,265.32Z"/><path class="cls-5" d="M183.94,267.07s1.37-11.56,8.41-11.56,8.09,11.2,8.09,11.2-2.24-9.34-7.76-10.16c0,0,4.42,10.28-.05,10.52S183.94,267.07,183.94,267.07Z"/><path class="cls-5" d="M198.69,254.32s1.37-11.56,8.41-11.56,8.09,11.2,8.09,11.2-2.24-9.34-7.76-10.16c0,0,4.42,10.28-.05,10.52S198.69,254.32,198.69,254.32Z"/><path class="cls-5" d="M197.57,267.7s1.36-11.56,8.41-11.56,8.08,11.19,8.08,11.19-2.24-9.34-7.75-10.16c0,0,4.42,10.29-.06,10.53S197.57,267.7,197.57,267.7Z"/><path class="cls-5" d="M230.55,190.21s1.37-11.56,8.41-11.56,8.08,11.2,8.08,11.2-2.24-9.34-7.75-10.16c0,0,4.42,10.28-.06,10.52S230.55,190.21,230.55,190.21Z"/><path class="cls-5" d="M217.59,199.48S219,187.93,226,187.93s8.08,11.19,8.08,11.19-2.24-9.34-7.75-10.16c0,0,4.42,10.29-.06,10.52S217.59,199.48,217.59,199.48Z"/><path class="cls-5" d="M232.05,205.32s1.37-11.56,8.41-11.56S248.54,205,248.54,205s-2.24-9.34-7.75-10.15c0,0,4.42,10.28-.06,10.52S232.05,205.32,232.05,205.32Z"/><path class="cls-5" d="M138.09,172.16s1.37-11.56,8.41-11.56,8.09,11.2,8.09,11.2-2.24-9.34-7.76-10.16c0,0,4.42,10.28-.05,10.52S138.09,172.16,138.09,172.16Z"/><path class="cls-5" d="M301.79,74.68S303,64.77,309,64.77s6.94,9.6,6.94,9.6-1.92-8-6.66-8.71c0,0,3.8,8.82,0,9S301.79,74.68,301.79,74.68Z"/><path class="cls-5" d="M329.48,93.48s1.61-13.66,9.94-13.66S349,93.05,349,93.05s-2.64-11-9.16-12c0,0,5.22,12.15-.07,12.43S329.48,93.48,329.48,93.48Z"/><path class="cls-5" d="M340.73,113.23s1.61-13.66,9.94-13.66,9.55,13.23,9.55,13.23-2.64-11-9.16-12c0,0,5.22,12.15-.07,12.43S340.73,113.23,340.73,113.23Z"/><path class="cls-5" d="M352,125s1.61-13.66,9.94-13.66,9.55,13.23,9.55,13.23-2.64-11-9.16-12c0,0,5.22,12.15-.07,12.43S352,125,352,125Z"/><path class="cls-5" d="M110.45,223.7s2-16.74,12.18-16.74,11.7,16.22,11.7,16.22-3.24-13.53-11.23-14.72c0,0,6.41,14.9-.08,15.24S110.45,223.7,110.45,223.7Z"/><path class="cls-5" d="M86.56,212.7S88.54,196,98.74,196s11.71,16.22,11.71,16.22-3.25-13.53-11.24-14.72c0,0,6.41,14.9-.08,15.24S86.56,212.7,86.56,212.7Z"/><path class="cls-5" d="M113.16,206.15s2-16.74,12.18-16.74,11.71,16.22,11.71,16.22-3.25-13.53-11.24-14.72c0,0,6.41,14.9-.07,15.24S113.16,206.15,113.16,206.15Z"/><path class="cls-5" d="M304.46,215.46s-10.53-2.41-10.9,6.49a6.83,6.83,0,0,0-6.89-1.23c-4.36,1.59-4.17,5.25-4.17,5.25l4.31-1.38-.14-2.38,1.27,2,2.52-.81c-1.91,1.14-3.73,3.6-2.13,8.88l2.92-3.92s-.17-1.47-.05-1.43.89.42.89.42l2.19-3c7.87,8.53,9.2,27,9.2,27l3.73-1.19c-3.11-17.35-8.94-24.57-11.48-27l4-3.62-.69-1,1.62.27Z"/><path class="cls-5" d="M55.85,150.53S45.32,148.12,45,157a6.85,6.85,0,0,0-6.9-1.24c-4.35,1.59-4.16,5.25-4.16,5.25l4.3-1.37-.13-2.39,1.27,2,2.52-.8c-1.92,1.14-3.74,3.59-2.14,8.87l2.93-3.91s-.18-1.47,0-1.44.88.43.88.43l2.19-3c7.88,8.53,9.2,27,9.2,27l3.74-1.2c-3.11-17.35-8.94-24.57-11.48-27l4-3.62-.68-1,1.61.27Z"/><path class="cls-5" d="M366.51,233.69s10.8-.19,9.33,8.6a6.84,6.84,0,0,1,7,.21c3.93,2.45,3,6,3,6l-3.92-2.23.62-2.31-1.66,1.71-2.3-1.3c1.64,1.51,2.91,4.28.26,9.12l-2.05-4.43s.47-1.4.34-1.39a9.57,9.57,0,0,0-.95.23l-1.52-3.41c-9.47,6.72-14.57,24.54-14.57,24.54l-3.41-1.94c6.62-16.34,13.81-22.2,16.79-24l-3.17-4.36.88-.88-1.63-.07Z"/><path class="cls-5" d="M67.52,149s10.17-3.64,11.59,5.15a6.84,6.84,0,0,1,6.7-2c4.51,1.06,4.75,4.72,4.75,4.72l-4.43-.86L86,153.55l-1,2.16-2.6-.51c2,.91,4.13,3.13,3.17,8.56l-3.37-3.54s0-1.48-.12-1.43-.82.53-.82.53l-2.54-2.75c-6.81,9.41-5.93,27.92-5.93,27.92l-3.85-.75c1-17.59,6-25.45,8.2-28.16l-4.41-3.12.56-1.1-1.57.45Z"/><path class="cls-5" d="M303.79,260s-10.46-2.7-11.08,6.18a6.84,6.84,0,0,0-6.86-1.42c-4.39,1.46-4.31,5.13-4.31,5.13l4.34-1.26-.07-2.39,1.22,2.06,2.54-.73c-1.95,1.08-3.83,3.48-2.38,8.81l3-3.83s-.14-1.48,0-1.44.87.45.87.45l2.28-3c7.63,8.75,8.43,27.26,8.43,27.26l3.77-1.09c-2.62-17.43-8.25-24.81-10.72-27.3l4.11-3.51-.65-1.05,1.6.31Z"/></g></g></svg>