<svg xmlns="http://www.w3.org/2000/svg" viewBox="0 0 98.33 212.41"><defs><style>.cls-1{isolation:isolate;}.cls-2{fill:#ffb882;}.cls-3{fill:#593d36;}.cls-4{fill:#ce6b21;}.cls-5{fill:#9e5a35;}.cls-6{fill:#723c25;}.cls-7{fill:#49302b;}.cls-8{fill:#ce973e;}.cls-9{fill:#9eafac;}.cls-10{fill:#798e8a;}.cls-11{fill:#ea8a3b;}.cls-12{fill:#ff9566;}.cls-13{fill:#bf9266;}.cls-14{fill:#c93f5a;}.cls-15{fill:#a32b42;}.cls-16{opacity:0.41;}.cls-16,.cls-23,.cls-26{mix-blend-mode:multiply;}.cls-17,.cls-26{fill:#843131;}.cls-18{fill:#aa784b;}.cls-19{fill:#7a4d34;}.cls-20{fill:#bcddd8;}.cls-21{fill:#9bb2af;}.cls-22{fill:#f7b541;}.cls-23,.cls-26{opacity:0.6;}.cls-24{fill:#ea7b59;}.cls-25{fill:#3d231d;}.cls-27{fill:#aec4c0;}.cls-28{fill:#879995;}.cls-29{fill:#b3c6c2;}.cls-30{fill:#c1d3d0;}</style></defs><g class="cls-1"><g id="Layer_2" data-name="Layer 2"><g id="_11" data-name="11"><path class="cls-2" d="M10.31,146.84c1.55,2.52,2.33,3.79,2.11,5a7.28,7.28,0,0,1-3.35,3.59c-.82.15-1.65-2.84-1.84-3.38s.78-1.53,1.25-1.3,1.46,1.49,1.69,1.33a1.72,1.72,0,0,0,.39-.55S8.66,147.89,10.31,146.84Z"/><path class="cls-3" d="M27,69.35a9.34,9.34,0,0,1-.41,5.35s2.11-1.14,2.58-2.14S27,69.35,27,69.35Z"/><path class="cls-3" d="M27.3,71.07a9.31,9.31,0,0,1,.61,5.34s1.86-1.53,2.13-2.6S27.3,71.07,27.3,71.07Z"/><path class="cls-3" d="M28.8,73.16a8.35,8.35,0,0,1,.35,5.16s2-1.36,2.34-2.38S28.8,73.16,28.8,73.16Z"/><path class="cls-3" d="M30.19,74.42a8.41,8.41,0,0,1,1.06,5.08s1.78-1.58,2-2.63S30.19,74.42,30.19,74.42Z"/><path class="cls-3" d="M26.31,68.4c.69,3.88,7.25,11,7.25,11l5.68-5.36-4-10.28Z"/><path class="cls-4" d="M53.94,83.9c-.51-3.09-8.2-2.76-17.79-2.27-9,.45-14.88,4.46-14.37,7.56s8.12,4.43,17,3S54.45,87,53.94,83.9Z"/><polygon class="cls-5" points="10.31 21.87 8.57 21.87 30.4 116.3 32.91 115.92 10.31 21.87"/><path class="cls-6" d="M18.34,64.12,30.4,116.3l2.51-.39L19.78,61.29A26.67,26.67,0,0,0,18.34,64.12Z"/><polygon class="cls-5" points="6.84 33.84 5.1 33.84 26.92 128.27 29.43 127.89 6.84 33.84"/><path class="cls-6" d="M14.64,75.13l12.28,53.14,2.51-.38L16.17,72.7A22.09,22.09,0,0,0,14.64,75.13Z"/><path class="cls-3" d="M96.11,126.24c4.5-15.19,0-29.91-10-32.88s-21.78,7-26.28,22.15,0,29.92,10,32.88S91.61,141.44,96.11,126.24Z"/><path class="cls-7" d="M86.24,93.44c-5.77-1.7-12.12.89-17.32,6.3a12.1,12.1,0,0,1,2.65.48c10,3,14.44,17.63,10,32.78a38.9,38.9,0,0,1-8.87,15.79c9.32.7,19.45-8.74,23.54-22.56C100.68,111.08,96.23,96.4,86.24,93.44Z"/><path class="cls-8" d="M86.32,92.71c-10.25-3-22.29,7.12-26.9,22.67S59.39,146,69.64,149s22.29-7.12,26.9-22.67S96.57,95.75,86.32,92.71ZM95,125.52c-4.26,14.37-15.39,23.75-24.86,21s-13.7-16.73-9.44-31.11S76.07,91.61,85.54,94.42,99.24,111.15,95,125.52Z"/><path class="cls-9" d="M50.45,59.35l-7.63,2.41C43.61,73.55,50.67,79,50.67,79l6.74-.1,1.06-1.58S51.65,71.06,50.45,59.35Z"/><path class="cls-10" d="M49.58,59.35,42,61.76C42.74,73.55,49.8,79,49.8,79l6.75-.1L57.6,77.3S50.78,71.06,49.58,59.35Z"/><path class="cls-11" d="M7.74,105.19c2.61,15.93,10.72,35.48,19.26,43,0,0,18.68-21.87,20.42-33.74C21.57,95,9.45,90.77,7.74,105.19Z"/><path class="cls-4" d="M9.33,104.46c2.61,15.93,10.72,35.49,19.26,43,0,0,18.69-21.87,20.42-33.75C23.16,94.3,11,90,9.33,104.46Z"/><path class="cls-2" d="M60.38,116.48c2.11,5.75,10.21,8.09,25.63,10l.37-4.44S71,109.7,66.72,108.89C61.74,107.94,60.38,116.48,60.38,116.48Z"/><path class="cls-12" d="M82.38,124.46c-7.64-1.1-13.6-3.62-13.31-5.64a13.16,13.16,0,0,1,3.85-6.69c-2.59-1.69-4.91-3-6.2-3.24-5-1-7.61,8.34-7.61,8.34,2.11,5.74,11.48,7.34,26.9,9.2l.13-1.57C84.94,124.78,83.68,124.65,82.38,124.46Z"/><path class="cls-13" d="M46.55,91.43c-3.66,15.77,5.87,22.51,10,27.13.91,1,15-5.91,15.73-9,.35-1.58-13.51-21.9-16.54-25S48.2,84.33,46.55,91.43Z"/><path class="cls-14" d="M59,123.87s-26.17,2-30.25,10.55S20.27,185.65,21,207.48h1.24s2.28-8.09,9.74-18.74C39.88,177.42,47,156,47,156l1.56-.46s3.17,8.51,8.21,18.87c7.24,14.9,20,32.93,20,32.93H78.2C74.65,173.39,59,123.87,59,123.87Z"/><path class="cls-15" d="M50.54,153.71l-4.35,1.44s-9.75,35.29-22,39.69c-2.87,1,3.44-37,3.44-37,13.26-3.67,30.28-12.36,36.7-15.86C61.21,130.76,59,123.87,59,123.87s-27.27,2.44-31.36,11S20.27,185.65,21,207.48h1.24s3-7.45,10.45-18.1c7.93-11.32,15-32.92,15-32.92l.87.09a121.28,121.28,0,0,0,7.34,18.74c7.24,14.89,20.93,32,20.93,32H78.2c-.23-2.15-.5-4.37-.82-6.63C63.47,193.44,50.54,153.71,50.54,153.71Z"/><path class="cls-15" d="M41.46,155.69c7.53,1.54,11.3-.29,14.87-4.54Z"/><path class="cls-15" d="M64.54,170.75s-2.32,10,.29,17.57l8.2,11.2C65.5,182.62,64.54,170.75,64.54,170.75Z"/><path class="cls-15" d="M30,172.66s-6,6-7.77,12.82L22.4,198C25.21,181.74,30,172.66,30,172.66Z"/><g class="cls-16"><path class="cls-17" d="M25.28,167.33l-2.73-1.5c-.21,2.43-.41,4.91-.59,7.41l.07,0Z"/><path class="cls-17" d="M29.14,160.31l-5.73-3.14c-.27,2.36-.51,4.8-.74,7.32l3.21,1.76Z"/><path class="cls-17" d="M33,153.29l-6.71-3.68-2.53,4.6c-.06.54-.13,1.08-.19,1.63l6.17,3.39Z"/><rect class="cls-17" x="28.47" y="143.57" width="6.77" height="7.66" transform="translate(-112.7 104.44) rotate(-61.25)"/><rect class="cls-17" x="32.32" y="136.55" width="6.77" height="7.66" transform="translate(-104.54 104.17) rotate(-61.25)"/><rect class="cls-17" x="36.17" y="129.52" width="6.77" height="7.66" transform="translate(-96.39 103.9) rotate(-61.25)"/><path class="cls-17" d="M48.31,125.36a73.36,73.36,0,0,0-9.39,2.37l6.22,3.41Z"/><path class="cls-17" d="M21,192.39c0,.61,0,1.21-.05,1.8l.77-1.4Z"/><path class="cls-17" d="M25.59,185.77l-4.24-2.32c-.12,2.56-.22,5.09-.3,7.55l1.28.7Z"/><path class="cls-17" d="M29.44,178.75l-6.72-3.69-1,1.84c-.11,1.73-.21,3.45-.3,5.17l4.76,2.61Z"/><rect class="cls-17" x="24.92" y="169.02" width="6.77" height="7.66" transform="translate(-136.86 114.54) rotate(-61.25)"/><rect class="cls-17" x="28.77" y="162" width="6.77" height="7.66" transform="translate(-128.7 114.27) rotate(-61.25)"/><rect class="cls-17" x="32.62" y="154.98" width="6.77" height="7.66" transform="translate(-120.55 114) rotate(-61.25)"/><rect class="cls-17" x="36.47" y="147.96" width="6.77" height="7.66" transform="translate(-112.39 113.74) rotate(-61.26)"/><rect class="cls-17" x="40.32" y="140.94" width="6.77" height="7.66" transform="translate(-104.24 113.47) rotate(-61.25)"/><rect class="cls-17" x="44.18" y="133.92" width="6.77" height="7.66" transform="translate(-96.08 113.2) rotate(-61.25)"/><rect class="cls-17" x="48.03" y="126.89" width="6.77" height="7.66" transform="translate(-87.92 112.93) rotate(-61.25)"/><path class="cls-17" d="M59.2,124.48l-.19-.61s-3.68.29-8.48,1.09L57,128.51Z"/><path class="cls-17" d="M21,207.48h1.24s.62-1.54,2-4.2l-3.33-1.82C20.89,203.59,20.92,205.62,21,207.48Z"/><path class="cls-17" d="M20.91,197.36c0,.91,0,1.81,0,2.69l3.89,2.13c.87-1.64,2-3.62,3.36-5.88L23,193.5Z"/><path class="cls-17" d="M23.62,192.41l5.17,2.84c1.1-1.75,2.34-3.65,3.75-5.67l-5.66-3.1Z"/><path class="cls-17" d="M27.47,185.39l5.77,3.16c1.18-1.76,2.33-3.74,3.45-5.83l-6-3.27Z"/><path class="cls-17" d="M31.32,178.37l5.94,3.26c1-2,2-4.06,3-6.11l-5.63-3.09Z"/><path class="cls-17" d="M35.17,171.35l5.54,3c1-2.16,1.85-4.29,2.64-6.28l-4.92-2.7Z"/><path class="cls-17" d="M39,164.33,43.81,167c1-2.45,1.78-4.65,2.41-6.4l-3.94-2.16Z"/><path class="cls-17" d="M46.13,151.37l-3.25,5.93,3.76,2.07c.64-1.82,1-2.91,1-2.91l.87.09s.42,1.53,1.29,4.07l3.05-5.57Z"/><rect class="cls-17" x="48.33" y="145.33" width="6.77" height="7.66" transform="translate(-103.93 122.76) rotate(-61.25)"/><rect class="cls-17" x="52.18" y="138.31" width="6.77" height="7.66" transform="translate(-95.77 122.5) rotate(-61.25)"/><path class="cls-17" d="M54.43,136.24l6.72,3.68,1.71-3.13-1.25-4.34-3.92-2.15Z"/><path class="cls-17" d="M61.11,130.77c-.52-1.76-1-3.22-1.3-4.33l-1.53,2.78Z"/><path class="cls-17" d="M50.63,163c.88,2.42,2,5.39,3.52,8.68L57,166.46Z"/><rect class="cls-17" x="52.48" y="156.74" width="6.77" height="7.66" transform="translate(-111.78 132.33) rotate(-61.25)"/><rect class="cls-17" x="56.33" y="149.72" width="6.77" height="7.66" transform="translate(-103.62 132.06) rotate(-61.25)"/><path class="cls-17" d="M58.59,147.65l6.71,3.68,1-1.92c-.57-2.15-1.13-4.19-1.67-6.14l-2.84-1.56Z"/><path class="cls-17" d="M64.22,141.61h0l-.12-.41c-.22-.82-.45-1.61-.66-2.38l-1,1.82Z"/><path class="cls-17" d="M55.64,174.85c.07.15.13.29.21.44,1,2.05,2.12,4.14,3.31,6.23l2-3.65Z"/><rect class="cls-17" x="56.63" y="168.15" width="6.77" height="7.66" transform="translate(-119.63 141.89) rotate(-61.25)"/><rect class="cls-17" x="60.49" y="161.13" width="6.77" height="7.66" transform="translate(-111.47 141.62) rotate(-61.25)"/><path class="cls-17" d="M62.74,159.06l6.71,3.69.22-.41c-.7-2.87-1.41-5.66-2.11-8.35L66,153.13Z"/><path class="cls-17" d="M67.13,152.34c-.07-.29-.15-.58-.23-.87l-.31.57Z"/><path class="cls-17" d="M63.13,188.09l1.53,2.37.65-1.17Z"/><path class="cls-17" d="M69.16,182.26l-6.72-3.68L60,183q.87,1.47,1.77,2.94l4.11,2.25Z"/><path class="cls-17" d="M63,177.5l6.71,3.68,3-5.52c0-.2-.09-.41-.14-.62l-6.34-3.48Z"/><path class="cls-17" d="M66.89,170.48l5.4,3c-.67-3-1.36-6-2.06-8.86l-.08,0Z"/><path class="cls-17" d="M66.6,190l-1,1.86c1.7,2.55,3.37,4.93,4.88,7l2.85-5.2Z"/><path class="cls-17" d="M67.19,188.91l6.71,3.68,1.68-3.05c-.26-1.39-.52-2.78-.79-4.19L70.45,183Z"/><path class="cls-17" d="M74.47,183.77c-.39-2-.79-4-1.21-5.92l-2.22,4Z"/><path class="cls-17" d="M73.36,202.84c1.49,2,2.6,3.41,3.11,4.06l1-1.81Z"/><path class="cls-17" d="M76.6,195.48l-2-1.09-3.19,5.81.2.27,6.19,3.39C77.46,201.14,77.06,198.34,76.6,195.48Z"/><path class="cls-17" d="M76.34,193.93c-.11-.69-.23-1.38-.35-2.07l-.8,1.44Z"/></g><path class="cls-13" d="M22.12,154.38c12.36.39,43.4-14.58,43.4-14.58L60,121.7s-29.78,8-32.1,10.28S22.12,154.38,22.12,154.38Z"/><path class="cls-18" d="M46.67,132c9.91-3.71,15.22,3,17.34,8.48,1-.44,1.51-.71,1.51-.71L60,121.7s-29.78,8-32.1,10.28-5.8,22.4-5.8,22.4a26.38,26.38,0,0,0,5.47-.53C29.2,145.84,36.93,135.68,46.67,132Z"/><path class="cls-19" d="M60.46,123.13,60,121.7s-29.78,8-32.1,10.28a5.78,5.78,0,0,0-1,1.82C36.63,135.67,54.59,129.37,60.46,123.13Z"/><path class="cls-13" d="M26,88.1c-1.91,5.71-.74,35.15,2.53,43.88,1.29,3.44,33.44-4.17,32.66-12.17-.91-9.35-2.34-30.68-5.46-35.24C53,80.62,27.58,83.32,26,88.1Z"/><path class="cls-18" d="M59.76,104.67a101,101,0,0,0-.24,13.84c.78,8-26.67,13.14-28,9.71-3.27-8.74-4.15-36.58-2.24-42.3a1.81,1.81,0,0,1,.22-.44c-1.91.76-3.23,1.64-3.55,2.62-1.91,5.71-1.64,35.53,1.63,44.26,1.29,3.44,34.34-4.55,33.56-12.55C60.81,116.07,60.37,110.41,59.76,104.67Z"/><path class="cls-2" d="M9.79,117.45c-5.34,3.8-5.61,12.57-4.73,29.68l3.9,2S19,126.48,19.09,121.67C19.15,116.05,9.79,117.45,9.79,117.45Z"/><path class="cls-12" d="M10.8,123.8s4.52.17,7.37,2.06a17.75,17.75,0,0,0,.92-4.19c.06-5.62-9.64-6-9.64-6-5.34,3.8-5.27,14.33-4.39,31.44l1,.51C5.65,135,6.31,127,10.8,123.8Z"/><path class="cls-13" d="M26.57,87.08C11.5,93,7.19,110.47,5.71,116.48c1.28,2,14.7,9.08,18,8.79,1.51-.61,10.91-21.48,11.71-25.71S33.35,84.41,26.57,87.08Z"/><path class="cls-18" d="M26.57,87.08C11.5,93,7.19,110.47,5.71,116.48A6.9,6.9,0,0,0,7.4,118c2.87-6.78,7.14-9.86,11.08-8.43,4.19,1.52,10.24,4.25,3.57,15.21a1.54,1.54,0,0,0-.11.3,5.72,5.72,0,0,0,1.75.23c1.51-.61,11.27-20.51,12.07-24.74S33.35,84.41,26.57,87.08Z"/><path class="cls-18" d="M8,107c20.48,6.14,43.18-1.25,46.66-10.91,1.67-4.65-21.53-.38-22.26-12.19C28.23,83.92,9.62,89.06,8,107Z"/><path class="cls-18" d="M46.34,82.52c5.74,1.62,6.59,7.9,6.73,10.94L55,91.94C56.22,85,55.12,82,46.34,82.52Z"/><path class="cls-11" d="M47,81.34C53.43,82.11,53.89,92,53.89,92l.87.29s2.41-6,.68-8.89S47,81.34,47,81.34Z"/><path class="cls-2" d="M33.47,85.73c.21-3.69,0-12.84,0-12.84l13.78-1.54,1.23,12.16C44.85,87.13,40.06,88.47,33.47,85.73Z"/><path class="cls-11" d="M7.74,105.19c20.48,6.14,43.23-2.25,46-9.41,1.76-4.62-20.84-1.89-21.57-13.69C27.94,82.09,9.33,87.23,7.74,105.19Z"/><path class="cls-2" d="M77.35,212.41h14c-.58-2.51-11.39-2.32-13.51-6.95H75.71C77.35,209.32,75.9,209.9,77.35,212.41Z"/><path class="cls-2" d="M23.39,212.41H9.74c.56-2.51,9-2.51,11-7.15h2.07C22.51,209.61,24.35,211.06,23.39,212.41Z"/><polygon class="cls-20" points="10.39 24.73 5.59 21.14 3.41 0 12.93 19.3 10.39 24.73"/><polygon class="cls-21" points="10.39 24.73 5.59 21.14 3.41 0 10.39 24.73"/><polygon class="cls-20" points="8.09 43.19 4.1 40.05 2.71 21.68 10.37 38.48 8.09 43.19"/><polygon class="cls-21" points="8.09 43.19 4.1 40.05 2.71 21.68 8.09 43.19"/><path class="cls-19" d="M42.62,144.5c-.2-5.94,2.73-13.18,2.85-13.48l.24-.58.55.28c.2.1,4.83,2.47,5.43,9.86l-1.15.09c-.43-5.26-3.08-7.73-4.25-8.57-.7,1.91-2.67,7.67-2.51,12.37Z"/><path class="cls-22" d="M14.47,90.56l-.12.13.14-.1Z"/><path class="cls-22" d="M18.94,87.47l-.26-.38A29.78,29.78,0,0,0,15.08,90l.1.15Z"/><path class="cls-22" d="M22.85,84.73a30.6,30.6,0,0,0-3.46,1.91l.24.35Z"/><path class="cls-22" d="M8.48,101c-.14.54-.27,1.1-.37,1.67l1-.73Z"/><path class="cls-22" d="M13.6,98.78,11,95a23.2,23.2,0,0,0-2.19,4.89l1.05,1.49Z"/><path class="cls-22" d="M18.05,95.66l-3-4.25-3.16,2.21-.45.65,2.82,4Z"/><rect class="cls-22" x="16.83" y="89.13" width="4.6" height="5.2" transform="matrix(0.82, -0.57, 0.57, 0.82, -49.18, 27.58)"/><rect class="cls-22" x="21.28" y="86.01" width="4.6" height="5.2" transform="translate(-46.58 29.57) rotate(-35.02)"/><path class="cls-22" d="M27.64,88.94l3.77-2.64-2.6-3.7c-.61.15-1.27.33-2,.55l-2.19,1.53Z"/><path class="cls-22" d="M33,85.2a7.81,7.81,0,0,1-.83-3.11,13.05,13.05,0,0,0-2.44.31l2.39,3.42Z"/><path class="cls-22" d="M7.88,104c0,.39-.11.77-.14,1.18,1.48.44,3,.8,4.48,1.1l-2.5-3.57Z"/><rect class="cls-22" x="11.48" y="100.45" width="4.6" height="5.2" transform="translate(-56.64 26.56) rotate(-35.02)"/><rect class="cls-22" x="15.93" y="97.33" width="4.6" height="5.2" transform="translate(-54.04 28.55) rotate(-35.02)"/><rect class="cls-22" x="20.39" y="94.21" width="4.6" height="5.2" transform="translate(-51.45 30.54) rotate(-35.02)"/><rect class="cls-22" x="24.84" y="91.09" width="4.6" height="5.2" transform="translate(-48.85 32.53) rotate(-35.02)"/><rect class="cls-22" x="29.29" y="87.97" width="4.6" height="5.2" transform="translate(-46.25 34.52) rotate(-35.02)"/><path class="cls-22" d="M35.65,90.9l2-1.42a10.81,10.81,0,0,1-4.19-3.41l-.81.57Z"/><path class="cls-22" d="M47,81.34a5.85,5.85,0,0,1,1,.21l-.19-.28C47.32,81.3,47,81.34,47,81.34Z"/><path class="cls-22" d="M49.44,81.24H48.8l.21.3Z"/><path class="cls-22" d="M14.79,106.73c1.58.23,3.15.4,4.72.49l-1.78-2.54Z"/><path class="cls-22" d="M22.18,101.56l-3.77,2.64,2.15,3.06c.83,0,1.65.06,2.46,0l2.14-1.5Z"/><rect class="cls-22" x="23.94" y="99.29" width="4.6" height="5.2" transform="translate(-53.71 33.5) rotate(-35.02)"/><rect class="cls-22" x="28.39" y="96.17" width="4.6" height="5.2" transform="translate(-51.12 35.49) rotate(-35.02)"/><rect class="cls-22" x="32.85" y="93.05" width="4.6" height="5.2" transform="translate(-48.52 37.48) rotate(-35.02)"/><path class="cls-22" d="M39.21,96,43,93.33l-1.7-2.42A25.24,25.24,0,0,1,38.71,90l-2.49,1.75Z"/><path class="cls-22" d="M45,91.91c-.8-.19-1.63-.39-2.44-.62l1.09,1.56Z"/><path class="cls-22" d="M55.44,83.41c-.8-1.33-2.65-1.87-4.41-2.07l-1.41,1a8.86,8.86,0,0,1,3.07,4.19l3.13-2.19A4.68,4.68,0,0,0,55.44,83.41Z"/><path class="cls-22" d="M24.82,107.28l1.32-.07-.41-.58Z"/><path class="cls-22" d="M26.42,106.15l.7,1c1.77-.13,3.51-.34,5.19-.61l-2.12-3Z"/><path class="cls-22" d="M34.64,100.39,30.88,103l2.34,3.34c.93-.16,1.85-.35,2.74-.55l1.66-1.17Z"/><rect class="cls-22" x="36.4" y="98.12" width="4.6" height="5.2" transform="translate(-50.79 40.44) rotate(-35.02)"/><rect class="cls-22" x="40.86" y="95" width="4.6" height="5.2" transform="translate(-48.19 42.43) rotate(-35.02)"/><path class="cls-22" d="M47.22,97.93,51,95.29l-1.71-2.44c-.9-.21-1.9-.42-2.94-.65l-2.1,1.47Z"/><path class="cls-22" d="M54.68,92.27l.08,0s.11-.28.26-.72l-1.47-2.1a20.69,20.69,0,0,1,.34,2.45l-.64,1.77,1.25-.87Z"/><path class="cls-22" d="M52.81,94a10.68,10.68,0,0,0-2.29-.85l1.15,1.65Z"/><path class="cls-22" d="M55.34,90.57A14.67,14.67,0,0,0,56,85.41l-2.88,2Z"/><path class="cls-22" d="M38.88,105l0,.06c1.6-.47,3.11-1,4.52-1.56l-.8-1.14Z"/><path class="cls-22" d="M43.34,101.87l.9,1.28a32.57,32.57,0,0,0,4.14-2.1L47.1,99.23Z"/><path class="cls-22" d="M47.79,98.75l1.3,1.85a15.44,15.44,0,0,0,3.51-3l-1.05-1.49Z"/><path class="cls-22" d="M52.24,95.63l.88,1.25a6.24,6.24,0,0,0,.59-1.1,1.28,1.28,0,0,0,.06-.74l.21-.63Z"/><path class="cls-3" d="M51.19,93.07a2.8,2.8,0,1,0,2.8-2.8A2.8,2.8,0,0,0,51.19,93.07Z"/><polygon class="cls-22" points="9.19 40.92 6.4 41.71 8.2 48.99 10.56 48.32 9.19 40.92"/><polygon class="cls-22" points="11.26 22.43 8.47 23.22 10.27 30.5 12.64 29.83 11.26 22.43"/><g class="cls-23"><path class="cls-17" d="M55.07,82.93c-1.45-1.56-4.69-1.77-6.81-1.68L47.32,72q-1.37-.18-2.79-.3L33.47,72.89s.11,4.91.09,9c-.48.06-1,.14-1.42.22h0c-3,0-14.69,2.83-20.87,12.5C34.55,106.22,57,89.88,55.07,82.93Z"/></g><path class="cls-3" d="M51.66,58.81a4.64,4.64,0,0,0,2.14,4.51s-2.83,2.1-4.5-.55C48.58,61.63,51.66,58.81,51.66,58.81Z"/><path class="cls-3" d="M51.48,57a4.64,4.64,0,0,0,3.84,3.2S53.63,63.28,51,61.58C49.86,60.85,51.48,57,51.48,57Z"/><path class="cls-2" d="M35.79,62.75c-.29,6.52-.28,13.64,6.2,17,2.11,1.1,7.18.58,9.85.29,2.73-6.93-1.07-20.05-1.51-21.79S35.79,62.75,35.79,62.75Z"/><polygon class="cls-3" points="50.97 64.85 53.65 63.95 54.01 65.9 51.26 66.52 50.97 64.85"/><path class="cls-24" d="M50.75,64.2s4.06,6.3,4.42,7.1S51,72.67,51,72.67Z"/><path class="cls-2" d="M49.81,64.06s4.06,6.3,4.42,7.09-4.13,1.38-4.13,1.38Z"/><path class="cls-25" d="M48.47,66.54c0-.87-.44-1.58-1-1.58s-1,.71-1,1.58.45,1.57,1,1.57S48.47,67.41,48.47,66.54Z"/><polygon class="cls-3" points="43.33 63.93 50.37 64.72 50.54 66.33 43.53 66.41 43.33 63.93"/><path class="cls-3" d="M44.89,77.16c.76-3.15,4.34-4.49,6.15-4.49a4.87,4.87,0,0,1,4.35,4C51.83,74.88,48.8,75.35,44.89,77.16Z"/><path class="cls-24" d="M51.59,76.91c0-.22-.55-.69-1.38-.69s-1.63.47-1.63.69.84,0,1.67,0S51.59,77.13,51.59,76.91Z"/><path class="cls-3" d="M38.55,60.8A4.65,4.65,0,0,0,42,64.37s-2,2.91-4.43.94C36.56,64.47,38.55,60.8,38.55,60.8Z"/><path class="cls-3" d="M38.08,66.23A4.64,4.64,0,0,0,40,70.86s-3,1.93-4.47-.81C34.83,68.87,38.08,66.23,38.08,66.23Z"/><path class="cls-3" d="M37.09,63.32a4.66,4.66,0,0,0,3.84,3.2s-1.69,3.09-4.32,1.38C35.48,67.17,37.09,63.32,37.09,63.32Z"/><path class="cls-26" d="M47.76,80.42C41.75,75.1,40.3,70,40.3,70l11.51-5.49c0-.15-.06-.31-.09-.45a4.5,4.5,0,0,0,2.08-.78,3.93,3.93,0,0,1-1.28-1.24c1.74,0,2.8-1.89,2.8-1.89a3.52,3.52,0,0,1-1.21-.31,14.88,14.88,0,0,0-.42-1.69c-.42.05-.9.13-1.4.22A5.76,5.76,0,0,1,51.48,57a16.34,16.34,0,0,0-.59,1.73l-.41.1c-.07-.24-.12-.43-.15-.55-.43-1.74-14.54,4.48-14.54,4.48,0,.66-.06,1.33-.07,2-1.75.89-3.55,1.88-5.37,3L31,69.36c1.57-1,3.14-1.84,4.66-2.66a24.37,24.37,0,0,0,.69,5.86l-2.92.33s0,.11,0,.26c0,.38,0,1.16,0,2.15A19,19,0,0,0,47.76,80.42Z"/><path class="cls-27" d="M37.93,81.8l-.15-.1c-.31-.22-7.59-5.39-9.18-16.55l-.07-.51,8.52-2.56.11.62a29.66,29.66,0,0,0,9,16.54l.38.31-1.39,2.19ZM29.82,65.45a24.32,24.32,0,0,0,8.51,15.19l6.17,0,.5-.78a30.55,30.55,0,0,1-8.87-16.26Z"/><path class="cls-28" d="M35.75,62.82l-7.41,2.23c1.58,11,9,16.17,9,16.17L44,81.16l.94-1.47A29.94,29.94,0,0,1,35.75,62.82Z"/><path class="cls-9" d="M37.09,81.8,37,81.7c-.31-.22-7.59-5.39-9.19-16.55l-.07-.51,8.52-2.56.11.62a29.73,29.73,0,0,0,9,16.54l.39.31-1.39,2.19ZM29,65.45a24.37,24.37,0,0,0,8.5,15.19l6.18,0,.49-.78A30.63,30.63,0,0,1,35.3,63.55Z"/><path class="cls-9" d="M26.83,71.77C38.13,64,49.49,60,53.74,59.74c0,0-3.42-18.94-20.73-12.85C16.94,52.54,26.83,71.77,26.83,71.77Z"/><path class="cls-28" d="M42.19,57.34c-6.33-1.06-11-5.23-11.1-9.64-13.3,6.47-4.26,24.07-4.26,24.07C38.13,64,49.49,60,53.74,59.74a21.94,21.94,0,0,0-1.26-4A15.11,15.11,0,0,1,42.19,57.34Z"/><path class="cls-29" d="M34.47,47l-.62.22c.52,3.36,4.76,6.15,10.06,6.41a14.39,14.39,0,0,0,6.24-1C47.78,48.49,43.19,44.45,34.47,47Z"/><path class="cls-30" d="M25.84,70.52c.44,1.06.76,1.69.76,1.69,11.57-7.92,23.18-12.08,27.52-12.3,0,0-.12-.67-.43-1.72C48.81,58.7,37.45,62.86,25.84,70.52Z"/><path class="cls-30" d="M49.45,59.42c.58-.15,1.12-.27,1.56-.34,0,0-3.29-17.37-19.61-11.56C44.33,44.36,48.63,56.57,49.45,59.42Z"/><path class="cls-9" d="M36,71.73a2.12,2.12,0,0,0-1.91-2,1.59,1.59,0,0,0-1.43,2,2.12,2.12,0,0,0,1.9,2A1.6,1.6,0,0,0,36,71.73Z"/><path class="cls-9" d="M38,75.79a1.09,1.09,0,0,0-1-1,.81.81,0,0,0-.73,1,1.08,1.08,0,0,0,1,1A.82.82,0,0,0,38,75.79Z"/><path class="cls-27" d="M39.87,62.74a104.8,104.8,0,0,0-14,7.78c.44,1.06.76,1.69.76,1.69a96.64,96.64,0,0,1,13.85-7.87A8.71,8.71,0,0,1,39.87,62.74Z"/><path class="cls-9" d="M26.11,57.86a17.41,17.41,0,0,1,1.12-6.19c-5.85,6.42-.15,17.52-.15,17.52.72-.49,1.44-1,2.16-1.42A16.8,16.8,0,0,1,26.11,57.86Z"/><path class="cls-18" d="M34.22,126c9.17.38,21.05-5.89,21.05-5.89s-9,5.69-12.84,6.56A17.14,17.14,0,0,1,34.22,126Z"/><path class="cls-7" d="M70.67,125.37c-2-2.16-1.38-6.54.39-9.27s4.2-3.57,6.89-2.68l-.37,1.1A4.63,4.63,0,0,0,72,116.73c-1.68,2.57-1.92,6.31-.51,7.86Z"/><path class="cls-7" d="M76.85,128.36c-2-2.16-1.38-6.54.39-9.26s4.2-3.58,6.89-2.68l-.37,1.1a4.63,4.63,0,0,0-5.55,2.21c-1.67,2.56-1.91,6.31-.5,7.86Z"/><polygon class="cls-7" points="75.95 207.51 74.29 204.4 78.49 203.46 79.36 206.86 75.95 207.51"/><polygon class="cls-7" points="20.19 205.77 20.34 203.24 24.68 203.89 23.16 207.66 20.19 205.77"/><path class="cls-12" d="M80.9,117.77s1.71,1.4,2.75,1.18a29.42,29.42,0,0,1,6-.72c.73,0,3.13,2.87,3.83,4-.85.22-5.22,5.08-5.22,5.08a20.3,20.3,0,0,1-5.3-1.73C85.75,122,80.9,117.77,80.9,117.77Z"/><path class="cls-2" d="M83.65,119c2.6-1.6,5.3-2.93,6.51-2.7s1.8,2,2,2.9-2.57,2.78-3.12,3-1.58-.8-1.35-1.28,1.54-1.52,1.37-1.76a1.74,1.74,0,0,0-.57-.41S84.74,120.66,83.65,119Z"/><path class="cls-2" d="M89.28,121.86c-.33-.85,1-1.89,1.49-1.64s3.44,1.36,3.37,2-1,1.82-1.45,1.73S89.55,122.55,89.28,121.86Z"/><path class="cls-2" d="M87.36,123.6c-.32-.85,1-1.9,1.49-1.64s3.44,1.35,3.37,2-1,1.81-1.45,1.73S87.63,124.29,87.36,123.6Z"/><path class="cls-2" d="M85.72,125.49c-.29-.83,1-1.92,1.39-1.69s3.13,1.22,3.06,1.9-.92,1.84-1.35,1.78S86,126.16,85.72,125.49Z"/><path class="cls-3" d="M.08,146.33a1.63,1.63,0,0,0,3.09,1,1.62,1.62,0,0,0-1-2A1.62,1.62,0,0,0,.08,146.33Z"/><polygon class="cls-3" points="9.94 155.72 1.64 147.76 2.27 146.73 11.67 153.27 9.94 155.72"/><path class="cls-20" d="M10.29,156.07,46.08,185s6.54,4.75,8.44,2.21S50,179.7,50,179.7L12.11,153.45Z"/><path class="cls-21" d="M11.1,154.89l-.81,1.18L46.08,185s6.54,4.75,8.44,2.21a2.12,2.12,0,0,0,.11-.21C53.75,186.47,11.1,154.89,11.1,154.89Z"/><polygon class="cls-8" points="8.43 160.22 15.65 151.06 13.66 149.51 6.49 158.29 8.43 160.22"/><path class="cls-2" d="M11.62,142.7s-1.16,3.41-.95,4.42a29.08,29.08,0,0,1,.33,5.56c0,.71-2.77,3-3.85,3.7-.21-.82-4.9-5.06-4.9-5.06s1.1-4.66,2.46-5.63C5.26,145.3,11.62,142.7,11.62,142.7Z"/><path class="cls-2" d="M7.49,152.28c.82-.31,1.83,1,1.58,1.45s-1.31,3.32-2,3.24-1.75-.94-1.67-1.4S6.83,152.54,7.49,152.28Z"/><path class="cls-2" d="M5.82,150.43c.82-.32,1.83,1,1.58,1.44s-1.31,3.32-2,3.25-1.75-.94-1.67-1.4S5.15,150.68,5.82,150.43Z"/><path class="cls-2" d="M4,148.83c.81-.28,1.86.95,1.63,1.35s-1.18,3-1.84,2.95-1.78-.89-1.71-1.31S3.34,149.06,4,148.83Z"/></g></g></g></svg>