<svg xmlns="http://www.w3.org/2000/svg" viewBox="0 0 147.27 229.69"><defs><style>.cls-1{isolation:isolate;}.cls-2{fill:#602e2e;}.cls-3{fill:#db7b33;}.cls-4{fill:#7f4646;}.cls-5{fill:#f4ab42;}.cls-6{fill:#e89038;}.cls-7{fill:#9bb2af;}.cls-8{fill:#bcddd8;}.cls-9{opacity:0.68;}.cls-11,.cls-9{mix-blend-mode:multiply;}.cls-10{fill:#955;}.cls-11{fill:#843131;opacity:0.6;}.cls-12{fill:#3a1d1d;}.cls-13{fill:#542828;}.cls-14{fill:#dbbe93;}.cls-15{fill:#edd6ae;}.cls-16{fill:#4c1f1f;}.cls-17{fill:#b54f45;}.cls-18{fill:#fff1dc;}</style></defs><g class="cls-1"><g id="Layer_2" data-name="Layer 2"><g id="_11" data-name="11"><path class="cls-2" d="M120.55,140.28s1.13,1.28,2,1.24a22.76,22.76,0,0,1,4.68.22c.56.09,2,2.57,2.41,3.51-.67.06-4.62,3.2-4.62,3.2a15.69,15.69,0,0,1-3.81-2c-.41-.34-1.82-.62-2.92-1.18C116.73,144.5,120.55,140.28,120.55,140.28Z"/><path class="cls-3" d="M62.38,190.68C81,188,101.22,170,101.22,170l-23.58-2.29Z"/><path class="cls-4" d="M90.41,147l-8.27,7.9S93.08,177.45,94.23,180s-11.39,24.73-11.39,24.73l.34.65c4.7-5.42,19.63-23.27,20.54-27.32C104.2,175.92,90.41,147,90.41,147Z"/><path class="cls-4" d="M84.35,214.62l-4.23-8.24s5.08-4.5,4.24-2.9C82.29,207.38,86,213.14,84.35,214.62Z"/><path class="cls-2" d="M94,182.23a35.93,35.93,0,0,1,9.1-2.55,6.89,6.89,0,0,0,.67-1.6C104.2,175.92,90.41,147,90.41,147l-8.27,7.9S93.08,177.45,94.23,180A4,4,0,0,1,94,182.23Z"/><path class="cls-4" d="M85.25,109.94c2.92,11.8,11.31,25.52,12.29,26.27s6.82-1,7.37-2.57-5.15-24.82-7.56-28S83.55,103.11,85.25,109.94Z"/><path class="cls-2" d="M95.64,104.51c-4.17-1.74-13-.71-11.53,5.09,2.93,11.8,12.38,26.14,13.36,26.89.5.38,1.87-1.22,3.58-1.86C96.5,125,97.59,107.07,95.64,104.51Z"/><path class="cls-4" d="M96.11,132.65c1.83,6.09,8.27,8.4,24.38,13.38l2.44-4s-15.89-11.74-19-15.42C100.33,122.39,96.11,132.65,96.11,132.65Z"/><path class="cls-2" d="M98.38,126.48c-2,2.26-3.06,6.78-3.06,6.78,1.83,6.09,9.06,7.79,25.17,12.77l1.74-1.84C107.83,136.57,100.16,133,98.38,126.48Z"/><path class="cls-4" d="M72.94,145.65l-10.58,3.22s5.6,35.53,5,39.37c-.65,4.17-13.11,37.3-13.11,37.3l.81.22c11.56-19.13,21-34.93,22.42-38S72.94,145.65,72.94,145.65Z"/><path class="cls-2" d="M67.37,188.24a54.88,54.88,0,0,1-1.73,5.84,31.24,31.24,0,0,1,9.43-1.86c1.24-2.18,2.08-3.74,2.42-4.51,1.38-3.11-4.55-42.06-4.55-42.06l-10.58,3.22S68,184.4,67.37,188.24Z"/><path class="cls-4" d="M97,105.32c-2.25-1.67-4.82-3.88-9.14-5.27s-19.09,1.11-20.24,2.77-3.88,16.38-2.67,20c1.14,3.43-2,16-1.19,24.65l23.68-1C85.7,139.44,90.73,124,90.73,124a4,4,0,0,0,2.5-1.11C95.55,119.81,99.29,107,97,105.32Z"/><path class="cls-2" d="M68.83,109.72c1.18,5.85-.15,8.22,4,8.74s8.81.74,8.81.74-11.92,1.48-14.07-.15C66,117.83,68.83,109.72,68.83,109.72Z"/><path class="cls-2" d="M68.53,144.83c-.76-8.6-1.17-19.59-.81-23.19.49-5-.17-16.31,1-18,.07-.1-.86-1.13-1-.85-1.15,1.67-4.4,16.23-3.19,19.86,1.14,3.43-1.44,16.2-.67,24.8l23.68-1c0-.17-.08-.35-.11-.53Z"/><path class="cls-2" d="M97,105.32a36.37,36.37,0,0,0-6.43-4.2c4.67,7.93-19.84,29.33-24.87,26.64a5,5,0,0,1-1-.75,94.13,94.13,0,0,0-.92,20.47l23.68-1C85.7,139.44,90.73,124,90.73,124a4,4,0,0,0,2.5-1.11C95.55,119.81,99.29,107,97,105.32Z"/><path class="cls-5" d="M62.38,190.68c7.71-8.3,38.84-20.68,38.84-20.68s-11-24.7-11-26.43c.49-14.45,6.82-23.56,6.15-40.37L93.22,102C90.38,119,64,133.12,61.69,143.67,59.47,154,62.38,190.68,62.38,190.68Z"/><path class="cls-6" d="M96.41,106.62c0-1.11,0-2.24,0-3.42L93.22,102a20.32,20.32,0,0,1-.82,3.2A8.24,8.24,0,0,1,96.41,106.62Z"/><path class="cls-6" d="M90.23,143.57c.29-8.59,2.64-15.29,4.36-22.84a33.79,33.79,0,0,1-7.24,6.46c-6.54,4.37-13.77,6.28-20.26,8-2.8,3-4.84,5.87-5.4,8.49-2.22,10.37.69,47,.69,47a29.92,29.92,0,0,1,5.17-4.16,77.68,77.68,0,0,1-3.67-16.94c-2-18.71,2.49-33.52,9.91-34.31,6.57-.7,20.48,18.37,25,35.73,1.54-.64,2.46-1,2.46-1S90.17,145.3,90.23,143.57Z"/><path class="cls-4" d="M65.72,116.75c-12.21,0-24.3-4.47-25.23-5.27s-.16-7,1.27-7.9,23.1-.69,27-1.44C73.39,101.24,71.36,116.74,65.72,116.75Z"/><path class="cls-2" d="M65.27,111.86c-12.2,0-23.65-3.43-24.59-4.23a1.47,1.47,0,0,1-.32-.8c-.38,2-.4,4.19.13,4.65.93.8,12.87,6.61,25.08,6.58,2.11,0,3.73-2.32,4.69-5.17C71,110.62,68.11,111.86,65.27,111.86Z"/><path class="cls-4" d="M44.14,112.59c-5.71-1.66-9.51-7.23-17.72-22L28.6,87s16.07,13.45,20.33,15.74C53.8,105.37,44.14,112.59,44.14,112.59Z"/><path class="cls-2" d="M27.45,88.93l-1,1.68c8.21,14.75,11.54,22,17.9,22.46a24.61,24.61,0,0,0,3.74-3C41.81,109,36.92,102.16,27.45,88.93Z"/><path class="cls-4" d="M89.65,101.68c-2.66-4.92-.1-11.23-.1-11.23L77.93,86.61s1.81,10.89-.46,14Z"/><path class="cls-7" d="M146.83,129.33c-2.75,6.48-7.13,3.33-7.54,1l-5.71,5.87c3.34,3.49,1.47,10-2.68,10.62,0,0,9.46,2.7,14.93-7.59A14.68,14.68,0,0,0,146.83,129.33Z"/><path class="cls-8" d="M146.83,129.33c-2.74,6.48-7.1,3.33-7.51,1L136,133.71c2.68,2.53,5.55,7,3.19,12.22a14.57,14.57,0,0,0,7.6-16.6Z"/><path class="cls-4" d="M63.87,229.69H51.21s4.55-7.95,4.61-6.15C56,228.07,65.37,228.09,63.87,229.69Z"/><path class="cls-2" d="M82.68,105.57c-6.3.74-8.52.81-8.37-.67S82.68,105.57,82.68,105.57Z"/><path class="cls-2" d="M84.45,105.49c5.46.59,7.39.65,7.26-.54S84.45,105.49,84.45,105.49Z"/><g class="cls-9"><path class="cls-10" d="M68.53,173.91c.24-1.74.34-4.37-1.78-4.71s-4.17,1.69-5.39,3.2l-.09.12c.2,4.29.43,8.28.64,11.44C64.72,181.64,68,177.53,68.53,173.91Z"/><path class="cls-10" d="M67.23,158.88a1.81,1.81,0,0,0-.79.53,14.6,14.6,0,0,0-2.8,3.81,3.25,3.25,0,0,0-.48,1.83,1.3,1.3,0,0,0,1.25,1.2,1.76,1.76,0,0,0,1-.51,11.7,11.7,0,0,0,.95-.91.59.59,0,0,0,.23,0,1.27,1.27,0,0,0,.61-.56,8,8,0,0,0,1.56-3.2,2.27,2.27,0,0,0-.2-1.54A1.26,1.26,0,0,0,67.23,158.88Z"/><path class="cls-10" d="M79.41,166a3.94,3.94,0,0,0-4.38.57,7.88,7.88,0,0,0-2.33,4c-.47,1.64-1.56,6.54.82,7.2,1.34.37,4.17-1.51,5.37-2.13C82,174,82.68,168,79.41,166Z"/><path class="cls-10" d="M88.48,171.29A2.55,2.55,0,0,0,87,171.1a4.49,4.49,0,0,0-3.28,2.65,8.54,8.54,0,0,0-.61,4.22c2.41-1.15,4.76-2.24,6.95-3.22,0-.19,0-.38-.06-.57A3.52,3.52,0,0,0,88.48,171.29Z"/><path class="cls-10" d="M89.44,167.21a1.18,1.18,0,0,0,.56,0c1-.18,2.18-.5,2.54-1.46a2,2,0,0,0-.5-2,4.48,4.48,0,0,0-1.84-1,12,12,0,0,0-2.07-.51,1.8,1.8,0,0,0-.95,0,1.65,1.65,0,0,0-.81,1.56,3.55,3.55,0,0,0,1.08,2.78A2.51,2.51,0,0,0,89.44,167.21Z"/><path class="cls-10" d="M96.58,165.16a3.5,3.5,0,0,0-.29,1.54,15.56,15.56,0,0,0,.76,5c2.56-1.08,4.17-1.72,4.17-1.72s-1.15-2.57-2.71-6.11A2.66,2.66,0,0,0,96.58,165.16Z"/><path class="cls-10" d="M92.08,148.81a8.13,8.13,0,0,0-2.69.21c-1.25.25-2.63.6-3.28,1.69a3.89,3.89,0,0,0-.27,2.61c.42,2.63,1.89,5.26,4.34,6.29a11.9,11.9,0,0,0,5,.54,1.85,1.85,0,0,0,1.37.51,1.83,1.83,0,0,0,.47-.14C95.33,156.58,93.43,152.17,92.08,148.81Z"/><path class="cls-10" d="M83.08,147.38a3.48,3.48,0,0,0-1.78-1.64,6.06,6.06,0,0,0-8.56,6.32,3.29,3.29,0,0,0,.55,1.52,3.47,3.47,0,0,0,2.37,1.17,7.54,7.54,0,0,0,4.65-.9,4.22,4.22,0,0,0,1.32-1.13,3.19,3.19,0,0,0,.91-1.08,6.26,6.26,0,0,0,.76-2.7A3.45,3.45,0,0,0,83.08,147.38Z"/><path class="cls-10" d="M66.27,154.64l0,0a9.48,9.48,0,0,0,1.55-7.57,3.62,3.62,0,0,0-2.18-2.89,3.83,3.83,0,0,0-3.4,1.26,11.92,11.92,0,0,0-1,1,122.86,122.86,0,0,0-.39,13.33,3.73,3.73,0,0,0,1.7-.64A9.68,9.68,0,0,0,66.27,154.64Z"/><path class="cls-10" d="M64.87,141.39a4.45,4.45,0,0,0,2.7.17,5,5,0,0,0,2.94-1.6l1.19-.63a5,5,0,0,0,1.47-1,1.71,1.71,0,0,0,.41-1.66,2.35,2.35,0,0,0-.74-.89,8.34,8.34,0,0,0-2.59-1.55,6,6,0,0,0-2-.29,39.45,39.45,0,0,0-4.88,5.92A3,3,0,0,0,64.87,141.39Z"/><path class="cls-10" d="M78.09,136.3a9.39,9.39,0,0,0,4.16.49,1.26,1.26,0,0,0,.77-.4,1.46,1.46,0,0,0,.29-1,3.27,3.27,0,0,0-2.16-2.85,5,5,0,0,0-3.72.19,2,2,0,0,0-1,.76,1.58,1.58,0,0,0,.21,1.72A4.31,4.31,0,0,0,78.09,136.3Z"/><path class="cls-10" d="M89.89,129.56a2.35,2.35,0,0,0-2.26,1.4,5.25,5.25,0,0,0-.35,2.78c.15,1.65,1.25,5.43,3.18,6.58A69.41,69.41,0,0,1,92,131.14l-.23-.31A3.14,3.14,0,0,0,89.89,129.56Z"/><path class="cls-10" d="M85.1,128.61a2.26,2.26,0,0,0,.4-1.19,2.84,2.84,0,0,0-.31-2,3.15,3.15,0,0,0-2-1,27.58,27.58,0,0,0-4.42-.66c-1.31,1.29-2.64,2.56-3.95,3.8a30.17,30.17,0,0,0,8,1.62A2.51,2.51,0,0,0,85.1,128.61Z"/><path class="cls-10" d="M88.72,120.26a1.12,1.12,0,0,0-.49.42,1.17,1.17,0,0,0-.13.64c0,1.41,1.17,2.51,2.24,3.44a16.08,16.08,0,0,0,2.76,2c.06-.25.13-.5.19-.75l-.69-.55.69.53c.23-.87.45-1.75.67-2.64a5.6,5.6,0,0,0-.73-1.64C92.26,120.3,90.25,119.44,88.72,120.26Z"/><path class="cls-10" d="M90.66,114.77a2.17,2.17,0,0,0-.39-2.93,3.06,3.06,0,0,0-.87-.51,47.67,47.67,0,0,1-2.87,4C88,115.72,89.9,115.63,90.66,114.77Z"/><path class="cls-10" d="M94.31,108.46a1.53,1.53,0,0,0-1,.44,1.48,1.48,0,0,0-.26.92,8,8,0,0,0,1.27,4.55,1.23,1.23,0,0,0,.64,1.07,1.2,1.2,0,0,0,.33.13l.32.23a64.42,64.42,0,0,0,.78-7.18A4.69,4.69,0,0,0,94.31,108.46Z"/><path class="cls-10" d="M95.62,104.79a3.07,3.07,0,0,0,.77-.71c0-.3,0-.58,0-.88L93.22,102a21.06,21.06,0,0,1-.78,3.08A4.67,4.67,0,0,0,95.62,104.79Z"/></g><path class="cls-11" d="M81.05,110.24c6.71,0,12.62-1.88,16.15-4.72l-.06-.07a1.5,1.5,0,0,0-.11-.13l-.61-.46c0-.55,0-1.1,0-1.66L93.22,102c0,.17-.08.34-.11.5l-.45-.27-.19-.11-.77-.44-.28-.14-.82-.42h0c-.47-.22-1-.43-1.48-.63-1.74-4.68.43-10,.43-10L77.93,86.61s1.66,10-.21,13.52a41.49,41.49,0,0,0-9,2h0a57.16,57.16,0,0,1-6.4.44C64.79,107,72.24,110.24,81.05,110.24Z"/><path class="cls-4" d="M81.51,94c5,5.78,16.89,1.78,16.89,1.78S94.25,67.49,86.11,67C80.12,66.71,72.16,77.5,81.51,94Z"/><path class="cls-12" d="M88.32,79.07c-.25-.89-.94-1.48-1.54-1.32s-.9,1-.65,1.92.93,1.49,1.53,1.32S88.56,80,88.32,79.07Z"/><path class="cls-12" d="M93.21,77.59c-.25-.89-.81-1.52-1.27-1.39s-.63,1-.38,1.84.81,1.52,1.27,1.4S93.45,78.49,93.21,77.59Z"/><path class="cls-13" d="M72.68,85.5c2.52,2.29,5.78,5.4,5.78,5.4L80,86.38,82.6,85l-3-7.56Z"/><path class="cls-14" d="M88,62.6l-.12.08L73.51,23.49S77.6,42.85,82.7,59.11L66.84,26.5s6.09,19,12.85,34.69L60.48,29.29s7.7,18.23,15.8,33.22l-21.79-29s10.81,19.69,21,34.14L48.08,37.19s11,16.45,21.8,29.63L43,42.48s12.74,15.36,24.86,27.4L38.14,47.44S52.08,61.49,65.19,72.37l-31-18.78S50.41,66.92,64.9,76.49L31.79,58S53.73,74.23,69.36,83.28l5.14,3.93c4.9-8.63,9.67-13.45,16.44-16.92Z"/><path class="cls-15" d="M60.81,55.15Q62.52,56.53,64.2,58A96.49,96.49,0,0,1,81.34,77.54a33.45,33.45,0,0,1,9.6-7.25L88,62.6l-.12.08L73.51,23.49S77.6,42.85,82.7,59.11L66.84,26.5s6.09,19,12.85,34.69L60.48,29.29s7.7,18.23,15.8,33.22l-21.79-29s10.81,19.69,21,34.14L48.08,37.19S53.68,45.57,60.81,55.15Z"/><path class="cls-15" d="M45.86,45.07,43,42.48l1.64,2Z"/><path class="cls-4" d="M79.56,83.63C77.75,81.28,73,83,74.72,85.81s5.93,4.64,6.62,3.65S80.55,84.92,79.56,83.63Z"/><path class="cls-16" d="M78.92,84.62c-1.1-1.43-4-.36-2.93,1.31s3.58,2.81,4,2.21S79.51,85.4,78.92,84.62Z"/><path class="cls-4" d="M79.4,85.87c-.76-1-2.77-.25-2,.91s2.49,2,2.78,1.54S79.82,86.41,79.4,85.87Z"/><polygon class="cls-8" points="133.07 135.39 132.05 134.43 133.34 129.67 138.24 128.56 138.9 129.34 133.07 135.39"/><path class="cls-17" d="M141.54,126.57,111,158.39a7.79,7.79,0,0,0-2.11,6.32l33.62-38Z"/><path class="cls-2" d="M89.94,77.72s7,4.81,7.26,7-3.93,1.78-3.93,1.78Z"/><path class="cls-4" d="M88.92,77.45s7,4.81,7.26,7-3.92,1.78-3.92,1.78Z"/><path class="cls-13" d="M89.34,76.11a18.71,18.71,0,0,1-7.11,1.09l-.29,1.73a28,28,0,0,0,8.27-.56Z"/><path class="cls-13" d="M93.3,73.81a19,19,0,0,1-3.51,2l.94,2.23A19.52,19.52,0,0,0,94,75.68Z"/><path class="cls-12" d="M95.22,88.56c-4.49-1.09-10-.45-10.27,1s0,4.15,1.18,4.1,4.75-4.29,9.34-4.19Z"/><path class="cls-18" d="M94.57,88.75c-3.82-.92-8.88-.41-9.09.85s0,3.52,1,3.48,4.33-4,8.23-4Z"/><path class="cls-12" d="M88,89.83s-2.63.33-2.55-.52a2.48,2.48,0,0,0-.26,2.37c.44,1.63,1,1.44,1,1.44C85.23,91.57,86.12,90.2,88,89.83Z"/><path class="cls-4" d="M121.9,141.48c2.18-.89,5-1.51,5.89-1.19s1.11,1.79,1.12,2.46-2.3,1.79-2.75,1.87-1.1-.81-.86-1.15,1.36-1,1.26-1.16a1.26,1.26,0,0,0-.38-.38S122.51,142.92,121.9,141.48Z"/><path class="cls-4" d="M126.41,144.45c-.14-.69,1-1.31,1.34-1.06s2.44,1.47,2.3,2-1,1.25-1.32,1.13S126.52,145,126.41,144.45Z"/><path class="cls-4" d="M124.73,145.53c-.14-.69,1-1.31,1.34-1.06s2.44,1.46,2.3,2-1,1.26-1.32,1.14S124.85,146.08,124.73,145.53Z"/><path class="cls-4" d="M123.24,146.76c-.11-.67,1-1.34,1.27-1.11s2.23,1.32,2.09,1.83-.93,1.28-1.26,1.18S123.33,147.3,123.24,146.76Z"/><path class="cls-2" d="M31.54,89.46a10.61,10.61,0,0,1-1.65-2.54,21.16,21.16,0,0,0-1.4-4.42c-.23-.51-3-1.27-4-1.41.12.66-1.91,5.25-1.91,5.25a15.4,15.4,0,0,0,2.89,3.13c.44.31,1.07,1.59,1.89,2.5C28.49,93.21,31.54,89.46,31.54,89.46Z"/><polygon class="cls-17" points="52.34 13.26 0 150.15 0.99 153.31 53.13 13.46 52.34 13.26"/><polygon class="cls-8" points="51.65 16.6 50.45 12.63 57.92 0 55.28 14.62 51.65 16.6"/><polygon class="cls-7" points="51.65 16.6 50.45 12.63 57.92 0 51.65 16.6"/><path class="cls-4" d="M30.09,87.48c.3-2.31.19-5.17-.36-5.94s-2-.6-2.65-.44S25.93,83.77,26,84.21s1.06.85,1.33.53.58-1.55.8-1.51a1.39,1.39,0,0,1,.46.27S28.54,87.27,30.09,87.48Z"/><path class="cls-4" d="M26.07,83.93c.7,0,1-1.32.68-1.56s-2-2-2.5-1.69-1,1.25-.76,1.56S25.5,84,26.07,83.93Z"/><path class="cls-4" d="M25.46,85.81c.7,0,1-1.32.68-1.55s-2-2-2.5-1.69-1,1.25-.76,1.55S24.89,85.85,25.46,85.81Z"/><path class="cls-4" d="M24.65,87.56c.67-.06,1-1.29.74-1.5s-1.84-1.8-2.3-1.53-1,1.22-.82,1.51S24.1,87.61,24.65,87.56Z"/></g></g></g></svg>