<svg xmlns="http://www.w3.org/2000/svg" viewBox="0 0 109.1 205.21"><defs><style>.cls-1{isolation:isolate;}.cls-2{fill:#ffb882;}.cls-3{fill:#844134;}.cls-4{fill:#723128;}.cls-5{fill:#ff9566;}.cls-6{fill:#bf854b;}.cls-7{fill:#66302c;}.cls-8{fill:#ff794a;}.cls-9{fill:#969b3a;}.cls-10{fill:#84842c;}.cls-11,.cls-15,.cls-16,.cls-20{mix-blend-mode:multiply;}.cls-12,.cls-15{fill:#75a9cc;}.cls-13{opacity:0.3;mix-blend-mode:overlay;}.cls-14{fill:#ffe9d3;}.cls-16{opacity:0.6;}.cls-17{fill:#843131;}.cls-18{fill:#e23013;}.cls-19{fill:#ff5d31;}.cls-20{fill:#6db8e2;}.cls-21{fill:#542623;}.cls-22{fill:#ea7b59;}.cls-23{fill:#fff0d2;}.cls-24{fill:#c3d8d5;}.cls-25{fill:#9bb2af;}.cls-26{fill:#ffda82;}</style></defs><g class="cls-1"><g id="Layer_2" data-name="Layer 2"><g id="_11" data-name="11"><path class="cls-2" d="M11.11,122.84c1,3.27,1.45,4.92.82,6.15s-4,3-5,2.94-1-3.66-1-4.32,1.39-1.45,1.86-1.06,1.2,2.11,1.51,2a1.89,1.89,0,0,0,.64-.48S8.87,123.49,11.11,122.84Z"/><path class="cls-3" d="M108.29,122.75c-2.38-12.07-5.33-18.62-12.74-28.09l-41.09,25.7c6.14,10.21,8.71,16.35,12.75,28.09Z"/><polygon class="cls-4" points="104.52 113.55 86.42 126.89 105.42 116 104.52 113.55"/><path class="cls-4" d="M82.24,117.31a61.64,61.64,0,0,1,19.92-12.88,73.29,73.29,0,0,0-6.61-9.77l-41.09,25.7A118.59,118.59,0,0,1,66,145.09C66.45,137.22,72.37,126.57,82.24,117.31Z"/><path class="cls-2" d="M77.73,89.77C78.24,76.88,67.57,51,66,49.82S56.29,70,57.74,78.2,68.54,96,71.44,97.54,77.57,93.89,77.73,89.77Z"/><path class="cls-5" d="M65.09,50.47c-2.62,3.61-8.61,20.6-7.35,27.73,1.45,8.22,10.8,17.82,13.7,19.34,2.71,1.42,5.69-3,6.21-6.91C68.92,86.79,68.54,60.39,65.09,50.47Z"/><path class="cls-6" d="M96,93.85,53.65,120.33c6.32,10.51,9,16.83,13.13,28.93l42.32-26.47C106.66,110.36,103.61,103.6,96,93.85ZM57,120.42,94.4,97c6.76,8.63,9.45,14.6,11.61,25.6L68.58,146C64.9,135.31,62.56,129.72,57,120.42Z"/><path class="cls-5" d="M87.1,118.69s.47,3.15,1.26,4a31.5,31.5,0,0,1,4.13,5.1c.43.66-.91,4.43-1.56,5.69-.69-.65-7.77-2-7.77-2a20.89,20.89,0,0,1-1.4-5.78c0-.74-1-2.47-1.44-4.13C79.76,119.31,87.1,118.69,87.1,118.69Z"/><path class="cls-2" d="M88.36,122.66c3,1.49,5.79,3.21,6.27,4.44s-.91,2.77-1.62,3.38-4.09-.8-4.59-1.19-.15-1.88.44-1.94,2.32.56,2.44.28a1.75,1.75,0,0,0,.06-.74S87.37,124.6,88.36,122.66Z"/><path class="cls-2" d="M88.83,129.4c.62-.77,2.38-.11,2.4.45s.69,3.87,0,4.19-2.26.11-2.46-.37S88.34,130,88.83,129.4Z"/><path class="cls-2" d="M86.1,128.61c.62-.77,2.38-.11,2.4.45s.69,3.87,0,4.19-2.26.11-2.46-.37S85.61,129.23,86.1,128.61Z"/><path class="cls-2" d="M83.38,128.15c.62-.72,2.37-.17,2.38.34s.65,3.52,0,3.83-2.26.18-2.45-.25S82.88,128.73,83.38,128.15Z"/><path class="cls-2" d="M87.74,122c-.7-14.32-3.35-20-4.57-24.74S76.4,84.58,73.84,83.4c-3-1.36-4.53,5.5-4.35,8.06S68.66,99,71.38,105c1.46,3.22,10.85,19.51,10.85,19.51Z"/><path class="cls-5" d="M73.49,100.13C71.21,93.6,72,88.32,71.8,85.7A19,19,0,0,1,71.38,82c-2.22,1.17-3.29,7.38-3.15,9.41.17,2.56-.72,7.91,2,13.9,1.46,3.21,13.16,23.37,13.16,23.37L87.74,122C82,123.72,74.49,103,73.49,100.13Z"/><path class="cls-7" d="M86.16,106.26c-5.88-.43-9.66.55-14.25,8.17l2.19,4.26c3.87-6.59,7.42-8.9,13.16-8.86Z"/><path class="cls-7" d="M90.27,114.59c-5.89-.44-9.66.55-14.26,8.17L78.2,127c3.88-6.6,7.42-8.9,13.16-8.86Z"/><path class="cls-2" d="M26.27,51.19c-4,5.91,1.89,22.75,6.31,28.63S34.05,105,34.05,105l31.76-8.32L65,73.92s1.63-.8,1.84-1.61,2.63-19.64-1.16-22.89S48.15,44.49,45,44.7,27.83,48.88,26.27,51.19Z"/><path class="cls-5" d="M66.84,72.37c-2.4,2.13-11-.92-11-.92S47,76.94,40,74.91c-6.2-1.82-13.25-24.5-13.77-23.72-4,5.91,1.89,22.75,6.31,28.63S34.05,105,34.05,105l9.71-2.54c1.59-13.8,7.92-26.66,12.37-27.2S65,85,64.63,97l1.18-.31-.5-22.48A6,6,0,0,0,66.84,72.37Z"/><path class="cls-8" d="M66.2,73.34a9.4,9.4,0,0,1-3.71.47c2.15,1.24,2.28,4.64,3.24,19L65.31,74.2A11.1,11.1,0,0,0,66.2,73.34Z"/><path class="cls-2" d="M39.26,47.74a76.73,76.73,0,0,0,1.26-15.38L53.93,35.1l2.21,12Z"/><path class="cls-9" d="M29.64,107.64C41.46,96.73,65.81,89.57,67.92,90s1.68,5.89,1.68,5.89l-2.74,1.82s9.68,14.42,10.94,38-1,63.15-1,63.15H75.54s-6.47-19.49-9.94-22.38c-4.13-3.45-5.68-7-5.68-15.94s-2.53-26.2-2.53-26.2l-4.31.31s-14.19,42.23-18.19,48.32-9.67,15.89-9.67,15.89H23.33s-.11-29.19.73-38.12,6.63-28,8-34.62C35.42,109.83,27.7,109.43,29.64,107.64Z"/><path class="cls-10" d="M70,177.86c-10.3-3.45-11.14-42-11.14-42l7.36-7.1c-5.26,2-19.77,3.65-19.77,3.65l5.89,3s-15.78,39.19-20.83,48.12-3.57-13.6-4-20.91,9.57-40.11,11.36-43.76c2.21-4.53,21.84-15.69,29.22-19.07l-1.25-2.11,2.74-1.82s0-.54,0-1.29c-9.63,3.14-30.83,14-32.17,14.18-1.81.31-3.41.87-4-2-.42-1.86,5.21-5.12,17.28-11.53-7.4,3.07-15.58,7.32-21.06,12.38-1.94,1.79,4.2,2.24.84,18.48-1.36,6.58-6.73,25.79-7.57,34.73s.42,38,.42,38h1.89s6.52-8.12,10.52-14.22,18.08-48.53,18.08-48.53l2.53-.2s2.73,16.24,2.73,25.18,1.76,13,5.89,16.45c3.47,2.89,10.57,21.32,10.57,21.32h1.21s.82-14.07,1.22-30.42C76.12,174.66,73.55,179,70,177.86Z"/><path class="cls-2" d="M76.64,205.21H94.78c-1.42-2.13-11.35-2.43-13.66-4-1.49-1-3.85-5.49-3.85-5.49l-2.49,1.12C76.17,200.8,74.91,203.54,76.64,205.21Z"/><path class="cls-2" d="M26.64,205.21h-17c1.26-2.13,10.1-2.43,12.16-4,1.32-1,1.84-5.49,1.84-5.49l2.22,1.12C24.61,200.8,28.18,203.54,26.64,205.21Z"/><path class="cls-2" d="M14.81,91.15c-.5-12.9,9.94-38.79,11.46-40s8.78,19,7.36,27.27-9.57,17.46-12.41,19S15,95.26,14.81,91.15Z"/><path class="cls-5" d="M31,60.47A27.35,27.35,0,0,1,31.63,70c-1.42,8.23-9.41,21.67-12.25,23.2-1.63.87-3.37-.47-4.58-2.55,0,.15,0,.31,0,.47.16,4.11,3.31,9.29,6.15,7.76S33,87.8,34.37,79.57C35.13,75.15,33.17,66.93,31,60.47Z"/><path class="cls-2" d="M7.3,121.34C8,107,9.4,99.78,10.6,95s5.51-9.06,8-10.23c2.91-1.37,5.66,5.45,5.49,8s.7,7.91-2,13.9C20.72,109.9,10,124.35,10,124.35Z"/><path class="cls-5" d="M25,92.62c.06-.87,0-4-1.64-3.46-.56,4.38-1.94,12.37-4.05,17.12-1.15,2.57-8.26,12.34-11,16.14L10,124.35s11.32-14.19,12.75-17.41C25.38,101,24.83,95.18,25,92.62Z"/><g class="cls-11"><path class="cls-12" d="M68,75.51c.8,4.48,5.73,8.68,9.47,9,0-.28-.07-.56-.11-.84a10.77,10.77,0,0,1-7-8.37A9.68,9.68,0,0,1,73,66.42c-.09-.27-.19-.54-.28-.82C69.81,66.52,67.27,71.62,68,75.51Z"/><path class="cls-12" d="M71.75,74.85a8,8,0,0,0,5.09,5.87l-.12-.62a7.32,7.32,0,0,1-3.84-5.26A6.65,6.65,0,0,1,74,69.67c-.07-.21-.14-.42-.2-.63A6.29,6.29,0,0,0,71.75,74.85Z"/></g><g class="cls-11"><path class="cls-12" d="M37.92,46.28c-.76.22-1.55.45-2.33.7,5.06,5.15,4.42,11.38,1.09,15.34-3.47,4.14-9.87,5.81-15.77,1.2-.26.71-.51,1.44-.76,2.18C32.26,72.44,47.48,59.88,37.92,46.28Z"/><path class="cls-12" d="M28.9,61.47a6.26,6.26,0,0,0,5.46-7.56,7.54,7.54,0,0,0-3.81-5.16c-2.15.87-3.8,1.73-4.28,2.44-.5.39-1.95,3.42-3.66,7.78A7.39,7.39,0,0,0,28.9,61.47Z"/></g><path class="cls-5" d="M51.24,78.78c-2.25,4.43-2.42,13.94-1.48,16.1,0,0-2.09-2.86-1.35-9.9A11.05,11.05,0,0,1,51.24,78.78Z"/><path class="cls-5" d="M61.67,90.4c1.32-4.35-.47-12.5-1.85-14.1,0,0,2.65,1.9,3.38,8.09A9.45,9.45,0,0,1,61.67,90.4Z"/><path class="cls-5" d="M58.53,89.2c0-.26-.57-.36-1.37-.22s-1.48.47-1.53.72.56.36,1.36.22S58.48,89.45,58.53,89.2Z"/><path class="cls-8" d="M52.22,74.42c1.1-.49,3.78-2,3.78-2l4.22,1.41A11.19,11.19,0,0,0,52.22,74.42Z"/><path class="cls-5" d="M43.4,72.9c0-.43-.71-.76-1.63-.74s-1.67.41-1.69.84.71.77,1.63.74S43.38,73.34,43.4,72.9Z"/><path class="cls-5" d="M66.22,70.82c0-.43-.71-.76-1.63-.74s-1.67.41-1.69.84.71.77,1.63.74S66.2,71.26,66.22,70.82Z"/><path class="cls-5" d="M54.71,61.15c-.05,2.18.47,10.54,1,10.61C57.44,72,54.71,61.15,54.71,61.15Z"/><path class="cls-5" d="M49,50.44c-6,.76-9.15-.31-9.23-1.3S49,50.44,49,50.44Z"/><path class="cls-5" d="M51.56,50.53c4.28.59,6.53-.24,6.59-1S51.56,50.53,51.56,50.53Z"/><path class="cls-2" d="M43.46,84.17c-4.26,3-6.37,4.45-4.57,4.34C41.33,88.36,43.46,84.17,43.46,84.17Z"/><path class="cls-2" d="M42.35,87.72c-3.16,2.37-4.72,3.47-3.39,3.38C40.77,91,42.35,87.72,42.35,87.72Z"/><path class="cls-9" d="M25.64,199.44c1.36-.83,4.14-3.12,3.78-4.37a2.83,2.83,0,0,0-1.73-2.14l-1.21,1.38.26-1.83c-.89-.76-4.78-.15-4.78-.15a20.58,20.58,0,0,0,.94,6.34Z"/><path class="cls-9" d="M75.29,198.69c-1.5-.88-4.6-3.35-4.26-4.77a3.11,3.11,0,0,1,1.79-2.45L74.18,193l-.35-2c.94-.89,5.17-.34,5.17-.34s.19,4.46-.78,7.14Z"/><path class="cls-10" d="M67.07,153.8s-6.1,8.12-5.15,17l5.47,6.3C63.18,166.28,67.07,153.8,67.07,153.8Z"/><path class="cls-10" d="M41.2,144.56c-5.36,11.87-3.26,19-5.78,36.34l6-15.23C38.26,160.19,41.2,144.56,41.2,144.56Z"/><path class="cls-10" d="M33.6,110.29,45,106.63c4.1-5.86,17.51-12.79,17.51-12.79C55,96.2,41.49,103.89,33.6,110.29Z"/><g class="cls-13"><path class="cls-14" d="M39.13,110.53l-6-5.76c-.43.32-.88.64-1.29,1l-.19.15c-.72.57-1.41,1.16-2.05,1.75-1.38,1.28,1.35,1.88,1.8,8l1.19,1.14Z"/><path class="cls-14" d="M46.83,103.09,42.6,99l-.21.1-.25.13c-.84.44-1.67.9-2.5,1.36l-.34.19c-.8.46-1.59.93-2.37,1.42l-.35.22c-.7.44-1.38.89-2,1.36l5.79,5.59Z"/><path class="cls-14" d="M54.53,95.66,53.12,94.3l-2.42,1h0c-1.84.77-3.72,1.6-5.6,2.5l-.06,0-.87.44L48,102Z"/><path class="cls-14" d="M57.68,92.63c-.92.31-1.88.65-2.86,1l.9.87Z"/><path class="cls-14" d="M29.39,130.84c-.57,2.31-1.25,5-2,7.93l5.08-4.91Z"/><path class="cls-14" d="M40.21,126.43l-7.36-7.11-1.53,1.48c-.16,1.56-.43,3.32-.84,5.32-.16.79-.38,1.75-.65,2.85l3.87,3.74Z"/><polygon class="cls-14" points="47.91 119 40.55 111.89 34.04 118.17 41.4 125.28 47.91 119"/><polygon class="cls-14" points="55.6 111.56 48.25 104.46 41.74 110.74 49.1 117.85 55.6 111.56"/><polygon class="cls-14" points="63.3 104.13 55.94 97.03 49.44 103.31 56.8 110.42 63.3 104.13"/><path class="cls-14" d="M64.49,103,68,99.6c-.69-1.24-1.14-1.91-1.14-1.91l2.74-1.82v-.5l-5-4.84c-.79.19-1.69.44-2.68.73l-4.79,4.62Z"/><path class="cls-14" d="M67.92,90a4.63,4.63,0,0,0-1.38.12l3,2.89C69.37,91.6,69,90.18,67.92,90Z"/><path class="cls-14" d="M23.76,155.13c-.33,1.78-.6,3.43-.76,4.86l2.89-2.8Z"/><path class="cls-14" d="M33.59,149.76l-7.15-6.91c-.84,3.51-1.66,7.09-2.31,10.34L27.08,156Z"/><polygon class="cls-14" points="27.42 141.51 34.78 148.61 41.29 142.33 33.93 135.22 27.42 141.51"/><polygon class="cls-14" points="35.12 134.08 42.48 141.18 48.98 134.9 41.63 127.79 35.12 134.08"/><polygon class="cls-14" points="42.82 126.65 50.17 133.75 56.68 127.47 49.32 120.36 42.82 126.65"/><polygon class="cls-14" points="57.02 112.93 50.51 119.22 57.87 126.32 64.38 120.04 57.02 112.93"/><polygon class="cls-14" points="65.57 118.89 72.08 112.61 64.72 105.5 58.21 111.78 65.57 118.89"/><path class="cls-14" d="M73.13,111.33A75.94,75.94,0,0,0,69,101.4l-3,2.95Z"/><path class="cls-14" d="M22.62,168.89c0,2.59,0,5.45.06,8.35L27,173.09Z"/><path class="cls-14" d="M34.67,165.66l-7.36-7.1L22.76,163c-.05,1.09-.09,2.32-.11,3.67L28.16,172Z"/><polygon class="cls-14" points="28.5 157.41 35.86 164.51 42.37 158.23 35.01 151.13 28.5 157.41"/><path class="cls-14" d="M36.2,150l7.35,7.1,4.64-4.47c.32-.92.63-1.83.94-2.71l-6.43-6.2Z"/><path class="cls-14" d="M57.44,143.06c0,.18.05.36.07.55l.25-.24Z"/><path class="cls-14" d="M43.89,142.55l5.83,5.63c1.36-3.94,2.49-7.29,3.22-9.46l-2.54-2.46Z"/><path class="cls-14" d="M65.46,135.94l-7.36-7.11-6.51,6.29L53.52,137l.3-.91,2.53-.2s.3,1.8.7,4.52l1.9,1.83Z"/><polygon class="cls-14" points="73.15 128.51 65.8 121.4 59.29 127.69 66.64 134.79 73.15 128.51"/><path class="cls-14" d="M67,120.25l7.36,7.11,2.29-2.21a89.87,89.87,0,0,0-2.44-10.5l-.7-.68Z"/><path class="cls-14" d="M22.82,184c.1,3.71.21,7.15.31,9.79L28.05,189Z"/><path class="cls-14" d="M35.74,181.56l-7.35-7.1-5.66,5.46,0,1.68,6.48,6.25Z"/><path class="cls-14" d="M29.58,173.31l7.35,7.11,1.5-1.45c.84-2,1.78-4.4,2.77-7L36.08,167Z"/><path class="cls-14" d="M37.27,165.88l4.57,4.41c1.1-2.95,2.26-6.12,3.39-9.29l-1.45-1.4Z"/><path class="cls-14" d="M45.84,159.29l.9-2.55L45,158.45Z"/><path class="cls-14" d="M66.53,151.84l-7.36-7.1L57.83,146c.46,3.55.9,7.53,1.11,11.05l1.08,1Z"/><polygon class="cls-14" points="74.23 144.41 66.87 137.3 60.36 143.59 67.72 150.69 74.23 144.41"/><path class="cls-14" d="M68.06,136.16l7.36,7.1,2.59-2.5c-.06-1.75-.12-3.47-.21-5.09,0-1-.13-1.93-.2-2.87l-3-2.93Z"/><path class="cls-14" d="M77.34,130.25c-.1-.92-.22-1.83-.35-2.72l-1.23,1.2Z"/><path class="cls-14" d="M23.23,196.38l0,.55,2,1.89h0s2.62-3.26,5.55-7.2l-1.31-1.26Z"/><path class="cls-14" d="M31.76,190.28c1.39-1.89,2.79-3.87,4-5.68.12-.19.26-.43.41-.7l-5.5,5.31Z"/><path class="cls-14" d="M60.25,160.64l-1.16,1.12c.06,5.48.83,9.07,2.47,11.82l6-5.84Z"/><polygon class="cls-14" points="67.95 153.21 61.44 159.49 68.8 166.59 75.31 160.31 67.95 153.21"/><path class="cls-14" d="M69.14,152.06l7.36,7.1,1.65-1.59c0-3.16,0-6.31,0-9.37l-2.51-2.43Z"/><path class="cls-14" d="M78.12,145.87c0-.82,0-1.65,0-2.45l-1.25,1.21Z"/><path class="cls-14" d="M76.38,176.21,69,169.11l-6.33,6.11A16.85,16.85,0,0,0,65,177.5,7.92,7.92,0,0,1,66.24,179l3.64,3.51Z"/><path class="cls-14" d="M70.21,168l7.36,7.1.22-.2c0-.27,0-.53,0-.8l0-.81c0-.61,0-1.23,0-1.86,0-.26,0-.53,0-.79,0-.49,0-1,0-1.46,0-2,.09-4.08.13-6.16l-1.36-1.3Z"/><path class="cls-14" d="M78.12,160.73v-.4l-.21.2Z"/><path class="cls-14" d="M77.11,192v-.17l-7-6.77-.34.33c1.66,3.46,3.28,7.29,4.38,10l2.94-2.84Z"/><path class="cls-14" d="M77.22,189.58a1.34,1.34,0,0,1,0-.2l0-.7c0-.4,0-.82,0-1.25,0-.27,0-.55,0-.83s0-.66,0-1,0-.76,0-1.14,0-.62,0-.94l0-.88.06-1.45,0-.9c0-.47,0-.93.05-1.41s0-.71,0-1.07v-.14l-6.4,6.18Z"/></g><path class="cls-3" d="M30.92,113.56C36.41,110.7,67.2,97.42,67.2,97.42l.08.84-36,17.89S29.73,114.71,30.92,113.56Z"/><path class="cls-3" d="M52,105.06l-1.05.41c-4,8.83-2.84,21.22-2.84,21.22l2.84-.82S48.77,111.15,52,105.06Z"/><path class="cls-3" d="M52.79,104.45l1.19-.16c6.36,6.19,8.33,18.31,8.33,18.31l-3.12.7S57.7,108.46,52.79,104.45Z"/><path class="cls-5" d="M10.6,95c-.27,1-.54,2.23-.81,3.56,3.72-8.18,7.35-11.92,12-14.42,0,0-4.41,2-6.37-.23-.21,1.3-.37,2.56-.46,3.75A17.19,17.19,0,0,0,10.6,95Z"/><path class="cls-15" d="M54.82,67.89a7.5,7.5,0,0,1,2-1.41c.64-.28,1.34-.38,2-.62A9.4,9.4,0,0,0,62,63.57,101.61,101.61,0,0,0,69,55.83a43.22,43.22,0,0,0-2.66-5.55,3.16,3.16,0,0,0-.68-.86,16.89,16.89,0,0,0-6.05-2.63q-2.15,3-4.28,6.1a6.78,6.78,0,0,0-1.17,2.16c-.18.73-.12,1.49-.24,2.24a9.86,9.86,0,0,1-2.23,4.2A147.59,147.59,0,0,0,35,89.94c0,.06,0,.12,0,.18C39.6,81.4,47.3,74.52,54.82,67.89Z"/><g class="cls-16"><path class="cls-17" d="M62.86,47.85a40.83,40.83,0,0,0-6.94-1.93l-2-10.82L40.52,32.36a74.76,74.76,0,0,1-1,13.47c-3.87,1-12.3,3.41-13.88,6.2C33.84,64.07,62.78,55.84,62.86,47.85Z"/></g><path class="cls-18" d="M52.65,3C47.72-1.7,37.35.9,37.35.9c3.16.87,0,5.39,0,5.39-1.06-1.74-5.81-3.65-5.81-3.65S35.59,7.33,33,8.9s-8.62-3.13-8.62-3.13,2.11,3.48,1.05,4.87-8.26-4.35-8.26-4.35,3.34,7.13,6.51,8.69-.36,3.65-.36,3.65c1.41,1.74,10.56,4,7.57,4.87s-5.46,3.82-3,3.82,3.87,6.26,3.87,6.26,4.57-1.91,7.21,1.22L57,19.33C57.92,12,57.57,7.68,52.65,3Z"/><path class="cls-19" d="M52.77,2.62C48.39-1.56,39.35.41,37.48.82c9.79,4.28,10.16,16.65,8.27,28l11.48-9.4C58.11,12.07,57.69,7.31,52.77,2.62Z"/><path class="cls-18" d="M44.09,2.57c1.68,2.23,2.95,7.81,1.37,13L48.77,14C49.56,5.56,44.09,2.57,44.09,2.57Z"/><path class="cls-18" d="M52.77,4.9c1.67,2.11,3.13,9.22,1,15.52l2.4-.93C57.88,9.09,52.77,4.9,52.77,4.9Z"/><path class="cls-2" d="M38.94,15.3c.63,7.16,2.68,21.32,4.26,23.3s14.51,3.66,15.3,1.68,1-23.3-5.2-26.35S38.94,15.3,38.94,15.3Z"/><path class="cls-20" d="M40,24.41c.32,2.2.67,4.42,1,6.43l9.71-11.12L45.46,34.31,47.62,36,54,23.86l-.45-4,1.88,2L57,19.64s-1.19-4.42-3.73-5.71a13,13,0,0,0-8.22-.74Z"/><path class="cls-19" d="M37.52,15.91c1.74,16.6,1.27,25.54,1.27,25.54l5,.66,1.27,1.22L46.83,42l1.1,2.9.79-3.05,2.05,2.74.32-2.74,2.68,3.05,2.84-2.13,5.21,3L59.13,31.45s-11.45-1-13.5-2.1-6.43-16.6-6.43-16.6Z"/><path class="cls-18" d="M43.86,34.85A39.29,39.29,0,0,1,40,15.37a10.76,10.76,0,0,0-.66-3.87L36.73,16c1.74,16.6,2.06,25.43,2.06,25.43l5,.66,1.27,1.22L46.83,42S45.24,37.67,43.86,34.85Z"/><path class="cls-21" d="M55.48,21.6c0,.92-.53,3.74.76,3.74s1.3-2.62,1.3-3.86Z"/><path class="cls-22" d="M53.84,20.37s7.55,10.73,7.29,11.39c-.16.39-5.52-.66-5.52-.66Z"/><path class="cls-2" d="M54,21.35s6.81,9.29,6.55,10c-.16.39-5.52-.66-5.52-.66Z"/><path class="cls-21" d="M48.31,32.46c-1.89,1.54-1,4.59-.45,4.53s4.4-2.79,8.62-2.79l.29-1.31S50.2,30.93,48.31,32.46Z"/><path class="cls-23" d="M49.31,32.66c-1.56,1.26-1.13,3.58-.64,3.53s3.89-2.11,7.38-2.11L56.29,33S50.87,31.39,49.31,32.66Z"/><path class="cls-21" d="M51.09,33.48,49,33.33l.08-.71A4,4,0,0,0,48,35.87l.74-1.75Z"/><path class="cls-2" d="M39,22.81c-.83-2.39-4.58-1.19-4.42,1.1s3.84,5.48,5,4.6S39.5,24.16,39,22.81Z"/><path class="cls-21" d="M49,21.6c0,.92-.58,3.74.84,3.74s1.45-2.62,1.45-3.86Z"/><path class="cls-19" d="M55,19.1c-.26,0-.48.24-.5.6a7.26,7.26,0,0,0,0,1.29c0,.46.35.81.67.8l3-.07a.5.5,0,0,0,.41-.3,1,1,0,0,0,.06-.66,1.85,1.85,0,0,0-.58-1.15A14.37,14.37,0,0,0,55,19.1Z"/><path class="cls-19" d="M52.3,19a.74.74,0,0,1,.75.6,5.67,5.67,0,0,1,.19,1.27.82.82,0,0,1-.7.86L48,22.13a1.05,1.05,0,0,1-.8-.26.94.94,0,0,1-.31-.77c.05-.59.22-1.22.7-1.43A26.72,26.72,0,0,1,52.3,19Z"/><path class="cls-22" d="M38.35,23.74c-.5-1.44-2.76-.72-2.66.66s2.31,3.3,3,2.78S38.64,24.55,38.35,23.74Z"/><path class="cls-2" d="M38.54,25.43c-.32-.91-1.76-.46-1.7.42s1.48,2.11,1.94,1.77S38.72,26,38.54,25.43Z"/><polygon class="cls-24" points="7.88 133.62 27.9 182.04 32.88 185.87 32.19 174.16 11.04 131.34 7.88 133.62"/><polygon class="cls-25" points="7.88 133.62 27.9 182.04 32.88 185.87 9.15 132.71 7.88 133.62"/><path class="cls-3" d="M1.39,122.18a2.69,2.69,0,0,0,3.36,1.7,2.55,2.55,0,0,0,1.76-3.24,2.69,2.69,0,0,0-3.36-1.7A2.57,2.57,0,0,0,1.39,122.18Z"/><polygon class="cls-3" points="4.77 120.59 3.1 122.26 7.31 132.59 9.84 131.19 4.77 120.59"/><polygon class="cls-3" points="5.06 133.4 5.95 135.47 12.99 131.02 11.84 129.13 5.06 133.4"/><path class="cls-26" d="M2.57,121.82a1.46,1.46,0,0,0,1.81.92,1.38,1.38,0,0,0,1-1.74,1.46,1.46,0,0,0-1.81-.92A1.39,1.39,0,0,0,2.57,121.82Z"/><path class="cls-2" d="M14,118.64s-2.44,3.43-2.52,4.61A32.37,32.37,0,0,1,10,129.53c-.22.78-4.16,2.49-5.61,2.91,0-1-4-7.14-4-7.14A22.75,22.75,0,0,1,4,120.14a15.25,15.25,0,0,0,3.92-7.81C8.25,109.9,14,118.64,14,118.64Z"/><path class="cls-2" d="M6.11,128c1-.1,1.79,1.68,1.36,2.09s-2.58,3.28-3.32,3-1.7-1.59-1.46-2.07S5.27,128.07,6.11,128Z"/><path class="cls-2" d="M4.79,125.42c1-.1,1.78,1.68,1.36,2.09s-2.58,3.28-3.32,3-1.71-1.59-1.47-2.07S3.94,125.49,4.79,125.42Z"/><path class="cls-2" d="M3.2,123.08c1-.06,1.83,1.63,1.44,2s-2.33,3-3.07,2.7-1.75-1.53-1.54-2S2.38,123.13,3.2,123.08Z"/></g></g></g></svg>