<svg xmlns="http://www.w3.org/2000/svg" viewBox="0 0 111.98 182.19"><defs><style>.cls-1{isolation:isolate;}.cls-2{fill:#493532;}.cls-3{fill:#5b4240;}.cls-4{fill:#9b342f;}.cls-5{fill:#261918;}.cls-6{fill:#332321;}.cls-7{fill:#3a2725;}.cls-8{fill:#b54f45;}.cls-9{fill:#9bb2af;}.cls-10{fill:#84736b;}.cls-11{fill:#6b5b55;}.cls-12{fill:#843131;opacity:0.6;mix-blend-mode:multiply;}.cls-13{fill:#ef8354;}.cls-14{fill:#e27149;}</style></defs><g class="cls-1"><g id="Layer_2" data-name="Layer 2"><g id="_11" data-name="11"><path class="cls-2" d="M13.79,85.07S12,86.5,10.92,86.26a29.8,29.8,0,0,0-6.25-.83c-.76,0-3.29,2.93-4,4.07C1.52,89.74,6,94.84,6,94.84a21.24,21.24,0,0,0,5.52-1.72c.63-.36,2.56-.39,4.15-.88C17.84,91.58,13.79,85.07,13.79,85.07Z"/><path class="cls-3" d="M10.92,86.26c-2.68-1.7-5.46-3.11-6.72-2.89s-1.89,2.1-2.06,3,2.62,2.92,3.19,3.13S7,88.67,6.75,88.17s-1.58-1.6-1.4-1.84a1.77,1.77,0,0,1,.59-.42S9.77,88,10.92,86.26Z"/><path class="cls-3" d="M5,89.2c.35-.87-1-2-1.52-1.72S-.07,88.84,0,89.55s1,1.89,1.48,1.81S4.76,89.91,5,89.2Z"/><path class="cls-3" d="M7,91c.35-.88-1-2-1.53-1.73S1.9,90.66,2,91.37s1,1.9,1.47,1.82S6.72,91.73,7,91Z"/><path class="cls-3" d="M8.69,93c.31-.86-1-2-1.42-1.77S4,92.46,4.07,93.17,5,95.09,5.45,95,8.44,93.7,8.69,93Z"/><path class="cls-2" d="M101.3,25.27s.4-3-.34-4a35.06,35.06,0,0,1-3.64-6.39c-.35-.82,1.77-5,2.7-6.32.64.84,8.18,3.26,8.18,3.26a24.59,24.59,0,0,1,.53,6.81c-.11.85.41,3.45.57,5.41C109.52,26.69,101.3,25.27,101.3,25.27Z"/><path class="cls-3" d="M101.61,13.45c-.8.8-2.62-.19-2.55-.83s-.08-4.54.73-4.8,2.5.16,2.63.73S102.27,12.8,101.61,13.45Z"/><path class="cls-3" d="M104.47,14.71c-.8.8-2.62-.19-2.55-.83s-.08-4.53.73-4.8,2.5.16,2.63.73S105.12,14.07,104.47,14.71Z"/><path class="cls-3" d="M107.38,15.59c-.8.75-2.63-.11-2.56-.69s-.09-4.13.72-4.39,2.5.08,2.63.6S108,15,107.38,15.59Z"/><polygon class="cls-4" points="55.78 103.56 86.34 106.47 86.14 110.48 54.68 107.97 55.78 103.56"/><path class="cls-5" d="M41.32,124.63c.62-5.39,12.72-8.44,27-6.81s25.41,7.32,24.8,12.7-12.71,8.44-27,6.81S40.71,130,41.32,124.63Z"/><path class="cls-2" d="M103.12,182.19H90s-.37-3.73,1.41-4.09S98.56,180.49,103.12,182.19Z"/><path class="cls-2" d="M1.71,182.19H14.78s.37-3.73-1.4-4.09S6.27,180.49,1.71,182.19Z"/><path class="cls-2" d="M96.64,144c-.44-1.21-21.45-22.08-21.45-22.08L87,112.64s20.36,25.09,20.58,27.31-8.16,19.62-15.76,39l-.87-.4S97.07,145.18,96.64,144Z"/><path class="cls-6" d="M87,112.64s14.3,17.63,19.06,24.64A60.61,60.61,0,0,0,96,149.63a37.14,37.14,0,0,0,.67-5.65c-.44-1.21-21.45-22.08-21.45-22.08Z"/><path class="cls-2" d="M29.64,143.74c1-.83,25.52-17,25.52-17L50.74,113s-26.21,20.17-27.51,22-6.84,23.49-10.84,43.89l1.67.11S28.69,144.57,29.64,143.74Z"/><path class="cls-6" d="M31.8,127.74C39.88,121.3,50.74,113,50.74,113l4.42,13.76S40,136.7,33.05,141.39C33.29,135.54,32.86,130.75,31.8,127.74Z"/><path class="cls-2" d="M102.3,130.45a236.35,236.35,0,0,1-24.18,15.89L69,124.7l-3.21.54-19.5,15.49L33.64,123.37,54.35,106.8l32.46,3.08Z"/><path class="cls-7" d="M67.41,110.12c-11.69,0-26.48,5.43-32.1,15.53l-1.67-2.28L54.35,106.8l32.46,3.08,15.49,20.57c-2.75,2.1-5.59,4.12-8.32,6C92.93,121.71,81.45,110.12,67.41,110.12Z"/><path class="cls-3" d="M35.9,121.56,47.33,137.2,64.8,123.31l4.93-.6,9.39,20.1A244.19,244.19,0,0,0,101,128.66l1.34,1.79c-11.35,8.68-24.4,17-24.4,17L69,124.7l-3.21.54L46,142.38l-12.34-19Z"/><path class="cls-8" d="M69.64,107.58l1.6.31s.72,28.64,3.33,40.55l-4.16,1.12S69.41,117.59,69.64,107.58Z"/><path class="cls-8" d="M67.57,107.58l1.6.24s-3.81,28.39-3.12,40.56l-4.28.45S65.77,117.42,67.57,107.58Z"/><path class="cls-2" d="M88.53,105.65c-9.34,3.27-31.38-1-33.38-1.78,0,0,6.49-18.85,2.8-28.05C56.08,71.14,61.69,67.67,69,64.6s19.37-4.55,22-6.68,1.2,19.1-1.6,25.91S91.21,104.71,88.53,105.65Z"/><path class="cls-7" d="M85.3,76.09c-6.62,8.73-16.13,15.25-21.76,16.69,0,0,13.15-1.88,16.57-6.08S85.3,76.09,85.3,76.09Z"/><path class="cls-7" d="M55.27,103.5c.62-2,3.66-12.68,3.31-21.36a2.23,2.23,0,0,1,.3.31c3.93,4.88,2.18,8.33-3.61,21Z"/><path class="cls-2" d="M65.6,66.3C53.28,71.51,32.46,78.66,30.82,80.14s.83,8.15,4.92,8.3c5.46.2,20-3,22.66-2.4C62.32,87,65.6,66.3,65.6,66.3Z"/><path class="cls-7" d="M38.33,87.7s4.71.49,6.19-.91c0,0,.23-7.6-3.85-10.83a25.13,25.13,0,0,0-5.25,2.34Z"/><path class="cls-7" d="M30.82,80.14a2.22,2.22,0,0,1,.47-.31c.54,2.43,2.54,5.44,5.28,5.54,5.46.2,19.28-2.44,21.94-1.82,1.47.34,3.75-1.88,4.86-5.57-1.23,5-2.89,9.69-4.74,9.26-2.66-.63-17.43,1.4-22.89,1.2C31.65,88.29,29.18,81.61,30.82,80.14Z"/><path class="cls-2" d="M64,54.08l13-2.41s-1.1,7.21,4.71,9.52C78.42,68.2,70.46,70,65.3,66.5,68,61.27,64,54.08,64,54.08Z"/><path class="cls-3" d="M35.85,78.82l3.37,8.62c-8.36,4.5-17.66,5.21-29.74,4.4L9.92,87S23.81,78.22,35.85,78.82Z"/><path class="cls-2" d="M32.44,86.75a16.82,16.82,0,0,0-1.26-7.68,24.83,24.83,0,0,1,4.67-.25l3.37,8.62c-8.36,4.5-17.66,5.21-29.74,4.4l-.72-.94C17.81,91,25.63,90.42,32.44,86.75Z"/><polygon class="cls-9" points="96.19 8.06 89.81 13.34 97.87 11.44 103.14 17.82 101.26 9.76 107.63 4.48 99.57 6.37 94.3 0 96.19 8.06"/><polygon class="cls-3" points="84.92 60.15 78.72 58.58 73.68 77.69 72.42 78.09 66.1 64.02 62.11 67.81 73.42 83.13 84.92 60.15"/><path class="cls-10" d="M35.67,89.32s5.55.58,7.29-1.07c0,0,.83-8-4-11.77,0,0-2.65-.68-6.54,2.44Z"/><path class="cls-3" d="M72.16,78.75,73.72,78c.55,5.52,4.5,18-1.35,29l-3.63-.45S75.47,95.21,72.16,78.75Z"/><path class="cls-7" d="M85.85,104.84c2.81-.86-1.72-14.93,1.81-21.77,1.89-3.66,3.83-11.7,4.8-18.27-.18,6.28-1.36,15.08-3,19-2.81,6.81,2.67,21.64,0,22.57-9.35,3.28-32.33-1.73-34.33-2.53l.4-1.25C62.54,104.27,78.12,107.21,85.85,104.84Z"/><path class="cls-2" d="M89.34,82.34C96,71.26,108.57,54.79,109,52.62s-4.46-9.41-7.47-7.09S88.62,58,85.48,60.1,89.34,82.34,89.34,82.34Z"/><path class="cls-7" d="M103.14,59c.44-1.91-5.77-6.2-6.68-6.91-.5-.39-1.78,0-2.67.56,3.17-3,6.28-6,7.74-7.15,3-2.32,10,3.32,9.61,5.49S95,74.66,88.62,85.26a5.22,5.22,0,0,1,.19-4.48C93.71,69.71,102.78,60.64,103.14,59Z"/><path class="cls-3" d="M110.73,50.9l-4.91.3a6.83,6.83,0,0,1-7.19-6.26c-.69-7.83,1.16-15.84,4.54-25.29l4.39-1.46S114.83,38.75,110.73,50.9Z"/><path class="cls-2" d="M107.4,43.73c2.38-7.07.16-25.54.16-25.54s7.27,20.56,3.17,32.71l-4.91.3a6.83,6.83,0,0,1-7.19-6.26c-.08-.87-.11-1.74-.13-2.61C100,43.73,104.53,44.61,107.4,43.73Z"/><path class="cls-10" d="M98.66,45.26s-2.75,2.59-2.27,4.94c0,0,7.8,7.21,13.58,5.16,0,0,2-1.88,1.4-6.84Z"/><path class="cls-11" d="M99.68,50.81c2.94,1.48,5.92,1.51,6.64.06.57-1.13-.43-2.84-2.32-4.24l7.37,1.89c.58,5-1.4,6.84-1.4,6.84-5.78,2-13.58-5.16-13.58-5.16a3.41,3.41,0,0,1,.15-1.76A10.07,10.07,0,0,0,99.68,50.81Z"/><path class="cls-11" d="M33,78.51a14.14,14.14,0,0,0,.53,1.89c1.36,3.74,3.85,6.27,5.57,5.65s2-4.16.66-7.91a14.37,14.37,0,0,0-.69-1.59c4.72,3.83,3.9,11.7,3.9,11.7-1.74,1.65-7.29,1.07-7.29,1.07l-3.22-10.4C32.63,78.77,32.81,78.64,33,78.51Z"/><path class="cls-12" d="M79.59,71.92c-9.38,3.6-16.57-2.65-17.34-4.24L66.08,64c.79-4.77-2.08-10-2.08-10l13-2.41s-.63,4.18,1.63,7.19l.07-.28,6.2,1.56.79-.2a104.49,104.49,0,0,0,8.1-7.27C93.59,58.83,90.8,67.62,79.59,71.92Z"/><path class="cls-13" d="M63.07,35.59c-2.17-.18-6.43,9.63-6.43,9.63l-2,4.31,9.92,10.19S70.18,37.25,63.07,35.59Z"/><path class="cls-14" d="M57,51.91l-2.32-2.39,2-4.3s.12-.29.33-.74Z"/><path class="cls-2" d="M63.05,47.76c-.17-.58-.31-1.17-.44-1.77L55,45.29C55.48,38.41,60,31.4,70.78,31.75h0A14.67,14.67,0,0,1,82.3,37c4,4.91,2.13,17.12-4.33,20.1l-.07.06c-7.54,5.78-17.07,5.25-17.07,5.25S55.65,60,53.88,49.17Z"/><path class="cls-7" d="M75.23,47.75c1.24-6.35-.43-12.4-3.92-16a14.63,14.63,0,0,1,11,5.2c4,4.91,2.13,17.12-4.33,20.1l-.07.06c-7.54,5.78-17.07,5.25-17.07,5.25a5.78,5.78,0,0,1-.67-.42C66.89,62.66,73.52,56.52,75.23,47.75Z"/><polygon class="cls-7" points="57.55 56.35 73.04 52.62 81.49 47.98 57.55 56.35"/><polygon class="cls-7" points="53.88 49.17 79.25 45.16 54.2 50.87 53.88 49.17"/><polygon class="cls-7" points="54.95 45.29 62.44 46.32 62.93 48.14 73.62 46.24 54.95 45.29"/><path class="cls-7" d="M83.45,50c-1,3.14-2.86,5.87-5.48,7.08l-.07.06A22,22,0,0,1,76,58.41a38.36,38.36,0,0,1-5.81.67A22.24,22.24,0,0,0,83.45,50Z"/><path class="cls-7" d="M82.65,37.5a9,9,0,0,1,1,2l-4.45,1.81L61.69,42l16.49-1.57Z"/><path class="cls-7" d="M59,35.85,74,38l-16.36-.51A12.51,12.51,0,0,1,59,35.85Z"/><polygon class="cls-2" points="71.07 34.65 59.52 33.88 58.35 35.88 74.03 37.95 71.07 34.65"/><polygon class="cls-2" points="61.53 42.37 54.66 41.72 53.87 45.33 62.66 45.68 61.53 42.37"/><polygon class="cls-2" points="67.68 52.73 55.7 56.98 53.43 50.85 66.25 48.2 67.68 52.73"/><path class="cls-4" d="M66,117.24c.58-3.94,1.11-7.38,1.53-9.66l1.6.24S68,116.89,67,127A77.83,77.83,0,0,0,66,117.24Z"/><path class="cls-4" d="M62.29,148.78l-.52.05.27-2.12C62.12,147.43,62.2,148.13,62.29,148.78Z"/><path class="cls-4" d="M69.66,118c-.06-4.26-.08-8,0-10.44l1.6.31s.15,5.87.55,13.39A8.59,8.59,0,0,0,69.66,118Z"/><polygon class="cls-8" points="69.17 109.18 71.44 108.42 71.27 106.31 67.96 105.81 66.97 107.8 69.17 109.18"/><path class="cls-11" d="M95.85,150.42l8.9-2.4c-.4.94-.83,2-1.29,3l-7.83.71C95.71,151.31,95.78,150.85,95.85,150.42Z"/><path class="cls-11" d="M94.85,156.49l5.38,2.11-.7,1.63-5.13-1.09C94.55,158.25,94.7,157.36,94.85,156.49Z"/><path class="cls-11" d="M92,172.86l2,.77c-.17.41-.33.82-.5,1.24l-1.75-.37C91.77,174,91.87,173.44,92,172.86Z"/><path class="cls-11" d="M93.46,164.5l3.85,1c-.28.66-.56,1.32-.83,2L93.19,166Z"/><path class="cls-11" d="M20.87,142.06l7.87,3.35c-.4.82-.91,1.91-1.49,3.19L20.34,144C20.52,143.33,20.7,142.68,20.87,142.06Z"/><path class="cls-11" d="M16.31,160.39l4.83,2.06-1.27,2.94-4.08-2.71C16,161.91,16.14,161.15,16.31,160.39Z"/><path class="cls-11" d="M18.59,150.81l5.84,4.11-.52,1.18L18,153.39Q18.28,152.07,18.59,150.81Z"/><path class="cls-11" d="M14.1,170.44l2.76,1.94c-.3.71-.59,1.37-.85,2l-2.5-1.14C13.71,172.3,13.9,171.37,14.1,170.44Z"/><path class="cls-7" d="M61.19,47l-2.69.13a1.51,1.51,0,0,1,1.28-.62A2.17,2.17,0,0,1,61.19,47Z"/><path class="cls-3" d="M101,21.24c-3-2.1-5.79-4.44-6.1-5.91s1.48-3.06,2.36-3.66,4.35,1.44,4.83,2-.17,2.18-.82,2.17-2.44-1-2.62-.64a2,2,0,0,0-.2.84S102.38,19.15,101,21.24Z"/></g></g></g></svg>