<svg xmlns="http://www.w3.org/2000/svg" viewBox="0 0 114.35 175.72"><defs><style>.cls-1{isolation:isolate;}.cls-2{fill:#ffb882;}.cls-3{fill:#f2cfa5;}.cls-4{fill:#593d36;}.cls-5{fill:#dd5f33;}.cls-6{fill:#e0c8b1;}.cls-7{fill:#ccb29e;}.cls-8{fill:#8e3a2f;}.cls-9{fill:#a05d4b;}.cls-10{fill:#934938;}.cls-11{fill:#89493a;}.cls-12{fill:#70362b;}.cls-13{fill:#d3874f;}.cls-14{fill:#472d27;}.cls-15{fill:#351e1b;}.cls-16{fill:#f7b541;}.cls-17{fill:#ffcd5f;}.cls-18{fill:#ea8a3b;}.cls-19{fill:#edd6ae;}.cls-20{fill:#e8975b;}.cls-21{fill:#cc9285;}.cls-22,.cls-24{fill:#843131;}.cls-22,.cls-23{opacity:0.6;mix-blend-mode:multiply;}.cls-25{fill:#89473a;}.cls-26{fill:#d1783d;}.cls-27{fill:#af5746;}.cls-28{fill:#c46c57;}</style></defs><g class="cls-1"><g id="Layer_2" data-name="Layer 2"><g id="_11" data-name="11"><path class="cls-2" d="M93.34,109.08c-.12,2.7-.68,7.27-.57,8.86s.9,4.09,1.86,4.88,3.8-1.88,4.11-2.61-1.08-2.87-1.74-2.78-.94.71-1.21.35a3.78,3.78,0,0,1-.42-1S96.24,111.58,93.34,109.08Z"/><path class="cls-3" d="M76.9,44.34c5-6,3.37-12.53,6.17-15.62s9.45-12.61,4.12-13.94-29,13.86-32.65,23.09S76.9,44.34,76.9,44.34Z"/><path class="cls-4" d="M92.37,63.08l-1.07-1.4-4.57,0L89,68S93.17,64.38,92.37,63.08Z"/><path class="cls-4" d="M25,67.5c-6.27-2.65-5.11-5.65-5.11-5.65l5.18-7.62Z"/><polygon class="cls-5" points="40.29 114.63 18.95 87.86 20.23 87.68 40.91 114.16 40.29 114.63"/><polygon class="cls-5" points="35.42 118.42 13.35 92.57 14.68 92.4 36.03 117.93 35.42 118.42"/><polygon class="cls-5" points="29.14 121.37 7.15 95.82 8.5 95.65 29.74 120.88 29.14 121.37"/><polygon class="cls-6" points="10.24 98.45 5.56 97.97 0 92 5.32 93.29 6.45 89.42 10.4 94.5 10.24 98.45"/><polygon class="cls-7" points="10.24 98.45 5.56 97.97 0 92 5.32 93.29 10.24 98.45"/><polygon class="cls-6" points="16.72 95.12 12.76 94.71 8.05 89.66 12.56 90.75 13.51 87.48 16.85 91.78 16.72 95.12"/><polygon class="cls-6" points="22.32 91.42 18.36 91.01 13.65 85.96 18.16 87.06 19.11 83.78 22.45 88.08 22.32 91.42"/><path class="cls-8" d="M74.43,45.21c5.85-6.7,4.52-14.2,7-17.54s9.67-9.78,4.33-11.11S56.66,30,53,39.23,74.43,45.21,74.43,45.21Z"/><path class="cls-4" d="M11.32,105.55,26.66,90s30.61,40.33,33.28,43.16c0,0-11.33,6-21.5,1.67S11.32,105.55,11.32,105.55Z"/><path class="cls-9" d="M73.72,42.55c7.78,2.32,17.74,24.12,18.4,30.14S77.46,82.71,75.76,81,73.72,42.55,73.72,42.55Z"/><path class="cls-10" d="M83.05,71.15a10.93,10.93,0,0,1,7.06-5.26C86.68,57.11,79.58,44.3,73.72,42.55c0,0,.35,36.69,2,38.42.64.65,3.16.5,6-.26C80.61,78.2,81,74.48,83.05,71.15Z"/><path class="cls-11" d="M32.77,99.62S18.7,152.9,16.47,170.35l1.34.57s18-17.07,25.87-27.69S62.12,97.91,62.12,97.91Z"/><path class="cls-12" d="M21.59,153.29c7.37-11.78,18-19,23.66-16a5.34,5.34,0,0,1,1.43,1.11C54,124.64,62.12,97.91,62.12,97.91L32.77,99.62s-9.8,37.1-14.34,59.52A51.76,51.76,0,0,1,21.59,153.29Z"/><path class="cls-11" d="M82.82,100.63S95.53,153.5,97.17,170l-1.36.54S78.4,154.39,70.87,144.37,54,101.57,54,101.57Z"/><path class="cls-12" d="M81.46,152.2c-3.69-15.58-1.24-29.51,5.47-31.1l.63-.11c-2.62-11.54-4.74-20.36-4.74-20.36L54,101.57s9.36,32.77,16.9,42.8a157.8,157.8,0,0,0,12.31,13.81C82.53,156.27,82,154.28,81.46,152.2Z"/><path class="cls-9" d="M21.39,134.58c12.89-1.9,54.7-13.65,65.5-19.71,0,0-6.34-26.18-7.48-27.13s-44.94,2.65-46.08,3.6S21.39,134.58,21.39,134.58Z"/><path class="cls-10" d="M57.53,91.22c19.93-2.17,25.88,9.8,28.35,24.18l1-.53s-6.34-26.18-7.48-27.13-44.94,2.65-46.08,3.6-11.94,43.24-11.94,43.24c1.15-.17,2.54-.42,4.11-.74C25.83,115.71,33.64,93.82,57.53,91.22Z"/><path class="cls-10" d="M60.33,90.59,59,90.31c-.28,6.16-2.13,18.53-2.13,18.53l4.53-.07Z"/><path class="cls-10" d="M62.6,90.47l-1.37.1c1.4,6,2.94,18.42,2.94,18.42l4.35-1.28Z"/><path class="cls-13" d="M22.4,130.63c-.63,2.44-1,4-1,4,12.89-1.9,54.7-13.65,65.5-19.71,0,0-.3-1.27-.79-3.26C74,117.71,35.61,128.5,22.4,130.63Z"/><polygon class="cls-13" points="37.52 128.76 34.14 122.53 31.94 122.9 30.48 130.54 37.52 128.76"/><polygon class="cls-13" points="48.28 125.37 44.9 119.13 42.71 119.51 41.24 127.15 48.28 125.37"/><polygon class="cls-13" points="59.05 121.98 55.67 115.74 53.47 116.11 52.01 123.76 59.05 121.98"/><polygon class="cls-13" points="69.81 118.59 66.43 112.35 64.24 112.72 62.77 120.37 69.81 118.59"/><polygon class="cls-13" points="80.58 115.2 77.2 108.96 75 109.33 73.54 116.98 80.58 115.2"/><path class="cls-9" d="M34.26,91.09c-1.5-6.26,4.57-51.58,5.14-53.66s32.43,2.65,34.51,4.36,7.4,41.65,6.45,43.8-4,3.6-4,3.6Z"/><path class="cls-10" d="M43.76,80.28c-1.2-5,3.35-44.11-4.36-42.85-3.78.61-6.64,47.4-5.14,53.66l42.12-1.9s3-1.45,4-3.6a8.61,8.61,0,0,0,.08-2.47Z"/><polygon class="cls-14" points="32.7 92.84 33.64 86.11 79.95 86.6 79.85 88.77 32.7 92.84"/><path class="cls-14" d="M61.32,88.13,60,87.85c-.27,6.17-2.13,18.53-2.13,18.53l4.53-.06Z"/><path class="cls-14" d="M63.59,88l-1.38.09c1.4,6,2.94,18.42,2.94,18.42l4.35-1.28Z"/><path class="cls-15" d="M44.89,88.78c0-.94,1-1.81,2.78-2.52l-14-.15-.94,6.73L48.17,91.5C46.12,90.77,44.89,89.82,44.89,88.78Z"/><path class="cls-15" d="M70.9,86.51c1.4.65,2.22,1.43,2.22,2.27a1.35,1.35,0,0,1-.15.58l6.88-.6L80,86.6Z"/><path class="cls-10" d="M47,46.09c.17,1.32-1,36.69-1,36.69L79.46,84s-2.78-30.77-4.92-34.9C67.76,46.29,47,46.09,47,46.09Z"/><path class="cls-16" d="M47.82,45.3c.16,1.33-1,36.69-1,36.69L78.3,83.1s-.83-30.71-3-34.84C68.54,45.51,47.82,45.3,47.82,45.3Z"/><path class="cls-16" d="M47.82,45.3c.16,1.33-1,36.69-1,36.69L78.3,83.1s-.83-30.71-3-34.84C68.54,45.51,47.82,45.3,47.82,45.3Z"/><polygon class="cls-17" points="54.32 78.56 53.01 78.52 51.34 82.15 62.03 82.53 63.69 78.92 65 78.96 66.97 74.72 56.26 74.39 54.32 78.56"/><polygon class="cls-17" points="57.63 74.2 68.34 74.53 70.02 70.49 59.31 70.16 57.63 74.2"/><polygon class="cls-17" points="60.29 70.07 71 70.4 72.67 66.36 61.96 66.03 60.29 70.07"/><polygon class="cls-17" points="63.24 65.94 73.95 66.27 75.62 62.23 64.91 61.9 63.24 65.94"/><path class="cls-17" d="M77,58.06l-9.29-.29-1.67,4,10.71.32L77.2,61C77.12,60,77,59,77,58.06Z"/><path class="cls-17" d="M76.49,53.73l-5.88-.18-1.67,4,8,.24C76.8,56.36,76.65,55,76.49,53.73Z"/><path class="cls-17" d="M75.75,49.48l-1.89-.06-1.68,4,4.29.13A36.12,36.12,0,0,0,75.75,49.48Z"/><path class="cls-18" d="M78.15,78.69l-31.23-1c0,.3,0,.58,0,.86l31.3,1C78.18,79.32,78.17,79,78.15,78.69Z"/><path class="cls-18" d="M78,74.46l-30.92-.95c0,.3,0,.58,0,.86l31,1C78,75.07,78,74.77,78,74.46Z"/><path class="cls-18" d="M77.78,70.22,47.2,69.29l0,.86,30.66,1C77.81,70.84,77.8,70.53,77.78,70.22Z"/><path class="cls-18" d="M77.54,66l-30.21-.92c0,.28,0,.57,0,.86l30.29,1Z"/><path class="cls-18" d="M77.26,61.75l-29.8-.91c0,.29,0,.58,0,.86l29.88,1Z"/><path class="cls-18" d="M76.9,57.51l-29.31-.89,0,.86,29.43,1Z"/><path class="cls-18" d="M76.43,53.27,47.71,52.4c0,.28,0,.56,0,.86l28.87.93C76.51,53.87,76.47,53.57,76.43,53.27Z"/><path class="cls-18" d="M75.62,49l-27.81-.85c0,.27,0,.56,0,.86l28.07.91C75.78,49.59,75.7,49.29,75.62,49Z"/><path class="cls-5" d="M36.61,144.51l-.72-1.12c19-12.22,36.65-4,52.12-16.15,26.07-20.48,9.68-40.11,25.36-57.16l1,.9c-15.19,16.52,2.73,37.63-23.82,58.5C74.63,142,55.31,132.5,36.61,144.51Z"/><path class="cls-2" d="M91.61,106.71s2.63,4.92,2.3,6.24c-1.44,5.72.11,5.35,4.67,11.6.33-1.09,6.83-6.35,6.83-6.35a27.34,27.34,0,0,0-2-7c-.42-.82-2.56-3.47-3.12-5.5C99.56,102.88,91.61,106.71,91.61,106.71Z"/><path class="cls-2" d="M98.35,119c-1.09-.5-2.51,1.18-2.2,1.8s1.58,4.59,2.47,4.55,2.39-1.1,2.31-1.72S99.22,119.41,98.35,119Z"/><path class="cls-2" d="M100.69,116.66c-1.09-.5-2.51,1.18-2.2,1.8s1.58,4.59,2.47,4.55,2.39-1.1,2.31-1.73S101.56,117.07,100.69,116.66Z"/><path class="cls-2" d="M103.22,114.69c-1.07-.45-2.54,1.1-2.26,1.66s1.42,4.18,2.31,4.14,2.42-1,2.36-1.6S104.07,115.05,103.22,114.69Z"/><path class="cls-12" d="M92.06,73.79c5,12.81,9.17,33,9.17,33l-8,3.35c-4.49-10-9.79-21.05-12.5-29.14C80.75,81,83,74.07,92.06,73.79Z"/><path class="cls-9" d="M39.4,37.43c-9.3,1.91-18.14,28.92-17,34.26S36,77,38.27,73.35,47.39,35.78,39.4,37.43Z"/><path class="cls-10" d="M39.4,37.43c-7,1.45-13.78,17.21-16.17,27.13,5.4-2.19,14.65-2.06,12.28-.37-1.6,1.14-7.77,7.53-13.15,5.51a7.21,7.21,0,0,0,.07,2C23.6,77,36,77,38.27,73.35S47.39,35.78,39.4,37.43Z"/><polygon class="cls-19" points="39.24 143.09 38.17 142.58 61.05 93.89 112.21 71.8 112.68 72.89 61.52 94.32 39.24 143.09"/><polygon class="cls-19" points="113.46 72.6 112.47 73.82 111.15 72.26 112.03 71.28 113.46 72.6"/><polygon class="cls-19" points="109.59 74.74 110 73.97 112.47 73.56 111.62 75 109.59 74.74"/><polygon class="cls-19" points="110.37 77.17 109.11 75.66 109.67 74.6 111.14 76 110.37 77.17"/><polygon class="cls-19" points="38.27 143.77 37.8 142.05 38.61 141.46 39.94 143.01 38.27 143.77"/><polygon class="cls-19" points="39.67 140.89 41.09 142.27 42.13 141.9 40.45 140.11 39.67 140.89"/><polygon class="cls-19" points="41.51 140.06 41.09 142.27 42.13 141.9 42.35 139.69 41.51 140.06"/><path class="cls-2" d="M55.19,85s2.23,2.62,3.15,2.94a27.19,27.19,0,0,1,4.72,2.44c.58.34,1.12,3.75,1.15,5-.77-.23-6.53,1.54-6.53,1.54A18.59,18.59,0,0,1,54.31,93a19.8,19.8,0,0,0-3.45-3.21C49.25,88.56,55.19,85,55.19,85Z"/><path class="cls-2" d="M57.94,88.08c2.82,0,4.24-.06,5.09.69a6.88,6.88,0,0,1,1.31,4.49c-.28.75-3.14,0-3.67-.14s-.87-1.38-.46-1.66,1.94-.47,1.91-.73a1.52,1.52,0,0,0-.25-.6S58,89.94,57.94,88.08Z"/><path class="cls-2" d="M61,93c.14-.83,1.72-1,2-.59s2.08,2.69,1.69,3.2-1.62,1-2,.69S60.91,93.71,61,93Z"/><path class="cls-2" d="M58.68,93.51c.15-.83,1.72-1,2-.6s2.08,2.7,1.7,3.21-1.63,1-2,.68S58.57,94.17,58.68,93.51Z"/><path class="cls-2" d="M56.49,94.22c.16-.79,1.68-1.06,1.9-.67s1.9,2.44,1.52,3-1.6,1-1.91.76S56.35,94.87,56.49,94.22Z"/><path class="cls-12" d="M40,66c5.54,5.67,16.9,20.76,16.9,20.76l-4.44,4.62C46.18,89.27,30.83,81.07,24.18,74,24.18,74,32,66.3,40,66Z"/><path class="cls-16" d="M39.1,60.68s-16.79-2.47-19.17,1.17c0,0,10.67-26,22.84-26.84C42.77,35,43.77,43.35,39.1,60.68Z"/><path class="cls-16" d="M39.1,60.68s-16.79-2.47-19.17,1.17c0,0,10.67-26,22.84-26.84C42.77,35,43.77,43.35,39.1,60.68Z"/><path class="cls-17" d="M26.18,59.21a69.86,69.86,0,0,1,12.56.67,93.09,93.09,0,0,0,3.44-20,.75.75,0,0,0-.13-.06c-3.88-1.33-10.16,5-14,14A39.16,39.16,0,0,0,26.18,59.21Z"/><path class="cls-18" d="M39.84,57.84c.1-.43.2-.83.29-1.25-3.45-.43-13.14-1.45-17.79.06l-.75,1.54C25.68,56.18,36.78,57.44,39.84,57.84Z"/><path class="cls-18" d="M40.65,54.38c.09-.43.17-.83.26-1.25-3.7-.44-12.13-1.23-16.7,0-.28.51-.55,1-.8,1.48C27.61,53,37.16,54,40.65,54.38Z"/><path class="cls-18" d="M41.35,50.92c.08-.42.17-.85.24-1.25-3.74-.43-10.87-1-15.3-.13L25.43,51C29.66,49.75,37.68,50.48,41.35,50.92Z"/><path class="cls-18" d="M42,47.44c.06-.43.12-.84.18-1.25-3.58-.38-9.36-.81-13.49-.23l-.95,1.38C31.8,46.52,38.33,47,42,47.44Z"/><path class="cls-18" d="M42.43,44c0-.43.09-.86.13-1.25a66.15,66.15,0,0,0-11.18-.29c-.37.43-.73.87-1.09,1.33A59.54,59.54,0,0,1,42.43,44Z"/><path class="cls-18" d="M42.75,40.47c0-.45,0-.86.06-1.26a74,74,0,0,0-8-.29c-.46.4-.91.82-1.36,1.27A66.14,66.14,0,0,1,42.75,40.47Z"/><path class="cls-18" d="M42.82,35.72c-.84-.06-1.73-.12-2.62-.15a13.7,13.7,0,0,0-2.46,1.16c1.75,0,3.53.12,5.12.24C42.85,36.45,42.84,36,42.82,35.72Z"/><path class="cls-16" d="M74.25,40.89,83,66.25c3.81-3.58,8.11-4.23,9.53-3C92.53,63.2,85.2,43.44,74.25,40.89Z"/><path class="cls-17" d="M74.57,41l-.32-.09,0,.1Z"/><path class="cls-17" d="M76.22,41.55c3,2,6.15,8.7,7.66,17.06a54.89,54.89,0,0,1,.75,6.3c3.33-2.38,6.68-2.72,7.9-1.71C92.53,63.2,86.07,45.8,76.22,41.55Z"/><path class="cls-20" d="M70.36,35,56.73,33.07l-.81,5.75c5.19,4.75,8.51,5,13.63,1.92Z"/><path class="cls-21" d="M96.56,175.72h13.9s-1.45-1.89-8.45-2.67c-3-.33-5.46-4.15-5.46-4.15l-1.1.48S95.12,173.72,96.56,175.72Z"/><path class="cls-21" d="M17.64,175.72H3.34s1.48-1.89,8.69-2.67c3.07-.33,5.62-4.15,5.62-4.15l1.13.48S19.13,173.72,17.64,175.72Z"/><path class="cls-10" d="M46.34,128.72l5.39-1.51s.69-20.16-.78-25.37C51,101.84,50.18,117.07,46.34,128.72Z"/><path class="cls-10" d="M76.26,119.54l4.9-2s-2.72-10.4-5-13.13C76.18,104.39,78.33,112.85,76.26,119.54Z"/><path class="cls-18" d="M91.61,61q-.14-.33-.3-.69c-2-.57-5.72.26-9.31,3.07l.25.74C85.89,61,89.77,60.2,91.61,61Z"/><path class="cls-18" d="M90.43,58.4l-.34-.69c-2-.46-5.56.39-9,3l.25.73C84.84,58.55,88.55,57.75,90.43,58.4Z"/><path class="cls-18" d="M89.1,55.81l-.36-.66c-2.06-.31-5.32.55-8.54,3l.25.73C83.73,56.16,87.18,55.33,89.1,55.81Z"/><path class="cls-18" d="M87.63,53.22l-.39-.62c-2-.13-5,.74-7.94,2.93l.25.72C82.55,53.83,85.67,53,87.63,53.22Z"/><path class="cls-18" d="M86,50.67c-.14-.2-.27-.4-.41-.59a13.58,13.58,0,0,0-7.18,2.84l.24.72A12.38,12.38,0,0,1,86,50.67Z"/><path class="cls-18" d="M83.71,47.64a14.26,14.26,0,0,0-6.21,2.67l.24.72a13.08,13.08,0,0,1,6.42-2.83Z"/><path class="cls-18" d="M81.61,45.35a14.85,14.85,0,0,0-5,2.35l.24.72a14,14,0,0,1,5.27-2.56C82,45.69,81.78,45.51,81.61,45.35Z"/><path class="cls-18" d="M79.19,43.27a16,16,0,0,0-3.49,1.82l.24.72a14.75,14.75,0,0,1,3.84-2.08Z"/><path class="cls-18" d="M76.32,41.59a16.48,16.48,0,0,0-1.52.91l.25.7a15.81,15.81,0,0,1,2-1.25Q76.69,41.76,76.32,41.59Z"/><path class="cls-18" d="M51.72,80l-6.76,8c1.39.7,2.69,1.31,3.88,1.84l5.42-6.62C53.53,82.35,52.66,81.23,51.72,80Z"/><path class="cls-18" d="M40,66c-8,.35-15.78,8-15.78,8a41.14,41.14,0,0,0,4.94,4.36l14-8.83C42,68.1,40.88,66.88,40,66Z"/><path class="cls-22" d="M28.78,72.37a33.4,33.4,0,0,1,8.83-6.11C30.52,67.76,24.18,74,24.18,74c6.65,7.12,22,15.32,28.24,17.38l1.81-1.88C47.63,86.63,34.66,78.94,28.78,72.37Z"/><g class="cls-23"><path class="cls-24" d="M59.46,48.47C68.3,50,76.39,48.09,80.24,44.1l-.38-.31-.4-.31L79,43.12l-.4-.27-.5-.32c-.13-.09-.27-.16-.41-.24l-.5-.29-.43-.21a12.19,12.19,0,0,0-2.49-.9l0,.1.52,1.51.21.6-.05,0L74.71,43l-.28-.14a2.55,2.55,0,0,0-.52-1,15.76,15.76,0,0,0-4.33-1.31L70.36,35,56.73,33.07,56,38.17a128.17,128.17,0,0,0-13.15-1.26c0-.23,0-.45,0-.64h0c0-.82-.07-1.25-.07-1.25a10.08,10.08,0,0,0-2.08.41C41.84,41.24,49.48,46.75,59.46,48.47Z"/></g><path class="cls-20" d="M78.89,17.12c-1.58,10-3.11,18.44-4.56,21.06-3.13,1.9-14.18-2.25-14.18-2.25s3.22-15.41,5.69-17.42S78.89,17.12,78.89,17.12Z"/><path class="cls-4" d="M68.26,32.76c1.84-1.89,4.51-4.19,6.48-3.54,1.23.4,1.88,2.53,2.83,4.85C74.39,31.91,72.36,31.36,68.26,32.76Z"/><path class="cls-4" d="M79.2,24.18c-1.72.46-3,.76-3,.76l.5-1.81,2.7.31Z"/><path class="cls-25" d="M73.16,24.68a8.89,8.89,0,0,0-3,0l3.35.86Z"/><path class="cls-25" d="M77,25.93c-1.52-.33-1.76.28-1.76.28l2.07.54Z"/><path class="cls-26" d="M76,24.1c.86,2.7,2.15,5,1.9,5.59s-3.5-.28-3.5-.28Z"/><path class="cls-20" d="M75.42,23.68c.86,2.71,2.15,5,1.9,5.59s-3.5-.28-3.5-.28Z"/><path class="cls-4" d="M69.8,21.25c3.47,2,6.17,3.48,6.17,3.48l.43-1.59-6.34-2.51Z"/><path class="cls-26" d="M70.12,33.52a10,10,0,0,1,4-.14l-.39.87Z"/><path class="cls-22" d="M79.2,24.18l.17-.74-1.48-.17c.33-1.95.66-4,1-6.15,0,0-10.58-.62-13,1.39s-5.69,17.42-5.69,17.42a60.38,60.38,0,0,0,7.72,2.25c3-3.84,5.15-9,9.64-12.74l.15-.86C78.11,24.47,78.63,24.34,79.2,24.18Z"/><path class="cls-27" d="M87.62,17.67c-21.07.78-18.68,19-30,22.17s-22.84-8.66-22.84-8.66S46.6,28.51,48.94,22,51.61,5.5,58.61,0C74.28,1.83,87.62,17.67,87.62,17.67Z"/><path class="cls-28" d="M58.61,0l-.24.21c4,5.45,6.49,13.56,6.49,22.62a44.77,44.77,0,0,1-2.15,13.93c6.15-6.21,7.73-18.45,24.91-19.09C87.62,17.67,74.28,1.83,58.61,0Z"/><path class="cls-3" d="M84.86,14.74c-19.16,1.71-17.23,19-28.24,22.06-7.89,2.2-15.7-3.06-20-6.14-2.53-1.83-2.53,0-2.07.79.74,1.3,11.86,12.11,23.2,8.94s8.77-21.94,29.84-22.72C89.19,17.22,89,14,84.86,14.74Z"/><path class="cls-18" d="M92.06,73.79C83,74.07,80.75,81,80.75,81c.3.91.65,1.86,1,2.84a37.63,37.63,0,0,1,11.66-6.27C93,76.28,92.53,75,92.06,73.79Z"/><path class="cls-18" d="M99.44,98.89l-9.63,3.73c.72,1.57,1.44,3.14,2.14,4.7l8.7-3.2C100.42,102.75,99.82,100.92,99.44,98.89Z"/><path class="cls-22" d="M84,81.11a12.52,12.52,0,0,1,8.35-6.49c-.1-.28-.2-.56-.31-.83C83,74.07,80.75,81,80.75,81c2.71,8.09,8,19.15,12.5,29.14l1.34-.54C90.83,99.67,86.11,89.1,84,81.11Z"/></g></g></g></svg>