<svg xmlns="http://www.w3.org/2000/svg" viewBox="0 0 174.38 215.4"><defs><style>.cls-1{isolation:isolate;}.cls-2{fill:#d87a35;}.cls-3{fill:#d13d6b;}.cls-4{fill:#a58c7e;}.cls-5{fill:#59473d;}.cls-6{fill:#6b323d;}.cls-7{fill:#ef9b3f;}.cls-8{fill:#5e3f42;}.cls-9{fill:#4c3034;}.cls-10{fill:#ce6225;}.cls-11{fill:#382427;}.cls-12{fill:#894c55;}.cls-13{fill:#44272d;}.cls-14{fill:#9e8e85;}.cls-15{fill:#512f35;}.cls-16{fill:#c1b4a0;}.cls-17{fill:#843131;opacity:0.6;mix-blend-mode:multiply;}.cls-18{fill:#e5b751;}.cls-19{fill:#ffc7a1;}.cls-20{fill:#7a5841;}.cls-21{fill:#eaa373;}.cls-22{fill:#84736b;}.cls-23{fill:#7f6d62;}.cls-24{fill:#66564e;}.cls-25{fill:#eddfcc;}.cls-26{fill:#9bb2af;}</style></defs><g class="cls-1"><g id="Layer_2" data-name="Layer 2"><g id="_11" data-name="11"><path class="cls-2" d="M94.18,114.11a11.72,11.72,0,0,0,3.46-.59,35,35,0,0,1,6.33-2.44c.76-.2,3.28,2.31,4,3.34-.89.48-5.47,7-5.47,7A17.82,17.82,0,0,1,97,121c-.64-.22-2.59.22-4.19.1C90.58,120.9,94.18,114.11,94.18,114.11Z"/><path class="cls-3" d="M33.57,37.56C21.37,21.36,11.34,0,11.34,0S34.69,31.88,36.56,35.15s.8,6.17.45,6.17S34.42,38.69,33.57,37.56Z"/><polygon class="cls-4" points="35.53 48.35 37.01 41.33 44.55 42.8 35.53 48.35"/><path class="cls-5" d="M62.19,54.9l4.6,26S54.51,83.27,48.67,82.1L46.43,61Z"/><path class="cls-6" d="M63.59,88.06c6.89,8.21,9.11,27.37,16.55,29.53,2.86.84-7.1,10.28-9.2,9.35s-10.39-5.14-12.49-9.69S60.55,84.44,63.59,88.06Z"/><polygon class="cls-2" points="60.08 121.57 59.27 109.77 73.75 103.47 77.47 113.45 60.08 121.57"/><path class="cls-7" d="M76.77,111.57a12.94,12.94,0,0,0-4.17,1.36c-2.93,1.5-4.86,3.62-4.66,5l9.53-4.45Z"/><path class="cls-8" d="M58,118.06l19.26-10S70.36,87.36,59.58,84.16C59.58,84.16,52.9,98,58,118.06Z"/><path class="cls-9" d="M71.3,111.24c-2-10.52-6.31-18.48-11-18.48a4.93,4.93,0,0,0-3.66,2A59.13,59.13,0,0,0,58,118.06Z"/><polygon class="cls-2" points="64.32 124.97 33.23 132.43 32.76 138.26 65.81 130.91 64.32 124.97"/><path class="cls-10" d="M51.24,131.23c4.85-1.18,9.29-1,11.4.38l3.17-.7L64.32,125l-31.09,7.46-.47,5.83,8.92-2C43.23,134.29,46.81,132.32,51.24,131.23Z"/><rect class="cls-11" x="33.81" y="142.64" width="36.78" height="28.72" transform="translate(-30.22 13.54) rotate(-11.49)"/><path class="cls-12" d="M.17,215.4H7.64s.61-3.82-.36-4.19S3,213.67.17,215.4Z"/><path class="cls-12" d="M107.59,215.4H94.22s-1.1-3.82.65-4.19S102.6,213.67,107.59,215.4Z"/><path class="cls-12" d="M23.42,167s-13.78,36.43-18,45.77h.7l32.23-41.34Z"/><path class="cls-6" d="M19.65,195.43l18.72-24L23.42,167s-3.73,9.87-7.91,20.65A22.43,22.43,0,0,1,19.65,195.43Z"/><path class="cls-12" d="M67.17,167.17S90.3,203.68,95,212.76l.89-.5L80.11,160Z"/><path class="cls-6" d="M84.64,175l-4.53-15-12.94,7.15s7.63,12.05,15,24A78.5,78.5,0,0,1,84.64,175Z"/><path class="cls-8" d="M17.35,176.8c15.41,7,38.76.23,38.76.23L55,147.37l1.3-.65,8.5,28.44,19.62-8.87-17.51-37.6-35.5,8.87Z"/><path class="cls-9" d="M37.11,136.13l-5.75,1.43-14,39.24a33.22,33.22,0,0,0,6.53,2.11C23.88,165.06,29.75,147.51,37.11,136.13Z"/><path class="cls-9" d="M80.77,167.92l3.6-1.63-17.51-37.6L61.57,130C69.66,138.07,77.74,153.55,80.77,167.92Z"/><path class="cls-7" d="M82.88,163.08l-16.24,7.43-8.57-26.75-5,1v30.3s-19.31,4.48-34.52-1.56L17,176.86c15.41,7,39.54.52,39.54.52l-1.19-29.56.82-.22,8.27,28.23L85,166.89Z"/><path class="cls-8" d="M31.65,132.6c15-.82,33.8-5.78,33.8-5.78s2.32-33.54-1.65-39.26-17-6.84-19.48-6.37-13.08,6.17-14.24,8.5S30.08,127.58,31.65,132.6Z"/><path class="cls-9" d="M38.21,128.73c-1.3-4.16-2.39-34.86-5.32-36.95-1.43,1-2.83-.46-3.16.19-1.17,2.34,0,35.88,1.59,40.9,15-.82,34.13-6.05,34.13-6.05s0-.55.1-1.52A183.31,183.31,0,0,1,38.21,128.73Z"/><path class="cls-13" d="M62.32,90.63l-23.24.94.47,35.26,24.17-3.39S63.73,100,62.32,90.63Z"/><path class="cls-14" d="M54.81,111.7l-3.82.15c0,1.28,0,2.52.07,3.69l3.82-.27C54.86,114.12,54.84,112.93,54.81,111.7Z"/><path class="cls-14" d="M50.36,115.59c0-1.19,0-2.43-.08-3.71l-4.74.19c0,1.34,0,2.64,0,3.86Z"/><path class="cls-14" d="M62.83,111.37l-3.11.12c0,1.2.05,2.35.07,3.43l3.1-.22C62.88,113.65,62.85,112.53,62.83,111.37Z"/><path class="cls-14" d="M59,111.52l-3.51.15c0,1.23.05,2.42.07,3.55l3.51-.25C59.07,113.87,59.05,112.72,59,111.52Z"/><path class="cls-14" d="M55.15,101.14l3.49-.14c-.07-1.42-.16-2.8-.25-4.1L54.9,97C55,98.34,55.08,99.72,55.15,101.14Z"/><path class="cls-14" d="M54.46,92.29c.14,1.15.27,2.47.38,3.91l3.48-.14c-.11-1.44-.25-2.76-.39-3.91Z"/><path class="cls-14" d="M59.11,96.87c.09,1.3.18,2.68.25,4.1l3.09-.13c-.08-1.42-.17-2.81-.27-4.09Z"/><path class="cls-14" d="M50.33,96.38l3.79-.15c-.11-1.43-.24-2.75-.38-3.91L50,92.47C50.1,93.62,50.22,95,50.33,96.38Z"/><path class="cls-14" d="M59.57,106l3.1-.12c-.05-1.4-.11-2.81-.18-4.18l-3.09.13C59.47,103.19,59.52,104.59,59.57,106Z"/><path class="cls-14" d="M50.26,111c0-1.25-.07-2.52-.11-3.8l-4.68.19c0,1.28,0,2.56.06,3.81Z"/><path class="cls-14" d="M62.7,106.71l-3.1.13c0,1.29.08,2.57.1,3.81l3.11-.13C62.78,109.28,62.74,108,62.7,106.71Z"/><path class="cls-14" d="M55.49,110.82l3.51-.14c0-1.25-.07-2.53-.11-3.81l-3.5.14C55.43,108.3,55.46,109.58,55.49,110.82Z"/><path class="cls-14" d="M54.64,106.2c0-1.41-.1-2.81-.17-4.18l-3.8.15c.06,1.38.12,2.78.17,4.18Z"/><path class="cls-14" d="M50.39,97.23c.09,1.3.17,2.68.24,4.1l3.8-.16c-.07-1.42-.16-2.8-.25-4.1Z"/><path class="cls-14" d="M51,111l3.82-.15c0-1.25-.07-2.53-.12-3.81l-3.81.16C50.9,108.48,50.94,109.76,51,111Z"/><path class="cls-14" d="M45.45,106.57l4.67-.19c0-1.4-.1-2.81-.17-4.18l-4.61.19C45.39,103.76,45.43,105.17,45.45,106.57Z"/><path class="cls-14" d="M55.19,102c.06,1.37.12,2.78.17,4.18l3.5-.15c0-1.4-.11-2.8-.18-4.17Z"/><path class="cls-14" d="M50.46,124c0-.81,0-1.84,0-3l-4.88.48c0,1.57,0,2.72,0,3.24Z"/><path class="cls-14" d="M45.07,96.6l4.54-.19c-.11-1.42-.23-2.74-.37-3.91l-4.51.18C44.86,93.83,45,95.15,45.07,96.6Z"/><path class="cls-14" d="M59.11,115.82l-3.52.24c0,1.29,0,2.47,0,3.5l3.52-.35C59.14,118.19,59.13,117.05,59.11,115.82Z"/><path class="cls-14" d="M62.91,115.55l-3.11.22c0,1.26,0,2.4,0,3.37l3.1-.3C62.94,117.89,62.92,116.78,62.91,115.55Z"/><path class="cls-14" d="M51.07,116.38c0,1.34,0,2.55,0,3.62l3.83-.38c0-1.06,0-2.24,0-3.51Z"/><path class="cls-14" d="M44.86,121.46l-4.19.42,0,3.43,4.12-.58C44.85,123.88,44.86,122.77,44.86,121.46Z"/><path class="cls-14" d="M59.85,120c0,1.63,0,2.62,0,2.62l-.68.1c0-.68,0-1.59,0-2.65l-3.52.34c0,1.33,0,2.31,0,2.82l7.31-1s0-1,0-2.52Z"/><path class="cls-14" d="M44.34,96.63c-.09-1.44-.2-2.76-.32-3.92l-3.73.15.05,3.93Z"/><path class="cls-14" d="M55,120.47l-3.83.38c0,1.41,0,2.46,0,3l3.83-.53C55,122.55,55,121.59,55,120.47Z"/><path class="cls-14" d="M59,96l3.07-.13c-.13-1.46-.27-2.79-.44-3.9l-3,.12C58.79,93.26,58.93,94.58,59,96Z"/><path class="cls-14" d="M40.41,101.74l4.18-.17c-.05-1.42-.12-2.8-.19-4.1l-4,.17Z"/><path class="cls-14" d="M49.91,101.36c-.07-1.42-.15-2.8-.24-4.1l-4.55.18c.08,1.3.14,2.68.19,4.1Z"/><path class="cls-14" d="M44.62,102.42l-4.2.17,0,4.18,4.27-.17C44.71,105.19,44.67,103.79,44.62,102.42Z"/><path class="cls-14" d="M50.42,120.07c0-1.11,0-2.33-.05-3.64l-4.81.34v3.78Z"/><path class="cls-14" d="M44.87,120.62c0-1.16,0-2.44,0-3.8l-4.25.3,0,3.91Z"/><path class="cls-14" d="M44.86,116c0-1.25,0-2.54,0-3.88l-4.28.18.05,4Z"/><path class="cls-14" d="M44.82,111.26q0-1.89-.06-3.81l-4.28.17.05,3.81Z"/><path class="cls-12" d="M17,97.31c-7.63,7.9-15.35,24.41-16.3,27.05-1.59,4.39,3,8.75,5.16,7.75S26.07,114,28.14,107.39C29.54,102.89,20.39,93.82,17,97.31Z"/><path class="cls-6" d="M18.08,96.65c3.81,1.65,8.17,7.18,7.17,10.38C23.28,113.35,7,129.85,3.6,132.2a2.62,2.62,0,0,0,2.48.6c2.19-1,20-18.8,22.06-25.41C29.42,103.3,22,95.45,18.08,96.65Z"/><path class="cls-6" d="M17,97.31C11.92,102.59,6.77,111.73,3.64,118a14.94,14.94,0,0,1,7,4.8,14.68,14.68,0,0,1,2.3,3.79c6-6.07,13.84-14.94,15.17-19.19C29.54,102.89,20.39,93.82,17,97.31Z"/><path class="cls-2" d="M4.92,112c1.65-4.23,6.69-10.61,9.6-13.24l8.67,19-4.51,5.42Z"/><path class="cls-7" d="M19.15,122.59c-.28-1.79-2.62-4.7-6.11-7.32a21.53,21.53,0,0,0-7.83-4c-.11.24-.21.47-.29.69l13.76,11.2Z"/><path class="cls-8" d="M24,121.2,6.36,103.92s7.21-11.69,29.09-18.44C35.45,85.48,36.2,105.2,24,121.2Z"/><path class="cls-9" d="M35.16,91.52a38.29,38.29,0,0,1-2,6.15c-3.46,8.33-9.39,15-15.13,17.72l6.18,6.52C32.26,111.41,34.43,98.6,35.16,91.52Z"/><path class="cls-12" d="M72.4,117a7.26,7.26,0,0,1,5.38-2.74c4.17-.18,10,0,18.82.22l-.5,5.42c-13.38,8.45-23.86,6.6-23.86,6.6C70.85,123.92,69.91,120.2,72.4,117Z"/><path class="cls-6" d="M72.88,124.28c-.9-1.69-2.08-3.72-1.67-6.06-1.85,3.06-.69,6.53.59,8.93,0,0,10.92,1.24,24.3-7.21l.22-2.36C83.33,125.43,72.88,124.28,72.88,124.28Z"/><path class="cls-15" d="M37.21,84.46,37.78,79H59l1.06,5.48S50.77,90.44,37.21,84.46Z"/><path class="cls-16" d="M54.81,111.7l-3.82.15c0,1.28,0,2.52.07,3.69l3.82-.27C54.86,114.12,54.84,112.93,54.81,111.7Z"/><path class="cls-16" d="M50.36,115.59c0-1.19,0-2.43-.08-3.71l-4.74.19c0,1.34,0,2.64,0,3.86Z"/><path class="cls-16" d="M55.57,114.71l1.24-3.1-1.3.06C55.53,112.72,55.55,113.74,55.57,114.71Z"/><path class="cls-16" d="M55.15,101.14l3.49-.14c-.07-1.42-.16-2.8-.25-4.1L54.9,97C55,98.34,55.08,99.72,55.15,101.14Z"/><path class="cls-16" d="M58.32,96.06c-.11-1.44-.25-2.76-.39-3.91l-3.47.14c.14,1.15.27,2.47.38,3.91Z"/><path class="cls-16" d="M59.11,96.87c.09,1.3.18,2.68.25,4.1l1.72-.07,1.19-3c0-.4-.06-.81-.09-1.19Z"/><path class="cls-16" d="M53.74,92.32l-.43,0-1.59,4,2.4-.09C54,94.8,53.88,93.48,53.74,92.32Z"/><path class="cls-16" d="M59.52,104.81l1.22-3-1.34.06C59.45,102.8,59.48,103.81,59.52,104.81Z"/><path class="cls-16" d="M50.15,107.23l-2.83.11-1.55,3.88,4.49-.19C50.23,109.78,50.19,108.51,50.15,107.23Z"/><path class="cls-16" d="M55.49,110.82l1.66-.07,1.55-3.87-3.31.13C55.43,108.3,55.46,109.58,55.49,110.82Z"/><path class="cls-16" d="M54.47,102l-3.8.15c.06,1.38.12,2.78.17,4.18l3.8-.15C54.59,104.79,54.54,103.39,54.47,102Z"/><path class="cls-16" d="M54.43,101.17c-.07-1.42-.16-2.8-.25-4.1l-2.81.12-.85,2.13c0,.65.08,1.32.11,2Z"/><path class="cls-16" d="M54.67,107l-3.81.16c0,1.28.08,2.56.11,3.8l3.82-.15C54.75,109.6,54.72,108.32,54.67,107Z"/><path class="cls-16" d="M50,102.2l-.59,0-1.7,4.25,2.46-.1C50.07,105,50,103.57,50,102.2Z"/><path class="cls-16" d="M55.19,102c.06,1.37.12,2.78.17,4.18l3.5-.15c0-1.4-.11-2.8-.18-4.17Z"/><path class="cls-16" d="M45.55,121.4c0,1.57,0,2.72,0,3.24l4.93-.69c0-.81,0-1.84,0-3Z"/><path class="cls-16" d="M51.07,116.38c0,1.34,0,2.55,0,3.62l2.44-.24,1.35-3.37a2.72,2.72,0,0,0,0-.28Z"/><path class="cls-16" d="M44.84,124.73c0-.85,0-2,0-3.27l-3.31.33-.85,2.14,0,1.38Z"/><path class="cls-16" d="M51.14,123.85l.83-.11,1.23-3.1-2.08.21C51.13,122.26,51.14,123.31,51.14,123.85Z"/><path class="cls-16" d="M62.11,95.9c-.13-1.46-.27-2.79-.44-3.9l-3,.12c.15,1.14.29,2.46.4,3.91Z"/><path class="cls-16" d="M49.89,100.91l-.19.45h.21C49.9,101.2,49.9,101.06,49.89,100.91Z"/><path class="cls-16" d="M45.56,120.55l4.86-.48c0-1.11,0-2.33-.05-3.64l-4.81.34Z"/><path class="cls-16" d="M44.86,116.82l-1.36.1-1.6,4,3-.29C44.87,119.46,44.87,118.18,44.86,116.82Z"/><path class="cls-16" d="M44.84,113.54l-1,2.51,1-.07C44.86,115.19,44.85,114.37,44.84,113.54Z"/><path class="cls-17" d="M71.11,95c-2.85-4.66-6.6-9.15-11-10.7L59,79H37.78l-.57,5.51h0c-.59.34-1.19.68-1.76,1h0a60.29,60.29,0,0,0-7.29,3.19A69.93,69.93,0,0,0,44,94.52C55.23,97.3,65.57,97.33,71.11,95Z"/><path class="cls-18" d="M35.6,40.81C25.18,35.34,17.27,24.22,17.27,24.22l-1-7.77S34.56,36.93,36,39.16,37.29,41.69,35.6,40.81Z"/><path class="cls-19" d="M44.9,63.77l1.91,13.11s8.84,5.1,15.38,1c0,0,.06-20.58-2.27-23.38S44.67,56.18,44.9,63.77Z"/><path class="cls-20" d="M61.31,63.39a15.1,15.1,0,0,0-3.07,1.09L61.72,64Z"/><polygon class="cls-4" points="36.58 43.34 34.77 40.53 37.52 39.01 39.3 41.77 36.58 43.34"/><polygon class="cls-7" points="51.27 130.53 50.53 132.97 52.3 133.85 55.48 133.11 55.84 131.44 54.08 129.86 51.27 130.53"/><path class="cls-7" d="M52.53,133.26l-2-.29a18.7,18.7,0,0,0-.74,9.31l4.51-.15S51.79,135.48,52.53,133.26Z"/><path class="cls-7" d="M53.9,132.7l1.42-1.51a18.19,18.19,0,0,1,6.4,6.81L58,140.78S55.87,134,53.9,132.7Z"/><path class="cls-21" d="M58.36,60.74c.74,2.12,4.88,8.52,4.88,8.52l-3.89,1Z"/><path class="cls-19" d="M57.58,60.69c.7,2,4.73,8.08,4.73,8.08l-3.91,1Z"/><path class="cls-13" d="M59.79,70.1c-.44.07-3.25.29-4,7.19,1.78-7.09,6.7-7.93,7.25-.93C62.9,70.74,60.78,70,59.79,70.1Z"/><polygon class="cls-13" points="58.53 62.32 51.86 63.55 51.86 61.38 58.4 61.04 58.53 62.32"/><polygon class="cls-13" points="62.45 60.22 58.51 61.18 59.08 62.29 62.65 62.04 62.45 60.22"/><path class="cls-21" d="M57.72,73.69a3.26,3.26,0,0,1,3-1.52l0,.88Z"/><path class="cls-20" d="M56.36,63.9A25,25,0,0,0,52.28,65l4.63-.45Z"/><path class="cls-17" d="M46.17,69.63l15.2-9.38a19.78,19.78,0,0,0-1.12-5.17L46.54,61.72Z"/><path class="cls-14" d="M50.31,59.92l1.28,23.93s-11.48.62-17.32-.55l1.39-16.65Z"/><path class="cls-22" d="M39.36,76c2.57-6.29,7-10.82,11.16-12.14l-.21-4L35.66,66.65,34.27,83.3a31.35,31.35,0,0,0,3.18.44A26.79,26.79,0,0,1,39.36,76Z"/><path class="cls-23" d="M35.39,68,63.94,53.49S53.78,36.43,39.68,44.32C25.2,52.43,35.39,68,35.39,68Z"/><path class="cls-24" d="M51.6,54.48c-7.28,0-13.19-3.64-13.19-8.13a5.35,5.35,0,0,1,.2-1.38C25.73,53.24,35.39,68,35.39,68L63.94,53.49a26.13,26.13,0,0,0-1.68-2.37C59.87,53.15,56,54.48,51.6,54.48Z"/><polygon class="cls-16" points="63.94 51.83 65.25 54.28 35.38 68.85 34.49 67.3 63.94 51.83"/><path class="cls-25" d="M50.75,61.36l14.5-7.08-1.31-2.45L50.29,59A24,24,0,0,0,50.75,61.36Z"/><path class="cls-6" d="M86.82,123.43a12.47,12.47,0,0,1,.87-9.15l9.8-.11-3.67,6.19Z"/><path class="cls-7" d="M89,124.4s-1.83-5.54,1-10.55l11.3-.13L97,120.86Z"/><path class="cls-2" d="M91.19,117.93c-.59-1.16-.13-2.68,1.06-4.11l-2.28,0c-2.84,5-1,10.55-1,10.55L97,120.86l1.28-2.14C95.15,120,92.09,119.7,91.19,117.93Z"/><polygon class="cls-11" points="7.97 215.4 6.39 212.94 169.53 46.34 170.37 47.16 7.97 215.4"/><path class="cls-22" d="M41.08,73.63a1.4,1.4,0,0,1-1.4-1.24s0,0,0,.06a1.45,1.45,0,0,0,1.41,1.74A2,2,0,0,0,43,72.45a1.67,1.67,0,0,0,0-.5A2,2,0,0,1,41.08,73.63Z"/><path class="cls-22" d="M44.37,73.45A1.41,1.41,0,0,1,43,72.21s0,0,0,.05A1.45,1.45,0,0,0,44.37,74a2,2,0,0,0,1.86-1.74,1.34,1.34,0,0,0,0-.49A2,2,0,0,1,44.37,73.45Z"/><path class="cls-22" d="M47.63,73.08a1.41,1.41,0,0,1-1.41-1.24s0,0,0,.06a1.45,1.45,0,0,0,1.42,1.73,2,2,0,0,0,1.86-1.73,1.65,1.65,0,0,0,0-.5A2,2,0,0,1,47.63,73.08Z"/><path class="cls-22" d="M39.68,78.1a1.4,1.4,0,0,1-1.4-1.24s0,0,0,.06a1.46,1.46,0,0,0,1.42,1.74,2,2,0,0,0,1.86-1.74,2.08,2.08,0,0,0,0-.5A2,2,0,0,1,39.68,78.1Z"/><path class="cls-22" d="M43,77.92a1.42,1.42,0,0,1-1.41-1.24s0,0,0,.06A1.45,1.45,0,0,0,43,78.47a2,2,0,0,0,1.86-1.73,2.07,2.07,0,0,0,0-.5A2,2,0,0,1,43,77.92Z"/><path class="cls-22" d="M46.22,77.55a1.41,1.41,0,0,1-1.4-1.24s0,0,0,.06a1.46,1.46,0,0,0,1.42,1.73,2,2,0,0,0,1.86-1.73,2.07,2.07,0,0,0,0-.5A2,2,0,0,1,46.22,77.55Z"/><path class="cls-22" d="M38.87,81.72a1.54,1.54,0,0,1-1.41-1.34.43.43,0,0,0,0,.05,1.59,1.59,0,0,0,1.42,1.85,1.81,1.81,0,0,0,1.86-1.6,2.08,2.08,0,0,0,0-.5A1.8,1.8,0,0,1,38.87,81.72Z"/><path class="cls-22" d="M42.16,81.78a1.53,1.53,0,0,1-1.41-1.34s0,0,0,0a1.59,1.59,0,0,0,1.42,1.85A1.81,1.81,0,0,0,44,80.74a1.67,1.67,0,0,0,0-.5A1.79,1.79,0,0,1,42.16,81.78Z"/><path class="cls-22" d="M45.41,81.66A1.55,1.55,0,0,1,44,80.31s0,0,0,.06a1.58,1.58,0,0,0,1.42,1.84,1.8,1.8,0,0,0,1.86-1.6,2,2,0,0,0,0-.49A1.8,1.8,0,0,1,45.41,81.66Z"/><path class="cls-22" d="M41.45,70.12a1.4,1.4,0,0,1-1.4-1.24s0,0,0,.06a1.45,1.45,0,0,0,1.41,1.74,2,2,0,0,0,1.87-1.74,1.67,1.67,0,0,0,0-.5A2,2,0,0,1,41.45,70.12Z"/><path class="cls-22" d="M44.74,69.94a1.41,1.41,0,0,1-1.4-1.24.09.09,0,0,0,0,0,1.45,1.45,0,0,0,1.41,1.74,2,2,0,0,0,1.86-1.74,1.34,1.34,0,0,0,0-.49A2,2,0,0,1,44.74,69.94Z"/><path class="cls-22" d="M48.07,69.57a1.42,1.42,0,0,1-1.41-1.24s0,0,0,0a1.46,1.46,0,0,0,1.42,1.74,1.95,1.95,0,0,0,1.85-2.23A2,2,0,0,1,48.07,69.57Z"/><polygon class="cls-26" points="155.97 61.1 156.72 55.03 174.38 42.43 162.06 60.61 155.97 61.1"/><path class="cls-4" d="M44.67,43.58c.81,2,3.63,3.88,7.27,4.72a13,13,0,0,0,6.92-.11C56,45.38,50.71,41.6,44.67,43.58Z"/><path class="cls-23" d="M33.5,53.53a15,15,0,0,1,.14-2c-3.36,6.77,1.81,14.69,1.81,14.69l2.75-1.4A15.75,15.75,0,0,1,33.5,53.53Z"/><path class="cls-7" d="M95.31,115.56c2.72-2.47,7.32-5.54,8.59-5.62s1.89,1.77,2,2.66-2.68,3.77-3.26,4.14-1.65-.46-1.42-1.06,1.62-2.09,1.44-2.3a1.31,1.31,0,0,0-.6-.3S96.45,117.14,95.31,115.56Z"/><path class="cls-7" d="M103.55,115.19c-.35-.84,1.08-2.37,1.56-2.21s3.6.56,3.52,1.33-1,2.26-1.51,2.3S103.82,115.88,103.55,115.19Z"/><path class="cls-7" d="M101.54,117.63c-.35-.85,1.08-2.37,1.56-2.22s3.6.56,3.52,1.34-1,2.26-1.51,2.29S101.82,118.31,101.54,117.63Z"/><path class="cls-7" d="M99.81,120.16c-.3-.84,1-2.39,1.46-2.24s3.29.49,3.21,1.26-1,2.28-1.42,2.32S100.06,120.83,99.81,120.16Z"/><path class="cls-7" d="M27.84,146.37c-1.14-.12-1.83,1.54-1.34,1.94s3,3.17,3.81,2.92,1.76-1.45,1.46-1.92S28.77,146.47,27.84,146.37Z"/><path class="cls-7" d="M29.11,144c-1.14-.12-1.83,1.54-1.34,1.94s3,3.17,3.81,2.92,1.76-1.45,1.46-1.92S30,144.07,29.11,144Z"/><path class="cls-7" d="M30.68,141.81c-1.11-.08-1.88,1.49-1.43,1.85s2.73,2.89,3.52,2.64,1.8-1.4,1.54-1.83S31.57,141.88,30.68,141.81Z"/><path class="cls-7" d="M23.29,140.55c3.4-1.49,5.12-2.24,6.87-1.74s4.06,2.59,4.42,3.66-2.47,2.85-3.21,3-2.37-1.28-2.12-1.84,1.52-.92,1.24-1.24-.76-.82-.76-.82S25.11,142.85,23.29,140.55Z"/><path class="cls-12" d="M.91,129.64c2.08,3.21,7,5.65,20.22,12.7l3.32-4.26c-4.57-12.17-7.72-13.16-13.5-16S-2.69,124.09.91,129.64Z"/><path class="cls-6" d="M7.43,120.06c5.71,2.77,11.18,7.92,15.71,19.71l1.31-1.69c-4.57-12.17-8-15.38-13.8-18.19C9,119.08,6.75,119.73,7.43,120.06Z"/><path class="cls-6" d="M18.62,128s-5.21,4.32-5.62,9.8L21.05,143l1.81-7.34Z"/><path class="cls-7" d="M20.48,128.51s-6.89,6.37-7.57,12.32L23.4,146l4.27-6Z"/><path class="cls-2" d="M15.36,139.62a21.39,21.39,0,0,1-1.78-1.37,10.11,10.11,0,0,0-.67,2.58L23.4,146S18.37,141.67,15.36,139.62Z"/><path class="cls-7" d="M25.31,137.22s2.35,2.76,3.36,3c1.55.4,4.36,1,4.13,2.38-1.64,9.93-3.78,8-3.78,8a34.89,34.89,0,0,1-5.48-4.39c-1.86-2.23-2.72-3.63-4.19-4.67C17.62,140.34,25.31,137.22,25.31,137.22Z"/></g></g></g></svg>