<svg xmlns="http://www.w3.org/2000/svg" viewBox="0 0 219.62 183.12"><defs><style>.cls-1{isolation:isolate;}.cls-2{fill:#ffb882;}.cls-3{fill:#b7183e;}.cls-4{fill:#471520;}.cls-5{fill:#601f2b;}.cls-6{fill:#e29437;}.cls-7{fill:#c15c23;}.cls-8{fill:#cc6a29;}.cls-9{fill:#ff9566;}.cls-10{fill:#dd2a4d;}.cls-11{fill:#b51a43;}.cls-12{fill:#ead2b5;}.cls-13{fill:#e27023;}.cls-14{fill:#4f2517;}.cls-15{fill:#873b1d;}.cls-16{fill:#bc1938;}.cls-17{fill:#f4952f;}.cls-18{fill:#f9ac46;}.cls-19{fill:#ffcb64;}.cls-20{fill:#843131;opacity:0.6;mix-blend-mode:multiply;}.cls-21{fill:#d1b290;}.cls-22{fill:#89493a;}.cls-23{fill:#512f35;}.cls-24{fill:#bcddd8;}.cls-25{fill:#9bb2af;}</style></defs><g class="cls-1"><g id="Layer_2" data-name="Layer 2"><g id="_11" data-name="11"><path class="cls-2" d="M52.94,116.8c3.47-.06,5.22-.09,6.24.89s1.76,4.9,1.38,5.87-3.86,0-4.51-.17-1-1.81-.48-2.17,2.41-.62,2.39-1a2,2,0,0,0-.28-.77S52.91,119.24,52.94,116.8Z"/><path class="cls-3" d="M90,18.27l3.9-16.41S70-5.78,61.42,12.32s6.23,33.07-5.79,45.08c0,0,15.7-4.65,12.5-26.52C65.86,15.4,80.92,15.77,90,18.27Z"/><path class="cls-4" d="M66.85,19.65C64,28,66.33,41.39,66.33,41.39l6.76,2.8L86.41,20.9l.41-6.35S69.66,11.33,66.85,19.65Z"/><path class="cls-5" d="M65.4,19.39c-2.81,8.32-.52,21.74-.52,21.74l6.76,2.8L85,20.64l.42-6.35S68.2,11.07,65.4,19.39Z"/><ellipse class="cls-6" cx="108.46" cy="95.34" rx="28.29" ry="36.83"/><path class="cls-7" d="M134.42,95.34c0-18.67-11.62-33.81-26-33.81s-26,15.14-26,33.81,11.62,33.81,26,33.81S134.42,114,134.42,95.34Z"/><path class="cls-8" d="M128.79,116.35a40.49,40.49,0,0,0,5.63-21c0-18.67-11.62-33.81-26-33.81s-25.87,15-26,33.57C86.69,85.12,126.55,96.35,128.79,116.35Z"/><path class="cls-9" d="M76.92,69.89c-.68,15,10.65,29,11.94,29.84s8.9-4.34,9.38-6.33,1.17-17.59-5.36-25.85C89.85,63.72,77.48,57.24,76.92,69.89Z"/><path class="cls-9" d="M109.82,96a8.22,8.22,0,0,0,3.25,0,29.8,29.8,0,0,1,6-1.76c.74-.13,3.64,2.35,4.54,3.35-.81.37-4.4,6-4.4,6a20.7,20.7,0,0,1-5.63-.84c-.67-.25-2.56,0-4.18-.22C107.14,102.3,109.82,96,109.82,96Z"/><path class="cls-2" d="M113.07,96.07c2.35-2.06,4.84-3.86,6.1-3.84s2.16,1.76,2.46,2.59-2.1,3.25-2.63,3.54-1.73-.54-1.58-1.06,1.3-1.8,1.08-2a1.76,1.76,0,0,0-.64-.31S114.46,97.6,113.07,96.07Z"/><path class="cls-2" d="M119.24,98c-.47-.8.72-2.09,1.22-1.91s3.7.78,3.74,1.48-.67,2-1.16,2S119.63,98.69,119.24,98Z"/><path class="cls-2" d="M117.6,100.12c-.47-.8.72-2.09,1.23-1.91s3.69.78,3.73,1.48-.66,2-1.16,2S118,100.76,117.6,100.12Z"/><path class="cls-2" d="M116.27,102.31c-.43-.79.65-2.11,1.11-1.94s3.37.69,3.41,1.39-.61,2-1.06,2S116.62,102.94,116.27,102.31Z"/><path class="cls-2" d="M89.58,100.88c4.91,4.81,15,3.08,22.66.82l1.87-5.28s-13.48-5.64-19-4.23C88.54,93.89,84,95.39,89.58,100.88Z"/><path class="cls-9" d="M92.23,92c-5.2,1.6-8.07,4.69-3.24,9.42s19.31,3,27,.72l-.11-1.66C96.6,104,89.73,95.63,92.23,92Z"/><path class="cls-10" d="M77.86,90.18c9.27,2.52,23.94-2.06,23.94-2.06S95.63,57.4,81,61C72.81,63,77.86,90.18,77.86,90.18Z"/><path class="cls-11" d="M99.28,79.17c.11,2.3-.25,3.84-1.12,4.08-1.73.49-4.81-4.37-6.87-10.83A32.6,32.6,0,0,1,89.54,63,9.69,9.69,0,0,0,81,61c-8.21,2-3.16,29.21-3.16,29.21,9.27,2.52,24.55-1.52,24.55-1.52S101,84.11,99.28,79.17Z"/><path class="cls-12" d="M76.48,87.39c.32,2.26.59,3.7.59,3.7,10,2.72,25.78-2.22,25.78-2.22s-.3-1.46-.9-3.72C98.06,86.24,85.42,89.41,76.48,87.39Z"/><path class="cls-10" d="M87.91,17.52,91.66,1.6S67.79-6,59.21,12.06s7.64,33.69-4.37,45.71c0,0,14.28-5.28,11.08-27.15C63.65,15.14,78.87,15,87.91,17.52Z"/><path class="cls-13" d="M91.54,57.55l4.48,2-1.37-15.4s-4.82-.46-4.23-2.79,4-.69,4-.69-.75-8.25-8.29-7.35S87.73,54.28,91.54,57.55Z"/><path class="cls-9" d="M90.05,31.06c-3-5.51-13.52,5.7-12.69,10.48a83.65,83.65,0,0,0,3.43,11.75l.1.32a25.36,25.36,0,0,0,12.54,1.76S93.06,36.58,90.05,31.06Z"/><path class="cls-14" d="M88.91,40.67c0-1.15-.33-2.13-.83-2.18s-1,.85-1,2,.33,2.13.83,2.18S88.87,41.82,88.91,40.67Z"/><polygon class="cls-15" points="91.45 41.67 83.83 39.92 84.27 36.37 91.76 39.25 91.45 41.67"/><path class="cls-2" d="M91.28,38S95.59,47.52,95.6,48,92,49.48,92,49.48Z"/><path class="cls-9" d="M94,44c-1.22-2.8-2.67-6-2.67-6l0,9.39A5.86,5.86,0,0,1,94,44Z"/><polygon class="cls-5" points="87.55 101.48 63.7 106.3 63.83 109.97 88.74 105.26 87.55 101.48"/><path class="cls-2" d="M65.81,108.24c-1.25,16.43-3.22,38.66-3.22,38.66l-18,33.94h1.45s25.38-29.9,26-30.94,6.86-38.13,6.86-38.13Z"/><path class="cls-9" d="M73,145.87c2-11,6-34.1,6-34.1l-13.11-3.53c-.93,12.23-2.42,29.48-3,36.58C65.71,142.79,70.91,143.47,73,145.87Z"/><path class="cls-2" d="M78.5,118.51l27.15,27.14,20.49,35.19h1s-13.73-37.66-15.6-40.57-19.77-31.62-19.77-31.62Z"/><path class="cls-9" d="M104,140.35a31.58,31.58,0,0,1,2.62-8c-5.9-9.43-14.78-23.68-14.78-23.68L78.5,118.51c5.82,5.81,19.66,19.66,25,25C103.6,142.48,103.76,141.42,104,140.35Z"/><path class="cls-16" d="M62.9,108.86l-2.81,30.27s26.68,3.12,43.84-12.64L89.21,103.77Z"/><path class="cls-17" d="M114.7,143.62l-5,14.36s15.6,21.81,15.6,22.13l1.67-.94Z"/><path class="cls-18" d="M115.05,145l-2.62,7.53c.08.25.16.5.25.76,3.22,9.32,9.45,19.69,12.26,20.35Z"/><polygon class="cls-17" points="65.9 158.94 64.46 153.97 56.87 155.74 45.43 179.07 47.54 180.03 65.9 158.94"/><path class="cls-18" d="M64,154.59l-6.35,1.48c-4.21,7.35-7.06,15-5.87,15.81s7.9-6,13.36-13.34Z"/><path class="cls-18" d="M63.73,57.07c7.39-2.65,23.78,2.41,25.28,5.09,2.49,4.48,3.65,17.68,3,21.53-.15.94-2.49,1.41-2.49,1.41s-3.85,8.36-1.36,16.27c0,0-5.61,3.54-25.06,5.52,0,0-1.57-15.17-3.43-23.3C57.39,73.6,56.65,59.61,63.73,57.07Z"/><path class="cls-19" d="M91.39,81.38c.08-4.62-.92-13.43-2.77-16.74-.38-.67-1.81-1.51-3.81-2.31a34.55,34.55,0,0,0,.92,7.19C87,74.88,89.16,79.3,91.39,81.38Z"/><path class="cls-17" d="M90.48,84.1c-12.75,2.58-18.14.34-19.15-4.7C70.61,75.85,74,58,63.73,57.07c-7.5-.66-6.34,16.53-4,26.52,1.86,8.13,3.43,23.3,3.43,23.3,2.53-.26,4.81-.54,6.89-.84.34-13.8,8.21-19.32,12.14-19,3.19.29,4.52,9.51,5,14.78a7.28,7.28,0,0,0,1-.51c-2.49-7.91,1.36-16.27,1.36-16.27s2.19-.45,2.46-1.33C91.49,83.88,91,84,90.48,84.1Z"/><path class="cls-2" d="M55.09,61.94C42.81,70.54,38.56,88.09,38.72,89.6S47.59,94,49.46,93.18s14.65-9.81,17.22-20C67.87,68.43,65.47,54.67,55.09,61.94Z"/><path class="cls-9" d="M55.09,61.94c-7.13,5-11.55,13-14,19.13h.1c5.14,0,9.37,4.8,10,11,4.11-2.81,13.29-10.43,15.42-18.92C67.87,68.43,65.47,54.67,55.09,61.94Z"/><path class="cls-2" d="M37.24,91.6c-2.63,6.62,4.33,19.58,9.2,25.93l5.28-2.75s-.72-20.46-4-25.1C43.72,84.08,40.22,84.06,37.24,91.6Z"/><path class="cls-9" d="M38.65,89.48c.23-.68.46-1.29.7-1.85a16.69,16.69,0,0,0-2.11,4c-2.63,6.62,4.33,19.58,9.2,25.93l1.46-.76C42.83,109.25,36.39,96.17,38.65,89.48Z"/><path class="cls-10" d="M44.34,71.26c3.74,8.85,13.1,19.9,13.1,19.9s21.43-24.61,9.31-33.68C59.94,52.39,44.34,71.26,44.34,71.26Z"/><path class="cls-11" d="M66.75,57.48c-6.81-5.09-22.41,13.78-22.41,13.78a42.55,42.55,0,0,0,2,4,25.67,25.67,0,0,1,4.29-8.79c5.3-7.16,12.81-10.58,16.78-7.64S70.29,70,65,77.13c-3.54,4.78-8.06,7.88-11.86,8.54,2.41,3.25,4.3,5.49,4.3,5.49S78.87,66.55,66.75,57.48Z"/><path class="cls-2" d="M71.22,56.65l4.27-13.1,10.08,4.16L84.49,59.46S82.66,66.22,71.22,56.65Z"/><path class="cls-20" d="M92.44,66.42c.07-.11.12-.22.19-.34A18.57,18.57,0,0,0,89.54,63h0l-.23-.17c-.1-.22-.2-.45-.3-.64-.44-.78-2.15-1.76-4.52-2.7h0l.81-8.82a54.59,54.59,0,0,0-10-6.66l-4,12.44a21.88,21.88,0,0,0-6.33.3c-3-.59-7.08,1.76-10.77,4.74a62.82,62.82,0,0,0,5.71,3.16C74.11,71.57,88.67,72.38,92.44,66.42Z"/><path class="cls-13" d="M88,20.68c5.77,2.77,6,16.79,5.92,19.6l-.89.19c-1.24-.68-6.43-3.36-8.82-2A2.62,2.62,0,0,0,83,41c0,2.77,5.93,3.67,8.12,3.91l.67,16c-1.53-.36-11.06-3.71-15.16-5.23,2.17,2.81,15.74,7,16.35,6.66l-.66-18.54-.55,0c-3-.26-7.51-1.31-7.52-2.73,0-1,.45-1.31.59-1.39,1.48-.87,5.55.82,7.78,2.08l.2.11,2.33-.48v-.49C95.38,34.73,93.83,21.66,88,20.68Z"/><path class="cls-18" d="M68,50.43c7.89,7.83,24.45,11.23,24.45,11.23l-.73-17.33s-8.08-.7-8.09-3.35c0-5.16,9.3.15,9.3.15l1.61-.34s.57-17.63-6.4-20.75-14.46-2.33-18.3,3S71,40,68,50.43Z"/><path class="cls-19" d="M85.62,58.36c2.74.81,4.61,1.19,4.61,1.19L89.74,48A31.52,31.52,0,0,1,85.62,58.36Z"/><path class="cls-19" d="M87.94,21.54a37.53,37.53,0,0,1,4.19,14.55q.09,1.15.12,2.28l1.41-.28S93.07,25.63,87.94,21.54Z"/><path class="cls-17" d="M79.31,57.46a49,49,0,0,1-2.93-8.54c-3.38-14-.22-26.83,7.06-28.59A9,9,0,0,1,90.5,21.9,6.39,6.39,0,0,0,88.17,20c-7-3.11-14.46-2.33-18.3,3S71,40,68,50.43A36.78,36.78,0,0,0,79.31,57.46Z"/><path class="cls-12" d="M41.16,183.12h7.47s-.72-3.49-1.83-3.83S43.34,181.53,41.16,183.12Z"/><path class="cls-12" d="M135.73,183.12H125s-.08-3.49,1.4-3.83S132.09,181.53,135.73,183.12Z"/><path class="cls-21" d="M63.55,142.17l2.89-1.95-.65-30.87c-.77.07-1.53.12-2.27.17L61.24,140Z"/><path class="cls-21" d="M70.59,141.81l2.75-2.17-3.4-30.78c-.76.11-1.51.21-2.26.29l.47,30.68Z"/><path class="cls-21" d="M78,141.47l2.49-2.63L74,108.18l-2.34.42,3.71,31.09Z"/><path class="cls-21" d="M85.26,140.19l1.73-2.8-8.9-30.09-1.35.32-.6.13L82.06,139Z"/><path class="cls-21" d="M92.17,137.76l1.48-2.89L82.22,106.22l-1.94.53,8.6,30.12Z"/><path class="cls-21" d="M98.43,134.55l1.22-3L86.07,105c-.64.21-1.3.43-2,.63l11,28.38Z"/><path class="cls-21" d="M104.62,130.15l1-2.93L90,103.54c-.59.24-1.2.47-1.81.7l13.13,25.86Z"/><path class="cls-17" d="M80.3,89.33c-.58,4.7.39,12.33.39,12.33S82.48,94.17,80.3,89.33Z"/><path class="cls-17" d="M84.7,85.74a16.57,16.57,0,0,0-1-7.33,44.65,44.65,0,0,0-.06,7.33Z"/><path class="cls-11" d="M81,0,79.48,16.32a27.93,27.93,0,0,1,3.67.25L86.53.48A41.23,41.23,0,0,0,81,0Z"/><path class="cls-11" d="M69.16,2.17,72.75,17.3a17.38,17.38,0,0,1,3.59-.81L74.41.55A24.09,24.09,0,0,0,69.16,2.17Z"/><path class="cls-11" d="M59.85,10.84l8.29,9.44a10,10,0,0,1,3-2.3L63.08,6.4A20.23,20.23,0,0,0,59.85,10.84Z"/><path class="cls-11" d="M56.59,24.82l9.13,1.84a11.91,11.91,0,0,1,.86-3.86L56.9,19.68A32,32,0,0,0,56.59,24.82Z"/><path class="cls-11" d="M58,35.68l8.34.09c0-1.25-.13-2.58-.3-4l-8.93-1.11C57.39,32.39,57.7,34.05,58,35.68Z"/><path class="cls-11" d="M59.42,45.05l5.83.06a27,27,0,0,0,.85-4l-7.23-.9A41.39,41.39,0,0,1,59.42,45.05Z"/><path class="cls-11" d="M58,53.45l2.17.6a19.56,19.56,0,0,0,2.68-3.4l-3.56-1.43A14.76,14.76,0,0,1,58,53.45Z"/><path class="cls-12" d="M63.55,142.17l2.89-1.95-.25-12.32a47.72,47.72,0,0,0-4.46,5.49L61.24,140Z"/><path class="cls-12" d="M70.59,141.81l2.75-2.17L71.5,122.93q-1.89,1.56-3.56,3.19l.21,13.71Z"/><path class="cls-12" d="M78,141.47l2.49-2.63-4.15-19.57c-1.08.74-2.13,1.5-3.14,2.28l2.16,18.14Z"/><path class="cls-12" d="M85.26,140.19l1.73-2.8-6.18-20.9c-.92.54-1.82,1.08-2.7,1.65l4,20.86Z"/><path class="cls-12" d="M92.17,137.76l1.48-2.89-8.3-20.79-.42.2c-.74.36-1.46.74-2.18,1.13l6.13,21.46Z"/><path class="cls-12" d="M98.43,134.55l1.22-3-9.94-19.44c-.88.36-1.77.74-2.65,1.14l8,20.76Z"/><path class="cls-12" d="M104.62,130.15l1-2.93L94.49,110.35c-.9.29-1.8.62-2.71,1l9.54,18.79Z"/><path class="cls-22" d="M99.61,106.83c-3.29-1.25-5-5-4.28-9.21A8.63,8.63,0,0,1,104,90.23v1.24a7.33,7.33,0,0,0-7.45,6.38c-.54,2.92.33,6.61,3.49,7.81Z"/><path class="cls-22" d="M107,106.4c-3-1.34-3.86-5.4-3.16-8.7.62-2.91,2.66-6,6.54-6v1.24c-3.94,0-5.07,3.85-5.32,5-.58,2.75.08,6.24,2.45,7.3Z"/><polygon class="cls-23" points="1.69 161.58 0 159.06 205.43 20.09 206.19 21.21 1.69 161.58"/><polygon class="cls-24" points="195.27 28.07 197.42 21.2 219.62 11.77 202.11 29.32 195.27 28.07"/><polygon class="cls-25" points="195.27 28.07 197.42 21.2 219.62 11.77 195.27 28.07"/><path class="cls-12" d="M46.74,68.16c-1.59,1.72-2.58,2.91-2.58,2.91,3.83,9,13.4,20.34,13.4,20.34s1-1.2,2.54-3.17C57.47,85,50.51,76.08,46.74,68.16Z"/><path class="cls-2" d="M50.55,112.16s4.31,4.22,5.43,4.63c1.73.63,3.66,5.73,3.64,7.32-.95-.3-7.45,4.18-7.45,4.18a22.7,22.7,0,0,1-4-5c-.36-.73-1.28-5.1-3.11-7.33C43.51,114,50.55,112.16,50.55,112.16Z"/><path class="cls-2" d="M55.64,121.41c.22-1.08,2.17-1.32,2.44-.78s2.43,3.51,1.94,4.18-2.05,1.28-2.46.9S55.47,122.29,55.64,121.41Z"/><path class="cls-2" d="M53,122.85c.22-1.09,2.17-1.33,2.44-.79s2.43,3.51,1.94,4.18-2.05,1.28-2.46.9S52.83,123.72,53,122.85Z"/><path class="cls-2" d="M50.83,124.85c.28-1,2.06-1.39,2.27-.89s1.91,3.19,1.4,3.85-2,1.34-2.28,1S50.6,125.69,50.83,124.85Z"/></g></g></g></svg>