<svg xmlns="http://www.w3.org/2000/svg" viewBox="0 0 155.61 178.86"><defs><style>.cls-1{fill:#dd5f33;}.cls-2{fill:#cc4e2b;}.cls-3{fill:#ef8354;}.cls-4{fill:#594138;}.cls-5{fill:#7f363f;}.cls-6{fill:#632731;}.cls-7{fill:#56212c;}.cls-8{fill:#f4e0b8;}.cls-9{fill:#e2c798;}.cls-10{fill:#47312b;}.cls-11{fill:#e5c68f;}.cls-12{fill:#9bb2af;}.cls-13{fill:#b8ccc9;}.cls-14{fill:#ed4c4c;}.cls-15{fill:#ce2e2e;}.cls-16{fill:#662933;}.cls-17{fill:#ef9b3f;}.cls-18{fill:#351f1a;}.cls-19{fill:#fffae6;}</style></defs><g id="Layer_2" data-name="Layer 2"><g id="_11" data-name="11"><path class="cls-1" d="M126.61,94.42c2.78-2.12,4.18-3.18,5.59-3.06s4.34,2.57,4.61,3.51-3.15,2.28-3.76,2.57-1.88-.74-1.68-1.32,1.59-1.9,1.37-2.14a1.94,1.94,0,0,0-.7-.41S128,96.24,126.61,94.42Z"/><path class="cls-2" d="M106.5,45.69a49.89,49.89,0,0,1,.85,10.69c-.1.33-3.91-.61-3.91-.61Z"/><path class="cls-3" d="M105.93,44.94a49.19,49.19,0,0,1,.85,10.69c-.09.33-3.91-.61-3.91-.61Z"/><path class="cls-4" d="M106.51,37c-.11,2.32.28,3.71,2,4.51a3.16,3.16,0,0,0,4.19-3.91s-1,2.93-2.45,1C109.11,37,106.51,37,106.51,37Z"/><circle class="cls-5" cx="27.35" cy="68.01" r="23.42" transform="translate(-45.57 60.58) rotate(-62.27)"/><circle class="cls-6" cx="27.35" cy="68.01" r="21.79" transform="translate(-30.1 22.49) rotate(-29.7)"/><path class="cls-7" d="M27.35,46.21a21.8,21.8,0,0,0-21,15.93,21.74,21.74,0,0,1,27,26.8,21.78,21.78,0,0,0-6-42.73Z"/><path class="cls-1" d="M77.46,57.91c-12.75-4.25-31.74-3.91-33-3.44s-2.88,7.19-1.74,8.63S66.55,77.7,70.9,77.3,84.84,60.37,77.46,57.91Z"/><path class="cls-3" d="M57.92,56.54C67.27,58.66,75.25,62.15,79,67.39c1.65-4.18,1.87-8.34-1.54-9.48-12.75-4.25-31.74-3.91-33-3.44C44,54.65,51.66,55.11,57.92,56.54Z"/><path class="cls-1" d="M46,54.29C39.18,52.4,32,57.05,17.83,69.15l5.27,6.12s18.13-8.47,23.14-12S46,54.29,46,54.29Z"/><path class="cls-1" d="M88.09,45.63c0,4.26-2.78,13.59-9.49,15.06l9.66,9c5.57-4.75,11-23.91,11-23.91Z"/><path class="cls-3" d="M89.4,67.73c-2.94-5.89-10.31-9.82-14.08-9.66-19.47.85-37.33,23.09-39,34.39L57,97.7s-2.62-5.89-.65-6.06,3.11-3.76,3.11-3.76c2.62-.17,9.66-2.3,9.66-2.3a67.55,67.55,0,0,0,13.75.66C91.37,85.91,92.35,73.63,89.4,67.73Z"/><path class="cls-1" d="M81.56,70.31c-1.19-3.62-.73-8.56,5-6.86-2.55-4-9.65-5.73-11.38-5.65C55.71,58.64,38,81.16,36.35,92.46l18.44,4.68c-3.36-1.38-5.45-3.31-5.45-5.46,0-4.2,7.78-10.1,17.65-10.1,4.94,0,9.62,3.35,12.86,4.72q1.43,0,3-.06C91.37,85.91,84.51,76.2,81.56,70.31Z"/><path class="cls-3" d="M79.09,131.76l-6.22,4.58C78.45,144,94.48,173,94.48,173h1.15S84.72,141.79,79.09,131.76Z"/><path class="cls-1" d="M84.74,144.09a127,127,0,0,0-5.65-12.33l-6.22,4.58c2.27,3.14,6.29,9.83,10.25,16.64A37.17,37.17,0,0,1,84.74,144.09Z"/><path class="cls-8" d="M45.52,123.9c9.5,9,15.07,9,15.07,9A16.24,16.24,0,0,0,74.2,140c6.1,0,10-2,7.34-8.86s-9-13.91-9-13.91S61.24,98.33,55.67,96.54,45.52,123.9,45.52,123.9Z"/><path class="cls-9" d="M77.3,137.89c-5,0-9.29-5.31-8.85-12.07-3.44-1.22-5.32-7.37-8.52-12.32-4.93-7.61-8.15-13.07-4.51-15.43a4.15,4.15,0,0,1,1.95-.61,6.7,6.7,0,0,0-1.7-.92c-5.56-1.79-10.15,27.36-10.15,27.36,9.5,9,15.07,9,15.07,9A16.24,16.24,0,0,0,74.2,140c4.29,0,7.46-1,8.06-4A7.63,7.63,0,0,1,77.3,137.89Z"/><path class="cls-4" d="M88.09,54.63c-7-8.18-7.53-12.28-5.24-13.91,0,0-3.27-8.35,3.44-9.17,0,0-.82-5.57,2.62-5.57a16.27,16.27,0,0,1,6.23,1.31s-.17-5.9,4.58-5.24,4.42,4.42,4.42,4.42,1.73-3.63,4.42,0a5,5,0,0,1,.49,4s2.73-.05,3.06,2.07S110,34.82,110,34.82Z"/><path class="cls-10" d="M97.73,32.15a16,16,0,0,1-.53-9.67c-2.15,1.3-2.06,4.81-2.06,4.81A16.27,16.27,0,0,0,88.91,26c-3.44,0-2.62,5.57-2.62,5.57-6.71.82-3.44,9.17-3.44,9.17-2.29,1.63-1.8,5.73,5.24,13.91l15.85-14.3A15.69,15.69,0,0,1,97.73,32.15Z"/><path class="cls-3" d="M91.53,46.78l1.15-6.72L109.05,36s-1.8,14.41-7.36,23.25S92,57.09,92,57.09Z"/><path class="cls-4" d="M86.13,40.72c.65,9,.11,16.73,1.39,20.14,1.36,3.6,6.5,8.66,16.29,11.39-3.67-3.76,1.7-10.73-.31-16.35,0,0-10.33-5.69-8.69-17.8Z"/><path class="cls-10" d="M96.8,38.73c0-.12-10.67,2-10.67,2,.65,9-.5,16.59.78,20,1.35,3.6,7.11,8.8,16.9,11.53h0C96.83,70.08,90,48.71,96.8,38.73Z"/><path class="cls-10" d="M99.45,38c-2.28-.41-3.71-.2-4.72,1.39A3.16,3.16,0,0,0,98.08,44s-2.78-1.39-.64-2.55C99.13,40.54,99.45,38,99.45,38Z"/><path class="cls-4" d="M105.15,35.85c-.44,2.27-.26,3.71,1.32,4.75a3.17,3.17,0,0,0,4.71-3.27s-1.44,2.75-2.56.6C107.73,36.22,105.15,35.85,105.15,35.85Z"/><polygon class="cls-8" points="110.29 38.41 110.04 34.82 82 37.14 82.12 41.48 110.29 38.41"/><path class="cls-11" d="M97.36,37.31a2.15,2.15,0,0,1,.72-1.5L82,37.14l.12,4.33,17-1.85C98,39,97.36,38.17,97.36,37.31Z"/><path class="cls-3" d="M73.69,81.65c9,9.62,25.54,18,26.85,18.18s3.7-6.8,3.37-8.6S92,69,88.09,67.41,68.45,76.09,73.69,81.65Z"/><path class="cls-1" d="M82.62,63.29c-1.29-5.48-15,13.1-9.79,18.66,9,9.62,26.4,17.71,27.71,17.88.61.07,1.89-1,3-2.39C89.59,89.39,76.6,68.2,82.62,63.29Z"/><path class="cls-3" d="M100,98.27c4.32,5,13,4.25,28.37.61l1.14-4.38s-22.91-4.68-28-4.07S100,98.27,100,98.27Z"/><path class="cls-1" d="M96.66,92.05c-.51,2.23,2.47,7.26,2.47,7.26,4.32,5,13.74,3.61,29.11,0C128.24,99.28,101.18,97.14,96.66,92.05Z"/><path class="cls-3" d="M95.3,178.75h16.16s-8-1.85-10.81-2.62-5.36-4.07-5.36-4.07l-1.08.47S93.88,176.79,95.3,178.75Z"/><path class="cls-12" d="M151.49,0l-7.66,24.32s8,33-7.26,66.82l1,.75C167.09,49.37,151.49,0,151.49,0Z"/><path class="cls-13" d="M153.44,54.06A120.36,120.36,0,0,0,151.49,0L144,23.74C149.62,25.43,153.26,37.76,153.44,54.06Z"/><path class="cls-5" d="M137.11,89.17c-2.77,5-14.09,16.4-11.53,18.87s4.15,0,4.15,0l9.15-18.5Z"/><path class="cls-3" d="M33.15,146.5s-15.29,14.4-29,21l.26.88c19.76-5,35.86-18,35.86-18Z"/><path class="cls-1" d="M26.6,159.29a105.36,105.36,0,0,0,13.63-8.88l-7.08-3.91a173.56,173.56,0,0,1-14.52,12A69.8,69.8,0,0,1,26.6,159.29Z"/><path class="cls-8" d="M27.4,149.71c10.81,7.37,16.32,3.66,19.76-2.89s3.27-11.3,3.27-11.3,5.41-6.38,6.72-10.47l3.6-3.44s1.15-16.21-3.28-24.89c0,0-13.75-1-21.12-5.73,0,0-3,2.12-.82,4.42,0,0-6.87,6.38-3.76,11.46,0,0-2.79,15.23-.49,22.27C26.92,135.74,27.56,142.29,27.4,149.71Z"/><path class="cls-9" d="M52.66,99.74c1.77,13.33-2.81,35.58-5.58,47.23a1.09,1.09,0,0,1,.08-.15c3.44-6.55,3.27-11.3,3.27-11.3s8.19-7,10.24-10.31c.86-9.9-3.73-21.88-6.9-25.15Z"/><path class="cls-9" d="M37.25,150.11c-4-1.83-5.4-7.67-3.09-13.05a12.68,12.68,0,0,1,3.91-5.14,2,2,0,0,1-.19-.45c-.41-1.45,1-3.25,3.55-4.92-.09,0-.19,0-.28-.09-5-2-6.35-13.64-2-22.19A17.16,17.16,0,0,1,49,95.49c-4.21-.85-9.12-2.26-12.61-4.5,0,0-3,2.12-.82,4.42,0,0-6.87,6.38-3.76,11.46,0,0-2.79,15.23-.49,22.27-4.36,6.6-3.72,13.15-3.88,20.57,10.81,7.37,16.32,3.66,19.76-2.89.36-.68.66-1.33,1-2C45.6,149.47,41,151.8,37.25,150.11Z"/><path class="cls-9" d="M51.12,123.36a42.61,42.61,0,0,1,8.38.42l6.18-5.22S57.29,121.19,51.12,123.36Z"/><path class="cls-9" d="M44.16,129.88a18.87,18.87,0,0,0-8.83,4.87l-2.17-.86S38.56,129.61,44.16,129.88Z"/><path class="cls-9" d="M37.42,96.36,39,98.62a29.1,29.1,0,0,0,15.35.94S44.48,99.66,37.42,96.36Z"/><path class="cls-14" d="M54,99.83l-1.15-.33c4.75,18.83-.82,55.35-.82,55.35l5.9,1.63S62.22,120.46,54,99.83Z"/><path class="cls-14" d="M54,99l-.66.16c7.21,12.61,8.84,40.45,8.84,40.45l5.57-.17S64.84,112.93,54,99Z"/><path class="cls-15" d="M55.18,99.14a2,2,0,1,0-2,1.94A1.94,1.94,0,0,0,55.18,99.14Z"/><path class="cls-3" d="M10.59,178.86H4.91L0,169.47s3.69-3.81,5.44-2.72-2.15,7.47.5,9.72C7.36,177.68,9.17,177.44,10.59,178.86Z"/><path class="cls-1" d="M62.75,78.75A91,91,0,0,0,73.2,86.07a20.07,20.07,0,0,1-4.1-.49C67.74,85.16,62.75,78.75,62.75,78.75Z"/><path class="cls-1" d="M29.29,72.48s-3,.28-3.75,1.46a39.2,39.2,0,0,1-5.1,6.39c-.7.69-5.71.2-7.43-.2.6-1,.22-9.8.22-9.8A27.34,27.34,0,0,1,19.94,67c.91-.24,2.75-1.94,4.67-2.91C27.25,62.75,29.29,72.48,29.29,72.48Z"/><path class="cls-3" d="M25.54,73.94c-1,4-2.31,7.81-3.69,8.74s-3.66-.28-4.61-.94-.17-5.09.17-5.8,2.28-.72,2.51,0,0,2.91.34,3a2.31,2.31,0,0,0,.93-.14S22.89,73.33,25.54,73.94Z"/><path class="cls-3" d="M17.4,76.46c1.11.51.79,2.79.12,3S13,81.38,12.37,80.66s-.78-2.66-.25-3S16.5,76.05,17.4,76.46Z"/><path class="cls-3" d="M17.6,73c1.12.5.8,2.79.12,3s-4.57,1.94-5.15,1.22-.78-2.66-.24-3S16.7,72.58,17.6,73Z"/><path class="cls-3" d="M17.4,69.62c1.06.53.87,2.77.25,2.93s-4.15,1.79-4.72,1.06-.86-2.62-.38-3S16.54,69.2,17.4,69.62Z"/><polygon class="cls-7" points="22.05 62.97 20.23 64.65 27.26 75.56 30.23 73.93 22.05 62.97"/><polygon class="cls-7" points="29.66 56.26 27.47 57.85 35.66 71.34 39.22 70.01 29.66 56.26"/><path class="cls-1" d="M101,100.84c-2.53,0-6-1.23-6.27-4-.17-1.63,4.59,1.06,4.59,1.06Z"/><path class="cls-3" d="M91.85,42.4c-1.32-2.38-3.81.71-3.74,2.33s2.33,5.09,3.39,4.52S92.56,43.67,91.85,42.4Z"/><path class="cls-2" d="M91.28,43.27c-.79-1.49-2.28.45-2.24,1.46s1.39,3.19,2,2.83S91.7,44.07,91.28,43.27Z"/><path class="cls-3" d="M91.35,45.23c-.54-1-1.57.3-1.54,1s1,2.2,1.4,2S91.64,45.77,91.35,45.23Z"/><path class="cls-4" d="M106.9,47.31c-1.7-.25-3.82-2.23-4.35-3s1-2.55,1.59-2.55,2.83,3,3.22,3.57S107.28,47.36,106.9,47.31Z"/><path class="cls-4" d="M103.3,47.17l1.87,1.16S103.79,51,103,50.38,103.3,47.17,103.3,47.17Z"/><path class="cls-11" d="M83.66,37.6l0-.19c-3.56.26-9.35,4.88-11,8.82l2.71,3.36S78.52,39.46,83.66,37.6Z"/><path class="cls-11" d="M83.07,38,83,37.53c-3.35,2.39-6.77,10.89-6.49,16.18l4.28,2.06S79,43.07,83.07,38Z"/><path class="cls-9" d="M45,114.09a34.5,34.5,0,0,1,6.5,16l.85-7.92C50.25,117.2,45,114.09,45,114.09Z"/><path class="cls-16" d="M127.82,108.13c-2.3-2.48,7.1-13.41,10.05-18.82l-.76-.14c-2.77,5-14.09,16.4-11.53,18.87,1.33,1.28,2.4,1.22,3.12.86A4.52,4.52,0,0,1,127.82,108.13Z"/><path class="cls-17" d="M129.41,90.31c9.29.88,13.66,11,13.66,11S144.49,90.07,137,88C130.43,86.21,129.41,90.31,129.41,90.31Z"/><path class="cls-3" d="M59.57,87.18c-4-1.41-7.2-5.51-7.2-5.51s6.85,1.7,7.2,1.84S59.57,87.18,59.57,87.18Z"/><path class="cls-18" d="M102.59,58.22l-4.66-4.71s-1.84,1.7-1.41,3.11,5.17,2.68,5.17,2.68Z"/><path class="cls-19" d="M102.18,58l-4-4S96.6,55.42,97,56.64s4.45,2.3,4.45,2.3Z"/><path class="cls-18" d="M99,56.55l-1.42-1.37L98.18,54s-1,.34-1.12.88-.33,1.6-.33,1.6l.63-1Z"/><path class="cls-15" d="M57.83,115.32A68.08,68.08,0,0,0,54,99.83l-1.15-.33c1.4,5.56,1.9,12.66,1.91,19.91A28,28,0,0,1,57.83,115.32Z"/><path class="cls-15" d="M60.43,110.45A50.73,50.73,0,0,0,54,99l-.66.16c2.47,4.32,4.28,10.43,5.6,16.59A34.46,34.46,0,0,1,60.43,110.45Z"/><path class="cls-15" d="M35.55,91.74l-.59.81C38.14,96.89,52,99.44,52,99.44l.74-1.83S39,94.8,35.55,91.74Z"/><path class="cls-15" d="M57.56,96.89a8,8,0,0,1-3.6.78l.21,1.69a9.65,9.65,0,0,0,4.06-1.2Z"/><path class="cls-3" d="M121.64,93s4.16,1,5.31.6a34.22,34.22,0,0,1,6.51-1c.83-.08,3.88,2.91,4.8,4.1-.94.34-5.37,6.36-5.37,6.36a23.27,23.27,0,0,1-6.22-1.37c-.73-.33-3.87-3.11-6-3.13C118.15,98.43,121.64,93,121.64,93Z"/><path class="cls-3" d="M133.4,96.69c-.47-.93,1-2.27,1.51-2S139,95.81,139,96.6s-.9,2.17-1.45,2.13S133.78,97.44,133.4,96.69Z"/><path class="cls-3" d="M131.42,98.88c-.47-.93,1-2.27,1.51-2s4.06,1.16,4,2-.9,2.17-1.45,2.13S131.79,99.63,131.42,98.88Z"/><path class="cls-3" d="M129.76,101.21c-.43-.91.89-2.29,1.39-2.07s3.7,1,3.69,1.82-.84,2.19-1.34,2.17S130.1,102,129.76,101.21Z"/></g></g></svg>