<svg xmlns="http://www.w3.org/2000/svg" viewBox="0 0 231.62 186.13"><defs><style>.cls-1{isolation:isolate;}.cls-2{fill:#dd5f33;}.cls-3{fill:#ef8354;}.cls-4{fill:#b71a2d;}.cls-5{fill:#ffcb57;}.cls-6{fill:#ffb345;}.cls-7{fill:#fca43a;}.cls-8{fill:#edd6ae;}.cls-9{fill:#e2c798;}.cls-10{fill:#f4e0b8;}.cls-11{fill:#e8d0a6;}.cls-12{fill:#7f363f;}.cls-13{fill:#662933;}.cls-14{fill:#9bb2af;}.cls-15,.cls-18,.cls-19{fill:#843131;}.cls-15{opacity:0.6;}.cls-15,.cls-18{mix-blend-mode:multiply;}.cls-16{fill:#472421;}.cls-17{fill:#ed353e;}.cls-18{opacity:0.27;}.cls-20{fill:#d8502b;}.cls-21{fill:#633028;}</style></defs><g class="cls-1"><g id="Layer_2" data-name="Layer 2"><g id="_11" data-name="11"><path class="cls-2" d="M42.25,94.16c1.06-.5,2.17.62,1.82,1.12s-2,3.66-2.83,3.73-2.07-.58-1.92-1.07S41.4,94.56,42.25,94.16Z"/><path class="cls-2" d="M40,93.39c1.11-.49,2.07.64,1.66,1.14s-2.45,3.62-3.27,3.68-2-.6-1.78-1.08S39.14,93.78,40,93.39Z"/><path class="cls-2" d="M37.29,93.15c1.09-.42,2.07.64,1.68,1.09s-2.32,3.28-3.13,3.32-2-.6-1.78-1S36.42,93.49,37.29,93.15Z"/><path class="cls-3" d="M45,86.81a15.85,15.85,0,0,0,.16,5.68c.18,1.17-.22,3.87-1.21,4.35s-3.73-.35-4.19-.77.43-2.13,1.12-2.12,1.31.32,1.54.07a1.59,1.59,0,0,0,.29-.68S43.29,88.48,45,86.81Z"/><path class="cls-4" d="M118.94,10.36c-.45,8-6.41,29.3-6.41,29.3S100.23,37,98.61,35.23c2-6.12,12.21-25.37,12.21-25.37Z"/><path class="cls-3" d="M101.74,24.18S93,26.79,90,38.88l15.37,1.9a20.09,20.09,0,0,1,3.11-9.33Z"/><path class="cls-5" d="M106.16,139.62,149.67,146s18.57-76.28,10.14-108.64L124.34,32S106.71,59,106.16,139.62Z"/><path class="cls-6" d="M108.44,137.86,148.09,144S165,70.63,157.33,39.52L125,34.35S109,60.34,108.44,137.86Z"/><path class="cls-7" d="M157.33,39.52,125,34.35A42.14,42.14,0,0,0,122.35,40a15.06,15.06,0,0,1,1.78-.13c16.07,0,29.1,29,29.1,64.79,0,14.74-2.21,28.32-5.93,39.2l.79.13S165,70.63,157.33,39.52Z"/><path class="cls-2" d="M101.1,53.55c3.53,13.73,12.67,29.51,13.81,30.37s6.92-3.89,7.54-5.72.42-23.43-2.43-27.06S99.05,45.61,101.1,53.55Z"/><path class="cls-3" d="M118.16,62.05c0,7.47,2.44,14.25,4.36,15.84.51-3,.26-21.49-2.15-26.18C119.63,54.54,118.16,57.83,118.16,62.05Z"/><path class="cls-3" d="M119.75,49.3c-3.28-4.59-14.51-9.56-19.17-11.11s-15,1.55-19.52,1.38S77.6,58.26,78.81,59.81s2.34,13.65,1.47,26.26l30.14,1.16c-.86-6.22,6-21.76,6-21.76S123,53.9,119.75,49.3Z"/><path class="cls-2" d="M119.75,49.3c-2.29-3.2-7.42-6.89-12.71-8.49-3.25,7.76-17.32,33.65-21.55,31.09C83.22,70.53,86.28,51.16,78,44c-1.44,5.62-1.34,14.68-.51,15.74C78.65,61.33,79.86,73.41,79,86l31.43,1.21c-.86-6.22,6-21.76,6-21.76S123,53.9,119.75,49.3Z"/><path class="cls-2" d="M82.74,53.52c1.87,7.86,3.15,10,5.61,10s8-.59,8-.59-8,3.63-12.49,1.37S82.74,53.52,82.74,53.52Z"/><path class="cls-2" d="M114.8,83.81c6.47,4.89,19.38,2.7,28.69-2.1l.91-4.65s-20.32-3.09-23-2.45C114.86,76.18,114.8,83.81,114.8,83.81Z"/><path class="cls-2" d="M137,76s2.4,1,3.5.41a34.18,34.18,0,0,1,6.56-2.83c.82-.25,4.49,2.18,5.65,3.19-.88.54-4.19,7.48-4.19,7.48a24.06,24.06,0,0,1-6.54-.17c-.8-.19-2.92.37-4.81.33C134.61,84.34,137,76,137,76Z"/><path class="cls-3" d="M140.52,76.77c2.39-2.68,5-5.08,6.43-5.23s2.71,1.71,3.17,2.61-2,4-2.51,4.41-2.05-.38-2-1,1.23-2.23,1-2.43a2,2,0,0,0-.78-.27S142.32,78.33,140.52,76.77Z"/><path class="cls-3" d="M147.84,77.8c-.66-.85.53-2.48,1.13-2.35s4.32.37,4.47,1.17S153,79,152.39,79.05,148.37,78.48,147.84,77.8Z"/><path class="cls-3" d="M146.26,80.39c-.65-.84.53-2.48,1.13-2.35s4.32.38,4.47,1.18-.48,2.36-1.05,2.43S146.79,81.08,146.26,80.39Z"/><path class="cls-3" d="M145,83.08c-.61-.84.45-2.5,1-2.37s3.94.32,4.08,1.12-.41,2.37-.93,2.45S145.53,83.76,145,83.08Z"/><path class="cls-3" d="M144.4,77.06S132.84,75.3,126,74.71a4.18,4.18,0,0,0,0,.71c.55,3.46,7.08,5.32,14.61,4.14a28.87,28.87,0,0,0,3.41-.75Z"/><path class="cls-3" d="M78.57,39.84c-13.22,5.1-26.49,16.34-27.21,17.58s1.47,10.24,3.36,10.65,22.78-4.13,26.06-7.38S86.23,36.89,78.57,39.84Z"/><path class="cls-2" d="M51.58,64.72h0c1.09,1.7,2.34,3.17,3.16,3.35,1.89.41,23.08-3.34,26.35-6.59,1.2-1.19,2.67-6,3.15-9.83C81.71,60.17,52.76,65,51.58,64.72Z"/><path class="cls-3" d="M52.46,56.27c-6.78,3-10.85,13.75-14.28,33.11L44.1,91S55.81,71.75,59.61,67.6C64,62.85,52.46,56.27,52.46,56.27Z"/><path class="cls-2" d="M61.73,63c-4.65.67-9.66,8.71-19.42,27.54L44.1,91S57,71.55,60.81,67.41C62.25,65.83,63.06,64.36,61.73,63Z"/><path class="cls-3" d="M143.29,186.13h14.39s-1.49-2-8.75-2.77c-3.08-.34-5.65-4.29-5.65-4.29l-1.14.49S141.79,184.05,143.29,186.13Z"/><path class="cls-3" d="M55.05,186.12H69.44s-.26-1.79-7-2.53c-2.86-.32-2.92-4-2.92-4l-1.45.46S54.87,184.22,55.05,186.12Z"/><path class="cls-3" d="M73.52,131.55c-9.21,13.36-16.11,38.23-15.88,53.65h1.61c3-22.56,26.25-51.57,26.25-51.57Z"/><path class="cls-2" d="M76,147c5.18-8,9.53-13.4,9.53-13.4l-12-2.08c-4.39,6.37-8.25,15.36-11.07,24.69A43.18,43.18,0,0,1,76,147Z"/><path class="cls-3" d="M130.75,134.2l-11,2c1.92,12.55,15,36.73,25.38,49h1.12C137.3,167.7,130.75,134.2,130.75,134.2Z"/><path class="cls-2" d="M132.43,142c-.68-2.87-1.68-7.81-1.68-7.81l-11,2c1.1,7.19,5.87,18.2,11.69,28.62C129.44,154.09,131.26,147.19,132.43,142Z"/><path class="cls-8" d="M77.78,92.41c-5.52,12.26-6.39,29.74-5.52,37,0,0-4.32,2.57-2.08,6s8,4.9,9.94,5.47,15.1-9.79,20.11-25.5S77.78,92.41,77.78,92.41Z"/><path class="cls-9" d="M77.78,92.41a54.79,54.79,0,0,0-2.92,8.44,2.86,2.86,0,0,1,1.53-.84c3.51-.51,7.51,6.94,8.94,16.65s-.26,18-3.76,18.51-7.51-6.93-8.94-16.64c-.13-.92-.23-1.82-.31-2.71a71.92,71.92,0,0,0-.06,13.57s-4.32,2.57-2.08,6,8,4.9,9.94,5.47,15.1-9.79,20.11-25.5S77.78,92.41,77.78,92.41Z"/><path class="cls-8" d="M81.41,138.53c.51-1-.69-2.57-3-3.76s-5.39-2-5.89-1,1,3.55,3.23,4.74S80.91,139.5,81.41,138.53Z"/><path class="cls-8" d="M81.66,106.8c5.7,7.77,9.54,20.45,8,22s-3.54-10.13-5.4-14.26A38.37,38.37,0,0,1,81.66,106.8Z"/><path class="cls-8" d="M120.63,140.07c-3.13-.34-4-5.52-4-5.52s-16.75-16.24-20.9-22.28-18-19.86-18-19.86,32.47-3.11,37,.52,9.67,19.34,9.67,19.34,4.49,12.26,4.32,16.58c0,0,4.07,5.19,2.38,7.09S120.63,140.07,120.63,140.07Z"/><path class="cls-9" d="M116,122.52c-2.41-11.15-1.62-21.34,1.59-26.06a14,14,0,0,0-2.8-3.53c-4.49-3.63-37-.52-37-.52s13.82,13.82,18,19.86,20.9,22.28,20.9,22.28.86,5.18,4,5.52c0,0,.8-.21,2-.54A52,52,0,0,1,116,122.52Z"/><path class="cls-8" d="M116,42.33c-3-4-7.9-.91-7.9-.91s-16.28,37-32.68,44.26c0,0,26.65,9.68,34-1.39C112.92,79,120.8,54.85,121.67,52S119.12,42.21,116,42.33Z"/><path class="cls-9" d="M121.13,47.8a54.43,54.43,0,0,1-3.18,11c-4.42,11-7.39,20.26-14.66,20.95-19,1.79-.35-21.83,3.93-34.51A37.1,37.1,0,0,1,109,41a7.48,7.48,0,0,0-.9.46s-16.28,37-32.68,44.26c0,0,26.65,9.68,34-1.39C112.92,79,120.8,54.85,121.67,52A7.13,7.13,0,0,0,121.13,47.8Z"/><path class="cls-10" d="M76.57,93.62c9,4.49,15.26,36.38,17.33,42.08,1.73,3.34,15.47,2.37,16.16-.4s2.61-40.24,5.72-42.37c0-2.42-2.77-9.5-4.15-11.05S78,83.6,75.71,84.29,74.47,92.57,76.57,93.62Z"/><path class="cls-11" d="M108.55,133.74c-1.92,1.18-10.37,3.57-11.65.74-11.1-24.56-1.53-35.24,8.1-39.86-1.4.12-2.85.19-4.34.19-11.36,0-20.57-3.76-20.57-8.41a4.36,4.36,0,0,1,1.3-2.91c-3,.34-5.16.64-5.68.8-2.24.69-1.24,8.28.86,9.33,9,4.49,15.26,36.38,17.33,42.08,1.73,3.34,15.47,2.37,16.16-.4.25-1,.65-6.42,1.21-13.08C110.15,128.75,109.39,133.22,108.55,133.74Z"/><path class="cls-11" d="M77.83,91.07c14.94-1.57,35.49-.19,35.49-.19L82.54,92.94Z"/><path class="cls-11" d="M111.74,100.41c-.59,8.36-3.19,29.6-3.19,29.6s-.25-11.7.83-18.49A99.87,99.87,0,0,1,111.74,100.41Z"/><path class="cls-11" d="M93.65,108.08c1.89,14.07,2.51,18.64,3.77,23.32a35.33,35.33,0,0,1-3.33-10.28A81.52,81.52,0,0,1,93.65,108.08Z"/><polygon class="cls-12" points="213.91 114.74 0 92.64 0.16 89.99 214.05 113.37 213.91 114.74"/><path class="cls-12" d="M127.82,72.15c-3.61,2.26-4.94,6.92-5.37,17.2L127,90.72c-.83-11.19,0-15.42,2.93-18.55Z"/><path class="cls-13" d="M125.47,75.79a9.78,9.78,0,0,1,2.21.25A10.19,10.19,0,0,1,130,72.17l-2.14,0a8.27,8.27,0,0,0-3.15,3.68C124.93,75.81,125.2,75.79,125.47,75.79Z"/><path class="cls-13" d="M126.75,82.63a10.71,10.71,0,0,1-1.28.09,9.22,9.22,0,0,1-2.47-.33c-.26,2-.44,4.28-.55,7L127,90.72C126.79,87.48,126.7,84.84,126.75,82.63Z"/><path class="cls-12" d="M140.52,72.14c-3.45,2.19-4.5,6.74-4.34,16.76l4.62,1.35c-1.46-10.92-.87-15,1.84-18.08Z"/><path class="cls-13" d="M140.24,77.64a9.89,9.89,0,0,1,2.4-5.47l-2.12,0A8,8,0,0,0,137.17,77,8.32,8.32,0,0,1,140.24,77.64Z"/><path class="cls-13" d="M136.86,82.86c-.2,0-.39,0-.58,0-.1,1.76-.13,3.77-.1,6.07l4.62,1.35c-.43-3.2-.67-5.8-.75-8A8.6,8.6,0,0,1,136.86,82.86Z"/><rect class="cls-7" x="139.3" y="71.07" width="4.5" height="1.47"/><rect class="cls-7" x="126.61" y="71.07" width="4.5" height="1.47"/><rect class="cls-7" x="135.24" y="88.47" width="6.49" height="2.88"/><rect class="cls-7" x="121.45" y="88.47" width="6.49" height="2.88"/><path class="cls-9" d="M116.83,42.49a2.48,2.48,0,0,0-.88-.16,5.13,5.13,0,0,0-1.28-1.24,100.66,100.66,0,0,1-2.83,15.57A89.5,89.5,0,0,0,116.83,42.49Z"/><polygon class="cls-14" points="205.68 113.24 210.97 110.19 231.62 116.66 209.74 117.8 205.68 113.24"/><path class="cls-9" d="M129.72,130.27c-.54-.84-1-1.42-1-1.42a17.32,17.32,0,0,0-.48-3.86,37.6,37.6,0,0,1-5.59,7.47Z"/><path class="cls-9" d="M93.76,81.22c6.78-6.47,13.76-16.79,13.76-16.79s-2.32,7-5.87,10.61A35,35,0,0,1,93.76,81.22Z"/><path class="cls-15" d="M117.3,42.71a2.86,2.86,0,0,0-.47-.22,1.91,1.91,0,0,0-.41-.11,1.48,1.48,0,0,0-.47-.05,5.41,5.41,0,0,0-.62-.7s0,0,0,0a4.08,4.08,0,0,0-.62-.51h0c-2-1.39-4.45-.69-5.72-.13h0l-.62.3c-.43-.16-.86-.32-1.29-.45h0l-1.58-.71a20.37,20.37,0,0,1,3.06-8.65L106.27,29a67.39,67.39,0,0,0-10.41-1,22.2,22.2,0,0,0-5.69,10.38c-3.54.55-7,1.2-9.11,1.12a1.58,1.58,0,0,0-.48.06,3.48,3.48,0,0,0-2,.21,65,65,0,0,0-6.17,2.79c5.18,3.47,14.36,6.46,23.91,6.46S113.24,46.15,117.3,42.71Z"/><path class="cls-3" d="M100.69,33.93c2.65,4.43,15.43,3,15.43,3S118.57,15.84,118,9.63C117.29,2.67,91.77,12.8,100.69,33.93Z"/><path class="cls-16" d="M111.69,18.32c0,1,0,3.2,1,3.2s1.08-3.1,1.08-3.1Z"/><path class="cls-17" d="M97,41.48C100.74,26.84,105.5,14,105.5,14l13.44-3.66c-.7-9.32-16-13.2-24.23-8.09C82.79,9.69,79.16,32,79.16,32Z"/><path class="cls-8" d="M106.09,13.41l0,.3.1.12,12.71-3.47a8.64,8.64,0,0,0-.84-3.08l-10.55,4.57Z"/><path class="cls-8" d="M106.09,13.41l1.46-1.56,7.6-8.15a14.88,14.88,0,0,0-3.24-1.94l-6.15,9.16Z"/><path class="cls-8" d="M106.13,13.71l0-.3-.33-2.49L104.32,0a20.34,20.34,0,0,0-3.91.22l3.91,11.43Z"/><path class="cls-8" d="M105.5,14l.73-.19-.1-.12-1.81-2L95.55,1.79q-.43.22-.84.48a19.14,19.14,0,0,0-3,2.36l13.39,10.64Z"/><path class="cls-8" d="M104.1,18,89.65,6.76a32.28,32.28,0,0,0-2.82,4l16.56,9.32C103.65,19.29,103.89,18.6,104.1,18Z"/><path class="cls-8" d="M102.46,22.87,84.9,14.23c-.62,1.25-1.18,2.51-1.69,3.76L101.44,26C101.79,24.93,102.13,23.87,102.46,22.87Z"/><path class="cls-8" d="M100.21,30.06,82,21.11c-.49,1.4-.91,2.74-1.26,4l18.51,8.08C99.6,32.11,99.9,31.07,100.21,30.06Z"/><path class="cls-8" d="M79.93,28.32c-.53,2.23-.77,3.65-.77,3.65L97,41.48c.26-1,.51-2,.77-2.95Z"/><path class="cls-18" d="M91.49,23.73c0-12.23,6.42-22.29,14.67-23.56a17.86,17.86,0,0,0-11.45,2.1C82.79,9.69,79.16,32,79.16,32L97,41.48v0C93.64,37.11,91.49,30.79,91.49,23.73Z"/><polygon class="cls-19" points="97.03 41.48 105.42 11.53 106.23 13.82 97.03 41.48"/><polygon class="cls-19" points="118.94 10.36 105.16 13.9 105.11 15.47 118.91 10.8 118.94 10.36"/><polygon class="cls-19" points="100.42 7.28 106.13 13.71 105.42 11.53 100.42 7.28"/><path class="cls-20" d="M115.85,16.5c2.43,6.79,4.2,10.69,4.2,11.43s-4.83,1.33-5.13.82S115.85,16.5,115.85,16.5Z"/><path class="cls-3" d="M115,16c2.43,6.79,4.2,10.69,4.2,11.43S114.4,29,114.1,28.5,115,16,115,16Z"/><polygon class="cls-21" points="115.85 16.5 109.38 15.72 109.09 18.86 115.92 18.52 115.85 16.5"/><polygon class="cls-21" points="116.32 16.85 119.66 16.57 119.08 18.89 116.49 18.66 116.32 16.85"/><path class="cls-20" d="M108.59,31.56l-.49-.4c1.19-1.48,4.56-2.35,7-.87l-.3.33C112.82,29.42,109.37,30.58,108.59,31.56Z"/><path class="cls-20" d="M113.27,31.38c0-.17-.42-.54-1-.54s-1.18.37-1.18.54.56.09,1.18.09S113.27,31.55,113.27,31.38Z"/><path class="cls-20" d="M57.48,69c2.75-8.26,5.7-11.5,5.7-11.5L62,64.14Z"/><path class="cls-20" d="M91.59,60.84c0-.57-.77-1-1.72-1s-1.72.46-1.72,1,.77,1,1.72,1S91.59,61.41,91.59,60.84Z"/><rect class="cls-6" x="203.37" y="111.77" width="3.47" height="2.73" transform="translate(16.48 -25.75) rotate(7.48)"/><path class="cls-3" d="M45.76,83.87s-.88,4.51-.91,5.73c-.05,1.87-2.07,3.87-2.71,6.68-.19.82-8.53-2.53-8.53-2.53s1.87-5.13,3.68-7.06a24.24,24.24,0,0,0,2.54-5.31C40.68,79,45.76,83.87,45.76,83.87Z"/><path class="cls-3" d="M40,93.4c.83-.57,2.46.73,2.34,1.31S42,98.93,41.24,99s-2.35-.67-2.42-1.23S39.32,93.87,40,93.4Z"/><path class="cls-3" d="M37.42,92.52c.88-.56,2.37.74,2.19,1.31s-.76,4.19-1.56,4.26-2.26-.69-2.27-1.25S36.7,93,37.42,92.52Z"/><path class="cls-3" d="M34.56,92.24c.89-.49,2.37.74,2.18,1.26s-.78,3.79-1.58,3.83-2.26-.69-2.27-1.2S33.84,92.63,34.56,92.24Z"/></g></g></g></svg>