<svg xmlns="http://www.w3.org/2000/svg" viewBox="0 0 130.22 178.69"><defs><style>.cls-1{fill:#ff9566;}.cls-2{fill:#edc783;}.cls-3{fill:#916753;}.cls-4{fill:#dbbd9c;}.cls-5{fill:#7f6d62;}.cls-6{fill:#b5aa99;}.cls-7{fill:#4f4038;}.cls-8{fill:#604f48;}.cls-9{fill:#726156;}.cls-10{fill:#66544a;}.cls-11{fill:#ffb882;}.cls-12{fill:#bf9c79;}.cls-13{fill:#302622;}.cls-14{fill:#56433a;}.cls-15{fill:#d3a16a;}.cls-16{fill:#665148;}.cls-17{fill:#ddae7c;}.cls-18{fill:#f2c58f;}.cls-19{fill:#ce773c;}.cls-20{fill:#bcddd8;}.cls-21{fill:#9bb2af;}.cls-22{fill:#c18952;}.cls-23{fill:#493b33;}.cls-24{fill:#a09484;}</style></defs><g id="Layer_2" data-name="Layer 2"><g id="_11" data-name="11"><path class="cls-1" d="M84.42,101.82s.51,3.33,1.9,4.14a44.51,44.51,0,0,1,7.55,5.37c.83.74.41,3.62.06,5.59-3.34,2.38-10.9,3.2-10.9,3.2a31.08,31.08,0,0,1-4.21-7.37c-.33-1-2.37-3-3.59-5.1C73.55,104.76,84.42,101.82,84.42,101.82Z"/><polygon class="cls-2" points="17.73 136.46 17.13 135.68 128.24 50.02 128.35 50.73 17.73 136.46"/><polygon class="cls-3" points="15.87 35.11 14.91 35.48 21.96 55.94 22.93 55.56 15.87 35.11"/><polygon class="cls-3" points="23.05 33.78 22.09 34.15 28.55 54.95 29.52 54.58 23.05 33.78"/><polygon class="cls-3" points="31.5 32.21 30.54 32.58 35.97 53.77 36.94 53.4 31.5 32.21"/><path class="cls-4" d="M64.84,15.32c6.46,2,.19,34.4.19,34.4L46.82,44.89S60.48,14,64.84,15.32Z"/><path class="cls-5" d="M82.64,178.69h14c0-3.08-11.65-3.18-12.73-8.87l-1.31.33C83.34,174.9,81.76,175.61,82.64,178.69Z"/><path class="cls-5" d="M27.41,178.69H17.72c0-3.08,5.94-3.86,7-9.55l1.29.34C25.25,174.22,28.28,175.61,27.41,178.69Z"/><polygon class="cls-6" points="31.55 34.85 28.36 31.73 25.32 22.81 28.64 24.63 32.1 19.31 33.4 31.32 31.55 34.85"/><polygon class="cls-6" points="23.38 36.61 20.12 33.57 16.89 24.7 20.25 26.46 22.76 21.74 24.32 33.72 23.38 36.61"/><polygon class="cls-6" points="16.75 39.5 12.47 35.9 7.85 25.02 12.17 27 15 20.93 17.74 35.82 16.75 39.5"/><path class="cls-7" d="M15.79,45.22,34.92,98l12.13-5L36.16,36.61S21,37.65,15.79,45.22Z"/><path class="cls-8" d="M16.53,45.28l3.28,9.06c5.75-2.22,11.39-9.62,12.9-16.65C28.49,38.31,20,40.18,16.53,45.28Z"/><path class="cls-3" d="M15.47,136.53l0-.94C34,135,62.41,134.14,87.7,114c16.23-12.93,31.2-33.81,41.52-67.64l1,.31c-10.5,34.41-24.07,56.21-40.58,69.45C63.72,136.87,34.55,135.94,15.47,136.53Z"/><path class="cls-9" d="M65.48,51.67c7.68,11,8.33,30.2,11.32,34,2.14,2.72-10.45,9.1-12.69,7.46S54.9,75.85,53,64.61C52,59.24,60.16,44,65.48,51.67Z"/><path class="cls-10" d="M64,50.19C58.67,46.68,52.12,59.71,53,64.61c1.94,11.24,8.91,26.88,11.15,28.52,1.65,1.2,8.14-2.06,11-4.89C71.59,80.15,67,55.64,64,50.19Z"/><path class="cls-9" d="M61.2,87.48c-.47,6,14.57,23.72,14.57,23.72l12.1-8.54s-8.5-14.9-11.74-18.23S61.57,82.79,61.2,87.48Z"/><path class="cls-10" d="M72.56,81.53c-4.58-1-11.07,2.27-11.36,6-.47,6,14.57,23.72,14.57,23.72l10.09-7.12C82,99.27,74.47,87.8,72.56,81.53Z"/><path class="cls-11" d="M82.53,105c4.58.85,9,2.11,10.12,3.61s-.07,4.16-.76,5.27-5.74.52-6.57.18-1-2.52-.21-2.83,3.3-.14,3.34-.58a2.49,2.49,0,0,0-.22-1S82,108,82.53,105Z"/><path class="cls-4" d="M87,100.7l-12.5,9c-1.73,2.29.88,3,1.9,2.26l12.11-8.69C89.86,102.27,88.93,99.37,87,100.7Z"/><path class="cls-12" d="M79.3,106.83l8.94-6.43a1.47,1.47,0,0,0-1.26.3l-12.5,9c-1.73,2.29.88,3,1.9,2.26l3.62-2.6C79,109.24,78.09,108.43,79.3,106.83Z"/><path class="cls-13" d="M64.77,17c3.83,2.55-2,33.71-2,33.71l-16-4.14S61,14.48,64.77,17Z"/><path class="cls-10" d="M40.2,98.84C53.92,124.68,65.3,144,65.3,144s7.47,19,18.1,29.24l1.31-.93S82,139.43,81.41,135s-11-42.81-11-42.81Z"/><path class="cls-14" d="M65.28,125l11.77-7.85C74,105.37,70.39,92.23,70.39,92.23L40.2,98.84C53.92,124.68,65.3,144,65.3,144s7.47,19,18.1,29.24l.66-.47C75.46,161.08,65.28,125,65.28,125Z"/><path class="cls-10" d="M33.05,94.4c-4.34,27.47-6.15,45.23-6.15,45.23s-5.28,18.76-2.85,32.49h1.62s16.93-24.64,19.1-28.34c1.14-2,11.17-28.64,11.17-28.64l6.33-2.92L60,95.29Z"/><path class="cls-14" d="M60,95.29,33.05,94.4c-4.34,27.47-6.15,45.23-6.15,45.23s-5.28,18.76-2.85,32.49h1.62l.68-1C23,160,37.15,127.91,37.15,127.91l14.32-1c2.38-6.23,4.47-11.78,4.47-11.78l6.33-2.92Z"/><path class="cls-9" d="M27.74,123.29c11.06.52,40.08-2.47,49.52-8.52L71.74,95.19S68.2,56.66,64.4,50.78,38.15,43.12,34,47.91C24,59.32,31.54,98.19,31.54,98.19Z"/><ellipse class="cls-10" cx="53.72" cy="49.01" rx="7.12" ry="2.73"/><path class="cls-15" d="M58,42.89l-.87,3.84s-.75,1.77-3.92,1.47l.66-6.93Z"/><path class="cls-10" d="M38.34,59c-2.46-3.14-5.44,6.24-9.53,11a168.76,168.76,0,0,0,2.73,28.15l-3.8,25.1A104.46,104.46,0,0,0,39.11,123C51.91,96.94,43,64.94,38.34,59Z"/><path class="cls-10" d="M59.6,56.42a2.21,2.21,0,0,0-2.48,1.38c-.81,1.78,5.77,39.86,6,60.13l2.67-1.48C66.21,107,59.6,56.42,59.6,56.42Z"/><path class="cls-4" d="M60.76,56.19a2.2,2.2,0,0,0-2.46,1.38c-.79,1.77,6.29,39.62,6.78,59.77l2.66-1.47C68,106.43,60.76,56.19,60.76,56.19Z"/><path class="cls-12" d="M61.33,60.24c-.35-2.54-.57-4.05-.57-4.05a2.2,2.2,0,0,0-2.46,1.38c-.19.43.09,3,.62,7Z"/><path class="cls-4" d="M76.49,112.28c-10,5.63-36.94,8.46-48.12,8.09-1.49-.23-2,3.29-.53,3.51,11.05.52,40.08-2.47,49.52-8.52C78.73,115,77.86,111.89,76.49,112.28Z"/><path class="cls-12" d="M77.07,112.32a.88.88,0,0,0-.58,0c-.31.17-.64.35-1,.52Z"/><path class="cls-12" d="M43.63,122.45c-1-.06-1.25-1.65-.85-2.69a127.14,127.14,0,0,1-14.41.61c-1.49-.23-2,3.29-.53,3.51,10.32.49,36.29-2.09,47.38-7.35C63.83,119.84,50.42,122.12,43.63,122.45Z"/><path class="cls-14" d="M65,50.65,63.23,50c2.88,19.35-14.72,48.32-32.3,53.88l-.38,2.54C55.28,98.22,67.72,67.7,65,50.65Z"/><path class="cls-16" d="M64.94,49.12l-1.73-.69c2.88,19.35-14.72,48.32-32.29,53.88l-.39,2.54C55.27,96.69,67.7,66.17,64.94,49.12Z"/><path class="cls-7" d="M62.27,62.58A13.88,13.88,0,0,1,64,64.64a41.38,41.38,0,0,0,.91-15.52l-1.73-.69A37.6,37.6,0,0,1,62.27,62.58Z"/><path class="cls-7" d="M46,92.06c-4.68,4.9-9.88,8.6-15.08,10.25l-.39,2.54a44.1,44.1,0,0,0,16.14-9.7C46.41,94.16,46.19,93.13,46,92.06Z"/><path class="cls-9" d="M31,51.31C21.78,60.79,15.46,81,15.63,84.41s10.7,6.3,13.11,5.1S39.16,75.65,43,64.94C44.78,59.83,37.41,44.75,31,51.31Z"/><path class="cls-9" d="M13.52,84.72c-.47,6,15.37,24.68,15.37,24.68l13.19-8.89S35.17,86.69,31.93,83.35,13.89,80,13.52,84.72Z"/><path class="cls-10" d="M39.63,53.13C37.25,49.93,34,48.22,31,51.31,21.78,60.79,13.23,81.43,13.4,84.88c.1,2,4.3,3.6,8.34,4.4C18,71.31,32.14,50.23,39.63,53.13Z"/><path class="cls-9" d="M15.48,83.45c-.47,5.94,13.41,26,13.41,26l13.19-8.89S35.17,86.69,31.93,83.35,15.85,78.76,15.48,83.45Z"/><path class="cls-10" d="M21.24,78.71c-4.09.19-7.54,3.7-7.72,6-.47,6,15.37,24.68,15.37,24.68l7.23-4.87C33.06,100.82,21.26,84.12,21.24,78.71Z"/><path class="cls-17" d="M62.33,24.24c4,5.43.87,19.09-2.46,21.24-2.3.21-10.56-2.26-10.56-2.26s6.15-16.57,9.9-20.16C60,22.35,62,23.87,62.33,24.24Z"/><path class="cls-18" d="M62.2,28.81c-1.5-.24-3.57,4.79-4.62,11.24a45.44,45.44,0,0,0-.53,4.72,11.15,11.15,0,0,0,2.62.28c2.32-1.5,3.84-9.63,3-15.95A.85.85,0,0,0,62.2,28.81Z"/><path class="cls-9" d="M53.38,54.18C55,42.44,58,22.86,64.48,16.87c0,0-16.47-.91-24.42,7.61-2.33,2.49.12,12-1.72,15.43-2.54,2-3.87,6.88-2.86,7.18C39,50.64,42.62,53.57,53.38,54.18Z"/><path class="cls-10" d="M43.74,21.49a20.93,20.93,0,0,0-4.07,3c-2.33,2.5-.15,11.66-2,15.12-2.53,2-3.21,7.21-2.2,7.51C39,50.64,44.9,58.53,58,58.16c-5.09-3.39-4-8.44-3.63-10.92C45.56,46,40,33,43.74,21.49Z"/><path class="cls-11" d="M39.28,102.94c4.65.23,9.18.88,10.52,2.21s.49,4.12,0,5.32-5.62,1.3-6.49,1.08-1.29-2.37-.59-2.78,3.25-.59,3.23-1a2.49,2.49,0,0,0-.36-1S39.18,106,39.28,102.94Z"/><polygon class="cls-19" points="2.21 176.28 0 174.66 118.04 8.65 119.18 9.44 2.21 176.28"/><polygon class="cls-20" points="109.16 22.68 108.71 15.9 125.05 0 115.61 21.45 109.16 22.68"/><polygon class="cls-21" points="109.16 22.68 108.71 15.9 125.05 0 109.16 22.68"/><path class="cls-22" d="M63.87,32.81a1.41,1.41,0,0,0-1.23-.49,1.62,1.62,0,0,0-1.27.54c0,.13.54,0,1.23-.07S63.87,32.93,63.87,32.81Z"/><path class="cls-15" d="M62,30.58c.89,3.51,2.21,6.15,1.58,6.88s-2.86.72-2.86.72Z"/><path class="cls-18" d="M61.45,30.35c.89,3.51,2.21,6.15,1.58,6.88s-2.86.72-2.86.72Z"/><polygon class="cls-23" points="65.31 30.55 62.24 31.56 55.96 30.89 56.01 28.21 62.24 29.85 65.03 28.37 65.31 30.55"/><path class="cls-22" d="M61.88,40.31a7.33,7.33,0,0,0-4.93.5l-.81-.42A7.27,7.27,0,0,1,62,40.12Z"/><path class="cls-22" d="M60.74,41.13c0-.14-.45-.31-1-.38s-1,0-1,.13.44.31,1,.38S60.73,41.27,60.74,41.13Z"/><path class="cls-22" d="M60.14,32.7a2.47,2.47,0,0,0-1.75-.48,2.86,2.86,0,0,0-1.81.56c0,.13.77-.06,1.75-.08A9.11,9.11,0,0,0,60.14,32.7Z"/><path class="cls-4" d="M60.86,16.91C55,23.1,53,40.68,51.74,52.29L55,53.36c1.29-11.78,3.23-30.47,9.51-36.48C65.78,15.49,64,14,60.86,16.91Z"/><path class="cls-4" d="M63.22,48.18s-.33,5.6-3.45,6.64a3.47,3.47,0,0,1-4.86-3.2l-3.17.67c-.52,8,13.41,7.68,13.46-3.46Z"/><path class="cls-11" d="M38.68,101.56a3.7,3.7,0,0,0,2,1.79c2.29,1,6.26,1.76,8,5.14,2.54,4.88-9.35,9.33-9.35,9.33a30.72,30.72,0,0,1-5.17-6.73c-.47-1-2.76-2.63-4.26-4.56A65.42,65.42,0,0,0,38.68,101.56Z"/><path class="cls-11" d="M44.66,108.07c.32-1.35,2.93-1.5,3.29-.78s3.16,4.65,2.48,5.45-2.78,1.45-3.31.94S44.41,109.16,44.66,108.07Z"/><path class="cls-11" d="M41.73,111.5c.31-1.35,2.93-1.5,3.28-.78s3.16,4.65,2.48,5.45-2.78,1.45-3.31.94S41.47,112.59,41.73,111.5Z"/><path class="cls-11" d="M38.75,115.2c.36-1.3,2.88-1.58,3.2-.93s2.9,4.23,2.21,5-2.73,1.53-3.22,1.07S38.47,116.24,38.75,115.2Z"/><path class="cls-4" d="M41.27,97.75l-14.33,9.66c-1.38,1.77.29,3.44,2.23,2.72l13.71-9.25C44.49,99.65,43.85,96.79,41.27,97.75Z"/><path class="cls-12" d="M34.9,102.6l7.45-5a2.65,2.65,0,0,0-1.08.18l-14.33,9.66c-1.38,1.77.29,3.44,2.23,2.72l6.89-4.65A1.67,1.67,0,0,1,34.9,102.6Z"/><path class="cls-4" d="M30.09,52.3c5.47-2.51,12,8.35,12.3,14.17.33.73,1.16.09,1.21-2,.12-5-4.46-16.4-11.06-15C31.24,49.73,29.35,50.73,30.09,52.3Z"/><path class="cls-4" d="M82.9,174.32c-1.45.44-2.63-2.22-1.59-2.88s2.34-2.06,3.34-2,2.11,2.36,1.15,3.24A11.15,11.15,0,0,1,82.9,174.32Z"/><path class="cls-4" d="M22.8,172.57c-1.34-.7-.32-3.42.88-3.18s3.11.17,3.78.93-.14,3.15-1.45,3.12A11.3,11.3,0,0,1,22.8,172.57Z"/><polygon class="cls-14" points="44.77 143.78 30.97 142.02 31.07 140.25 45.14 143.01 44.77 143.78"/><polygon class="cls-14" points="70.49 144.97 81.64 137.2 81.72 138 70.59 147.03 70.49 144.97"/><polygon class="cls-14" points="35.21 87.97 28.02 81.02 32.22 83.01 40.79 70.33 33.77 84.56 35.21 87.97"/><polygon class="cls-24" points="16.75 39.5 12.47 35.9 7.85 25.02 12.17 27 16.75 39.5"/><polygon class="cls-24" points="23.38 36.61 20.12 33.57 16.89 24.7 20.25 26.46 23.38 36.61"/><polygon class="cls-24" points="31.55 34.85 28.36 31.73 25.32 22.81 28.64 24.63 31.55 34.85"/><path class="cls-9" d="M49,51.74C40,48.72,37.31,44,37.75,42.38s2-1.84,4-.67S49,51.74,49,51.74Z"/><polygon class="cls-2" points="128.79 52.11 127.51 50.24 128.05 49.06 129.58 50.24 128.79 52.11"/><polygon class="cls-2" points="128.78 52.05 126.71 52.52 126.42 53.69 128.28 53.85 128.78 52.05"/><path class="cls-2" d="M127.89,55.62a.13.13,0,0,0,0-.14L126.37,54l-.28,1.17,1.32,2.15Z"/><polygon class="cls-2" points="20.86 136.81 22.22 135.05 23.51 135.23 22.88 137.03 20.86 136.81"/><polygon class="cls-2" points="20.92 136.78 19.8 134.92 18.61 134.99 19.04 136.81 20.92 136.78"/><path class="cls-2" d="M17.24,137a.2.2,0,0,0,.13-.08l.9-1.83-1.2.06L15.46,137Z"/><path class="cls-11" d="M89.13,111.31c.5-1.3,3.11-1.08,3.37-.33s2.49,5,1.7,5.75-2.94,1-3.4.47S88.73,112.36,89.13,111.31Z"/><path class="cls-11" d="M85.52,113.88c.49-1.29,3.1-1.08,3.36-.33s2.49,5,1.71,5.75-3,1-3.4.47S85.11,114.93,85.52,113.88Z"/><path class="cls-11" d="M82,115.46c.53-1.24,3.07-1.17,3.3-.48s2.29,4.58,1.51,5.27-2.92,1.14-3.34.62S81.54,116.46,82,115.46Z"/></g></g></svg>