<svg xmlns="http://www.w3.org/2000/svg" viewBox="0 0 104.29 270.28"><defs><style>.cls-1{isolation:isolate;}.cls-2{fill:#2d1b1f;}.cls-3{fill:#5e3f42;}.cls-4{fill:#442a2e;}.cls-5{fill:#c4986c;}.cls-6{fill:#ead2b5;}.cls-7{fill:#ddb58a;}.cls-8{fill:#aa3143;}.cls-9{fill:#ea5066;}.cls-10{fill:#d88f4e;}.cls-11{fill:#8e9fa5;}.cls-12{fill:#493532;}.cls-13{fill:#3d2927;}.cls-14{fill:#704a4f;}.cls-15{fill:#7a5258;}.cls-16{fill:#bcddd8;}.cls-17{fill:#d66025;}.cls-18{fill:#ef8f41;}.cls-19{opacity:0.6;mix-blend-mode:multiply;}.cls-20{fill:#843131;}.cls-21{fill:#dd2a4d;}.cls-22{fill:#edae5a;}.cls-23{fill:#d8b793;}</style></defs><g class="cls-1"><g id="Layer_2" data-name="Layer 2"><g id="_11" data-name="11"><path class="cls-2" d="M75.28,192.21l-46,1.33L16.37,213.46c32.62,5.44,57.22,1,71.16-5.87Z"/><path class="cls-3" d="M63.19,96.79c0-6.48-6.78-12.21-15.23-12.21S32.38,90.31,32.38,96.79s6.89,11.71,15.4,11.71S63.19,103.26,63.19,96.79Z"/><path class="cls-3" d="M64.94,97.3s1.36,12.78,3.62,18.85c0,0-18.21,5.43-26.91-1.82l3.53-16.94Z"/><path class="cls-4" d="M63.31,97.66s1.36,12.78,3.62,18.85c0,0-18.21,5.44-26.91-1.81l3.53-17Z"/><rect class="cls-5" x="40.47" y="111.53" width="16.58" height="9.88"/><path class="cls-6" d="M45.18,97.12l-.9,16.76a21.35,21.35,0,0,0,13,3.17c2.8-.27,5.79-2.63,5.79-2.63l-.54-17.85Z"/><path class="cls-7" d="M50.89,102.46l11.77-.37-.17-5.52-17.31.55-.9,16.76a21.07,21.07,0,0,0,5.86,2.53Z"/><path class="cls-7" d="M26.34,120.75S14.62,108.38,14.39,99.84l-10.78.71c-4.95,13.1,4.21,30.39,13.42,38.28Z"/><path class="cls-6" d="M6.38,113H2.57c1.54,10.12,8,20.33,14.46,25.88l1.77-3.44A46.52,46.52,0,0,1,6.38,113Z"/><path class="cls-3" d="M0,111.55l15.18-6-.85-20.18s-6.42-.41-8.74.94C2.21,93.93,1,101.15,0,111.55Z"/><path class="cls-4" d="M7.09,99.77c-2.57-.65-3.36-6.29-1.82-12.68C2.14,94.43.93,101.51,0,111.55l15.18-6-.64-15.31C12.79,96.2,9.56,100.4,7.09,99.77Z"/><polygon class="cls-8" points="19.45 112.05 14.86 143.78 27.42 149.34 32.38 120.59 19.45 112.05"/><polygon class="cls-9" points="15.53 143.31 22.88 146.56 24.1 139.46 16.88 133.97 15.53 143.31"/><path class="cls-3" d="M28.75,119c.12.48-3.26,34.07-3.26,34.07l2.18,1.33,40.89,2.23,1.51-1.15-1.45-29.72-7.73-6.88Z"/><rect class="cls-10" x="28.61" y="148.43" width="4.42" height="1.84" transform="translate(-119.83 173.07) rotate(-87.28)"/><rect class="cls-10" x="31.1" y="148.55" width="4.42" height="1.84" transform="translate(-117.57 175.68) rotate(-87.29)"/><rect class="cls-10" x="33.58" y="148.67" width="4.42" height="1.84" transform="translate(-115.33 178.26) rotate(-87.29)"/><rect class="cls-10" x="36.07" y="148.79" width="4.42" height="1.84" transform="translate(-113.07 180.87) rotate(-87.29)"/><rect class="cls-10" x="38.55" y="148.9" width="4.42" height="1.84" transform="translate(-110.82 183.45) rotate(-87.29)"/><rect class="cls-10" x="41.04" y="149.02" width="4.42" height="1.84" transform="translate(-108.57 186.05) rotate(-87.29)"/><rect class="cls-10" x="43.52" y="149.14" width="4.42" height="1.84" transform="translate(-106.32 188.65) rotate(-87.29)"/><rect class="cls-10" x="46.01" y="149.26" width="4.42" height="1.84" transform="translate(-104.07 191.25) rotate(-87.29)"/><rect class="cls-10" x="48.49" y="149.37" width="4.42" height="1.84" transform="translate(-101.82 193.84) rotate(-87.29)"/><rect class="cls-10" x="50.98" y="149.49" width="4.42" height="1.84" transform="translate(-99.57 196.43) rotate(-87.29)"/><rect class="cls-10" x="53.46" y="149.61" width="4.42" height="1.84" transform="translate(-97.32 199.02) rotate(-87.29)"/><rect class="cls-10" x="55.95" y="149.73" width="4.42" height="1.84" transform="translate(-95.07 201.62) rotate(-87.29)"/><rect class="cls-10" x="58.43" y="149.85" width="4.42" height="1.84" transform="translate(-92.82 204.22) rotate(-87.29)"/><rect class="cls-10" x="60.92" y="149.96" width="4.42" height="1.84" transform="translate(-90.58 206.8) rotate(-87.28)"/><rect class="cls-10" x="28.84" y="143.5" width="4.42" height="1.84" transform="translate(-114.67 168.62) rotate(-87.29)"/><rect class="cls-10" x="31.33" y="143.62" width="4.42" height="1.84" transform="translate(-112.42 171.2) rotate(-87.29)"/><rect class="cls-10" x="33.81" y="143.74" width="4.42" height="1.84" transform="translate(-110.17 173.8) rotate(-87.29)"/><rect class="cls-10" x="36.3" y="143.85" width="4.42" height="1.84" transform="translate(-107.92 176.4) rotate(-87.29)"/><rect class="cls-10" x="38.79" y="143.97" width="4.42" height="1.84" transform="translate(-105.67 178.99) rotate(-87.29)"/><rect class="cls-10" x="41.27" y="144.09" width="4.42" height="1.84" transform="translate(-103.42 181.59) rotate(-87.29)"/><rect class="cls-10" x="43.76" y="144.21" width="4.42" height="1.84" transform="translate(-101.17 184.18) rotate(-87.29)"/><rect class="cls-10" x="46.24" y="144.32" width="4.42" height="1.84" transform="translate(-98.92 186.77) rotate(-87.29)"/><rect class="cls-10" x="48.73" y="144.44" width="4.42" height="1.84" transform="translate(-96.67 189.36) rotate(-87.28)"/><rect class="cls-10" x="51.21" y="144.56" width="4.42" height="1.84" transform="translate(-94.42 191.97) rotate(-87.29)"/><rect class="cls-10" x="53.7" y="144.68" width="4.42" height="1.84" transform="translate(-92.17 194.55) rotate(-87.28)"/><rect class="cls-10" x="56.18" y="144.79" width="4.42" height="1.84" transform="translate(-89.92 197.16) rotate(-87.29)"/><rect class="cls-10" x="58.67" y="144.91" width="4.42" height="1.84" transform="translate(-87.67 199.75) rotate(-87.29)"/><rect class="cls-10" x="61.15" y="145.03" width="4.42" height="1.84" transform="translate(-85.42 202.35) rotate(-87.29)"/><rect class="cls-10" x="29.08" y="138.57" width="4.42" height="1.84" transform="translate(-109.52 164.15) rotate(-87.29)"/><rect class="cls-10" x="31.56" y="138.68" width="4.42" height="1.84" transform="translate(-107.27 166.74) rotate(-87.29)"/><rect class="cls-10" x="34.05" y="138.8" width="4.42" height="1.84" transform="translate(-105.02 169.33) rotate(-87.29)"/><rect class="cls-10" x="36.53" y="138.92" width="4.42" height="1.84" transform="translate(-102.77 171.93) rotate(-87.29)"/><rect class="cls-10" x="39.02" y="139.04" width="4.42" height="1.84" transform="translate(-100.52 174.53) rotate(-87.29)"/><rect class="cls-10" x="41.5" y="139.15" width="4.42" height="1.84" transform="translate(-98.27 177.11) rotate(-87.29)"/><rect class="cls-10" x="43.99" y="139.27" width="4.42" height="1.84" transform="translate(-96.02 179.71) rotate(-87.29)"/><rect class="cls-10" x="46.47" y="139.39" width="4.42" height="1.84" transform="translate(-93.77 182.31) rotate(-87.29)"/><rect class="cls-10" x="48.96" y="139.51" width="4.42" height="1.84" transform="translate(-91.52 184.91) rotate(-87.29)"/><rect class="cls-10" x="51.44" y="139.63" width="4.42" height="1.84" transform="translate(-89.27 187.5) rotate(-87.29)"/><rect class="cls-10" x="53.93" y="139.74" width="4.42" height="1.84" transform="translate(-87.02 190.09) rotate(-87.29)"/><rect class="cls-10" x="56.42" y="139.86" width="4.42" height="1.84" transform="matrix(0.05, -1, 1, 0.05, -84.77, 192.68)"/><rect class="cls-10" x="58.9" y="139.98" width="4.42" height="1.84" transform="translate(-82.52 195.28) rotate(-87.29)"/><rect class="cls-10" x="61.39" y="140.1" width="4.42" height="1.84" transform="translate(-80.27 197.88) rotate(-87.29)"/><rect class="cls-10" x="29.31" y="133.63" width="4.42" height="1.84" transform="translate(-104.37 159.67) rotate(-87.29)"/><rect class="cls-10" x="31.8" y="133.75" width="4.42" height="1.84" transform="translate(-102.12 162.26) rotate(-87.29)"/><rect class="cls-10" x="34.28" y="133.87" width="4.42" height="1.84" transform="translate(-99.87 164.87) rotate(-87.29)"/><rect class="cls-10" x="36.77" y="133.99" width="4.42" height="1.84" transform="translate(-97.62 167.46) rotate(-87.29)"/><rect class="cls-10" x="39.25" y="134.1" width="4.42" height="1.84" transform="translate(-95.37 170.06) rotate(-87.29)"/><rect class="cls-10" x="41.74" y="134.22" width="4.42" height="1.84" transform="translate(-93.12 172.65) rotate(-87.29)"/><rect class="cls-10" x="44.22" y="134.34" width="4.42" height="1.84" transform="translate(-90.87 175.25) rotate(-87.29)"/><rect class="cls-10" x="46.71" y="134.46" width="4.42" height="1.84" transform="translate(-88.62 177.85) rotate(-87.29)"/><rect class="cls-10" x="49.19" y="134.57" width="4.42" height="1.84" transform="translate(-86.37 180.43) rotate(-87.29)"/><rect class="cls-10" x="51.68" y="134.69" width="4.42" height="1.84" transform="translate(-84.12 183.03) rotate(-87.29)"/><rect class="cls-10" x="54.16" y="134.81" width="4.42" height="1.84" transform="translate(-81.87 185.63) rotate(-87.29)"/><rect class="cls-10" x="56.65" y="134.93" width="4.42" height="1.84" transform="translate(-79.62 188.22) rotate(-87.29)"/><rect class="cls-10" x="59.13" y="135.04" width="4.42" height="1.84" transform="translate(-77.37 190.82) rotate(-87.29)"/><rect class="cls-10" x="61.62" y="135.16" width="4.42" height="1.84" transform="translate(-75.12 193.41) rotate(-87.29)"/><rect class="cls-10" x="29.54" y="128.7" width="4.42" height="1.84" transform="translate(-99.22 155.22) rotate(-87.29)"/><rect class="cls-10" x="32.03" y="128.82" width="4.42" height="1.84" transform="translate(-96.97 157.81) rotate(-87.29)"/><rect class="cls-10" x="34.52" y="128.93" width="4.42" height="1.84" transform="translate(-94.72 160.4) rotate(-87.29)"/><rect class="cls-10" x="37" y="129.05" width="4.42" height="1.84" transform="translate(-92.47 162.99) rotate(-87.29)"/><rect class="cls-10" x="39.49" y="129.17" width="4.42" height="1.84" transform="translate(-90.22 165.59) rotate(-87.29)"/><rect class="cls-10" x="41.97" y="129.29" width="4.42" height="1.84" transform="translate(-87.97 168.19) rotate(-87.29)"/><rect class="cls-10" x="44.46" y="129.41" width="4.42" height="1.84" transform="translate(-85.72 170.78) rotate(-87.29)"/><rect class="cls-10" x="46.94" y="129.52" width="4.42" height="1.84" transform="translate(-83.47 173.38) rotate(-87.29)"/><rect class="cls-10" x="49.43" y="129.64" width="4.42" height="1.84" transform="translate(-81.22 175.97) rotate(-87.29)"/><rect class="cls-10" x="51.91" y="129.76" width="4.42" height="1.84" transform="translate(-78.97 178.55) rotate(-87.28)"/><rect class="cls-10" x="54.4" y="129.88" width="4.42" height="1.84" transform="translate(-76.72 181.16) rotate(-87.29)"/><rect class="cls-10" x="56.88" y="129.99" width="4.42" height="1.84" transform="translate(-74.47 183.75) rotate(-87.29)"/><rect class="cls-10" x="59.37" y="130.11" width="4.42" height="1.84" transform="translate(-72.22 186.35) rotate(-87.29)"/><polygon class="cls-10" points="63.04 133.32 64.88 133.4 64.89 133.23 64.68 128.97 63.25 128.9 63.04 133.32"/><polygon class="cls-10" points="32.81 126.94 33 122.88 31.15 122.89 30.96 126.85 32.81 126.94"/><polygon class="cls-10" points="35.29 127.06 35.49 122.87 33.64 122.88 33.45 126.97 35.29 127.06"/><polygon class="cls-10" points="37.78 127.17 37.98 122.86 36.13 122.87 35.94 127.09 37.78 127.17"/><polygon class="cls-10" points="40.26 127.29 40.47 122.87 40.07 122.86 38.63 122.86 38.42 127.21 40.26 127.29"/><rect class="cls-10" x="39.72" y="124.24" width="4.42" height="1.84" transform="translate(-85.07 161.13) rotate(-87.29)"/><rect class="cls-10" x="42.2" y="124.35" width="4.42" height="1.84" transform="translate(-82.82 163.72) rotate(-87.29)"/><rect class="cls-10" x="44.69" y="124.47" width="4.42" height="1.84" transform="translate(-80.57 166.3) rotate(-87.28)"/><rect class="cls-10" x="47.17" y="124.59" width="4.42" height="1.84" transform="translate(-78.32 168.9) rotate(-87.29)"/><rect class="cls-10" x="49.66" y="124.71" width="4.42" height="1.84" transform="translate(-76.07 171.51) rotate(-87.29)"/><rect class="cls-10" x="52.15" y="124.82" width="4.42" height="1.84" transform="translate(-73.82 174.09) rotate(-87.29)"/><rect class="cls-10" x="54.63" y="124.94" width="4.42" height="1.84" transform="translate(-71.57 176.69) rotate(-87.29)"/><polygon class="cls-10" points="58.3 128.15 60.14 128.23 60.3 124.95 58.95 123.75 58.51 123.73 58.3 128.15"/><polygon class="cls-10" points="62.63 128.35 62.69 127.08 60.92 125.5 60.79 128.26 62.63 128.35"/><polygon class="cls-10" points="50.44 122.82 50.18 122.82 50.44 122.83 50.44 122.82"/><path class="cls-11" d="M35.12,270.28h14s.07-5.39-1.82-5.78S40,268.47,35.12,270.28Z"/><path class="cls-11" d="M104.29,270.28H90.58s-1.75-5.28,0-5.66S98.94,268.5,104.29,270.28Z"/><path class="cls-12" d="M53.4,168.31c-6,23.44-9.42,84.09-6.52,91.58H44.7s-12.92-19.23-19.2-29.62,3-67.76,3-67.76Z"/><path class="cls-13" d="M55.22,168.05l-9.29-1.87-2.55,31.35.24,45.91-3.86,3.74s-10.76-19-11.6-22.47S27.55,214,27.55,214l4.71-3.63,6.41-46.15-10-2s-9.9,58.23-3.62,68.62,19.81,28.76,19.81,28.76H47C44.1,252,49.18,191.48,55.22,168.05Z"/><path class="cls-12" d="M37.34,164.18c-.9,16-1.82,32.88-1.82,32.88l14,3.87s21.51,40.35,39.15,59h1.45s-4.35-49.78-13-76.36c-2.83-8.64-12.57-24.16-12.57-24.16Z"/><path class="cls-13" d="M47.19,178.19,65,212.81l19.48,3c-2-11.51-4.4-23.21-7.35-32.24-2.83-8.64-12.57-24.16-12.57-24.16l-36,3.14a98.19,98.19,0,0,0,1.64,15.09Z"/><path class="cls-13" d="M85.79,250.68c-13.23-11.23-33.71-52.91-33.71-52.91L35.26,196.4l.26.66,14,3.87s21.51,40.35,39.15,59h1.45S89.76,255.66,89,249Z"/><polygon class="cls-3" points="24.61 164.9 35.4 170.71 47.12 169.28 64.74 207.57 87.24 207.23 71.46 159.55 68.56 156.65 25.96 159.48 25.25 162.27 24.61 164.9"/><polygon class="cls-8" points="25.96 159.48 26.7 153.81 69.35 156.11 69.89 157.98 25.96 159.48"/><path class="cls-9" d="M59.09,156.57c0-.39-.5-.76-1.37-1.09l-20-1.07c-4,.44-6.7,1.24-6.7,2.16,0,1.12,4,2.07,9.61,2.41L54,158.52C57.11,158.06,59.09,157.35,59.09,156.57Z"/><polygon class="cls-3" points="24.61 164.9 16.37 213.46 29.48 209.39 37.94 163.09 24.61 164.9"/><polygon class="cls-10" points="18.64 208.46 21.39 207.94 22.32 201.62 19.57 202.13 18.64 208.46"/><polygon class="cls-10" points="22.35 207.76 25.1 207.24 26.03 200.92 23.28 201.44 22.35 207.76"/><polygon class="cls-10" points="27 200.74 26.06 207.06 28.66 206.57 29.49 201.97 29.75 200.22 27 200.74"/><polygon class="cls-10" points="20.62 195.07 19.68 201.4 22.43 200.88 23.37 194.56 20.62 195.07"/><polygon class="cls-10" points="23.39 200.7 26.14 200.18 27.08 193.86 24.33 194.38 23.39 200.7"/><polygon class="cls-10" points="27.11 200 29.86 199.48 30.79 193.16 28.04 193.68 27.11 200"/><polygon class="cls-10" points="24.41 187.5 21.67 188.01 20.73 194.34 23.48 193.82 24.41 187.5"/><polygon class="cls-10" points="25.38 187.32 24.44 193.64 27.19 193.12 28.13 186.8 25.38 187.32"/><polygon class="cls-10" points="28.15 192.94 30.9 192.42 31.84 186.1 29.09 186.62 28.15 192.94"/><polygon class="cls-10" points="25.46 180.44 22.71 180.96 21.77 187.28 24.52 186.76 25.46 180.44"/><polygon class="cls-10" points="29.17 179.74 26.42 180.26 25.49 186.58 28.24 186.06 29.17 179.74"/><polygon class="cls-10" points="29.2 185.88 31.95 185.36 32.89 179.04 30.14 179.56 29.2 185.88"/><polygon class="cls-10" points="25.57 179.7 26.51 173.38 23.95 173.86 23.2 177.68 22.82 180.22 25.57 179.7"/><polygon class="cls-10" points="30.22 172.68 27.47 173.2 26.53 179.52 29.28 179 30.22 172.68"/><polygon class="cls-10" points="30.25 178.82 32.99 178.31 33.93 171.98 31.18 172.5 30.25 178.82"/><polygon class="cls-10" points="27.55 166.32 25.37 166.73 25.32 166.91 24.1 173.12 26.62 172.64 27.55 166.32"/><polygon class="cls-10" points="31.27 165.62 28.52 166.14 27.58 172.46 30.33 171.94 31.27 165.62"/><polygon class="cls-10" points="31.29 171.76 34.04 171.25 34.98 164.92 32.23 165.44 31.29 171.76"/><polygon class="cls-10" points="28.19 162.02 26.66 162.08 25.96 164.57 25.58 165.98 27.66 165.58 28.19 162.02"/><polygon class="cls-10" points="31.38 164.88 31.82 161.88 29.13 161.98 28.63 165.4 31.38 164.88"/><polygon class="cls-10" points="35.09 164.19 35.45 161.73 32.76 161.84 32.34 164.7 35.09 164.19"/><rect class="cls-14" x="31.41" y="93.89" width="32.86" height="2.54"/><path class="cls-3" d="M48.08,96.91,44.5,123s-14.32-2.38-19.18-5.84L30.2,95.34Z"/><path class="cls-15" d="M46.27,96.73l-3.58,26.1S28.37,120.45,23.51,117l4.88-21.84Z"/><path class="cls-3" d="M43.74,99.12l-2.66,19.3S30.5,116.66,26.9,114.1L30.51,98Z"/><polygon class="cls-15" points="41.27 97.31 40.36 97.25 36.98 118.33 37.88 118.39 41.27 97.31"/><polygon class="cls-15" points="37.46 96.52 36.55 96.46 33.17 117.55 34.08 117.61 37.46 96.52"/><polygon class="cls-15" points="33.77 96.28 32.87 96.22 29.49 117.3 30.39 117.36 33.77 96.28"/><path class="cls-7" d="M3.81,81.42C2.89,80.21,2,72.62,7.92,69.94,10.58,68.73,19,76.67,18,79a97,97,0,0,0-3.63,11.41l-9.21-3C6.11,85.86,5.75,84,3.81,81.42Z"/><rect class="cls-8" x="7.08" y="72" width="2.89" height="39.87" transform="translate(15.05 -0.16) rotate(9.35)"/><path class="cls-11" d="M30.39,4.75,27.62,0C19,23.79,15.36,43.19,10.33,72.69l2.86.36A493.85,493.85,0,0,1,30.39,4.75Z"/><path class="cls-16" d="M16,58.58c2.66-12.69,6.12-26.64,10.06-40l-2.34-6.93A340.41,340.41,0,0,0,13.9,52.45Z"/><polygon class="cls-17" points="43.2 99.75 44.82 99.75 60.78 97.19 68.92 92.77 65.84 92.77 56.15 95.49 44.55 93.4 42.93 93.4 43.2 99.75"/><polygon class="cls-18" points="44.82 99.75 69.11 99.2 68.92 92.77 59.23 95.49 44.55 93.4 44.82 99.75"/><g class="cls-19"><path class="cls-20" d="M70.07,155.5l-1.42-29.1-2.08-1.71-19.33,1.63.37,1.24-7.26-.45.19,1.1c-4.07-.57-8.79-1.62-12.26-3.5-.41,4.33-1,10.43-1.54,15.87,4.92,3.53,7.83,5.51,13.78,6.37l1,7.69L56,155.3l.86,1.42,13,1.26-.57-1.91Z"/><path class="cls-20" d="M28.39,123.75l0,0v.07Z"/></g><path class="cls-6" d="M48.57,121.55s-17-.24-23.32-6l-7,6.75c5.92,12.68,21.75,17.88,33.83,16.79Z"/><path class="cls-7" d="M48.57,121.55a75.29,75.29,0,0,1-10.22-1c.53,5.8-.83,13.66-5.84,11.6-3.84-1.57-6.43-8.38-4.39-14.69a13,13,0,0,1-2.87-2l-7,8.22C24.16,136.41,41,141.13,53,140Z"/><polygon class="cls-9" points="39.99 119.74 44.7 147.89 58.72 146.08 49.65 120.34 39.99 119.74"/><path class="cls-8" d="M48.11,133.48c.21,5.75-.56,10.91-1.92,14.22l12.53-1.62-9.07-25.74-4.2-.26A36.82,36.82,0,0,1,48.11,133.48Z"/><polygon class="cls-3" points="46.88 118.95 56.66 151.4 81.08 147.39 73.01 122.89 66.21 117.33 46.88 118.95"/><path class="cls-3" d="M19.63,130.37l8.4-14-13-15.49S9.71,104.49,8.7,107C10.66,115.06,14.06,121.55,19.63,130.37Z"/><path class="cls-21" d="M48.2,66.23l-5.67-7.74S22.11,91.35,54.85,91.35l.6-1.21C43.25,90.14,35.52,76.78,48.2,66.23Z"/><path class="cls-21" d="M60.36,66.23l4.55-7.74C70.1,62.32,79.44,91.35,55,91.35l-.49-1.21C65.48,90.14,71.55,76.91,60.36,66.23Z"/><path class="cls-6" d="M40.59,255.3l4.11,10.27s3,.12,3.07-.38S46.39,250,46.39,250Z"/><polygon class="cls-6" points="83.15 253.97 89.58 265.87 92.67 264.6 89.73 249.86 83.15 253.97"/><polygon class="cls-10" points="63.24 199.8 65.3 204.92 68.31 204.92 66.26 199.8 63.24 199.8"/><polygon class="cls-10" points="67.32 199.8 69.37 204.92 72.39 204.92 70.34 199.8 67.32 199.8"/><polygon class="cls-10" points="71.4 199.8 73.45 204.92 76.47 204.92 74.42 199.8 71.4 199.8"/><polygon class="cls-10" points="75.48 199.8 77.53 204.92 80.55 204.92 78.5 199.8 75.48 199.8"/><polygon class="cls-10" points="79.55 199.8 81.61 204.92 84.63 204.92 82.57 199.8 79.55 199.8"/><polygon class="cls-10" points="83.79 200.19 83.65 199.8 83.63 199.8 83.79 200.19"/><polygon class="cls-10" points="63.97 194.08 60.95 194.08 63.01 199.2 66.03 199.2 63.97 194.08"/><polygon class="cls-10" points="70.1 199.2 68.05 194.08 65.03 194.08 67.08 199.2 70.1 199.2"/><polygon class="cls-10" points="74.18 199.2 72.13 194.08 69.11 194.08 71.16 199.2 74.18 199.2"/><polygon class="cls-10" points="78.26 199.2 76.21 194.08 73.19 194.08 75.24 199.2 78.26 199.2"/><polygon class="cls-10" points="79.31 199.2 82.33 199.2 80.28 194.08 77.26 194.08 79.31 199.2"/><polygon class="cls-10" points="83.39 199.2 83.44 199.2 81.66 194.08 81.34 194.08 83.39 199.2"/><polygon class="cls-10" points="61.68 188.36 58.66 188.36 60.71 193.48 63.73 193.48 61.68 188.36"/><polygon class="cls-10" points="67.81 193.48 65.76 188.36 62.74 188.36 64.79 193.48 67.81 193.48"/><polygon class="cls-10" points="71.89 193.48 69.84 188.36 66.82 188.36 68.87 193.48 71.89 193.48"/><polygon class="cls-10" points="75.97 193.48 73.92 188.36 70.9 188.36 72.95 193.48 75.97 193.48"/><polygon class="cls-10" points="77.03 193.48 80.05 193.48 77.99 188.36 74.97 188.36 77.03 193.48"/><polygon class="cls-10" points="81.1 193.48 81.46 193.48 79.67 188.36 79.05 188.36 81.1 193.48"/><polygon class="cls-10" points="59.39 182.64 56.37 182.64 58.42 187.76 61.44 187.76 59.39 182.64"/><polygon class="cls-10" points="65.52 187.76 63.47 182.64 60.45 182.64 62.5 187.76 65.52 187.76"/><polygon class="cls-10" points="69.6 187.76 67.55 182.64 64.53 182.64 66.58 187.76 69.6 187.76"/><polygon class="cls-10" points="68.61 182.64 70.66 187.76 73.68 187.76 71.63 182.64 68.61 182.64"/><polygon class="cls-10" points="74.73 187.76 77.75 187.76 75.7 182.64 72.68 182.64 74.73 187.76"/><polygon class="cls-10" points="78.81 187.76 79.47 187.76 77.69 182.64 76.76 182.64 78.81 187.76"/><polygon class="cls-10" points="57.1 176.92 54.08 176.92 56.13 182.04 59.15 182.04 57.1 176.92"/><polygon class="cls-10" points="63.23 182.04 61.18 176.92 58.16 176.92 60.21 182.04 63.23 182.04"/><polygon class="cls-10" points="67.31 182.04 65.26 176.92 62.24 176.92 64.29 182.04 67.31 182.04"/><polygon class="cls-10" points="66.31 176.92 68.37 182.04 71.39 182.04 69.34 176.92 66.31 176.92"/><polygon class="cls-10" points="72.44 182.04 75.46 182.04 73.41 176.92 70.39 176.92 72.44 182.04"/><polygon class="cls-10" points="76.52 182.04 77.48 182.04 75.7 176.92 74.47 176.92 76.52 182.04"/><polygon class="cls-10" points="54.81 171.2 51.79 171.2 53.84 176.32 56.86 176.32 54.81 171.2"/><polygon class="cls-10" points="57.92 176.32 60.94 176.32 58.89 171.2 55.87 171.2 57.92 176.32"/><polygon class="cls-10" points="59.95 171.2 62 176.32 65.02 176.32 62.97 171.2 59.95 171.2"/><polygon class="cls-10" points="64.03 171.2 66.08 176.32 69.1 176.32 67.05 171.2 64.03 171.2"/><polygon class="cls-10" points="70.15 176.32 73.17 176.32 71.12 171.2 68.1 171.2 70.15 176.32"/><polygon class="cls-10" points="74.23 176.32 75.49 176.32 73.71 171.2 72.18 171.2 74.23 176.32"/><polygon class="cls-10" points="52.52 165.47 49.5 165.47 51.55 170.6 54.57 170.6 52.52 165.47"/><polygon class="cls-10" points="58.65 170.6 56.6 165.47 53.58 165.47 55.63 170.6 58.65 170.6"/><polygon class="cls-10" points="57.66 165.47 59.71 170.6 62.73 170.6 60.68 165.47 57.66 165.47"/><polygon class="cls-10" points="61.73 165.47 63.78 170.6 66.81 170.6 64.75 165.47 61.73 165.47"/><polygon class="cls-10" points="67.86 170.6 70.88 170.6 68.83 165.47 65.81 165.47 67.86 170.6"/><polygon class="cls-10" points="71.94 170.6 73.5 170.6 71.72 165.47 69.89 165.47 71.94 170.6"/><polygon class="cls-10" points="52.28 164.88 50.3 159.93 47.36 160.12 49.26 164.88 52.28 164.88"/><polygon class="cls-10" points="56.36 164.88 54.31 159.75 53.05 159.75 51.33 159.86 53.34 164.88 56.36 164.88"/><polygon class="cls-10" points="60.44 164.88 58.39 159.75 55.37 159.75 57.42 164.88 60.44 164.88"/><polygon class="cls-10" points="64.52 164.88 62.47 159.75 59.44 159.75 61.49 164.88 64.52 164.88"/><polygon class="cls-10" points="68.59 164.88 66.54 159.75 63.52 159.75 65.57 164.88 68.59 164.88"/><polygon class="cls-10" points="69.65 164.88 71.51 164.88 70.38 161.62 68.43 159.75 67.6 159.75 69.65 164.88"/><polygon class="cls-10" points="56.61 142.34 58.44 148.67 61.11 148.23 59.29 141.91 56.61 142.34"/><polygon class="cls-10" points="60.22 141.75 62.05 148.07 64.72 147.64 62.9 141.31 60.22 141.75"/><polygon class="cls-10" points="63.83 141.16 65.66 147.48 68.33 147.04 66.51 140.72 63.83 141.16"/><polygon class="cls-10" points="67.44 140.56 69.27 146.89 71.94 146.45 70.12 140.12 67.44 140.56"/><polygon class="cls-10" points="71.05 139.97 72.88 146.29 75.55 145.85 73.73 139.53 71.05 139.97"/><polygon class="cls-10" points="76.49 145.7 78.71 145.34 76.64 139.05 74.66 139.38 76.49 145.7"/><polygon class="cls-10" points="57.25 134.84 54.58 135.28 56.4 141.61 59.08 141.17 57.25 134.84"/><polygon class="cls-10" points="62.69 140.57 60.86 134.25 58.19 134.69 60.01 141.01 62.69 140.57"/><polygon class="cls-10" points="66.3 139.98 64.47 133.66 61.8 134.09 63.62 140.42 66.3 139.98"/><polygon class="cls-10" points="69.91 139.39 68.08 133.06 65.41 133.5 67.23 139.83 69.91 139.39"/><polygon class="cls-10" points="70.84 139.23 73.52 138.79 71.69 132.47 69.02 132.91 70.84 139.23"/><polygon class="cls-10" points="74.45 138.64 76.4 138.32 74.33 132.03 72.63 132.31 74.45 138.64"/><polygon class="cls-10" points="55.21 127.78 52.54 128.22 54.36 134.54 57.04 134.1 55.21 127.78"/><polygon class="cls-10" points="56.15 127.63 57.97 133.95 60.65 133.51 58.82 127.19 56.15 127.63"/><polygon class="cls-10" points="61.58 133.36 64.26 132.92 62.43 126.59 59.76 127.03 61.58 133.36"/><polygon class="cls-10" points="67.87 132.32 66.04 126 63.37 126.44 65.19 132.76 67.87 132.32"/><polygon class="cls-10" points="71.48 131.73 69.65 125.41 66.98 125.85 68.8 132.17 71.48 131.73"/><polygon class="cls-10" points="72.41 131.58 74.09 131.3 72.02 125.02 70.59 125.25 72.41 131.58"/><polygon class="cls-10" points="53.17 120.72 50.5 121.16 52.33 127.48 55 127.04 53.17 120.72"/><polygon class="cls-10" points="58.61 126.45 56.78 120.12 54.11 120.56 55.94 126.89 58.61 126.45"/><polygon class="cls-10" points="62.22 125.86 60.4 119.53 57.72 119.97 59.55 126.3 62.22 125.86"/><polygon class="cls-10" points="65.83 125.26 64.08 119.2 61.35 119.43 63.16 125.7 65.83 125.26"/><polygon class="cls-10" points="69.44 124.67 68.55 121.58 65.5 119.08 65.04 119.12 66.77 125.11 69.44 124.67"/><polygon class="cls-10" points="71.78 124.28 71.75 124.19 69.83 122.63 70.38 124.51 71.78 124.28"/><polygon class="cls-10" points="51 120.3 50.27 120.36 50.29 120.42 51 120.3"/><polygon class="cls-22" points="63.24 199.8 65.3 204.92 68.31 204.92 66.26 199.8 63.24 199.8"/><polygon class="cls-22" points="67.32 199.8 69.37 204.92 69.92 204.92 70.53 200.25 70.34 199.8 67.32 199.8"/><polygon class="cls-22" points="63.97 194.08 60.95 194.08 63.01 199.2 66.03 199.2 63.97 194.08"/><polygon class="cls-22" points="67.08 199.2 70.1 199.2 68.05 194.08 65.03 194.08 67.08 199.2"/><polygon class="cls-22" points="70.78 198.26 71.33 194.08 69.11 194.08 70.78 198.26"/><polygon class="cls-22" points="61.68 188.36 58.66 188.36 60.71 193.48 63.73 193.48 61.68 188.36"/><polygon class="cls-22" points="62.74 188.36 64.79 193.48 67.81 193.48 65.76 188.36 62.74 188.36"/><polygon class="cls-22" points="66.82 188.36 68.87 193.48 71.41 193.48 71.53 192.57 69.84 188.36 66.82 188.36"/><polygon class="cls-22" points="71.79 190.58 72.08 188.36 70.9 188.36 71.79 190.58"/><polygon class="cls-22" points="59.39 182.64 56.37 182.64 58.42 187.76 61.44 187.76 59.39 182.64"/><polygon class="cls-22" points="62.5 187.76 65.52 187.76 63.47 182.64 60.45 182.64 62.5 187.76"/><polygon class="cls-22" points="64.53 182.64 66.58 187.76 69.6 187.76 67.55 182.64 64.53 182.64"/><polygon class="cls-22" points="68.61 182.64 70.66 187.76 72.16 187.76 72.53 184.89 71.63 182.64 68.61 182.64"/><polygon class="cls-22" points="72.79 182.9 72.82 182.64 72.68 182.64 72.79 182.9"/><polygon class="cls-22" points="57.1 176.92 56.94 176.92 56.27 182.04 59.15 182.04 57.1 176.92"/><polygon class="cls-22" points="63.23 182.04 61.18 176.92 58.16 176.92 60.21 182.04 63.23 182.04"/><polygon class="cls-22" points="64.29 182.04 67.31 182.04 65.26 176.92 62.24 176.92 64.29 182.04"/><polygon class="cls-22" points="66.31 176.92 68.37 182.04 71.39 182.04 69.34 176.92 66.31 176.92"/><polygon class="cls-22" points="70.39 176.92 72.44 182.04 72.9 182.04 73.53 177.21 73.41 176.92 70.39 176.92"/><polygon class="cls-22" points="60.94 176.32 58.89 171.2 57.69 171.2 57.24 174.62 57.92 176.32 60.94 176.32"/><polygon class="cls-22" points="65.02 176.32 62.97 171.2 59.95 171.2 62 176.32 65.02 176.32"/><polygon class="cls-22" points="66.08 176.32 69.1 176.32 67.05 171.2 64.03 171.2 66.08 176.32"/><polygon class="cls-22" points="68.1 171.2 70.15 176.32 73.17 176.32 71.12 171.2 68.1 171.2"/><polygon class="cls-22" points="72.18 171.2 73.79 175.22 74.15 172.47 73.71 171.2 72.18 171.2"/><polygon class="cls-22" points="57.98 168.93 57.76 170.6 58.65 170.6 57.98 168.93"/><polygon class="cls-22" points="62.73 170.6 60.68 165.47 58.43 165.47 58.24 166.94 59.71 170.6 62.73 170.6"/><polygon class="cls-22" points="66.81 170.6 64.75 165.47 61.73 165.47 63.78 170.6 66.81 170.6"/><polygon class="cls-22" points="68.83 165.47 65.81 165.47 67.86 170.6 70.88 170.6 68.83 165.47"/><polygon class="cls-22" points="71.94 170.6 73.5 170.6 71.72 165.47 69.89 165.47 71.94 170.6"/><polygon class="cls-22" points="58.98 161.25 58.51 164.88 60.44 164.88 58.98 161.25"/><polygon class="cls-22" points="62.47 159.75 59.44 159.75 61.49 164.88 64.52 164.88 62.47 159.75"/><polygon class="cls-22" points="68.59 164.88 66.54 159.75 63.52 159.75 65.57 164.88 68.59 164.88"/><polygon class="cls-22" points="71.51 164.88 70.38 161.62 68.43 159.75 67.6 159.75 69.65 164.88 71.51 164.88"/><polygon class="cls-22" points="20.62 195.07 19.68 201.4 19.88 201.36 23.04 196.79 23.37 194.56 20.62 195.07"/><polygon class="cls-22" points="24.23 195.07 24.77 194.29 24.33 194.38 24.23 195.07"/><polygon class="cls-22" points="24.41 187.5 21.67 188.01 20.73 194.34 23.48 193.82 24.41 187.5"/><polygon class="cls-22" points="25.38 187.32 24.44 193.64 25.34 193.47 27.63 190.15 28.13 186.8 25.38 187.32"/><polygon class="cls-22" points="28.82 188.43 30.22 186.41 29.09 186.62 28.82 188.43"/><polygon class="cls-22" points="25.46 180.44 22.71 180.96 21.77 187.28 24.52 186.76 25.46 180.44"/><polygon class="cls-22" points="25.49 186.58 28.24 186.06 29.17 179.74 26.42 180.26 25.49 186.58"/><polygon class="cls-22" points="30.14 179.56 29.2 185.88 30.79 185.58 32.23 183.5 32.89 179.04 30.14 179.56"/><polygon class="cls-22" points="26.51 173.38 23.95 173.86 23.2 177.68 22.82 180.22 25.57 179.7 26.51 173.38"/><polygon class="cls-22" points="30.22 172.68 27.47 173.2 26.53 179.52 29.28 179 30.22 172.68"/><polygon class="cls-22" points="30.25 178.82 32.99 178.31 33.93 171.98 31.18 172.5 30.25 178.82"/><polygon class="cls-22" points="26.62 172.64 27.37 167.57 24.32 171.97 24.1 173.12 26.62 172.64"/><polygon class="cls-22" points="31.27 165.62 28.52 166.14 27.58 172.46 30.33 171.94 31.27 165.62"/><polygon class="cls-22" points="34.98 164.92 32.23 165.44 31.29 171.76 34.04 171.25 34.98 164.92"/><polygon class="cls-22" points="31.82 161.88 31.29 161.9 28.9 165.35 31.38 164.88 31.82 161.88"/><polygon class="cls-22" points="35.45 161.73 32.76 161.84 32.34 164.7 35.09 164.19 35.45 161.73"/><path class="cls-9" d="M42.82,158.37l-1.71.25c-3.72,14.55,2,24.62-3.23,35.94l4.58,1.87C48,182.28,38.58,176.78,42.82,158.37Z"/><path class="cls-9" d="M44.51,156.23l1.89.37c4.07,13.26-1,19.74,3.57,27.1l-3.68.4C41.06,175.15,49.32,172.43,44.51,156.23Z"/><path class="cls-6" d="M59,90.9c0-.87-1.41-1.57-3.16-1.57s-3.16.7-3.16,1.57,1.42,1.58,3.16,1.58S59,91.77,59,90.9Z"/><polygon class="cls-22" points="56.61 142.34 58.44 148.67 61.11 148.23 59.29 141.91 56.61 142.34"/><polygon class="cls-22" points="60.22 141.75 62.05 148.07 64.72 147.64 62.9 141.31 60.22 141.75"/><polygon class="cls-22" points="63.83 141.16 65.66 147.48 67.43 147.19 67.9 145.55 66.51 140.72 63.83 141.16"/><polygon class="cls-22" points="68.39 143.85 69.43 140.24 67.44 140.56 68.39 143.85"/><polygon class="cls-22" points="59.08 141.17 57.26 134.89 55.87 139.76 56.4 141.61 59.08 141.17"/><polygon class="cls-22" points="62.69 140.57 60.86 134.25 58.19 134.69 60.01 141.01 62.69 140.57"/><polygon class="cls-22" points="61.8 134.09 63.62 140.42 66.3 139.98 64.47 133.66 61.8 134.09"/><polygon class="cls-22" points="65.41 133.5 67.23 139.83 69.66 139.43 69.79 138.98 68.08 133.06 65.41 133.5"/><polygon class="cls-22" points="70.28 137.28 71.66 132.47 69.02 132.91 70.28 137.28"/><polygon class="cls-22" points="60.65 133.51 59.15 128.32 57.75 133.19 57.97 133.95 60.65 133.51"/><polygon class="cls-22" points="64.26 132.92 62.43 126.59 59.76 127.03 61.58 133.36 64.26 132.92"/><polygon class="cls-22" points="67.87 132.32 66.04 126 63.37 126.44 65.19 132.76 67.87 132.32"/><polygon class="cls-22" points="68.8 132.17 71.48 131.73 69.65 125.41 66.98 125.85 68.8 132.17"/><polygon class="cls-22" points="70.59 125.25 72.16 130.71 72.97 127.91 72.02 125.02 70.59 125.25"/><polygon class="cls-22" points="61.04 121.75 59.74 126.26 62.22 125.86 61.04 121.75"/><polygon class="cls-22" points="65.83 125.26 64.08 119.2 61.71 119.4 61.52 120.05 63.16 125.7 65.83 125.26"/><polygon class="cls-22" points="69.44 124.67 68.55 121.58 65.5 119.08 65.04 119.12 66.77 125.11 69.44 124.67"/><polygon class="cls-22" points="71.78 124.28 71.75 124.19 69.83 122.63 70.38 124.51 71.78 124.28"/><path class="cls-4" d="M16.7,114.53A32.55,32.55,0,0,1,12,103.23,12.18,12.18,0,0,0,8.7,107c2,8.1,5.36,14.59,10.93,23.41L24,123.11A34.76,34.76,0,0,1,16.7,114.53Z"/><path class="cls-7" d="M14,92c-1.6-1.38-1.21-1.43-6.73-2.88S2.51,99.45,3.78,101.54,7,103,8.7,107L16,102C14.87,100.68,15.56,93.38,14,92Z"/><rect class="cls-3" x="9.49" y="68.73" width="4.35" height="9.51" transform="translate(11.62 -0.92) rotate(8.99)"/><path class="cls-3" d="M51.3,105.54c-2.36,1.74-3.37-2.65-1.08-2.89s5.94,1,5.94,1A19.1,19.1,0,0,0,51.3,105.54Z"/><path class="cls-3" d="M60.83,105.22c1.69,1.55,2.42-2.36.77-2.57a10.74,10.74,0,0,0-4.27.93A12.24,12.24,0,0,1,60.83,105.22Z"/><path class="cls-3" d="M53.56,113.26c-2.54-1.29.75-4.82,3.8-4.82,3.6,0,4.46,3.7,3,4.31s-1.06-1.87-3.18-1.87C55.57,110.88,55.33,114.16,53.56,113.26Z"/><path class="cls-5" d="M58.42,112.16c0-.14-.39-.25-.88-.25s-.89.11-.89.25.4.25.89.25S58.42,112.3,58.42,112.16Z"/><path class="cls-5" d="M59.24,106.45c0-.66-.83-2.06-1.63-2.06s-1.27,1.4-1.27,2.06a1.48,1.48,0,0,0,2.9,0Z"/><path class="cls-6" d="M58.74,106.36c0-.66-.83-2.06-1.63-2.06s-1.27,1.4-1.27,2.06a1.48,1.48,0,0,0,2.9,0Z"/><path class="cls-6" d="M14,92c-1.6-1.38-1.21-1.43-6.73-2.88a3,3,0,0,0-1.51,0,12.17,12.17,0,0,0-1,5c0,4.9,2.66,8.88,5.93,8.88,1.94,0,3.65-1.4,4.74-3.54C15.08,96.76,15.07,93,14,92Z"/><path class="cls-6" d="M5.62,72.24c3.66,2.75,4.84,4.05,5.68,3.32S14,73.2,12.93,72.12,8,68.61,7,68.49,4.32,71.26,5.62,72.24Z"/><path class="cls-6" d="M3.75,76.77c3.66,2.75,4.83,4,5.68,3.32s2.66-2.35,1.63-3.44-4.95-3.51-6-3.63S2.45,75.79,3.75,76.77Z"/><path class="cls-6" d="M3.75,81.83C6.62,84,7.54,85,8.21,84.44s2.09-1.85,1.28-2.7S4.92,78.07,4.11,78,2.72,81.06,3.75,81.83Z"/><path class="cls-6" d="M12.67,74c-2.72,3.68-4,4.87-3.27,5.71s2.38,2.63,3.45,1.6,3.46-5,3.57-6S13.63,72.69,12.67,74Z"/><path class="cls-6" d="M17.77,76.71c-.64-1.77-3.7-3.57-4.23-2.18s.08,9.6.42,10.58C14.46,86.56,19.57,81.7,17.77,76.71Z"/><path class="cls-23" d="M87.86,257.57a36.44,36.44,0,0,1-1-5.89L83.15,254l6.43,11.9,1.24-.51A34.6,34.6,0,0,1,87.86,257.57Z"/><path class="cls-23" d="M44.1,256.12c0-1.43,0-2.81.12-4.15l-3.63,3.33,4.11,10.27h0A65.65,65.65,0,0,1,44.1,256.12Z"/></g></g></g></svg>