<svg xmlns="http://www.w3.org/2000/svg" viewBox="0 0 183.25 176.64"><defs><style>.cls-1{isolation:isolate;}.cls-2{fill:#756c5d;}.cls-3{fill:#9b917c;}.cls-4{fill:#7c705c;}.cls-5{fill:#edc783;}.cls-6{fill:#d6ab67;}.cls-7{fill:#ffe6b3;}.cls-8{fill:#edca8c;}.cls-9{fill:#dd3e3e;}.cls-10{fill:#af2323;}.cls-11{fill:#563d3d;}.cls-12{fill:#3f2a2a;}.cls-13{fill:#ffb882;}.cls-14{fill:#4f241a;}.cls-15{opacity:0.6;mix-blend-mode:multiply;}.cls-16{fill:#843131;}.cls-17{fill:#93472a;}.cls-18{fill:#77321d;}.cls-19{fill:#ea7b59;}.cls-20{fill:#847863;}.cls-21{fill:#9eafac;}.cls-22{fill:#7b8e8a;}.cls-23{fill:#beccca;}.cls-24{fill:#7c382a;}.cls-25{fill:#682b21;}.cls-26,.cls-28{fill:#ce773c;}.cls-27{fill:#aec4c0;}.cls-28{mix-blend-mode:overlay;}.cls-29{fill:#fff0dc;}.cls-30{fill:#84736b;}.cls-31{fill:#c7ddd9;}.cls-32{fill:#ff9566;}.cls-33{fill:#bcddd8;}.cls-34{fill:#9bb2af;}</style></defs><g class="cls-1"><g id="Layer_2" data-name="Layer 2"><g id="_11" data-name="11"><path class="cls-2" d="M87.6,54.08c2.33-10.67,4.54-21.87,4-29.89L79.81,25.38l.33,23.87Z"/><path class="cls-3" d="M93.11,68.66c1.16,4.87,2.64,10.79,3.17,11.53s16.6,13.75,16.6,13.75l-3.7,4.12S89.3,88.86,88,86.75s-4.23-7.51-4.23-7.51Z"/><path class="cls-4" d="M92.12,85.48l5.11-4.41a10.28,10.28,0,0,1-1-.88c-.53-.74-2-6.66-3.17-11.53L83.8,79.24s3,5.39,4.23,7.51,21.15,11.31,21.15,11.31l1.5-1.67Z"/><path class="cls-4" d="M102.53,88.42a1.73,1.73,0,0,1-.44,2.15,1.22,1.22,0,0,1-1.62-.16.08.08,0,0,0,0,0,1.25,1.25,0,0,0,1.88.5,1.75,1.75,0,0,0,.43-2.19A1.91,1.91,0,0,0,102.53,88.42Z"/><path class="cls-4" d="M102.69,88.59s0,0,0,0a1.27,1.27,0,0,0,1.89.51,1.59,1.59,0,0,0,.6-1.12l-.29-.24a1.58,1.58,0,0,1-.6,1A1.2,1.2,0,0,1,102.69,88.59Z"/><path class="cls-4" d="M104.41,92.83a1.84,1.84,0,0,0-.27-.34,1.59,1.59,0,0,1-.49,2l.46.22A1.6,1.6,0,0,0,104.41,92.83Z"/><path class="cls-4" d="M106.54,90.93a.08.08,0,0,0,0,0h0s0,0,0,0a1.57,1.57,0,0,1-.51,2,1.33,1.33,0,0,1-1.68-.23l0,0a1.37,1.37,0,0,0,1.94.58,1.58,1.58,0,0,0,.51-2A2.62,2.62,0,0,1,106.54,90.93Z"/><path class="cls-4" d="M106.53,90.89h0a.08.08,0,0,1,0,0,2.62,2.62,0,0,0,.23.32,1.36,1.36,0,0,0,1.72.26,1.29,1.29,0,0,0,.43-.44l-.36-.29a1.3,1.3,0,0,1-.36.34A1.34,1.34,0,0,1,106.53,90.89Z"/><path class="cls-4" d="M95.86,82.64a1.36,1.36,0,0,0-.25-.36,1.73,1.73,0,0,1-.56,2.11,1.21,1.21,0,0,1-1.61-.24s0,0,0,0a1.26,1.26,0,0,0,1.85.61A1.74,1.74,0,0,0,95.86,82.64Z"/><path class="cls-4" d="M97.37,82.7a1.22,1.22,0,0,1-1.61-.25s0,0,0,0a1.26,1.26,0,0,0,1.85.61,1.57,1.57,0,0,0,.62-.87L97.93,82A1.51,1.51,0,0,1,97.37,82.7Z"/><path class="cls-4" d="M97,86.8a1.59,1.59,0,0,1-.51,2,1.35,1.35,0,0,1-1.68-.23l0,0a1.37,1.37,0,0,0,1.94.58,1.59,1.59,0,0,0,.49-2.09A1.33,1.33,0,0,0,97,86.8Z"/><path class="cls-4" d="M99.39,85.24s0,0,0,0h0s0,0,0,0a1.6,1.6,0,0,1-.52,2A1.34,1.34,0,0,1,97.14,87a.17.17,0,0,1,0,.05,1.38,1.38,0,0,0,2,.58,1.58,1.58,0,0,0,.51-2A1.44,1.44,0,0,1,99.39,85.24Z"/><path class="cls-4" d="M101.05,85.43a1.34,1.34,0,0,1-1.67-.23h0s0,0,0,0a1.44,1.44,0,0,0,.23.32,1.35,1.35,0,0,0,1.71.26,1.4,1.4,0,0,0,.5-.58l-.34-.28A1.41,1.41,0,0,1,101.05,85.43Z"/><path class="cls-4" d="M89,76.66a1.33,1.33,0,0,0-.26-.35,1.76,1.76,0,0,1-.44,2.15,1.23,1.23,0,0,1-1.63-.16l0,0a1.27,1.27,0,0,0,1.89.5A1.73,1.73,0,0,0,89,76.66Z"/><path class="cls-4" d="M90.78,77a1.71,1.71,0,0,0,.44-2.12,2.62,2.62,0,0,1-.23-.32.08.08,0,0,0,0,0h0l0-.06a1.76,1.76,0,0,1-.44,2.15,1.22,1.22,0,0,1-1.63-.16l0,0A1.26,1.26,0,0,0,90.78,77Z"/><path class="cls-4" d="M91,74.58a2.62,2.62,0,0,0,.23.32,1.23,1.23,0,0,0,1.66.19,1.75,1.75,0,0,0,.42-2.2,1.46,1.46,0,0,0-.26-.34,1.75,1.75,0,0,1-.44,2.14A1.22,1.22,0,0,1,91,74.54h0A.08.08,0,0,1,91,74.58Z"/><path class="cls-4" d="M90.33,80.38a1.58,1.58,0,0,1-.52,2,1.31,1.31,0,0,1-1.67-.23s0,0,0,0a1.37,1.37,0,0,0,1.94.58,1.6,1.6,0,0,0,.49-2.1A1.46,1.46,0,0,0,90.33,80.38Z"/><path class="cls-4" d="M92.73,78.82s0,0,0,0h0l0-.06a1.58,1.58,0,0,1-.51,2,1.34,1.34,0,0,1-1.68-.23l0,0a1.38,1.38,0,0,0,2,.57,1.58,1.58,0,0,0,.51-2A1.19,1.19,0,0,1,92.73,78.82Z"/><path class="cls-4" d="M92.73,78.82a1.19,1.19,0,0,0,.23.31,1.34,1.34,0,0,0,1.71.27,1.6,1.6,0,0,0,.49-2.1A1.46,1.46,0,0,0,94.9,77,1.58,1.58,0,0,1,94.39,79a1.34,1.34,0,0,1-1.67-.23h0S92.72,78.81,92.73,78.82Z"/><path class="cls-5" d="M87.3,51.24c4.78,4.28,9.25,25.86,9.25,25.86L83.13,86s-1.6-9.85-1.3-14.42S87.3,51.24,87.3,51.24Z"/><path class="cls-6" d="M88.54,82.38c-3-10.11-2.74-22.67-5-24.39C82.21,62.58,82,69.18,81.83,71.53,81.53,76.1,83.13,86,83.13,86Z"/><polygon class="cls-7" points="97.47 78.63 80.02 87.78 80.01 83.86 96.41 75.53 97.47 78.63"/><path class="cls-8" d="M88.13,79.73,80,83.85v3.93L89.12,83A14.66,14.66,0,0,1,88.13,79.73Z"/><path class="cls-9" d="M57,101s-3.58,32.62-4.77,40-10.35,29-10.35,31.23h1.2c3.38-9.75,25.06-28.24,27.64-34.61s4.38-33.41,4.38-33.41Z"/><path class="cls-10" d="M57,101s-3.58,32.62-4.77,40S42.1,169.4,41.87,172.06l14.6-27.73,9.4-.17c2.39-2.73,4.19-5,4.82-6.6,2.59-6.36,4.38-33.41,4.38-33.41Z"/><path class="cls-9" d="M73.48,111.11c17.3,15.91,22.32,21,27.25,27.64,6.06,8.21,13.52,33.42,13.52,33.42h1.2s-4.58-38-7.56-45.35S87,98,87,98Z"/><path class="cls-10" d="M104.06,134.23l4.73-4.47a23.88,23.88,0,0,0-.9-2.94C104.9,119.46,87,98,87,98L73.48,111.11c17.3,15.91,22.32,21,27.25,27.64,6.06,8.21,13.52,33.42,13.52,33.42h.58Z"/><path class="cls-3" d="M63.81,122.67c14.43.23,32-7.39,32-7.39L82.33,96.79,66.81,99.25Z"/><path class="cls-4" d="M79.88,107.84l7.37,10.59a86.1,86.1,0,0,0,8.6-3.15L82.33,96.79,66.81,99.25l-3,23.42c6,.1,12.84-1.29,18.47-2.81Z"/><path class="cls-5" d="M47.87,136.81c8.77,5.29,35.06,4.33,35.06,4.33s-.9-26.7-5.67-40c0,0,19.24,22.53,24.46,30.43l7.46-6.56-22.67-32-2.64-1.92-.5-3L53.54,90.87,54,94.6S50.37,115.93,47.87,136.81Z"/><path class="cls-6" d="M70.12,114.47c1.6,8,2.33,26.51,2.33,26.51l7.28-.15Z"/><path class="cls-6" d="M62.45,140.47c-3.84-30.23-1.27-45.36,13.06-47.13C78.89,92.93,88,95.87,95.67,106L86.51,93.05l-2.64-1.92-.5-3L53.54,90.87,54,94.6s-3.62,21.33-6.12,42.21C51.09,138.76,56.68,139.85,62.45,140.47Z"/><polygon class="cls-7" points="83.62 89.62 83.37 88.11 81.76 88.26 83.62 89.62"/><polygon class="cls-7" points="87.85 94.95 86.51 93.05 86.18 92.81 87.85 94.95"/><path class="cls-7" d="M109.18,125,107,122l-5.71,5.46c-5.23-7.9-26.81-31.76-26.81-31.76,4.77,13.28,6.56,42.69,6.56,42.69s-22.32.21-32.94-3.53l-.24,2C56.64,142.1,84,141.42,84,141.42s-1.93-27-6.7-40.26c0,0,19,23.32,24.18,31.23Z"/><polygon class="cls-11" points="83.62 86.15 83.87 91.14 53.49 93.7 52.59 89.43 83.62 86.15"/><path class="cls-12" d="M65.31,92.66c0-2.3,4.15-4.17,9.28-4.17,4,0,7.34,1.12,8.66,2.7l.62-.06-.25-5-31,3.28.9,4.27,11.83-1S65.31,92.68,65.31,92.66Z"/><path class="cls-5" d="M83.42,87.14c-4.67,0-25.6,1-29.08,2.61s-.1-4.66-.1-4.66S51.66,80.84,56,76.93c2.19-10.94-.21-29.07,8.84-32.25,5.15-1.81,12.81.21,18.67,3,8.07,3.86,2.78,11.54,1.22,19.85C82.91,77.11,84.06,87.14,83.42,87.14Z"/><path class="cls-6" d="M62.5,81.49c-1.65-3.63,12.43-27.28,1.45-35-9.05,3.18-7,19.23-9.22,30.17a8,8,0,0,0-2.09,9s-3.33,7.06.15,5.47S79,87.51,83.69,87.47c1.26,0,1.14-1.75,0-2.48C73.15,87.42,64.13,85.11,62.5,81.49Z"/><path class="cls-7" d="M80.66,46.43l-2.13.06c2.36,5.42-1.7,30.09-1.7,30.09l3.33.72S82.57,52.58,80.66,46.43Z"/><path class="cls-3" d="M51.72,58.11S41.08,70.47,40.18,72.48s-2.84,12.78-3.85,21.11l6.56,1.28s5.57-14.76,6.27-15.31,9.7-10,9.7-10Z"/><path class="cls-4" d="M51.72,58.11S41.08,70.47,40.18,72.48s-2.84,12.78-3.85,21.11l2.94.58,3.8-17.92,4.71,6.18a15.83,15.83,0,0,1,1.38-2.87c.7-.55,9.7-10,9.7-10Z"/><path class="cls-4" d="M40.24,88.25a1.43,1.43,0,0,0,.17-.38,1.63,1.63,0,0,1-2,.62,1.11,1.11,0,0,1-.42-.35c0,.19-.06.37-.08.55a1.16,1.16,0,0,0,.31.22A1.63,1.63,0,0,0,40.24,88.25Z"/><path class="cls-4" d="M42.92,88.61s0,0,0,0a1.2,1.2,0,0,0,.45,1.79,1.55,1.55,0,0,0,.47.12l.16-.43a1.24,1.24,0,0,1-.43-.11A1.14,1.14,0,0,1,42.92,88.61Z"/><path class="cls-4" d="M41.47,78.89a1.59,1.59,0,0,0,.17-.38,1.64,1.64,0,0,1-2,.62c-.06,0-.1-.07-.15-.1l-.09.48,0,0A1.63,1.63,0,0,0,41.47,78.89Z"/><path class="cls-4" d="M44,81.33a1.17,1.17,0,0,1-.63-1.42l0,0a1.2,1.2,0,0,0,.46,1.79,1.63,1.63,0,0,0,2-.65,1.24,1.24,0,0,0,.16-.38A1.61,1.61,0,0,1,44,81.33Z"/><path class="cls-4" d="M45.86,80.91l0,0a1.21,1.21,0,0,0,.46,1.8,1.25,1.25,0,0,0,.54.12c.06-.14.12-.28.17-.42a1.2,1.2,0,0,1-.52-.12A1.17,1.17,0,0,1,45.86,80.91Z"/><path class="cls-4" d="M39.1,83.17a1.42,1.42,0,0,0,.12-.4,1.48,1.48,0,0,1-.46.53l-.06.37A1.53,1.53,0,0,0,39.1,83.17Z"/><path class="cls-4" d="M40.92,84s0,0,0,0a1.31,1.31,0,0,0,.63,1.82,1.49,1.49,0,0,0,1.87-.77,1.46,1.46,0,0,0,.12-.39,1.48,1.48,0,0,1-1.85.72A1.27,1.27,0,0,1,40.92,84Z"/><path class="cls-4" d="M44.23,86.32a1.27,1.27,0,0,1-.75-1.42.08.08,0,0,0,0,0,1.3,1.3,0,0,0,.63,1.81,1.38,1.38,0,0,0,1.22-.09l.18-.45A1.4,1.4,0,0,1,44.23,86.32Z"/><path class="cls-4" d="M45,73.15a1.64,1.64,0,0,0,2-.65,2.05,2.05,0,0,0,.16-.38,1.64,1.64,0,0,1-2,.62,1.17,1.17,0,0,1-.62-1.42l0,0A1.2,1.2,0,0,0,45,73.15Z"/><path class="cls-4" d="M47.08,72.32l0,0a1.19,1.19,0,0,0,.46,1.79,1.62,1.62,0,0,0,2-.59,1.32,1.32,0,0,1,.15-.35l0,0h0l0-.06a1.63,1.63,0,0,1-2,.62A1.15,1.15,0,0,1,47.08,72.32Z"/><path class="cls-4" d="M49.61,73.21a1.32,1.32,0,0,0-.15.35A1.16,1.16,0,0,0,50.07,75a1.64,1.64,0,0,0,2-.66,1.8,1.8,0,0,0,.16-.38,1.62,1.62,0,0,1-2,.62,1.16,1.16,0,0,1-.62-1.41h0Z"/><path class="cls-4" d="M43.35,77.54a1.49,1.49,0,0,0,1.87-.77,1.46,1.46,0,0,0,.12-.39,1.47,1.47,0,0,1-1.85.72,1.28,1.28,0,0,1-.75-1.42s0,0,0,0A1.31,1.31,0,0,0,43.35,77.54Z"/><path class="cls-4" d="M47.88,77.34h0a.14.14,0,0,0,0-.07,1.48,1.48,0,0,1-1.85.73,1.28,1.28,0,0,1-.75-1.42.08.08,0,0,0,0,0,1.3,1.3,0,0,0,.63,1.81,1.47,1.47,0,0,0,1.83-.7,1.69,1.69,0,0,1,.12-.36A.05.05,0,0,1,47.88,77.34Z"/><path class="cls-4" d="M47.88,77.35h0a.05.05,0,0,0,0,0,1.69,1.69,0,0,0-.12.36,1.28,1.28,0,0,0,.75,1.45l.23.07.4-.4a1.71,1.71,0,0,1-.49-.1A1.29,1.29,0,0,1,47.88,77.35Z"/><path class="cls-5" d="M43.75,66.54l9.79,16s8.4-13.08,12.08-18.65,2.5-19.74-1.74-18.8C55.18,47,43.75,66.54,43.75,66.54Z"/><path class="cls-6" d="M53.65,75.52c-3.6-1.82-3.07-10.14,1.19-18.58,2.93-5.81,6.87-10.16,10.21-11.72a1.74,1.74,0,0,0-1.17-.15C55.18,47,43.1,66.26,43.1,66.26L53.54,82.52s2.26-3.53,5-7.69C56.67,75.89,55,76.19,53.65,75.52Z"/><path class="cls-13" d="M89.64,24.39c-.1,6.86.7,20.58,0,21.38s-12.43-.8-13-4.28-.3-14.91.7-16.31S89.64,24.39,89.64,24.39Z"/><path class="cls-14" d="M87.31,30.08c.09-1.09-.32-2-.91-2.07s-1.14.8-1.24,1.89.32,2,.91,2.07S87.21,31.17,87.31,30.08Z"/><g class="cls-15"><path class="cls-16" d="M89.67,54.7a11.83,11.83,0,0,0-2.37-3.46,7.25,7.25,0,0,0-3.8-3.54c-.91-.44-1.86-.85-2.83-1.24v0h-.07c-5.32-2.09-11.43-3.29-15.76-1.76a6.73,6.73,0,0,0-.91.39l-1.62.52C73.93,48.51,72.16,61.15,82,63.24,86.73,64.23,89.08,56.91,89.67,54.7Z"/></g><path class="cls-17" d="M90,38.63c.5,3.66-.57,12,1.78,16.06,0,0-16.51-2.23-17.29-12.43-.42-5.55.48-15.68.48-15.68l4-2.09s-1,7.25,2.19,10.94C84,38.79,90,38.63,90,38.63Z"/><path class="cls-18" d="M79.93,44.49c-1.54-4.08-1.35-11.27-.85-13.8a22.54,22.54,0,0,1-.18-6.2l-4,2.09s-1.14,11.1-.72,16.65C75,53.43,91.73,54.69,91.73,54.69l0-.08C87.9,53.54,82.52,51.37,79.93,44.49Z"/><path class="cls-19" d="M88.88,27.5c2.18,4.73,4,10.23,4,11s-4,.07-4,.07Z"/><path class="cls-13" d="M88.05,27c2.19,4.74,4,10.24,4,11s-4,.07-4,.07Z"/><path class="cls-17" d="M82.9,29.43l6.52.7.69-2.23S86,26.11,83.74,26.22,82.9,29.43,82.9,29.43Z"/><g class="cls-15"><path class="cls-16" d="M82,32.84l8.51-1.48c-.27-.67-.56-1.36-.85-2.06l.43-1.4-.46-.2c0-1.2,0-2.33,0-3.31,0,0-7.38-.39-10.75.19v0l-.16,0-.11.05a3.58,3.58,0,0,0-1.07.36l.29,22.22Z"/></g><path class="cls-3" d="M81.48,24.29S78.56,51,76.68,58.67c0,0-8.24-14.05-12.89-13.42-1.29.17-.7-1.57,1-1.57,0,0-.4-1.59.69-1.79s-.2-14.52-.2-14.52S75.62,22.9,81.48,24.29Z"/><path class="cls-20" d="M71.33,38.86c0-8.47,6.11-10.42,9.71-10.66.28-2.39.44-3.91.44-3.91-5.86-1.39-16.21,3.08-16.21,3.08s1.3,14.32.2,14.52-.69,1.79-.69,1.79c-1.69,0-2.28,1.74-1,1.57,4.65-.63,12.59,10.65,12.59,10.65S71.33,47,71.33,38.86Z"/><path class="cls-21" d="M92.62,24.69,65.18,29.06S61.3,16.83,73.73,8C73.73,8,88.05,7.18,92.62,24.69Z"/><path class="cls-22" d="M77.21,17.75A28.93,28.93,0,0,1,73.7,8c-12.4,8.85-8.52,21.06-8.52,21.06l18.93-3A28.39,28.39,0,0,1,77.21,17.75Z"/><path class="cls-23" d="M85.05,18.17h3.68C83.81,8.79,74.81,9.28,74.81,9.28l-.39.29c.24,0,.47,0,.7,0C79.52,9.53,83.3,13.07,85.05,18.17Z"/><path class="cls-21" d="M72.19,10.77C63.14,17.56,66,26.69,66,26.69l2.07-.33A17.49,17.49,0,0,1,72.19,10.77Z"/><path class="cls-24" d="M.66,116.24l2.77-11.91c-2.7-4.8.38-12.92,5.3-14.5L14,78.15l52.87,28.61-8,10.87c-5.34,1.48-9.9,7.53-8.54,13.86L45.12,143Z"/><polygon class="cls-25" points="58.91 117.63 8.91 90.38 10.73 85.28 59.39 117.06 58.91 117.63"/><path class="cls-25" d="M51.06,124.72a110.63,110.63,0,0,1-24.75-12.35,109.79,109.79,0,0,1-22-18.73c-2,3.21-2.61,7.62-.88,10.69L.66,116.24,45.12,143l5.25-11.46A11.18,11.18,0,0,1,51.06,124.72Z"/><path class="cls-26" d="M45.38,143.78,0,116.53l2.81-12.12a11,11,0,0,1-.05-9A10.29,10.29,0,0,1,8.3,89.36l5.44-12,54,29.23-8.49,11.57-.2,0c-4.89,1.36-9.42,7.1-8.12,13.18l0,.19ZM1.33,116l43.53,26.16,4.9-10.7c-1.31-6.65,3.42-12.69,8.8-14.29L66,107,14.28,79,9.16,90.3l-.25.08c-2.09.67-4,2.72-5.06,5.48A9.74,9.74,0,0,0,3.94,104l.11.2Z"/><polygon class="cls-7" points="42.52 66.69 53.2 83.3 55.19 79.82 44.35 63.61 42.52 66.69"/><path class="cls-8" d="M45.91,65.94l-1.56-2.33-1.84,3.08L45,70.61A15.71,15.71,0,0,1,45.91,65.94Z"/><path class="cls-8" d="M51.57,80.76l1.64,2.54,2-3.48L54,78A6,6,0,0,1,51.57,80.76Z"/><path class="cls-5" d="M113.77,176.64h14.42c0-2.66-12-2.74-13.14-7.65l-1.36.28C114.49,173.37,112.86,174,113.77,176.64Z"/><path class="cls-5" d="M44.21,176.64H35.69c-1-2.71,5.58-2.79,7.81-7.8l1,.29C42.75,173.3,43.87,173.93,44.21,176.64Z"/><path class="cls-27" d="M63.72,27.37a15,15,0,0,0,.47,2.46L93.91,25.1c-.23-.85-.48-1.65-.74-2.43Z"/><path class="cls-28" d="M26.46,93.73l-1.55,2.43,17.38,9.91-1.16,1.84a12.46,12.46,0,0,0-2.35,1.47l-8-3.8a15.47,15.47,0,0,0-2.86,2.81L15.2,101.31l-1.94,2.23,13.22,7.08a8.31,8.31,0,0,0-.7,5.74L33,120.2a20.56,20.56,0,0,0,0,3.44L14.32,112.86l-.58,2.34,20.88,12.62,1-2.14s-3.43-8,7.87-16.12l3.21-4.16ZM33.35,118l-5.72-3a10.49,10.49,0,0,1,4.18-6.89l5.39,2.69A15,15,0,0,0,33.35,118Z"/><path class="cls-14" d="M88.77,40.28c-1.68-1.06-6.16-3-6.6-2.55s-1.56,4.52-.36,5.39,6,.26,6,.26Z"/><path class="cls-29" d="M88.36,40.35c-1.46-.92-5.35-2.56-5.73-2.21s-1.36,3.92-.31,4.68,5.19.22,5.19.22Z"/><path class="cls-14" d="M84.88,40.78l-2.86-1,.36-1.77a5.52,5.52,0,0,0-.68,4.22l.2-2Z"/><path class="cls-11" d="M73.15,110.43,72,110.06c1.42-4.21,1-8.3.62-11.59-.38-3.51-.68-6.28,1.45-7.59a2.23,2.23,0,0,1,2.08-.18c3.1,1.26,5.26,9.44,5.49,10.37l-1.13.28c-.6-2.36-2.63-8.69-4.8-9.57a1.06,1.06,0,0,0-1,.09c-1.5.92-1.25,3.25-.9,6.48C74.19,101.75,74.64,106,73.15,110.43Z"/><path class="cls-30" d="M75.56,52.72a.84.84,0,0,1-.78-.94.05.05,0,0,0,0,0,.88.88,0,0,0,.71,1.27,1.54,1.54,0,0,0,1.41-.78c0-.1,0-.22.06-.33A1.53,1.53,0,0,1,75.56,52.72Z"/><path class="cls-30" d="M69.69,45.75s0,0,0,0h0a.13.13,0,0,0,0-.06,1.55,1.55,0,0,1-.42.62l.15.16a1.4,1.4,0,0,0,.22-.44A1.13,1.13,0,0,1,69.69,45.75Z"/><path class="cls-30" d="M69.69,45.75a1.13,1.13,0,0,0,0,.25.84.84,0,0,0,.82,1,1.57,1.57,0,0,0,1.5-1.1,1.29,1.29,0,0,0,0-.33,1.58,1.58,0,0,1-1.48,1.06.85.85,0,0,1-.84-.88h0S69.69,45.73,69.69,45.75Z"/><path class="cls-30" d="M73.68,45.51l0,0a.88.88,0,0,0,.71,1.28,1.58,1.58,0,0,0,1.55-1,1.39,1.39,0,0,0,.07-.33,1.58,1.58,0,0,1-1.54,1A.83.83,0,0,1,73.68,45.51Z"/><path class="cls-30" d="M76,45.64s0,0,0,0A.88.88,0,0,0,76.67,47a1.48,1.48,0,0,0,1.13-.43c0-.11,0-.23,0-.34a1.47,1.47,0,0,1-1.09.4A.85.85,0,0,1,76,45.64Z"/><path class="cls-30" d="M73.72,50.15a.94.94,0,0,1-.89-.91v0a1,1,0,0,0,.86,1.25,1.45,1.45,0,0,0,1.43-1.09,1.84,1.84,0,0,0,0-.33A1.44,1.44,0,0,1,73.72,50.15Z"/><path class="cls-30" d="M76,50.19a.92.92,0,0,1-.89-.91s0,0,0,0A1,1,0,0,0,76,50.57a1.42,1.42,0,0,0,1.33-.86c0-.14,0-.28.07-.43A1.42,1.42,0,0,1,76,50.19Z"/><path class="cls-30" d="M68.76,39a1.13,1.13,0,0,1,0-.26l0,0h0v0a1.57,1.57,0,0,1-1.43,1.13.89.89,0,0,1-.61-.22,2,2,0,0,1,0,.36.88.88,0,0,0,.6.24A1.59,1.59,0,0,0,68.76,39Z"/><path class="cls-30" d="M68.77,38.75a1.13,1.13,0,0,0,0,.26.85.85,0,0,0,.88.92,1.58,1.58,0,0,0,1.44-1.18,1.31,1.31,0,0,0,0-.33,1.59,1.59,0,0,1-1.43,1.13.85.85,0,0,1-.89-.83h0Z"/><path class="cls-30" d="M73.78,38.86a.86.86,0,0,1-.78-1l0,0a.89.89,0,0,0,.71,1.28,1.59,1.59,0,0,0,1.56-1,1,1,0,0,0,.06-.33A1.59,1.59,0,0,1,73.78,38.86Z"/><path class="cls-30" d="M77.6,38h0s0,0,0-.06a1.56,1.56,0,0,1-1.53,1A.84.84,0,0,1,75.3,38s0,0,0,0A.88.88,0,0,0,76,39.35a1.58,1.58,0,0,0,1.55-1,1.17,1.17,0,0,1,0-.26A.08.08,0,0,0,77.6,38Z"/><path class="cls-30" d="M77.6,38.05h0a.08.08,0,0,1,0,0,1.17,1.17,0,0,0,0,.26.84.84,0,0,0,.75,1,1.29,1.29,0,0,0,.48,0c0-.12,0-.24,0-.37a1.1,1.1,0,0,1-.44,0A.84.84,0,0,1,77.6,38.05Z"/><path class="cls-30" d="M65.1,42.64a1.22,1.22,0,0,0-.74.72A1.48,1.48,0,0,0,65.1,42.64Z"/><path class="cls-30" d="M66.09,43.52a1.43,1.43,0,0,0,1.42-1.07,1.14,1.14,0,0,1,0-.26s0,0,0,0h0s0,0,0-.06a1.44,1.44,0,0,1-1.42,1,.91.91,0,0,1-.82-.58l-.1,0A.92.92,0,0,0,66.09,43.52Z"/><path class="cls-30" d="M67.53,42.19a1.14,1.14,0,0,0,0,.26.92.92,0,0,0,.87,1,1.41,1.41,0,0,0,1.43-1.08,1,1,0,0,0,0-.33,1.44,1.44,0,0,1-1.41,1,.93.93,0,0,1-.89-.9h0S67.53,42.17,67.53,42.19Z"/><path class="cls-30" d="M72.64,43a.93.93,0,0,1-.88-.91l0,0a1,1,0,0,0,.86,1.24A1.43,1.43,0,0,0,74,42.31a1,1,0,0,0,0-.33A1.44,1.44,0,0,1,72.64,43Z"/><path class="cls-30" d="M76.36,42.07h0s0,0,0,0a1.43,1.43,0,0,1-1.42,1,.93.93,0,0,1-.88-.91s0,0,0,0a1,1,0,0,0,.86,1.25,1.45,1.45,0,0,0,1.43-1.08,1.15,1.15,0,0,1,0-.26Z"/><path class="cls-30" d="M77.25,43a.93.93,0,0,1-.88-.91h0v0a1.15,1.15,0,0,0,0,.26.92.92,0,0,0,.87,1,1.39,1.39,0,0,0,1.1-.5c0-.13,0-.25,0-.38A1.39,1.39,0,0,1,77.25,43Z"/><path class="cls-30" d="M67.88,32.14a1.22,1.22,0,0,1,0-.26l0,0h0a.43.43,0,0,0,0-.05,1.59,1.59,0,0,1-1.36,1l0,.37A1.6,1.6,0,0,0,67.88,32.14Z"/><path class="cls-30" d="M67.91,31.88a1.22,1.22,0,0,0,0,.26.85.85,0,0,0,.82,1A1.59,1.59,0,0,0,70.2,32a1.4,1.4,0,0,0,0-.34,1.59,1.59,0,0,1-1.49,1.07.85.85,0,0,1-.83-.89h0Z"/><path class="cls-30" d="M72.59,33a1.58,1.58,0,0,0,1.55-1,.86.86,0,0,0,.07-.34,1.56,1.56,0,0,1-1.53,1,.84.84,0,0,1-.78-.94s0,0,0,0A.88.88,0,0,0,72.59,33Z"/><path class="cls-30" d="M74.18,31.81a.89.89,0,0,0,.71,1.28,1.59,1.59,0,0,0,1.55-1,1.27,1.27,0,0,1,0-.26l0,0h0a.43.43,0,0,0,0-.05,1.59,1.59,0,0,1-1.53,1,.84.84,0,0,1-.78-.94Z"/><path class="cls-30" d="M76.48,31.81a1.27,1.27,0,0,0,0,.26.85.85,0,0,0,.75,1,1.59,1.59,0,0,0,1.56-1,1,1,0,0,0,.06-.33,1.59,1.59,0,0,1-1.53,1,.85.85,0,0,1-.78-.94h0Z"/><path class="cls-30" d="M68.58,35.54a1.34,1.34,0,0,0,0-.34,1.43,1.43,0,0,1-1.42,1,.92.92,0,0,1-.44-.15c0,.14,0,.28,0,.42a1,1,0,0,0,.39.11A1.44,1.44,0,0,0,68.58,35.54Z"/><path class="cls-30" d="M71.9,36.66a1.44,1.44,0,0,0,1.43-1.08,1.34,1.34,0,0,0,0-.34,1.45,1.45,0,0,1-1.42,1,.94.94,0,0,1-.89-.91v0A1,1,0,0,0,71.9,36.66Z"/><path class="cls-30" d="M75.66,35.33h0a.43.43,0,0,1,0-.05,1.45,1.45,0,0,1-1.42,1,.94.94,0,0,1-.89-.91s0,0,0,0a1,1,0,0,0,.86,1.24,1.42,1.42,0,0,0,1.42-1.07,1.18,1.18,0,0,1,0-.26S75.66,35.35,75.66,35.33Z"/><path class="cls-30" d="M76.55,36.24a.92.92,0,0,1-.89-.9h0s0,0,0,0a1.18,1.18,0,0,0,0,.26.93.93,0,0,0,.87,1,1.44,1.44,0,0,0,1.44-1.08,1.32,1.32,0,0,0,0-.34A1.41,1.41,0,0,1,76.55,36.24Z"/><path class="cls-31" d="M93.17,22.67,80,24.77c.14.23.27.46.42.69.37.57.76,1.09,1.16,1.6l12.3-2C93.68,24.24,93.43,23.45,93.17,22.67Z"/><polygon class="cls-11" points="41.85 171.2 43.68 172.59 47.83 166.04 43.24 165.38 41.85 171.2"/><polygon class="cls-11" points="115.9 170.47 113.78 171.48 110.83 164.23 115.59 164.49 115.9 170.47"/><path class="cls-32" d="M111.35,93.15a7.62,7.62,0,0,0,2.87,1.25,29.28,29.28,0,0,1,6,.57c.71.15,2.44,3.44,2.89,4.67-.87,0-6.14,3.83-6.14,3.83a20.05,20.05,0,0,1-4.78-2.8,25.78,25.78,0,0,0-3.41-2.35C106.9,97.23,111.35,93.15,111.35,93.15Z"/><polygon class="cls-26" points="169.84 17.32 68.11 169.18 71.09 170.67 171.33 17.92 169.84 17.32"/><polygon class="cls-33" points="167.55 22.4 167.1 15.7 183.25 0 173.92 21.19 167.55 22.4"/><polygon class="cls-34" points="167.55 22.4 167.1 15.7 183.25 0 167.55 22.4"/><path class="cls-13" d="M114.22,94.4c2.86-1,5.76-1.73,6.89-1.25s1.31,2.37,1.28,3.22-3.07,2.17-3.65,2.24-1.36-1.11-1-1.53,1.82-1.15,1.7-1.41a1.66,1.66,0,0,0-.46-.52S114.92,96.29,114.22,94.4Z"/><path class="cls-13" d="M119.07,98.41c-.13-.89,1.41-1.62,1.8-1.28s3,2,2.83,2.69-1.32,1.55-1.77,1.37S119.19,99.13,119.07,98.41Z"/><path class="cls-13" d="M116.85,99.69c-.14-.89,1.4-1.62,1.79-1.28s3,2,2.83,2.69-1.32,1.55-1.76,1.37S117,100.41,116.85,99.69Z"/><path class="cls-13" d="M114.85,101.18c-.1-.87,1.35-1.66,1.71-1.34s2.78,1.84,2.56,2.48-1.27,1.59-1.68,1.44S114.94,101.88,114.85,101.18Z"/><polygon class="cls-7" points="109.39 99.4 113.92 93.91 110.3 91.25 106.19 97.59 109.39 99.4"/></g></g></g></svg>