<svg xmlns="http://www.w3.org/2000/svg" viewBox="0 0 151.24 194.78"><defs><style>.cls-1{isolation:isolate;}.cls-2{fill:#eac78b;}.cls-3{fill:#ffc033;}.cls-4{fill:#967648;}.cls-5{fill:#7c4040;}.cls-6{fill:#602e2e;}.cls-7{fill:#4c2323;}.cls-8{fill:#d62929;}.cls-9{fill:#c11a1a;}.cls-10{fill:#dbbf86;}.cls-11{fill:#774646;}.cls-12{fill:#f7cc6d;}.cls-13{fill:#edb056;}.cls-14{fill:#a55656;}.cls-15,.cls-18{mix-blend-mode:multiply;}.cls-16{fill:#eab64e;}.cls-17{fill:#ef8354;}.cls-18{fill:#843131;opacity:0.6;}.cls-19{fill:#f4d49d;}.cls-20{fill:#ffe6b3;}.cls-21{fill:#9bb2af;}.cls-22{fill:#bcddd8;}.cls-23{fill:#563e36;}.cls-24{fill:#422c26;}.cls-25{fill:#d1593d;}.cls-26{fill:#baa37b;}.cls-27{fill:#a3875d;}.cls-28{fill:#3d2923;}</style></defs><g class="cls-1"><g id="Layer_2" data-name="Layer 2"><g id="_11" data-name="11"><path class="cls-2" d="M57.69,120.6s-1.28,2.07-2.57,2.3a31,31,0,0,0-7.13,2c-.82.34-.49,6.43-.56,8.17,1.08-.14,7.86,2.53,7.86,2.53a20.92,20.92,0,0,0,4.76-4.74c.45-.73,2.32-3,2-5.53C61.75,122.39,57.69,120.6,57.69,120.6Z"/><path class="cls-3" d="M128.28,132.68a17.78,17.78,0,0,1-12-4.55,21.68,21.68,0,0,1-6.83-16.27c0-12.66,9.33-24,20.8-25.32A17.87,17.87,0,0,1,144.41,91a21.68,21.68,0,0,1,6.83,16.28c0,12.65-9.33,24-20.8,25.31A19.68,19.68,0,0,1,128.28,132.68Zm4.17-45a19.64,19.64,0,0,0-2,.11c-10.86,1.24-19.7,12-19.7,24.09a20.44,20.44,0,0,0,6.41,15.34,16.68,16.68,0,0,0,13.15,4.13c10.86-1.24,19.7-12,19.7-24.08a20.44,20.44,0,0,0-6.41-15.35A16.58,16.58,0,0,0,132.45,87.66Z"/><polygon class="cls-4" points="100.61 27.89 79.98 30.91 79.33 52.84 105.58 48.74 100.61 27.89"/><ellipse class="cls-5" cx="130.37" cy="109.55" rx="22.56" ry="19.47" transform="translate(-20.06 189.35) rotate(-67.99)"/><ellipse class="cls-6" cx="130.37" cy="109.55" rx="20.16" ry="17.39" transform="translate(-20.06 189.35) rotate(-67.99)"/><path class="cls-7" d="M127.78,98.12c9.83-1.12,17.81,6.79,17.81,17.67a21.21,21.21,0,0,1-.17,2.53,22.83,22.83,0,0,0,2.76-10.8c0-10.87-8-18.78-17.81-17.66-9.06,1-16.53,9.37-17.65,19.18C115.88,103.16,121.43,98.85,127.78,98.12Z"/><path class="cls-8" d="M67.88,63.35c-6.74,8.14-7.47,15.46-9.33,21.34s-2.5,28-3.7,37.62l6.55,2.5s11-20.44,13.85-27.62S79.85,48.91,67.88,63.35Z"/><path class="cls-9" d="M67.88,63.35A36.26,36.26,0,0,0,61.72,74c4.32,1.81,7.56,9.12,7.56,17.88,0,10.11-4.31,18.31-9.64,18.31A5.91,5.91,0,0,1,56,108.77c-.37,5.22-.72,10.15-1.14,13.54l6.55,2.5s11-20.44,13.85-27.62S79.85,48.91,67.88,63.35Z"/><path class="cls-9" d="M69.28,100.91,64,90.86s3.57,12.75-1,23.12Z"/><path class="cls-8" d="M117.84,56.62c6.39,7.39,8.43,17.5,10.37,23s3.56,26.46,5.67,31.65L126.75,115s-9.25-12.9-12.15-19.6S106.5,43.5,117.84,56.62Z"/><path class="cls-9" d="M131,96a6,6,0,0,1-4.29,1.24c-3.61,0-6.08-.77-6.61-11.91-.42-8.85,1.08-16.34,3.52-19.07a37.18,37.18,0,0,0-5.82-9.64c-11.34-13.12-6.14,32-3.24,38.73S126.75,115,126.75,115l7.13-3.67C132.85,108.74,131.94,102.43,131,96Z"/><path class="cls-10" d="M125.75,194.78h13.1c0-2.89-10.93-3-11.94-8.32l-1.23.31C126.4,191.22,124.92,191.89,125.75,194.78Z"/><path class="cls-10" d="M67.82,194.78H54c0-2.89,11.55-3,12.62-8.32l1.3.31C67.13,191.22,68.7,191.89,67.82,194.78Z"/><path class="cls-11" d="M67.34,164.21s-1.08,17.28-1.73,24.84l1.3.65,8.64-24.41Z"/><path class="cls-11" d="M124.81,163.13s2.16,18.36,2.81,25.92l-1.3.65-8.64-24.41Z"/><path class="cls-8" d="M69.5,131.59S63.88,158.16,67,169.76L73.61,172c16.41-11,21.6-37.38,21.6-37.38l7.34-2.16L99.1,110.63Z"/><path class="cls-9" d="M99.1,110.63l-29.6,21s-1.93,9.13-2.9,19l18.08.68L72.2,169.77l-5.43-.9c.07.3.14.61.21.89L73.61,172c16.41-11,21.6-37.38,21.6-37.38l7.34-2.16Z"/><path class="cls-8" d="M120.76,124.35S125.94,151.41,125,167l-4.81,4.72c-15.77-11-21.49-40.52-21.49-40.52l-3.89-20.53Z"/><path class="cls-9" d="M110,149.84l14-4.06c-1.28-11.38-3.2-21.43-3.2-21.43l-26-13.72,3.89,20.53s5.72,29.5,21.49,40.52l.93-.91C113.75,166.3,110,149.84,110,149.84Z"/><polygon class="cls-12" points="72.98 105.41 64.96 147.57 87.65 146.71 95.42 118.63 99.31 118.41 105.8 146.93 126.32 143.04 117.03 97.24 114.65 93.78 75.68 100.51 72.98 105.41"/><path class="cls-13" d="M72.36,143.77c0-20.9,10.58-42.7,23.34-42.7s22.84,21.8,22.84,42.7c0,.25,0,.49,0,.74l7.79-1.47L117,97.24l-2.38-3.46-39,6.73-2.7,4.9-8,42.16,7.51-.28C72.4,146.13,72.36,145,72.36,143.77Z"/><polygon class="cls-14" points="75.12 98.42 74.57 102.53 115.89 95.58 115.08 91.51 75.12 98.42"/><path class="cls-5" d="M97,97.17a41.21,41.21,0,0,1,11.52-.34l7.41-1.25-.81-4.07-40,6.92-.55,4.1L83.68,101C86.47,99.47,91.4,98,97,97.17Z"/><path class="cls-12" d="M74.36,54.68c-2,3.35-.59,27.25,0,30.92S71.2,95.89,75.52,97.83,112,93.4,114.09,91.67s1.62-3.18.64-5-1.59-11.67-1.59-14-2.38-19.23-3.46-22.25-17.6-3-19.76-2.6S75.33,53.06,74.36,54.68Z"/><path class="cls-13" d="M115.41,86.22c-1-1.84-1.91-12.67-1.73-15,.22-2.89-1.8-8.84-1.83-9.23-8.46-5.36,1,22.18,1.6,23.38.87,1.86,1.56,3.94-.3,5.6S81,98.73,77.06,96.66s-.16-10.78-.65-14.46c-.27-2.09,5.27-21.15-3.33-16.42a196.11,196.11,0,0,0,.53,20.55C74.15,90,70.8,96.8,75.12,98.75s37.91-5.19,40-6.91S116.38,88.06,115.41,86.22Z"/><g class="cls-15"><path class="cls-16" d="M77.07,88.22a.14.14,0,0,1,0,.06c-.23,1.12.35,2,1.3,2a2.58,2.58,0,0,0,2.13-2.1,2.25,2.25,0,0,0,0-.57,2.56,2.56,0,0,1-2.11,2A1.3,1.3,0,0,1,77.07,88.22Z"/><path class="cls-16" d="M84,87.35a.25.25,0,0,0,0-.07h0s0-.06,0-.09a2.55,2.55,0,0,1-2.11,2,1.29,1.29,0,0,1-1.34-1.37.14.14,0,0,1,0,.07c-.23,1.11.35,2,1.3,1.94a2.55,2.55,0,0,0,2.1-2A2.41,2.41,0,0,1,84,87.35Z"/><path class="cls-16" d="M85.31,88.65A1.3,1.3,0,0,1,84,87.29h0a.25.25,0,0,1,0,.07,2.41,2.41,0,0,0,0,.53,1.31,1.31,0,0,0,1.34,1.41,2.57,2.57,0,0,0,2.13-2.09,2.3,2.3,0,0,0,0-.58A2.55,2.55,0,0,1,85.31,88.65Z"/><path class="cls-16" d="M91.4,87.2a1.34,1.34,0,0,1-1.17-1.55l0,.07c-.34,1.09.14,2,1.07,2.12A2.49,2.49,0,0,0,93.57,86a2.28,2.28,0,0,0,.1-.57A2.47,2.47,0,0,1,91.4,87.2Z"/><path class="cls-16" d="M97.07,85.57s0,0,0,0a.29.29,0,0,0,0-.09,2.48,2.48,0,0,1-2.27,1.78,1.35,1.35,0,0,1-1.17-1.55l0,.06c-.34,1.1.14,2,1.07,2.13A2.47,2.47,0,0,0,97,86.16a2.14,2.14,0,0,1,.1-.53S97.07,85.59,97.07,85.57Z"/><path class="cls-16" d="M98.24,87.12a1.34,1.34,0,0,1-1.17-1.54s0,0,0,0,0,0,0,.06a2.14,2.14,0,0,0-.1.53,1.36,1.36,0,0,0,1.17,1.6,2.5,2.5,0,0,0,2.3-1.85,2.4,2.4,0,0,0,.09-.57A2.48,2.48,0,0,1,98.24,87.12Z"/><path class="cls-16" d="M106.46,86.11a2.49,2.49,0,0,1-2.28,1.78A1.34,1.34,0,0,1,103,86.34l0,.06c-.34,1.1.14,2,1.07,2.12a2.47,2.47,0,0,0,2.3-1.84A2.44,2.44,0,0,0,106.46,86.11Z"/><path class="cls-16" d="M109.86,86.25v0a.36.36,0,0,1,0-.1A2.48,2.48,0,0,1,107.6,88a1.33,1.33,0,0,1-1.16-1.55l0,.07c-.34,1.09.14,2,1.07,2.12a2.46,2.46,0,0,0,2.26-1.74,2.56,2.56,0,0,1,.09-.53Z"/><path class="cls-16" d="M111,87.8a1.33,1.33,0,0,1-1.17-1.53v0l0,.07a2.56,2.56,0,0,0-.09.53,1.34,1.34,0,0,0,1.16,1.59,2.49,2.49,0,0,0,2.3-1.84,2.43,2.43,0,0,0,.1-.58A2.45,2.45,0,0,1,111,87.8Z"/><path class="cls-16" d="M78.73,93.2a2.29,2.29,0,0,1-2.1,1.86,1.43,1.43,0,0,1-1.32-1.49.14.14,0,0,0,0,.07c-.23,1.1.34,2,1.29,2.06a2.29,2.29,0,0,0,2.11-1.93A2.25,2.25,0,0,0,78.73,93.2Z"/><path class="cls-16" d="M82.13,93.27a.25.25,0,0,0,0-.07v-.08A2.3,2.3,0,0,1,80.07,95a1.45,1.45,0,0,1-1.33-1.5.25.25,0,0,0,0,.07A1.56,1.56,0,0,0,80,95.63a2.29,2.29,0,0,0,2.08-1.83A3.23,3.23,0,0,1,82.13,93.27Z"/><path class="cls-16" d="M83.48,94.69a1.42,1.42,0,0,1-1.32-1.47v0a.25.25,0,0,1,0,.07,3.23,3.23,0,0,0,0,.53,1.45,1.45,0,0,0,1.33,1.53,2.3,2.3,0,0,0,2.12-1.93,2.25,2.25,0,0,0,0-.57A2.29,2.29,0,0,1,83.48,94.69Z"/><path class="cls-16" d="M91.85,92.49a2.28,2.28,0,0,1-2.1,1.86,1.43,1.43,0,0,1-1.32-1.49.14.14,0,0,0,0,.07c-.23,1.1.35,2,1.29,2.06a2.29,2.29,0,0,0,2.11-1.93A2.25,2.25,0,0,0,91.85,92.49Z"/><path class="cls-16" d="M95.26,92.56s0,0,0-.07v0a.33.33,0,0,0,0-.1,2.28,2.28,0,0,1-2.09,1.86,1.43,1.43,0,0,1-1.33-1.49.64.64,0,0,1,0,.07,1.56,1.56,0,0,0,1.29,2.07,2.29,2.29,0,0,0,2.08-1.83A2.44,2.44,0,0,1,95.26,92.56Z"/><path class="cls-16" d="M96.6,94a1.42,1.42,0,0,1-1.32-1.47v0s0,0,0,.07a2.44,2.44,0,0,0-.05.53,1.45,1.45,0,0,0,1.33,1.53,2.3,2.3,0,0,0,2.12-1.93,2.25,2.25,0,0,0,0-.57A2.29,2.29,0,0,1,96.6,94Z"/><path class="cls-16" d="M104.28,90.23a2.3,2.3,0,0,1-2.09,1.87,1.43,1.43,0,0,1-1.33-1.49s0,0,0,.06a1.56,1.56,0,0,0,1.29,2.07,2.3,2.3,0,0,0,2.11-1.93A1.91,1.91,0,0,0,104.28,90.23Z"/><path class="cls-16" d="M107.69,90.3a.14.14,0,0,1,0-.06h0s0-.06,0-.09a2.29,2.29,0,0,1-2.1,1.86,1.43,1.43,0,0,1-1.33-1.49.14.14,0,0,1,0,.06c-.22,1.11.35,2,1.29,2.07a2.29,2.29,0,0,0,2.09-1.82A2,2,0,0,1,107.69,90.3Z"/><path class="cls-16" d="M109,91.73a1.44,1.44,0,0,1-1.33-1.48h0a.14.14,0,0,0,0,.06,2,2,0,0,0,0,.54A1.44,1.44,0,0,0,109,92.37a2.4,2.4,0,0,0,2.15-2.51A2.3,2.3,0,0,1,109,91.73Z"/><path class="cls-16" d="M79.12,76.3a2.36,2.36,0,0,0,.07-.58A2.52,2.52,0,0,1,77,77.63a1.31,1.31,0,0,1-1.25-1.46.14.14,0,0,0,0,.06c-.29,1.11.24,2,1.18,2A2.52,2.52,0,0,0,79.12,76.3Z"/><path class="cls-16" d="M80.44,77.48A1.32,1.32,0,0,1,79.18,76a.25.25,0,0,1,0,.07c-.28,1.1.25,2,1.19,2a2.5,2.5,0,0,0,2.18-1.86,2.11,2.11,0,0,1,.07-.54.14.14,0,0,1,0-.06h0s0-.06,0-.09A2.5,2.5,0,0,1,80.44,77.48Z"/><path class="cls-16" d="M82.6,75.72a2.11,2.11,0,0,0-.07.54,1.32,1.32,0,0,0,1.25,1.5,2.51,2.51,0,0,0,2.22-2,2.34,2.34,0,0,0,.07-.57,2.51,2.51,0,0,1-2.19,1.9,1.32,1.32,0,0,1-1.26-1.45h0A.14.14,0,0,0,82.6,75.72Z"/><path class="cls-16" d="M89.57,77.26a2.49,2.49,0,0,0,2.3-1.85,2.44,2.44,0,0,0,.1-.57,2.49,2.49,0,0,1-2.28,1.78,1.33,1.33,0,0,1-1.16-1.55l0,.06C88.16,76.23,88.64,77.18,89.57,77.26Z"/><path class="cls-16" d="M95.37,75h0s0-.06,0-.09a2.49,2.49,0,0,1-2.28,1.78A1.34,1.34,0,0,1,92,75.14l0,.06c-.34,1.1.14,2,1.07,2.12a2.44,2.44,0,0,0,2.26-1.74,2.56,2.56,0,0,1,.09-.53Z"/><path class="cls-16" d="M95.37,75h0l0,.06a2.56,2.56,0,0,0-.09.53,1.36,1.36,0,0,0,1.16,1.6,2.5,2.5,0,0,0,2.3-1.85,2.44,2.44,0,0,0,.1-.57,2.48,2.48,0,0,1-2.27,1.78A1.34,1.34,0,0,1,95.37,75Z"/><path class="cls-16" d="M103.3,76a1.34,1.34,0,0,1-1.17-1.55.14.14,0,0,0,0,.06c-.34,1.1.14,2,1.07,2.13a2.48,2.48,0,0,0,2.29-1.85,2,2,0,0,0,.1-.57A2.48,2.48,0,0,1,103.3,76Z"/><path class="cls-16" d="M109,74.4h0s0-.06,0-.09a2.48,2.48,0,0,1-2.27,1.78,1.35,1.35,0,0,1-1.17-1.55.14.14,0,0,0,0,.06c-.34,1.1.14,2,1.07,2.12A2.43,2.43,0,0,0,108.85,75a2.59,2.59,0,0,1,.1-.53A.14.14,0,0,0,109,74.4Z"/><path class="cls-16" d="M110.14,76A1.34,1.34,0,0,1,109,74.41h0a.14.14,0,0,1,0,.06,2.59,2.59,0,0,0-.1.53,1.36,1.36,0,0,0,1.17,1.6,2.5,2.5,0,0,0,2.3-1.85,1.75,1.75,0,0,0,.07-.44v-.06A2.48,2.48,0,0,1,110.14,76Z"/><path class="cls-16" d="M76.78,82.27a2.3,2.3,0,0,0,0-.58,2.31,2.31,0,0,1-2.1,1.87,1.8,1.8,0,0,1-.4-.1c0,.24,0,.47.05.69l.3,0A2.32,2.32,0,0,0,76.78,82.27Z"/><path class="cls-16" d="M78.1,84.12a2.29,2.29,0,0,0,2.08-1.83,3.23,3.23,0,0,1,0-.53.14.14,0,0,0,0-.07v0a.34.34,0,0,0,0-.1,2.3,2.3,0,0,1-2.09,1.87A1.43,1.43,0,0,1,76.83,82s0,0,0,.06A1.56,1.56,0,0,0,78.1,84.12Z"/><path class="cls-16" d="M80.22,81.76a3.23,3.23,0,0,0,0,.53,1.46,1.46,0,0,0,1.33,1.54,2.33,2.33,0,0,0,2.12-1.93,2.3,2.3,0,0,0,0-.58,2.31,2.31,0,0,1-2.1,1.87,1.43,1.43,0,0,1-1.32-1.48v0A.14.14,0,0,1,80.22,81.76Z"/><path class="cls-16" d="M90.7,81.66a2.23,2.23,0,0,0,0-.57A2.28,2.28,0,0,1,88.64,83a1.43,1.43,0,0,1-1.33-1.49.25.25,0,0,1,0,.07,1.55,1.55,0,0,0,1.29,2.06A2.3,2.3,0,0,0,90.7,81.66Z"/><path class="cls-16" d="M94.14,81.16a.14.14,0,0,1,0-.07v0s0-.07,0-.1a2.29,2.29,0,0,1-2.1,1.86,1.43,1.43,0,0,1-1.33-1.49.14.14,0,0,1,0,.07c-.22,1.1.35,2,1.29,2.06a2.29,2.29,0,0,0,2.09-1.82A1.93,1.93,0,0,1,94.14,81.16Z"/><path class="cls-16" d="M94.14,81.16a1.93,1.93,0,0,0,0,.53,1.44,1.44,0,0,0,1.33,1.53,2.29,2.29,0,0,0,2.11-1.93,1.87,1.87,0,0,0,0-.57,2.28,2.28,0,0,1-2.09,1.86,1.43,1.43,0,0,1-1.33-1.47v0A.14.14,0,0,0,94.14,81.16Z"/><path class="cls-16" d="M104.49,81.29a2.83,2.83,0,0,0,0-.57,2.3,2.3,0,0,1-2.1,1.86,1.43,1.43,0,0,1-1.33-1.49.14.14,0,0,1,0,.06,1.56,1.56,0,0,0,1.29,2.07A2.32,2.32,0,0,0,104.49,81.29Z"/><path class="cls-16" d="M104.54,81a.14.14,0,0,0,0,.07c-.23,1.1.34,2,1.28,2.06a2.29,2.29,0,0,0,2.09-1.82,2,2,0,0,1,0-.54s0,0,0-.06h0s0-.06,0-.09a2.29,2.29,0,0,1-2.1,1.86A1.43,1.43,0,0,1,104.54,81Z"/><path class="cls-16" d="M107.93,80.78a2,2,0,0,0,0,.54,1.44,1.44,0,0,0,1.33,1.53,2.3,2.3,0,0,0,2.11-1.93,1.87,1.87,0,0,0,0-.57,2.28,2.28,0,0,1-2.09,1.86A1.43,1.43,0,0,1,108,80.73h0S107.94,80.76,107.93,80.78Z"/><path class="cls-16" d="M77.69,64.68a1.91,1.91,0,0,0,0-.58,2.55,2.55,0,0,1-2.11,2,1.3,1.3,0,0,1-1.34-1.37.25.25,0,0,1,0,.07c-.23,1.11.36,2,1.3,1.94A2.57,2.57,0,0,0,77.69,64.68Z"/><path class="cls-16" d="M79,66.41a2.54,2.54,0,0,0,2.1-2,3.32,3.32,0,0,1,0-.53.14.14,0,0,0,0-.07v-.08a2.55,2.55,0,0,1-2.11,2,1.3,1.3,0,0,1-1.34-1.37.14.14,0,0,1,0,.06C77.49,65.58,78.08,66.45,79,66.41Z"/><path class="cls-16" d="M81.16,63.89a3.32,3.32,0,0,0,0,.53,1.31,1.31,0,0,0,1.34,1.41,2.57,2.57,0,0,0,2.13-2.09,1.87,1.87,0,0,0,0-.57,2.55,2.55,0,0,1-2.11,2,1.28,1.28,0,0,1-1.33-1.35v0A.14.14,0,0,1,81.16,63.89Z"/><path class="cls-16" d="M87.44,62.19a.25.25,0,0,0,0,.07c-.34,1.09.14,2.05,1.07,2.12a2.49,2.49,0,0,0,2.3-1.84,2.41,2.41,0,0,0,.09-.58,2.45,2.45,0,0,1-2.27,1.78A1.34,1.34,0,0,1,87.44,62.19Z"/><path class="cls-16" d="M94.29,62.11v0s0-.07,0-.1A2.47,2.47,0,0,1,92,63.81a1.34,1.34,0,0,1-1.17-1.55.14.14,0,0,0,0,.07c-.34,1.09.14,2,1.07,2.12a2.46,2.46,0,0,0,2.25-1.74,2.59,2.59,0,0,1,.1-.53Z"/><path class="cls-16" d="M94.29,62.13v0l0,.07a2.59,2.59,0,0,0-.1.53,1.35,1.35,0,0,0,1.17,1.59,2.49,2.49,0,0,0,2.3-1.85,2.28,2.28,0,0,0,.1-.57,2.48,2.48,0,0,1-2.28,1.78A1.33,1.33,0,0,1,94.29,62.13Z"/><path class="cls-16" d="M103.57,63.22a2.44,2.44,0,0,0,.1-.57,2.48,2.48,0,0,1-2.28,1.78,1.33,1.33,0,0,1-1.16-1.55l0,.06c-.34,1.1.14,2,1.07,2.13A2.5,2.5,0,0,0,103.57,63.22Z"/><path class="cls-16" d="M107.07,62.8h0s0-.06,0-.09a2.48,2.48,0,0,1-2.28,1.78A1.34,1.34,0,0,1,103.65,63l0,.06c-.34,1.1.14,2.05,1.07,2.12A2.44,2.44,0,0,0,107,63.39a2.56,2.56,0,0,1,.09-.53Z"/><path class="cls-16" d="M107.07,62.81h0l0,.06a2.56,2.56,0,0,0-.09.53,1.36,1.36,0,0,0,1.16,1.6,2.49,2.49,0,0,0,2.3-1.85,2,2,0,0,0,.1-.57,2.48,2.48,0,0,1-2.27,1.78A1.34,1.34,0,0,1,107.07,62.81Z"/><path class="cls-16" d="M75.9,70.32a2.3,2.3,0,0,0,0-.58,2.32,2.32,0,0,1-2,1.86c0,.21,0,.42,0,.63A2.34,2.34,0,0,0,75.9,70.32Z"/><path class="cls-16" d="M77.22,72.17a2.28,2.28,0,0,0,2.08-1.83,2.49,2.49,0,0,1,0-.53.25.25,0,0,1,0-.07v0a.34.34,0,0,0,0-.1,2.29,2.29,0,0,1-2.09,1.87A1.43,1.43,0,0,1,76,70a.14.14,0,0,1,0,.06A1.56,1.56,0,0,0,77.22,72.17Z"/><path class="cls-16" d="M79.35,69.81a2.49,2.49,0,0,0,0,.53,1.45,1.45,0,0,0,1.33,1.54A2.33,2.33,0,0,0,82.75,70a2.3,2.3,0,0,0,0-.58,2.31,2.31,0,0,1-2.1,1.87,1.43,1.43,0,0,1-1.32-1.48v0A.25.25,0,0,0,79.35,69.81Z"/><path class="cls-16" d="M89,69.61a2.3,2.3,0,0,0,0-.58A2.3,2.3,0,0,1,87,70.9a1.44,1.44,0,0,1-1.33-1.5.25.25,0,0,0,0,.07,1.56,1.56,0,0,0,1.29,2.07A2.31,2.31,0,0,0,89,69.61Z"/><path class="cls-16" d="M90.4,70.82a1.43,1.43,0,0,1-1.33-1.49.14.14,0,0,1,0,.06,1.56,1.56,0,0,0,1.29,2.07,2.3,2.3,0,0,0,2.09-1.83,2,2,0,0,1,0-.53.25.25,0,0,1,0-.07v0s0-.07,0-.1A2.31,2.31,0,0,1,90.4,70.82Z"/><path class="cls-16" d="M92.47,69.1a2,2,0,0,0,0,.53,1.44,1.44,0,0,0,1.33,1.54,2.4,2.4,0,0,0,2.15-2.51,2.3,2.3,0,0,1-2.1,1.87,1.44,1.44,0,0,1-1.32-1.48v0A.25.25,0,0,0,92.47,69.1Z"/><path class="cls-16" d="M101.79,69.05a2.28,2.28,0,0,1-2.09,1.86,1.43,1.43,0,0,1-1.33-1.49.14.14,0,0,0,0,.06,1.56,1.56,0,0,0,1.29,2.07,2.31,2.31,0,0,0,2.11-1.93A2.25,2.25,0,0,0,101.79,69.05Z"/><path class="cls-16" d="M105.2,69.11a.14.14,0,0,1,0-.06h0s0-.06,0-.09a2.3,2.3,0,0,1-2.1,1.86,1.43,1.43,0,0,1-1.33-1.49.25.25,0,0,1,0,.07c-.23,1.1.35,2,1.29,2.06a2.29,2.29,0,0,0,2.09-1.82A2,2,0,0,1,105.2,69.11Z"/><path class="cls-16" d="M106.54,70.54a1.42,1.42,0,0,1-1.32-1.48h0a.14.14,0,0,0,0,.06,2,2,0,0,0,0,.54,1.43,1.43,0,0,0,1.33,1.53,2.31,2.31,0,0,0,2.11-1.93,2.25,2.25,0,0,0,0-.57A2.29,2.29,0,0,1,106.54,70.54Z"/><path class="cls-16" d="M77.56,54.67a2.51,2.51,0,0,0,2.18-1.87,1.94,1.94,0,0,1,0-.24l-.11,0a2.41,2.41,0,0,1-2,1.42,1.45,1.45,0,0,1-.56-.15c-.18.09-.35.19-.5.28A1.21,1.21,0,0,0,77.56,54.67Z"/><path class="cls-16" d="M79.74,52.8A1.32,1.32,0,0,0,81,54.3a2.53,2.53,0,0,0,2.22-2,2.31,2.31,0,0,0,.06-.57,2.5,2.5,0,0,1-2.19,1.9,1.24,1.24,0,0,1-1.21-1.16l-.12.06A1.94,1.94,0,0,0,79.74,52.8Z"/><path class="cls-16" d="M86.78,53.8A2.49,2.49,0,0,0,89.08,52a2.43,2.43,0,0,0,.1-.58,2.45,2.45,0,0,1-2.27,1.78,1.33,1.33,0,0,1-1.17-1.55l0,.07C85.37,52.77,85.85,53.72,86.78,53.8Z"/><path class="cls-16" d="M89.13,51.74c-.34,1.1.14,2,1.07,2.13a2.47,2.47,0,0,0,2.26-1.74,2.21,2.21,0,0,1,.1-.54.14.14,0,0,1,0-.06h0a.29.29,0,0,0,0-.09,2.48,2.48,0,0,1-2.27,1.78,1.33,1.33,0,0,1-1.17-1.55Z"/><path class="cls-16" d="M92.56,51.59a2.21,2.21,0,0,0-.1.54,1.35,1.35,0,0,0,1.17,1.59,2.46,2.46,0,0,0,2.29-1.85,2,2,0,0,0,.1-.57,2.47,2.47,0,0,1-2.27,1.78,1.34,1.34,0,0,1-1.17-1.54h0A.14.14,0,0,0,92.56,51.59Z"/><path class="cls-16" d="M100.39,53.21a2.49,2.49,0,0,0,2.3-1.84,2.41,2.41,0,0,0,.09-.58,2.45,2.45,0,0,1-2.27,1.78A1.34,1.34,0,0,1,99.34,51s0,0,0,.07C99,52.18,99.46,53.13,100.39,53.21Z"/><path class="cls-16" d="M106.19,50.94h0s0-.06,0-.09a2.48,2.48,0,0,1-2.27,1.78,1.34,1.34,0,0,1-1.17-1.55s0,0,0,.06c-.34,1.1.14,2.05,1.07,2.13a2.48,2.48,0,0,0,2.26-1.74,2.18,2.18,0,0,1,.09-.54Z"/><path class="cls-16" d="M107.35,52.49A1.34,1.34,0,0,1,106.19,51h0l0,.06a2.18,2.18,0,0,0-.09.54,1.35,1.35,0,0,0,1.16,1.59,2.33,2.33,0,0,0,2-1.18l-.1-.35A2.18,2.18,0,0,1,107.35,52.49Z"/><path class="cls-16" d="M75.31,60.66a2.29,2.29,0,0,0,2.09-1.82,2,2,0,0,1,0-.54.14.14,0,0,1,0-.06h0s0-.06,0-.09A2.3,2.3,0,0,1,75.37,60a1.27,1.27,0,0,1-1-.59c0,.22,0,.44-.06.67A1.28,1.28,0,0,0,75.31,60.66Z"/><path class="cls-16" d="M77.44,58.3a2,2,0,0,0,0,.54,1.43,1.43,0,0,0,1.33,1.53,2.4,2.4,0,0,0,2.15-2.51,2.29,2.29,0,0,1-2.1,1.87,1.42,1.42,0,0,1-1.32-1.48h0A.14.14,0,0,0,77.44,58.3Z"/><path class="cls-16" d="M85.79,60.14a2.33,2.33,0,0,0,2.12-1.93,2.3,2.3,0,0,0,0-.58,2.32,2.32,0,0,1-2.1,1.87A1.44,1.44,0,0,1,84.52,58a.14.14,0,0,1,0,.07C84.28,59.17,84.85,60.1,85.79,60.14Z"/><path class="cls-16" d="M89.28,59.42A1.43,1.43,0,0,1,88,57.93a.14.14,0,0,0,0,.06,1.56,1.56,0,0,0,1.29,2.07,2.3,2.3,0,0,0,2.08-1.83,2.46,2.46,0,0,1,0-.53.14.14,0,0,0,0-.07v0s0-.07,0-.1A2.31,2.31,0,0,1,89.28,59.42Z"/><path class="cls-16" d="M91.35,57.7a2.46,2.46,0,0,0,0,.53,1.45,1.45,0,0,0,1.33,1.54,2.33,2.33,0,0,0,2.12-1.93,2.28,2.28,0,0,0,0-.58,2.3,2.3,0,0,1-2.09,1.87,1.44,1.44,0,0,1-1.33-1.48v0A.14.14,0,0,1,91.35,57.7Z"/><path class="cls-16" d="M99.58,59.76a2.3,2.3,0,0,0,2.12-1.93,2.25,2.25,0,0,0,0-.57,2.29,2.29,0,0,1-2.1,1.86,1.43,1.43,0,0,1-1.33-1.49.14.14,0,0,1,0,.07C98.07,58.8,98.64,59.73,99.58,59.76Z"/><path class="cls-16" d="M101.75,57.56a.14.14,0,0,0,0,.06A1.56,1.56,0,0,0,103,59.69a2.29,2.29,0,0,0,2.08-1.83,2.41,2.41,0,0,1,0-.53.14.14,0,0,0,0-.07v0s0-.07,0-.1a2.3,2.3,0,0,1-2.1,1.87A1.43,1.43,0,0,1,101.75,57.56Z"/><path class="cls-16" d="M105.14,57.33a2.41,2.41,0,0,0,0,.53,1.45,1.45,0,0,0,1.33,1.53,2.3,2.3,0,0,0,2.12-1.93,2.83,2.83,0,0,0,0-.57,2.3,2.3,0,0,1-2.1,1.86,1.43,1.43,0,0,1-1.33-1.47v0A.14.14,0,0,1,105.14,57.33Z"/></g><polygon class="cls-17" points="84.92 49.65 84.57 42.04 98.95 41.07 99.75 48.6 93.02 51.44 84.92 49.65"/><polygon class="cls-8" points="99.47 45.98 92.51 50.41 84.79 46.95 83.3 50.11 91.14 53.08 93.67 59.59 94.97 52.87 101.75 47.89 99.47 45.98"/><path class="cls-18" d="M92.43,69.63c7.5-.09,16.89-7.07,15.58-20.53a25.78,25.78,0,0,0-6.26-1.21h0L99.47,46,99,41.07,84.57,42,84.79,47,83.3,50.11h0c-2,.8-7.91,4.21-9.56,5C76.48,61.81,83.09,69.76,92.43,69.63Z"/><path class="cls-5" d="M98.21,82.38l.16.08c.32.17,9.46,5.47,14.66,11.1l-1,.88c-4.63-5-13-10.13-14.13-10.74l-6.54.62c-.83.66-7.6,8.06-10.78,15.73l-1.2-.5c3.65-8.79,11.13-16.22,11.35-16.39l.15-.1Z"/><path class="cls-5" d="M91,75.78l-.17-.1a56.78,56.78,0,0,1-13.2-11.8l.92-1.08A56.33,56.33,0,0,0,91.17,74.16l6.52-.75c.81-.81,5.23-5.52,8.2-14.9l1.21.6c-3.4,10.76-8.53,15.51-8.75,15.71l-.14.13Z"/><path class="cls-18" d="M63,71.45,72.5,82.84l9.42-15.55L75.31,54.76A33.89,33.89,0,0,0,63,71.45Z"/><path class="cls-19" d="M62.26,68.13l9.51,11.39,9.94-13.93L74.58,51.44A33.89,33.89,0,0,0,62.26,68.13Z"/><path class="cls-18" d="M123.32,65.34,116.21,76.5,103.15,62.91l7.43-11.64S118.22,55,123.32,65.34Z"/><path class="cls-19" d="M124.65,61.19l-8.84,12.72L104.13,61.66l6.05-13A29.45,29.45,0,0,1,124.65,61.19Z"/><path class="cls-20" d="M110.66,49.39l-.85,1.82a24.31,24.31,0,0,0,1.43,6.21c1.88,5.07,5.05,8.9,8.16,10.34L124.1,61A27.25,27.25,0,0,0,110.66,49.39Z"/><ellipse class="cls-18" cx="94.02" cy="81.72" rx="9.53" ry="9.87"/><path class="cls-20" d="M84.73,79A9.29,9.29,0,1,0,94,69.74,9.29,9.29,0,0,0,84.73,79Z"/><path class="cls-20" d="M54.49,105.72l-1,18.47,7.25,2.23,8.31-13.9S64.69,105.23,54.49,105.72Z"/><path class="cls-2" d="M64.9,108.45c-.08.78-.2,1.57-.34,2.38-1.32,7.25-4.6,12.72-7.33,12.23s-3.87-6.78-2.56-14c.21-1.16.48-2.26.78-3.32-.32,0-.63,0-1,0l-1,18.47,6.77,5,8.79-16.69A14.74,14.74,0,0,0,64.9,108.45Z"/><path class="cls-2" d="M134,108.6s.25,3.06,1.47,3.89a40,40,0,0,1,6.56,5.35c.71.73.15,5.9-.28,7.68-1-.64-10.13-.33-10.13-.33a27.94,27.94,0,0,1-3.39-7c-.24-.94-2-2.86-3-4.86C123.91,110.62,134,108.6,134,108.6Z"/><path class="cls-20" d="M134.09,111.15c4.12,1.06,6.49,2.68,7.44,4.12s2,4.91,1.32,5.88-5.26.13-6-.23-.72-2.36,0-2.6,2.29.07,2.36-.33a2.34,2.34,0,0,0-.14-1S133.44,113.89,134.09,111.15Z"/><path class="cls-20" d="M138,120.94c.53-1.15,2.89-.79,3.08-.09s2,4.75,1.21,5.34-2.75.78-3.13.22S137.57,121.87,138,120.94Z"/><path class="cls-20" d="M134.41,120.7c.53-1.15,2.89-.8,3.08-.1s2,4.75,1.21,5.34-2.75.78-3.13.23S134,121.63,134.41,120.7Z"/><path class="cls-20" d="M130.92,120.88c.56-1.1,2.87-.88,3-.24s1.81,4.31,1,4.9-2.73.86-3.08.36S130.48,121.76,130.92,120.88Z"/><path class="cls-20" d="M132,97.61l3.86,16.81L129,118.84,118.74,105.7S121.22,99.2,132,97.61Z"/><path class="cls-2" d="M125.24,107.38a29,29,0,0,1-2.36-6.38,11.6,11.6,0,0,0-4.14,4.7L129,118.84l3.67-2.38C130.11,114.83,127.34,111.57,125.24,107.38Z"/><path class="cls-5" d="M45.68,126.39l-1.15.85c5.31,4.31,15.67,8,15.67,8L62,131S51,129.22,45.68,126.39Z"/><path class="cls-21" d="M24.85,88.84,0,78c6.32,28.32,47.44,51.63,47.44,51.63l.68-2S29,112.15,24.85,88.84Z"/><path class="cls-22" d="M33,117.21c-13.74-13.72-21.7-28-17.78-31.95a3,3,0,0,1,.55-.39L0,78c6.32,28.32,47.44,51.63,47.44,51.63l.06-.17A107.45,107.45,0,0,1,33,117.21Z"/><path class="cls-5" d="M47.16,119.56c5,4.18-6.5,13.2-3.25,16.28s5.69-.74,5.69-.74-3.6,1.45-3.7-.91,4.16-7.34,3.93-11.24S47.16,119.56,47.16,119.56Z"/><path class="cls-9" d="M125.91,98c-4.45-1.78-.48-15.15-.48-15.15s-6.4,7.7-4.86,13S125.91,98,125.91,98Z"/><g class="cls-15"><path class="cls-16" d="M70.28,138a2.2,2.2,0,0,1,0-.44.14.14,0,0,0,0-.06h0v-.08a2.17,2.17,0,0,1-1.9,1.61,1.09,1.09,0,0,1-.7-.26l-.1.52a1.08,1.08,0,0,0,.74.27A2.16,2.16,0,0,0,70.28,138Z"/><path class="cls-16" d="M70.33,137.52a2.2,2.2,0,0,0,0,.44,1.12,1.12,0,0,0,1.14,1.21,2.18,2.18,0,0,0,1.92-1.65,2.06,2.06,0,0,0,0-.48,2.17,2.17,0,0,1-1.9,1.6,1.1,1.1,0,0,1-1.13-1.17h0A.14.14,0,0,1,70.33,137.52Z"/><path class="cls-16" d="M76.85,137.66a1.13,1.13,0,0,1-1-1.32l0,0a1.23,1.23,0,0,0,.88,1.8,2.12,2.12,0,0,0,2.06-1.45,1.65,1.65,0,0,0,.1-.47A2.11,2.11,0,0,1,76.85,137.66Z"/><path class="cls-16" d="M81.86,136.51h0s0-.05,0-.07a2.12,2.12,0,0,1-2,1.39,1.14,1.14,0,0,1-1-1.33l0,.06a1.23,1.23,0,0,0,.88,1.8,2.13,2.13,0,0,0,2-1.37,2.41,2.41,0,0,1,.1-.43Z"/><path class="cls-16" d="M82.84,137.84a1.13,1.13,0,0,1-1-1.32h0l0,.06a2.41,2.41,0,0,0-.1.43,1.16,1.16,0,0,0,1,1.37,2.16,2.16,0,0,0,2.06-1.45,1.65,1.65,0,0,0,.1-.47A2.12,2.12,0,0,1,82.84,137.84Z"/><path class="cls-16" d="M88,138.69a1.14,1.14,0,0,1-1-1.33.14.14,0,0,0,0,.06,1.23,1.23,0,0,0,.88,1.8,1.6,1.6,0,0,0,.82-.15l.15-.53A1.71,1.71,0,0,1,88,138.69Z"/><path class="cls-16" d="M68.54,142.8a1.7,1.7,0,0,1,0-.44.08.08,0,0,1,0-.05h0s0-.06,0-.08a2,2,0,0,1-1.81,1.47l-.1.53A2,2,0,0,0,68.54,142.8Z"/><path class="cls-16" d="M68.59,142.36a1.7,1.7,0,0,0,0,.44,1.23,1.23,0,0,0,1.12,1.32,2,2,0,0,0,1.9-1.53,1.93,1.93,0,0,0,0-.47,2,2,0,0,1-1.88,1.47,1.23,1.23,0,0,1-1.12-1.27h0A.08.08,0,0,0,68.59,142.36Z"/><path class="cls-16" d="M77.11,142.06a2,2,0,0,1-1.89,1.47,1.23,1.23,0,0,1-1.12-1.28s0,0,0,.05a1.3,1.3,0,0,0,1.08,1.76,2,2,0,0,0,1.9-1.52A2,2,0,0,0,77.11,142.06Z"/><path class="cls-16" d="M80.08,142.24l0-.05h0s0,0,0-.08a2,2,0,0,1-1.88,1.47,1.22,1.22,0,0,1-1.12-1.28s0,0,0,.05a1.3,1.3,0,0,0,1.07,1.76A2,2,0,0,0,80,142.68,1.7,1.7,0,0,1,80.08,142.24Z"/><path class="cls-16" d="M81.22,143.47a1.22,1.22,0,0,1-1.12-1.27h0l0,.05a1.7,1.7,0,0,0,0,.44A1.23,1.23,0,0,0,81.15,144a2,2,0,0,0,1.9-1.52,1.33,1.33,0,0,0,0-.48A1.93,1.93,0,0,1,81.22,143.47Z"/><path class="cls-16" d="M85.23,142.72s0,0,0,.05a1.31,1.31,0,0,0,1.08,1.76,1.64,1.64,0,0,0,1-.27l.16-.6a1.63,1.63,0,0,1-1.09.34A1.23,1.23,0,0,1,85.23,142.72Z"/><path class="cls-16" d="M70.44,129.56a2.15,2.15,0,0,0,2-1.55,2.09,2.09,0,0,0,.08-.48,2.15,2.15,0,0,1-2,1.5,1.08,1.08,0,0,1-.85-.48l-.1.54A1.08,1.08,0,0,0,70.44,129.56Z"/><path class="cls-16" d="M74.66,127.5l0,0c-.32.9.07,1.71.88,1.8a2.12,2.12,0,0,0,2.06-1.44,1.72,1.72,0,0,0,.1-.48,2.13,2.13,0,0,1-2,1.4A1.14,1.14,0,0,1,74.66,127.5Z"/><path class="cls-16" d="M80.64,127.68h0s0,0,0-.08a2.13,2.13,0,0,1-2,1.4,1.14,1.14,0,0,1-1-1.33l0,0c-.32.9.07,1.7.88,1.8a2.1,2.1,0,0,0,2-1.36,2.51,2.51,0,0,1,.1-.44S80.64,127.7,80.64,127.68Z"/><path class="cls-16" d="M83.56,128.08a1.65,1.65,0,0,0,.1-.47,2.13,2.13,0,0,1-2,1.4,1.13,1.13,0,0,1-1-1.32h0s0,0,0,0a2.51,2.51,0,0,0-.1.44,1.14,1.14,0,0,0,1,1.36A2.13,2.13,0,0,0,83.56,128.08Z"/><path class="cls-16" d="M87.55,128.83a1.14,1.14,0,0,1-1-1.33s0,0,0,0c-.33.9.06,1.71.88,1.8a2.14,2.14,0,0,0,2.06-1.44,2.94,2.94,0,0,0,.1-.48A2.14,2.14,0,0,1,87.55,128.83Z"/><path class="cls-16" d="M90.54,129a1.14,1.14,0,0,1-1-1.33s0,0,0,0c-.33.9.06,1.7.88,1.8a1.66,1.66,0,0,0,1-.23l.15-.54A1.7,1.7,0,0,1,90.54,129Z"/><path class="cls-16" d="M70.2,133a1.93,1.93,0,0,0,0-.47A2,2,0,0,1,68.66,134l-.1.53A2,2,0,0,0,70.2,133Z"/><path class="cls-16" d="M76.38,133.05a2.06,2.06,0,0,0,.05-.48A2,2,0,0,1,74.55,134a1.22,1.22,0,0,1-1.12-1.28.08.08,0,0,0,0,.05,1.3,1.3,0,0,0,1.07,1.76A2,2,0,0,0,76.38,133.05Z"/><path class="cls-16" d="M79.36,133.19a1.7,1.7,0,0,1,0-.44.08.08,0,0,1,0-.05h0s0-.06,0-.08a2,2,0,0,1-1.89,1.47,1.22,1.22,0,0,1-1.12-1.28.17.17,0,0,1,0,.05,1.31,1.31,0,0,0,1.08,1.76A2,2,0,0,0,79.36,133.19Z"/><path class="cls-16" d="M79.41,132.75a1.7,1.7,0,0,0,0,.44,1.23,1.23,0,0,0,1.12,1.32,2,2,0,0,0,1.9-1.53,1.93,1.93,0,0,0,.05-.47A2,2,0,0,1,80.55,134a1.23,1.23,0,0,1-1.12-1.27h0A.08.08,0,0,0,79.41,132.75Z"/><path class="cls-16" d="M86.62,134.23a1.23,1.23,0,0,1-1.12-1.29.14.14,0,0,0,0,.06,1.31,1.31,0,0,0,1.07,1.76,2,2,0,0,0,1.9-1.53,1.93,1.93,0,0,0,0-.47A2,2,0,0,1,86.62,134.23Z"/><path class="cls-16" d="M88.5,133a.14.14,0,0,1,0,.06,1.31,1.31,0,0,0,1.07,1.76,1.37,1.37,0,0,0,.35,0l.15-.55a1.53,1.53,0,0,1-.43,0A1.23,1.23,0,0,1,88.5,133Z"/><path class="cls-16" d="M74.91,118.64a2.18,2.18,0,0,0,2.16-1.92,2.12,2.12,0,0,1-2,1.39,1.13,1.13,0,0,1-1-1.32.08.08,0,0,0,0,0C73.7,117.74,74.09,118.54,74.91,118.64Z"/><path class="cls-16" d="M78,118.29A1.14,1.14,0,0,1,77,117l0,.06a1.23,1.23,0,0,0,.88,1.8,2.11,2.11,0,0,0,2-1.37A2.41,2.41,0,0,1,80,117l0-.06v0s0-.06,0-.08A2.11,2.11,0,0,1,78,118.29Z"/><path class="cls-16" d="M80,117a2.41,2.41,0,0,0-.1.43,1.16,1.16,0,0,0,1,1.37A2.14,2.14,0,0,0,83,117.37a1.65,1.65,0,0,0,.1-.47,2.12,2.12,0,0,1-2,1.39A1.13,1.13,0,0,1,80,117v0Z"/><path class="cls-16" d="M86.07,119.67a2.15,2.15,0,0,0,2.06-1.45,2.08,2.08,0,0,0,.1-.47,2.13,2.13,0,0,1-2,1.39,1.14,1.14,0,0,1-1-1.33.14.14,0,0,0,0,.06A1.23,1.23,0,0,0,86.07,119.67Z"/><path class="cls-16" d="M91.2,118h0a.19.19,0,0,1,0-.07,2.15,2.15,0,0,1-2,1.39,1.14,1.14,0,0,1-1-1.33.17.17,0,0,0,0,.05c-.33.9.06,1.71.88,1.8a2.12,2.12,0,0,0,2-1.36,1.81,1.81,0,0,1,.09-.44Z"/><path class="cls-16" d="M92.18,119.32a1.13,1.13,0,0,1-1-1.32h0l0,.05a1.81,1.81,0,0,0-.09.44,1.13,1.13,0,0,0,1,1.36,2.12,2.12,0,0,0,2.06-1.44,1.72,1.72,0,0,0,.1-.48A2.13,2.13,0,0,1,92.18,119.32Z"/><path class="cls-16" d="M75.24,123a2,2,0,0,0,.05-.48A2,2,0,0,1,73.41,124a1.23,1.23,0,0,1-1.13-1.28.08.08,0,0,1,0,0,1.31,1.31,0,0,0,1.08,1.76A2,2,0,0,0,75.24,123Z"/><path class="cls-16" d="M75.29,122.76s0,0,0,0a1.3,1.3,0,0,0,1.07,1.76,1.94,1.94,0,0,0,1.87-1.44,1.75,1.75,0,0,1,.05-.44s0,0,0,0h0s0-.05,0-.08A2,2,0,0,1,76.41,124,1.22,1.22,0,0,1,75.29,122.76Z"/><path class="cls-16" d="M78.26,122.69a1.75,1.75,0,0,0-.05.44,1.23,1.23,0,0,0,1.12,1.32,2,2,0,0,0,1.91-1.52,1.59,1.59,0,0,0,0-.48,1.93,1.93,0,0,1-1.88,1.47,1.22,1.22,0,0,1-1.12-1.27h0S78.27,122.67,78.26,122.69Z"/><path class="cls-16" d="M86.37,123.46a2,2,0,0,0,0-.48,2,2,0,0,1-1.88,1.47,1.23,1.23,0,0,1-1.13-1.28.08.08,0,0,1,0,0A1.31,1.31,0,0,0,84.47,125,2,2,0,0,0,86.37,123.46Z"/><path class="cls-16" d="M89.39,123.16s0,0,0,0h0s0-.05,0-.08a2,2,0,0,1-1.88,1.47,1.22,1.22,0,0,1-1.12-1.28s0,0,0,0A1.3,1.3,0,0,0,87.47,125a1.94,1.94,0,0,0,1.87-1.44A1.75,1.75,0,0,1,89.39,123.16Z"/><path class="cls-16" d="M90.53,124.39a1.23,1.23,0,0,1-1.12-1.27h0s0,0,0,0a1.75,1.75,0,0,0,0,.44,1.23,1.23,0,0,0,1.13,1.32,2,2,0,0,0,1.9-1.52,2,2,0,0,0,0-.48A2,2,0,0,1,90.53,124.39Z"/><path class="cls-16" d="M75.75,108.36a1.72,1.72,0,0,0,.1-.48,2.13,2.13,0,0,1-2,1.4,1.15,1.15,0,0,1-.43-.14l-.1.53a1,1,0,0,0,.4.13A2.12,2.12,0,0,0,75.75,108.36Z"/><path class="cls-16" d="M76.68,110a2.1,2.1,0,0,0,2-1.36,2.51,2.51,0,0,1,.1-.44l0-.05h0s0,0,0-.08a2.13,2.13,0,0,1-2,1.4,1.14,1.14,0,0,1-1-1.33l0,.05C75.48,109.08,75.87,109.88,76.68,110Z"/><path class="cls-16" d="M78.8,108.18a2.51,2.51,0,0,0-.1.44,1.15,1.15,0,0,0,1,1.36,2.13,2.13,0,0,0,2.06-1.45,1.65,1.65,0,0,0,.1-.47,2.13,2.13,0,0,1-2,1.4,1.13,1.13,0,0,1-1-1.32h0Z"/><path class="cls-16" d="M84.73,108c-.33.9.07,1.71.88,1.8a2.14,2.14,0,0,0,2.06-1.44,2.16,2.16,0,0,0,.1-.48,2.14,2.14,0,0,1-2,1.4,1.14,1.14,0,0,1-1-1.33A.17.17,0,0,0,84.73,108Z"/><path class="cls-16" d="M90.74,108.13h0a.31.31,0,0,1,0-.08,2.14,2.14,0,0,1-2,1.4,1.14,1.14,0,0,1-1-1.33s0,0,0,.05c-.33.9.06,1.7.88,1.8a2.12,2.12,0,0,0,2-1.36,1.81,1.81,0,0,1,.09-.44Z"/><path class="cls-16" d="M93.65,108.53a1.65,1.65,0,0,0,.1-.47,2.13,2.13,0,0,1-2,1.4,1.13,1.13,0,0,1-1-1.32h0l0,.05a1.81,1.81,0,0,0-.09.44,1.13,1.13,0,0,0,1,1.36A2.12,2.12,0,0,0,93.65,108.53Z"/><path class="cls-16" d="M74.56,113.5a2.06,2.06,0,0,0,0-.48,2,2,0,0,1-1.88,1.47,1.21,1.21,0,0,1-.34-.09l-.1.52a1.13,1.13,0,0,0,.37.1A2,2,0,0,0,74.56,113.5Z"/><path class="cls-16" d="M75.67,115.08a2,2,0,0,0,1.87-1.44,1.7,1.7,0,0,1,0-.44s0,0,0,0h0s0,0,0-.08a2,2,0,0,1-1.89,1.47,1.23,1.23,0,0,1-1.12-1.28.17.17,0,0,1,0,0A1.32,1.32,0,0,0,75.67,115.08Z"/><path class="cls-16" d="M77.59,113.2a1.7,1.7,0,0,0,0,.44A1.23,1.23,0,0,0,78.66,115a2,2,0,0,0,1.9-1.52,2.06,2.06,0,0,0,0-.48,2,2,0,0,1-1.88,1.47,1.23,1.23,0,0,1-1.12-1.27h0S77.59,113.18,77.59,113.2Z"/><path class="cls-16" d="M86.63,113.68a1.93,1.93,0,0,0,.05-.47,2,2,0,0,1-1.88,1.47,1.22,1.22,0,0,1-1.12-1.28.08.08,0,0,0,0,0,1.31,1.31,0,0,0,1.07,1.76A2,2,0,0,0,86.63,113.68Z"/><path class="cls-16" d="M89.61,113.83a1.7,1.7,0,0,1,0-.44.14.14,0,0,1,0-.06v0s0-.06,0-.08a2,2,0,0,1-1.89,1.47,1.23,1.23,0,0,1-1.12-1.29.14.14,0,0,1,0,.06,1.31,1.31,0,0,0,1.08,1.76A2,2,0,0,0,89.61,113.83Z"/><path class="cls-16" d="M89.66,113.39a1.7,1.7,0,0,0,0,.44,1.24,1.24,0,0,0,1.12,1.32,2,2,0,0,0,1.9-1.53,1.93,1.93,0,0,0,.05-.47,2,2,0,0,1-1.88,1.47,1.23,1.23,0,0,1-1.12-1.27v0A.14.14,0,0,0,89.66,113.39Z"/><path class="cls-16" d="M105.21,137a3.36,3.36,0,0,1-.16.33l.06.27a.78.78,0,0,0,0-.14A1.85,1.85,0,0,0,105.21,137Z"/><path class="cls-16" d="M106.29,138.92a2.14,2.14,0,0,0,1.88-1.54,1.3,1.3,0,0,1,0-.43l0,0h0s0,0,0-.08a2.12,2.12,0,0,1-1.88,1.58,1.13,1.13,0,0,1-1.15-1.16s0,0,0,.05a1.34,1.34,0,0,0,0,.44l.14.6A1.1,1.1,0,0,0,106.29,138.92Z"/><path class="cls-16" d="M108.21,137a1.3,1.3,0,0,0,0,.43,1.12,1.12,0,0,0,1.14,1.2,2.13,2.13,0,0,0,1.9-1.63,1.85,1.85,0,0,0,.05-.46,2.13,2.13,0,0,1-1.88,1.57,1.13,1.13,0,0,1-1.15-1.15h0Z"/><path class="cls-16" d="M116.75,135.73a2.12,2.12,0,0,1-2,1.37,1.14,1.14,0,0,1-1-1.3l0,0a1.2,1.2,0,0,0,.9,1.76,2.09,2.09,0,0,0,2-1.42A1.59,1.59,0,0,0,116.75,135.73Z"/><path class="cls-16" d="M119.72,136h0a.19.19,0,0,0,0-.07,2.09,2.09,0,0,1-2,1.36,1.13,1.13,0,0,1-1-1.3s0,0,0,.05a1.22,1.22,0,0,0,.9,1.77,2.11,2.11,0,0,0,2-1.34,1.74,1.74,0,0,1,.09-.43S119.72,136,119.72,136Z"/><path class="cls-16" d="M120.72,137.27a1.13,1.13,0,0,1-1-1.29h0s0,0,0,.05a1.74,1.74,0,0,0-.09.43,1.13,1.13,0,0,0,1,1.34,2.11,2.11,0,0,0,2-1.42,2.08,2.08,0,0,0,.1-.47A2.09,2.09,0,0,1,120.72,137.27Z"/><path class="cls-16" d="M106.51,141.7a.08.08,0,0,0,0,0h0s0,0,0-.07a1.85,1.85,0,0,1-.31.63l.07.31a2.2,2.2,0,0,0,.17-.39A1.68,1.68,0,0,1,106.51,141.7Z"/><path class="cls-16" d="M106.51,141.7a1.68,1.68,0,0,0,0,.44,1.23,1.23,0,0,0,1.13,1.29,1.94,1.94,0,0,0,1.89-1.5,1.46,1.46,0,0,0,0-.46,1.92,1.92,0,0,1-1.87,1.44,1.24,1.24,0,0,1-1.13-1.25h0A.08.08,0,0,1,106.51,141.7Z"/><path class="cls-16" d="M115,141.41a1.93,1.93,0,0,1-1.87,1.45A1.25,1.25,0,0,1,112,141.6a.43.43,0,0,0,0,.05,1.29,1.29,0,0,0,1.09,1.72,1.93,1.93,0,0,0,1.93-2Z"/><path class="cls-16" d="M115,141.65s0,0,0,.06a1.41,1.41,0,0,0,.32,1.37l.92-.17h-.09A1.23,1.23,0,0,1,115,141.65Z"/><path class="cls-16" d="M118,141.59a.17.17,0,0,0,0-.05h0s0-.05,0-.08a2,2,0,0,1-1.19,1.33l.8-.15A2.08,2.08,0,0,0,118,142,2.15,2.15,0,0,1,118,141.59Z"/><path class="cls-16" d="M118,141.55h0a.17.17,0,0,1,0,.05,2.15,2.15,0,0,0,0,.43,1.38,1.38,0,0,0,.11.55l.4-.07A1.34,1.34,0,0,1,118,141.55Z"/><path class="cls-16" d="M104.19,127.8a2,2,0,0,0,.07-.46,2.25,2.25,0,0,1-1.3,1.35l.11.44A2.28,2.28,0,0,0,104.19,127.8Z"/><path class="cls-16" d="M107.26,127.4h0s0,0,0-.07a2.13,2.13,0,0,1-2,1.47,1.13,1.13,0,0,1-1.07-1.24.14.14,0,0,0,0,.06,1.2,1.2,0,0,0,1,1.7,2.13,2.13,0,0,0,1.94-1.44,2.36,2.36,0,0,1,.07-.44A.08.08,0,0,0,107.26,127.4Z"/><path class="cls-16" d="M108.33,128.64a1.13,1.13,0,0,1-1.07-1.23h0a.08.08,0,0,1,0,0,2.36,2.36,0,0,0-.07.44,1.13,1.13,0,0,0,1.07,1.26,2.12,2.12,0,0,0,2-1.52,2,2,0,0,0,.07-.47A2.13,2.13,0,0,1,108.33,128.64Z"/><path class="cls-16" d="M115.36,127.53a2,2,0,0,0,.09-.46,2.08,2.08,0,0,1-2,1.36,1.13,1.13,0,0,1-1-1.3l0,.05a1.22,1.22,0,0,0,.9,1.77A2.12,2.12,0,0,0,115.36,127.53Z"/><path class="cls-16" d="M118.43,127.31h0s0,0,0-.08a2.1,2.1,0,0,1-2,1.37,1.13,1.13,0,0,1-1-1.3.08.08,0,0,0,0,0,1.2,1.2,0,0,0,.89,1.76,2.08,2.08,0,0,0,2-1.33,1.65,1.65,0,0,1,.09-.43Z"/><path class="cls-16" d="M118.43,127.32h0l0,0a1.65,1.65,0,0,0-.09.43,1.13,1.13,0,0,0,1,1.33,2.09,2.09,0,0,0,2-1.42,1.59,1.59,0,0,0,.1-.46,2.1,2.1,0,0,1-2,1.37A1.13,1.13,0,0,1,118.43,127.32Z"/><path class="cls-16" d="M105,132.71a2.15,2.15,0,0,1,0-.43.17.17,0,0,0,0-.05h0s0-.05,0-.08a2,2,0,0,1-1,1.24l.1.41A2.07,2.07,0,0,0,105,132.71Z"/><path class="cls-16" d="M105.05,132.28a2.15,2.15,0,0,0,0,.43,1.23,1.23,0,0,0,1.13,1.3,1.94,1.94,0,0,0,1.89-1.5,1.52,1.52,0,0,0,0-.47,1.92,1.92,0,0,1-1.86,1.45,1.24,1.24,0,0,1-1.14-1.25h0A.17.17,0,0,1,105.05,132.28Z"/><path class="cls-16" d="M114.22,132.57a2.56,2.56,0,0,0,0-.47,1.92,1.92,0,0,1-1.87,1.45,1.24,1.24,0,0,1-1.13-1.26.08.08,0,0,0,0,.05,1.29,1.29,0,0,0,1.09,1.72A1.92,1.92,0,0,0,114.22,132.57Z"/><path class="cls-16" d="M115.33,134.12a1.91,1.91,0,0,0,1.86-1.41,1.63,1.63,0,0,1,0-.43.08.08,0,0,1,0-.05h0a.22.22,0,0,0,0-.08,1.91,1.91,0,0,1-1.86,1.44,1.23,1.23,0,0,1-1.14-1.26.14.14,0,0,1,0,.06A1.29,1.29,0,0,0,115.33,134.12Z"/><path class="cls-16" d="M117.24,132.28a1.63,1.63,0,0,0,0,.43,1.24,1.24,0,0,0,1.14,1.3,1.94,1.94,0,0,0,1.93-2,1.93,1.93,0,0,1-1.87,1.45,1.23,1.23,0,0,1-1.13-1.25h0A.08.08,0,0,0,117.24,132.28Z"/><path class="cls-16" d="M103.15,118.3a1.93,1.93,0,0,0,0-.47,2.12,2.12,0,0,1-1.88,1.58,1.08,1.08,0,0,1-.65-.22l.15.65a1.18,1.18,0,0,0,.43.09A2.13,2.13,0,0,0,103.15,118.3Z"/><path class="cls-16" d="M106.2,117.78s0,0,0,0h0s0,0,0-.08a2.13,2.13,0,0,1-1.88,1.57,1.12,1.12,0,0,1-1.15-1.16.14.14,0,0,1,0,.06,1.19,1.19,0,0,0,1.11,1.62,2.13,2.13,0,0,0,1.87-1.54A2.15,2.15,0,0,1,106.2,117.78Z"/><path class="cls-16" d="M109.21,117.78a1.48,1.48,0,0,0,0-.46,2.13,2.13,0,0,1-1.88,1.57,1.13,1.13,0,0,1-1.15-1.15h0s0,0,0,0a2.15,2.15,0,0,0,0,.43,1.12,1.12,0,0,0,1.15,1.2A2.14,2.14,0,0,0,109.21,117.78Z"/><path class="cls-16" d="M112.72,117.93a1.13,1.13,0,0,1-1-1.31l0,.06a1.22,1.22,0,0,0,.9,1.76,2.11,2.11,0,0,0,2.05-1.42,2,2,0,0,0,.09-.46A2.1,2.1,0,0,1,112.72,117.93Z"/><path class="cls-16" d="M117.72,116.8s0,0,0,0,0,0,0-.08a2.1,2.1,0,0,1-2,1.37,1.13,1.13,0,0,1-1-1.3l0,0a1.21,1.21,0,0,0,.9,1.76,2.09,2.09,0,0,0,2-1.33,1.74,1.74,0,0,1,.09-.43Z"/><path class="cls-16" d="M118.71,118.1a1.13,1.13,0,0,1-1-1.29s0,0,0,0l0,0a1.74,1.74,0,0,0-.09.43,1.13,1.13,0,0,0,1,1.33,2,2,0,0,0,1.81-1l-.06-.28A2,2,0,0,1,118.71,118.1Z"/><path class="cls-16" d="M101.47,122.52l0,.13c0-.1,0-.2,0-.29Z"/><path class="cls-16" d="M102.6,124.37a1.9,1.9,0,0,0,1.86-1.41,2.15,2.15,0,0,1,0-.43s0,0,0,0h0v-.08a1.92,1.92,0,0,1-1.87,1.45,1.24,1.24,0,0,1-1.13-1.26.17.17,0,0,1,0,.05v0l.32,1.35A1.22,1.22,0,0,0,102.6,124.37Z"/><path class="cls-16" d="M104.5,122.53a2.15,2.15,0,0,0,0,.43,1.23,1.23,0,0,0,1.13,1.3,1.94,1.94,0,0,0,1.89-1.5,1.46,1.46,0,0,0,0-.46,1.92,1.92,0,0,1-1.86,1.44,1.22,1.22,0,0,1-1.13-1.25h0S104.51,122.51,104.5,122.53Z"/><path class="cls-16" d="M113,122.71a1.93,1.93,0,0,0,0-.47,1.91,1.91,0,0,1-1.87,1.44,1.23,1.23,0,0,1-1.13-1.26.14.14,0,0,0,0,.06,1.29,1.29,0,0,0,1.09,1.72A1.91,1.91,0,0,0,113,122.71Z"/><path class="cls-16" d="M113,122.48a.08.08,0,0,1,0,0,1.3,1.3,0,0,0,1.09,1.73,1.93,1.93,0,0,0,1.86-1.41,1.63,1.63,0,0,1,0-.43s0,0,0-.06v-.06a1.92,1.92,0,0,1-1.86,1.44A1.23,1.23,0,0,1,113,122.48Z"/><path class="cls-16" d="M116,122.42a1.63,1.63,0,0,0,0,.43,1.23,1.23,0,0,0,1.14,1.29,1.93,1.93,0,0,0,1.93-2,1.92,1.92,0,0,1-1.87,1.44,1.21,1.21,0,0,1-1.13-1.24v0S116,122.4,116,122.42Z"/><path class="cls-16" d="M100.2,110.15a2.11,2.11,0,0,0,2-1.52,1.58,1.58,0,0,0,.07-.47,2.1,2.1,0,0,1-2,1.47,1.13,1.13,0,0,1-1.08-1.23s0,0,0,0A1.2,1.2,0,0,0,100.2,110.15Z"/><path class="cls-16" d="M105.25,108.23h0s0,0,0-.08a2.13,2.13,0,0,1-2,1.48,1.13,1.13,0,0,1-1.07-1.24.08.08,0,0,1,0,0,1.2,1.2,0,0,0,1,1.7,2.09,2.09,0,0,0,1.94-1.44,2.26,2.26,0,0,1,.07-.43S105.25,108.25,105.25,108.23Z"/><path class="cls-16" d="M106.23,110a2.11,2.11,0,0,0,2-1.52,1.62,1.62,0,0,0,.07-.47,2.11,2.11,0,0,1-2,1.47,1.11,1.11,0,0,1-1.07-1.22h0s0,0,0,0a2.26,2.26,0,0,0-.07.43A1.14,1.14,0,0,0,106.23,110Z"/><path class="cls-16" d="M111.42,109.26a1.13,1.13,0,0,1-1-1.3s0,0,0,.05a1.21,1.21,0,0,0,.89,1.77,2.12,2.12,0,0,0,2-1.42,2.08,2.08,0,0,0,.1-.47A2.12,2.12,0,0,1,111.42,109.26Z"/><path class="cls-16" d="M116.42,108.13h0a.19.19,0,0,1,0-.07,2.12,2.12,0,0,1-2,1.37,1.14,1.14,0,0,1-1-1.31.14.14,0,0,0,0,.06,1.21,1.21,0,0,0,.9,1.76,2.09,2.09,0,0,0,2-1.34,1.78,1.78,0,0,1,.1-.43A.17.17,0,0,1,116.42,108.13Z"/><path class="cls-16" d="M117.41,109.43a1.12,1.12,0,0,1-1-1.29h0a.17.17,0,0,0,0,.05,1.78,1.78,0,0,0-.1.43,1.14,1.14,0,0,0,1,1.34,1.87,1.87,0,0,0,1.34-.45l-.08-.37A1.71,1.71,0,0,1,117.41,109.43Z"/><path class="cls-16" d="M100.07,112.93a1.91,1.91,0,0,1-1.87,1.44,1.23,1.23,0,0,1-1.13-1.26.14.14,0,0,0,0,.06,1.29,1.29,0,0,0,1.09,1.72,1.93,1.93,0,0,0,1.93-2Z"/><path class="cls-16" d="M103.05,113.11s0,0,0-.06V113a1.92,1.92,0,0,1-1.86,1.44,1.23,1.23,0,0,1-1.14-1.26.08.08,0,0,1,0,0,1.3,1.3,0,0,0,1.09,1.73,1.91,1.91,0,0,0,1.86-1.41A1.63,1.63,0,0,1,103.05,113.11Z"/><path class="cls-16" d="M104.14,114.83a1.93,1.93,0,0,0,1.93-2,1.92,1.92,0,0,1-1.87,1.44,1.21,1.21,0,0,1-1.13-1.24v0s0,0,0,.06a1.63,1.63,0,0,0,0,.43A1.23,1.23,0,0,0,104.14,114.83Z"/><path class="cls-16" d="M110.32,114.89a1.92,1.92,0,0,0,1.89-1.49,1.52,1.52,0,0,0,0-.47,1.91,1.91,0,0,1-1.87,1.44,1.23,1.23,0,0,1-1.13-1.26.14.14,0,0,1,0,.06A1.29,1.29,0,0,0,110.32,114.89Z"/><path class="cls-16" d="M112.26,113.17a.17.17,0,0,0,0,0,1.3,1.3,0,0,0,1.09,1.73,1.91,1.91,0,0,0,1.85-1.41,1.63,1.63,0,0,1,0-.43.14.14,0,0,1,0-.06v0s0-.06,0-.08a1.93,1.93,0,0,1-1.87,1.44A1.23,1.23,0,0,1,112.26,113.17Z"/><path class="cls-16" d="M115.23,113.11a1.63,1.63,0,0,0,0,.43,1.24,1.24,0,0,0,1.14,1.29,1.88,1.88,0,0,0,1.93-2,1.91,1.91,0,0,1-1.87,1.44,1.21,1.21,0,0,1-1.13-1.24v0A.14.14,0,0,0,115.23,113.11Z"/><path class="cls-16" d="M92.83,100.79a2,2,0,0,0,1.73-.86L94,100a1.72,1.72,0,0,1-1,.22s-.06,0-.1,0l-.77.13A1.06,1.06,0,0,0,92.83,100.79Z"/><path class="cls-16" d="M98.74,100.86a2.09,2.09,0,0,0,2-1.4l-.19,0a2,2,0,0,1-1.73.86,1.09,1.09,0,0,1-.76-.43l-.33,0A1.09,1.09,0,0,0,98.74,100.86Z"/><path class="cls-16" d="M103.92,101.7a2.1,2.1,0,0,0,2-1.42,1.65,1.65,0,0,0,.1-.47,2.11,2.11,0,0,1-2,1.37,1.12,1.12,0,0,1-1-1.3l0,.05A1.22,1.22,0,0,0,103.92,101.7Z"/><path class="cls-16" d="M106,100.11a1.22,1.22,0,0,0,.9,1.76,2.1,2.1,0,0,0,2-1.34,1.74,1.74,0,0,1,.09-.43.08.08,0,0,0,0,0h0a.19.19,0,0,0,0-.07,2.11,2.11,0,0,1-2,1.37,1.13,1.13,0,0,1-1-1.31Z"/><path class="cls-16" d="M109,100.1a1.74,1.74,0,0,0-.09.43,1.13,1.13,0,0,0,1,1.34,2.11,2.11,0,0,0,2-1.42,1.59,1.59,0,0,0,.1-.46,2.09,2.09,0,0,1-2,1.36,1.12,1.12,0,0,1-1-1.29h0A.08.08,0,0,1,109,100.1Z"/><path class="cls-16" d="M77,106.06a2,2,0,0,0,1.9-1.53,1.93,1.93,0,0,0,0-.47,2,2,0,0,1-1.89,1.47,1.23,1.23,0,0,1-1.12-1.29.14.14,0,0,1,0,.06A1.31,1.31,0,0,0,77,106.06Z"/><path class="cls-16" d="M80,106.12a2,2,0,0,0,1.87-1.44,1.7,1.7,0,0,1,0-.44s0,0,0-.06v0s0-.06,0-.08a2,2,0,0,1-1.88,1.47A1.23,1.23,0,0,1,79,104.3a.14.14,0,0,0,0,.06A1.31,1.31,0,0,0,80,106.12Z"/><path class="cls-16" d="M81.92,104.24a1.7,1.7,0,0,0,0,.44A1.24,1.24,0,0,0,83,106a2,2,0,0,0,1.9-1.53,1.28,1.28,0,0,0,0-.47,1.94,1.94,0,0,1-1.88,1.47,1.23,1.23,0,0,1-1.12-1.27v0S81.93,104.22,81.92,104.24Z"/><path class="cls-16" d="M88.49,105.94a2,2,0,0,0,1.9-1.52,2.06,2.06,0,0,0,0-.48,2,2,0,0,1-1.88,1.47,1.23,1.23,0,0,1-1.13-1.28s0,0,0,.05A1.3,1.3,0,0,0,88.49,105.94Z"/><path class="cls-16" d="M91.49,106a2,2,0,0,0,1.87-1.44,2.28,2.28,0,0,1,0-.44s0,0,0-.05h0s0,0,0-.08a2,2,0,0,1-1.88,1.47,1.22,1.22,0,0,1-1.12-1.28s0,0,0,0A1.3,1.3,0,0,0,91.49,106Z"/><path class="cls-16" d="M93.41,104.12a2.28,2.28,0,0,0,0,.44,1.23,1.23,0,0,0,1.13,1.32,2,2,0,0,0,1.9-1.52,2.06,2.06,0,0,0,0-.48,2,2,0,0,1-1.89,1.47,1.23,1.23,0,0,1-1.12-1.27h0S93.42,104.1,93.41,104.12Z"/><path class="cls-16" d="M102.37,106.91a1.94,1.94,0,0,0,1.89-1.5,1.46,1.46,0,0,0,0-.46,1.92,1.92,0,0,1-1.87,1.44,1.23,1.23,0,0,1-1.13-1.26.17.17,0,0,0,0,.05A1.3,1.3,0,0,0,102.37,106.91Z"/><path class="cls-16" d="M107.28,105.12a.17.17,0,0,1,0-.05h0s0,0,0-.07a1.93,1.93,0,0,1-1.87,1.44,1.23,1.23,0,0,1-1.14-1.26s0,0,0,0a1.3,1.3,0,0,0,1.08,1.73,1.93,1.93,0,0,0,1.86-1.41A1.7,1.7,0,0,1,107.28,105.12Z"/><path class="cls-16" d="M110.25,105.36a2,2,0,0,0,0-.47,1.93,1.93,0,0,1-1.87,1.44,1.22,1.22,0,0,1-1.13-1.25h0a.17.17,0,0,0,0,.05,1.7,1.7,0,0,0,0,.44,1.23,1.23,0,0,0,1.14,1.29A1.94,1.94,0,0,0,110.25,105.36Z"/></g><path class="cls-13" d="M121.45,56.76c-2.19,3.6-6.54,10.71-8.6,14.05l.78.81L122.47,58C122.14,57.56,121.79,57.15,121.45,56.76Z"/><path class="cls-13" d="M114.81,51c-1.61,3.41-5.06,10.62-6.94,14.55l.81.85,7.43-14.53C115.66,51.59,115.23,51.3,114.81,51Z"/><path class="cls-20" d="M76.71,57.54l-2.59-5.15A30.58,30.58,0,0,0,63,67.47l2.35,2.82c2.79-.42,6-2.53,8.41-5.86A15.91,15.91,0,0,0,76.71,57.54Z"/><path class="cls-13" d="M74.94,75.07,65.05,62c-.24.4-.46.82-.69,1.25l9.79,12.94Z"/><path class="cls-13" d="M79.23,69.05l-9.83-13c-.29.32-.58.65-.87,1l9.92,13.11Z"/><circle class="cls-19" cx="94.02" cy="79.03" r="8.5" transform="translate(-10.93 15.22) rotate(-8.75)"/><path class="cls-20" d="M94,71.1a7.47,7.47,0,0,0-6.68,4.13,7.48,7.48,0,0,0,13.36,0A7.46,7.46,0,0,0,94,71.1Z"/><path class="cls-14" d="M92.82,79a1.2,1.2,0,1,0,1.2-1.2A1.2,1.2,0,0,0,92.82,79Z"/><path class="cls-17" d="M80.49,21.45C81,26.7,82.37,40.84,82.62,42s6,3.13,9.38,3.13,8-2.75,8.76-3.88-.63-20.27-.63-20.27-3.3-3.37-10-3.12C86.75,17.94,80.49,21.45,80.49,21.45Z"/><path class="cls-23" d="M101.19,21a11.37,11.37,0,0,0-2.94-1.82c.16,2.27-.55,15.57-1.12,16.42s-2.91,1.6-5.72,1.6-5.89-.1-6.1-1-2.83-11-3.3-15.94c-1.56.71-2.67,1.29-2.67,1.29.56,5.54.87,20.47,1.15,21.65s8.19,5,12,5,9.69-5.89,10.52-7.08S101.19,21,101.19,21Z"/><path class="cls-24" d="M101.19,21a8.5,8.5,0,0,0-1.3-.95c.32,2.21,1.61,19.2.93,20.31s-5.14,7.22-8.43,7.22-10.53-4.16-10.77-5.34-.41-15.56-.85-21.43c-.87.42-1.43.71-1.43.71.56,5.54.5,20.84.78,22s8.78,5.22,12.54,5.22,10-6.41,10.85-7.6S101.19,21,101.19,21Z"/><path class="cls-25" d="M89.12,25.86,89,37.08a13.61,13.61,0,0,0,2.5,1.19c.31-.06,2.37-1.21,2.37-1.21L92,25.51Z"/><path class="cls-17" d="M89.06,25l.34,11.62a10.24,10.24,0,0,0,2,.8c.25-.06,2-.83,2-.83L92.25,24.85Z"/><path class="cls-26" d="M75.86,22.57C75.86,31,74.8,54,74.8,54a21.26,21.26,0,0,0,11,12.57c-7-16-4.63-28.52-5-45.58Z"/><path class="cls-27" d="M80.66,39.49c0-5.77.25-11.76.11-18.46l-4.91,1.54c0,2.26-.07,5.59-.19,9.24A31.61,31.61,0,0,1,80.66,39.49Z"/><path class="cls-26" d="M103.32,21.57c1.74,8.2,7.32,28.34,7.32,28.34S110,58.1,102,64.53c2.68-20.82.61-27.25-1.95-44.71Z"/><path class="cls-27" d="M106.25,33.57c-1.18-4.55-2.3-9-2.93-12L100,19.82c1.44,9.84,2.73,16.18,3.1,23.57A59.74,59.74,0,0,1,106.25,33.57Z"/><path class="cls-19" d="M75.49,23.85c10.33-2.36,19.29-2.88,28.24-1.59,0,0-.23-7.55-3.75-13C98,6.22,88.78,4.13,88.4,0c-.34,4.71-7.64,6.45-9.8,9.7C74.68,15.6,75.49,23.85,75.49,23.85Z"/><path class="cls-20" d="M100,10.73a17.18,17.18,0,0,0-.85-1.51C97.34,6.46,89,4.58,88.7.86c-.21,2.87-3.3,4.52-5.87,6.19.41,5.24,4.3,9.35,9,9.35A9,9,0,0,0,100,10.73Z"/><path class="cls-28" d="M96.1,29.42c0-1-.46-1.78-1-1.78s-1,.8-1,1.78.45,1.78,1,1.78S96.1,30.41,96.1,29.42Z"/><path class="cls-28" d="M87.87,29.42c0-1-.45-1.78-1-1.78s-1,.8-1,1.78.46,1.78,1,1.78S87.87,30.41,87.87,29.42Z"/><path class="cls-23" d="M82.17,26c2.39.51,11.72,1.87,17-.94l1.12,2.25s-5.15,2.38-9.38,2.35a30.85,30.85,0,0,1-8.77-1.08Z"/><path class="cls-20" d="M104.7,21.19c-10.7-.89-19-.91-30.24,1.13v2.25c11.47-2.41,18.72-2.84,30.24-1.12Z"/><path class="cls-28" d="M87.44,41.88l-.93-.31a13.3,13.3,0,0,1,10.66-1.89l-.26.47A11.69,11.69,0,0,0,87.44,41.88Z"/><path class="cls-28" d="M94.52,40.94a1.69,1.69,0,0,0-1.69-.5c-.84.19-1.41,1-1.36,1.21s.7-.23,1.54-.42S94.57,41.16,94.52,40.94Z"/><polygon class="cls-19" points="91.03 12.28 89.83 12.59 89 21.73 90.88 32.14 92.25 21.76 91.03 12.28"/><polygon class="cls-20" points="90.91 13.81 90.07 14.03 89.5 20.36 90.8 27.58 91.75 20.38 90.91 13.81"/><path class="cls-6" d="M120.16,110.41c-.13-3.65,2.83-6.74,5.83-8.17s6.17-1.34,8.1.34l-.85,1c-1.53-1.33-4.1-1.39-6.69-.15s-5.2,3.89-5.09,7Z"/><path class="cls-6" d="M123.65,116.08c-.14-3.65,2.83-6.74,5.82-8.17s6.17-1.34,8.1.34l-.85,1c-1.53-1.33-4.09-1.39-6.69-.15s-5.2,3.89-5.09,7Z"/><path class="cls-20" d="M57.34,123.84c-3.9-.76-5.28-1.61-6.65-.77s-3.77,3.8-3.57,4.91,4.4,2.21,5.17,2.2,1.55-1.71,1.05-2.19-1.85-.8-1.75-1.17a2.23,2.23,0,0,1,.5-.76S56.8,126.42,57.34,123.84Z"/><path class="cls-20" d="M51.28,129.58c-.2-1.17-2.42-1.44-2.76-.85s-3,3.81-2.41,4.53,2.29,1.38,2.77,1S51.44,130.52,51.28,129.58Z"/><path class="cls-20" d="M54.58,130.24c-.2-1.17-2.42-1.44-2.76-.85s-3,3.81-2.41,4.53,2.29,1.38,2.77,1S54.74,131.18,54.58,130.24Z"/><path class="cls-20" d="M57.68,131.25c-.23-1.12-2.37-1.5-2.68-1s-2.7,3.46-2.16,4.17,2.25,1.44,2.7,1.08S57.86,132.16,57.68,131.25Z"/></g></g></g></svg>