<svg xmlns="http://www.w3.org/2000/svg" viewBox="0 0 107.05 173.72"><defs><style>.cls-1{isolation:isolate;}.cls-2{fill:#ff9566;}.cls-3{fill:#ffb94a;}.cls-4{fill:#f2992f;}.cls-5{fill:#7b8d8e;}.cls-6{fill:#677575;}.cls-7{fill:#ffb882;}.cls-8{fill:#a5533d;}.cls-9{fill:#893b2c;}.cls-10{fill:#c4a9a5;}.cls-11{fill:#a88983;}.cls-12{fill:#7c382a;}.cls-13{fill:#6b2e24;}.cls-14{fill:#593d36;}.cls-15{fill:#49302b;}.cls-16{fill:#35211e;}.cls-17{fill:#b2a690;}.cls-18{fill:#9b917c;}.cls-19{fill:#ea7b59;}.cls-20{fill:#512c26;}.cls-21{fill:#843131;opacity:0.6;mix-blend-mode:multiply;}.cls-22{fill:#847761;}.cls-23{fill:#9eafac;}.cls-24{fill:#879995;}.cls-25{fill:#b3c6c2;}.cls-26{fill:#aec4c0;}.cls-27{fill:#e8d0a6;}.cls-28{fill:#702a21;}.cls-29{fill:#c1d3d0;}.cls-30{fill:#d63440;}.cls-31{fill:#9bb2af;}.cls-32{fill:#bcddd8;}</style></defs><g class="cls-1"><g id="Layer_2" data-name="Layer 2"><g id="_11" data-name="11"><path class="cls-2" d="M97.19,80.34c1.44,2.3,1.06,4.34,1,5.75s-3.56,1.74-3.89,2.54A1.93,1.93,0,0,0,95.46,91c.81.1,5.16-2.48,5.67-3.08s1.07-6.11.17-8.35C99.78,75.73,95.32,77.35,97.19,80.34Z"/><path class="cls-2" d="M94.31,77c.92,1.66,1.62,2.78,1.3,3.82s-3.74,1-4.22,1.59A1.28,1.28,0,0,0,92,84.28c.78.18,5.64-1.44,6.27-1.87s1.47-2.87.89-4.56C98.26,75.18,93.19,74.93,94.31,77Z"/><path class="cls-2" d="M95.74,77.58c1,2.68,1.8,4.42,1.33,5.75s-4.62.48-5.22,1.14a1.89,1.89,0,0,0,.73,2.62c.92.36,6.66-.65,7.42-1.06s2-3.36,1.63-5.8C100.92,76.08,94.4,74.08,95.74,77.58Z"/><path class="cls-3" d="M63.57,58.88s3.22,7.06,4.6,8,21.34,4.3,23.34,5.22l-1.84,7.37S68.94,81.6,64,78.84s-8.91-10.9-8.91-10.9Z"/><path class="cls-4" d="M67.08,75.51c-.85-.85-.07-5.15.84-8.87-1.49-1.49-4.35-7.76-4.35-7.76l-8.45,9.06s4,8.13,8.91,10.9,25.64.61,25.64.61l.44-1.78C84.41,77.36,68,76.4,67.08,75.51Z"/><path class="cls-5" d="M52.1,39.91C62.06,46.74,68,62.78,68,62.78l-9.13,15.8S36.93,29.5,52.1,39.91Z"/><path class="cls-6" d="M56.39,71.72a1.51,1.51,0,0,0-.24-.39,2.27,2.27,0,0,1,.1,1.21c.08.19.15.38.23.56A2.18,2.18,0,0,0,56.39,71.72Z"/><path class="cls-6" d="M58.45,69.47h0a.25.25,0,0,0,0-.07,2.08,2.08,0,0,1-.54,2.34,1.09,1.09,0,0,1-1.58-.24.43.43,0,0,0,0,0,1.17,1.17,0,0,0,1.82.64,2.07,2.07,0,0,0,.55-2.32,1.79,1.79,0,0,1-.21-.36S58.46,69.49,58.45,69.47Z"/><path class="cls-6" d="M60.58,67.37A2.08,2.08,0,0,1,60,69.71a1.11,1.11,0,0,1-1.58-.23h0s0,0,0,0a1.79,1.79,0,0,0,.21.36,1.12,1.12,0,0,0,1.61.28,2.09,2.09,0,0,0,.53-2.4A1.51,1.51,0,0,0,60.58,67.37Z"/><path class="cls-6" d="M63.88,62.94a2,2,0,0,1-.78,2.26,1.1,1.1,0,0,1-1.54-.44s0,0,0,.06a1.19,1.19,0,0,0,1.74.86,2.06,2.06,0,0,0,.77-2.32A2,2,0,0,0,63.88,62.94Z"/><path class="cls-6" d="M66.35,61.39h0s0,0,0-.07a2,2,0,0,1-.77,2.26A1.12,1.12,0,0,1,64,63.15l0,.05a1.19,1.19,0,0,0,1.74.87,2.06,2.06,0,0,0,.77-2.25,1.4,1.4,0,0,1-.17-.37A.13.13,0,0,1,66.35,61.39Z"/><path class="cls-6" d="M66.36,61.4h0a.13.13,0,0,0,0,.06,1.4,1.4,0,0,0,.17.37,1.13,1.13,0,0,0,1.29.6c0-.13-.11-.3-.2-.49A1.12,1.12,0,0,1,66.36,61.4Z"/><path class="cls-6" d="M57.19,59.62A2.06,2.06,0,0,0,58,57.31a1.63,1.63,0,0,0-.2-.42A2.05,2.05,0,0,1,57,59.15a1.11,1.11,0,0,1-1.54-.44.11.11,0,0,0,0,0A1.19,1.19,0,0,0,57.19,59.62Z"/><path class="cls-6" d="M57.89,57.15a1.2,1.2,0,0,0,1.75.86,2,2,0,0,0,.77-2.24,1.63,1.63,0,0,1-.17-.38.13.13,0,0,1,0-.06h0l0-.07a2.06,2.06,0,0,1-.77,2.26,1.11,1.11,0,0,1-1.55-.44A.13.13,0,0,1,57.89,57.15Z"/><path class="cls-6" d="M60.24,55.39a1.63,1.63,0,0,0,.17.38,1.12,1.12,0,0,0,1.57.48,2.06,2.06,0,0,0,.57-2.73,2.06,2.06,0,0,1-.78,2.26,1.12,1.12,0,0,1-1.54-.44h0A.13.13,0,0,0,60.24,55.39Z"/><path class="cls-6" d="M55.16,65.52a1.51,1.51,0,0,0-.24-.39,1.89,1.89,0,0,1-.61,2.23.78.78,0,0,1-.14,0c.07.17.13.33.2.49l.19-.1A1.88,1.88,0,0,0,55.16,65.52Z"/><path class="cls-6" d="M59.18,63.78a1.21,1.21,0,0,1-1.63-.33s0,0,0,0a1.27,1.27,0,0,0,1.87.72A1.88,1.88,0,0,0,60,61.94a1.41,1.41,0,0,0-.24-.39A1.88,1.88,0,0,1,59.18,63.78Z"/><path class="cls-6" d="M62.44,60.3a1.42,1.42,0,0,1-.21-.36s0,0,0,0h0s0,0,0-.07a1.88,1.88,0,0,1-.61,2.23,1.2,1.2,0,0,1-1.63-.32s0,0,0,0a1.27,1.27,0,0,0,1.87.72A1.88,1.88,0,0,0,62.44,60.3Z"/><path class="cls-6" d="M62.23,59.94a1.42,1.42,0,0,0,.21.36,1.21,1.21,0,0,0,1.66.36,1.89,1.89,0,0,0,.59-2.28,1.51,1.51,0,0,0-.24-.39,1.88,1.88,0,0,1-.61,2.23,1.21,1.21,0,0,1-1.62-.32h0S62.22,59.93,62.23,59.94Z"/><path class="cls-6" d="M51.21,49.46A1.63,1.63,0,0,0,51,49a2.05,2.05,0,0,1-.78,2.26,1.1,1.1,0,0,1-1.54-.44.11.11,0,0,0,0,0,1.19,1.19,0,0,0,1.74.86A2.06,2.06,0,0,0,51.21,49.46Z"/><path class="cls-6" d="M52.88,50.16a2,2,0,0,0,.78-2.24,1.63,1.63,0,0,1-.17-.38.13.13,0,0,1,0-.06h0l0-.07a2,2,0,0,1-.78,2.26,1.1,1.1,0,0,1-1.54-.44.13.13,0,0,1,0,.06A1.19,1.19,0,0,0,52.88,50.16Z"/><path class="cls-6" d="M53.49,47.54a1.63,1.63,0,0,0,.17.38,1.12,1.12,0,0,0,1.57.48A2.06,2.06,0,0,0,56,46.09a1.63,1.63,0,0,0-.2-.42A2,2,0,0,1,55,47.93a1.12,1.12,0,0,1-1.54-.44h0A.13.13,0,0,0,53.49,47.54Z"/><path class="cls-6" d="M53,54.52a1.89,1.89,0,0,1-.61,2.23,1.21,1.21,0,0,1-1.63-.33s0,0,0,0a1.27,1.27,0,0,0,1.87.72,1.89,1.89,0,0,0,.59-2.28A1.51,1.51,0,0,0,53,54.52Z"/><path class="cls-6" d="M55.65,53.27a2.12,2.12,0,0,1-.21-.36s0,0,0,0h0a.25.25,0,0,0,0-.07A1.86,1.86,0,0,1,54.78,55a1.2,1.2,0,0,1-1.63-.32s0,0,0,0a1.27,1.27,0,0,0,1.87.72A1.88,1.88,0,0,0,55.65,53.27Z"/><path class="cls-6" d="M55.44,52.91a2.12,2.12,0,0,0,.21.36,1.21,1.21,0,0,0,1.66.36,1.89,1.89,0,0,0,.6-2.28,1.84,1.84,0,0,0-.24-.39,1.89,1.89,0,0,1-.61,2.23,1.22,1.22,0,0,1-1.63-.32h0S55.44,52.89,55.44,52.91Z"/><path class="cls-6" d="M59.75,50.26l0,.05a1.27,1.27,0,0,0,1.87.72,2,2,0,0,0,.26-.25c-.1-.14-.19-.29-.28-.43a1.31,1.31,0,0,1-.24.23A1.2,1.2,0,0,1,59.75,50.26Z"/><path class="cls-6" d="M47.54,41.86a1.46,1.46,0,0,1-.17-.38s0,0,0,0h0l0-.07a2.1,2.1,0,0,1-.5,2c0,.2.05.4.07.61A2.09,2.09,0,0,0,47.54,41.86Z"/><path class="cls-6" d="M47.37,41.48a1.46,1.46,0,0,0,.17.38,1.11,1.11,0,0,0,1.57.48A2.05,2.05,0,0,0,49.87,40a1.63,1.63,0,0,0-.2-.42,2,2,0,0,1-.77,2.26,1.11,1.11,0,0,1-1.54-.43h0S47.36,41.46,47.37,41.48Z"/><path class="cls-6" d="M49,48.6a1.88,1.88,0,0,0,.61-2.21,1.51,1.51,0,0,1-.2-.35.14.14,0,0,1,0-.06h0a.21.21,0,0,1,0-.06,1.89,1.89,0,0,1-.61,2.23,1.16,1.16,0,0,1-1,.12l.1.4A1.15,1.15,0,0,0,49,48.6Z"/><path class="cls-6" d="M49.36,46a1.51,1.51,0,0,0,.2.35,1.22,1.22,0,0,0,1.66.37,1.91,1.91,0,0,0,.6-2.29,2.14,2.14,0,0,0-.24-.39A1.89,1.89,0,0,1,51,46.31,1.2,1.2,0,0,1,49.35,46h0A.14.14,0,0,0,49.36,46Z"/><path class="cls-6" d="M54.23,42.62s0,0,0,.05a1.27,1.27,0,0,0,1.87.72l0,0L55.77,43A1.21,1.21,0,0,1,54.23,42.62Z"/><path class="cls-6" d="M51.71,44.74c2.69,11.83,7.12,33.84,7.12,33.84l4.31-7.46c-.27-1.65-.61-3.35-1.07-5.08C58.93,54.07,55.47,45.23,51.71,44.74Z"/><path class="cls-7" d="M45.21,8.34c.84,1.22.86,4,1.71,5.17A49.37,49.37,0,0,0,53.53,21l-3.48.75L51,24.33s-12.07.82-14.53-6.24.92-7.37.92-7.37Z"/><path class="cls-8" d="M37.67,12.56c4.71,10.24,5.7,10.89,12.66,9.15,0,0,3,9.58,6.79,11.32a10.94,10.94,0,0,1-4.4.62,3.17,3.17,0,0,0,1.94,2.76,16.41,16.41,0,0,1-7.47-1.74s-.93,1.28,1,2.79c0,0-6.51-.33-11.73-6.78a23,23,0,0,1-4.91-14Z"/><path class="cls-9" d="M39.19,15.78c-.47-.95-1-2-1.52-3.22l-6.14,4.09a23,23,0,0,0,4.91,14c5.22,6.45,11.73,6.78,11.73,6.78-1.91-1.51-1-2.79-1-2.79a16.41,16.41,0,0,0,7.47,1.74,1,1,0,0,1-.18-.09C47,34.59,43.65,24.34,39.19,15.78Z"/><ellipse class="cls-10" cx="87.01" cy="128.76" rx="45.13" ry="19.64" transform="translate(-49.62 202.79) rotate(-84.4)"/><path class="cls-11" d="M95.11,85.06A8.92,8.92,0,0,0,90,83.82c-2.9.19-5.75,1.8-8.4,4.51A40.53,40.53,0,0,1,95.11,85.06Z"/><path class="cls-11" d="M98.14,138c-13.24,0-24.71-5.95-30.29-14.61-.29,2.17-.51,4.39-.66,6.64C65.54,154.89,73.08,174.42,84,173.7c9.44-.63,18.33-16.14,21.65-36.33A43,43,0,0,1,98.14,138Z"/><path class="cls-8" d="M103.73,127.65C105.16,103.27,98.12,84,88,84.71s-19.46,21-20.89,45.37,5.61,43.6,15.72,42.93S102.31,152,103.73,127.65Z"/><ellipse class="cls-12" cx="85.87" cy="129.01" rx="40.28" ry="16.53" transform="translate(-49.89 203.76) rotate(-85.19)"/><path class="cls-13" d="M88.22,88.87c-4.29.28-8.44,4.47-11.77,11.11,2.3-2.62,4.8-4.16,7.35-4.33,9.19-.61,15.59,16.87,14.29,39-.69,11.81-3.43,22.57-7.22,30.14,6-6.81,10.71-20.9,11.64-36.92C103.81,105.74,97.41,88.26,88.22,88.87Z"/><path class="cls-13" d="M87,115.78c-5.23,2.66-8.27,5.55-10.32,15.06l3,2.83c1.68-8.18,4.17-12.17,9.18-15.13Z"/><path class="cls-13" d="M92.66,121.42c-5.23,2.66-8.27,5.54-10.32,15l3,2.83c1.68-8.17,4.17-12.17,9.18-15.12Z"/><polygon class="cls-14" points="61.57 76.69 29.48 84.36 29.48 90.66 63.56 82.98 61.57 76.69"/><path class="cls-15" d="M28.46,103.45s-4.3,26.41-3.69,32.14-1.23,36.65-1.23,36.65h1.23c3.07-13.51,11.87-34.6,12.9-38.08s4.71-27.64,4.71-27.64Z"/><path class="cls-16" d="M24,172.24l4.69-29.48,7.16-3.71c.89-2.35,1.54-4.09,1.78-4.89,1-3.48,4.71-27.64,4.71-27.64l-13.92-3.07s-4.3,26.41-3.69,32.14-1.23,36.65-1.23,36.65Z"/><path class="cls-15" d="M51.23,101.71S60.76,129.58,62.8,135s8.07,35.77,8.07,35.77l1.19-.31c-.44-13.85,4-39.3,4.15-42.92S66.38,96.8,66.38,96.8Z"/><path class="cls-16" d="M67.27,129.19l8.34-4.88c-2.14-8.18-9.23-27.51-9.23-27.51l-15.15,4.91S60.76,129.58,62.8,135s8.07,35.77,8.07,35.77l.66-.17Z"/><polygon class="cls-3" points="23.49 139.64 24.87 120.91 71.4 105.86 75.85 119.52 23.49 139.64"/><polygon class="cls-4" points="27.21 134.35 75.08 117.16 71.4 105.86 24.87 120.91 23.49 139.64 26.34 138.54 27.21 134.35"/><path class="cls-5" d="M23.34,132.73c8-3.28,52.82-18.43,52.82-18.43s-11.26-30.7-12.7-33-32.55,5.33-34.59,8.19S23.34,132.73,23.34,132.73Z"/><path class="cls-6" d="M31.34,127.79c0-18.77,3-40.85,18.28-43.43,10.13-1.71,21.7,14.15,24.84,30.52l1.7-.58s-11.26-30.7-12.7-33-32.55,5.33-34.59,8.19-5.53,43.2-5.53,43.2c1.52-.63,4.39-1.69,8-3C31.35,129.1,31.34,128.44,31.34,127.79Z"/><path class="cls-6" d="M42.64,121.51a1.18,1.18,0,0,1-1.48-.88v.06c0,1,.71,1.6,1.56,1.37a2.25,2.25,0,0,0,1.49-2.18,1.51,1.51,0,0,0-.08-.48A2.22,2.22,0,0,1,42.64,121.51Z"/><path class="cls-6" d="M45.68,120.52a1.18,1.18,0,0,1-1.48-.88v.06c0,1,.71,1.59,1.56,1.37a2.26,2.26,0,0,0,1.49-2.18,1.53,1.53,0,0,0-.08-.49A2.24,2.24,0,0,1,45.68,120.52Z"/><path class="cls-6" d="M48.66,119.35a1.18,1.18,0,0,1-1.48-.88v.06c0,1,.72,1.59,1.56,1.37a2.25,2.25,0,0,0,1.49-2.18,1.53,1.53,0,0,0-.08-.49A2.24,2.24,0,0,1,48.66,119.35Z"/><path class="cls-6" d="M53.55,116.09A1.2,1.2,0,0,1,52.18,115s0,0,0,.06c-.08,1,.54,1.69,1.39,1.57a2.21,2.21,0,0,0,1.7-2,1.64,1.64,0,0,0,0-.5A2.22,2.22,0,0,1,53.55,116.09Z"/><path class="cls-6" d="M56.64,115.46a1.2,1.2,0,0,1-1.37-1.06.13.13,0,0,1,0,.06c-.08,1,.54,1.68,1.4,1.56a2.21,2.21,0,0,0,1.69-2,1.62,1.62,0,0,0,0-.5A2.21,2.21,0,0,1,56.64,115.46Z"/><path class="cls-6" d="M59.69,114.65a1.2,1.2,0,0,1-1.37-1.06.13.13,0,0,1,0,.06c-.08,1,.54,1.68,1.4,1.56a2.21,2.21,0,0,0,1.69-2,1.62,1.62,0,0,0,0-.5A2.2,2.2,0,0,1,59.69,114.65Z"/><path class="cls-6" d="M65.19,114.11A1.19,1.19,0,0,1,63.83,113a.13.13,0,0,0,0,.06c-.09,1,.54,1.69,1.39,1.57a2.23,2.23,0,0,0,1.7-2,2,2,0,0,0,0-.5A2.22,2.22,0,0,1,65.19,114.11Z"/><path class="cls-6" d="M68.28,113.48a1.19,1.19,0,0,1-1.36-1.06s0,0,0,0c-.09,1,.54,1.69,1.39,1.57a2.23,2.23,0,0,0,1.7-2,2,2,0,0,0,0-.5A2.21,2.21,0,0,1,68.28,113.48Z"/><path class="cls-6" d="M71.33,112.67A1.2,1.2,0,0,1,70,111.61s0,0,0,.06c-.08,1,.54,1.68,1.39,1.56a2.23,2.23,0,0,0,1.7-2,2,2,0,0,0,0-.5A2.21,2.21,0,0,1,71.33,112.67Z"/><path class="cls-6" d="M31.51,127.08a1.3,1.3,0,0,1-1.49-1s0,0,0,.06a1.37,1.37,0,0,0,1.58,1.47,2,2,0,0,0,1.51-2,1.51,1.51,0,0,0-.08-.48A2,2,0,0,1,31.51,127.08Z"/><path class="cls-6" d="M34.59,126.32a1.3,1.3,0,0,1-1.5-1v.06a1.37,1.37,0,0,0,1.58,1.47,2,2,0,0,0,1.51-2,2,2,0,0,0-.08-.49A2,2,0,0,1,34.59,126.32Z"/><path class="cls-6" d="M37.6,125.4a1.29,1.29,0,0,1-1.49-1s0,0,0,.06A1.39,1.39,0,0,0,37.68,126a2,2,0,0,0,1.51-2,1.53,1.53,0,0,0-.08-.49A2,2,0,0,1,37.6,125.4Z"/><path class="cls-6" d="M28.35,122.61a1.3,1.3,0,0,1-1.5-1v.05a1.37,1.37,0,0,0,1.57,1.48,2,2,0,0,0,1.52-2,2.39,2.39,0,0,0-.08-.49A2,2,0,0,1,28.35,122.61Z"/><path class="cls-6" d="M31.42,121.86a1.31,1.31,0,0,1-1.5-1v.06a1.38,1.38,0,0,0,1.58,1.48,2,2,0,0,0,1.51-2,1.53,1.53,0,0,0-.08-.49A2,2,0,0,1,31.42,121.86Z"/><path class="cls-6" d="M34.44,120.93a1.29,1.29,0,0,1-1.5-1s0,0,0,.06a1.37,1.37,0,0,0,1.58,1.47,2,2,0,0,0,1.52-2,1.85,1.85,0,0,0-.09-.49A2,2,0,0,1,34.44,120.93Z"/><path class="cls-6" d="M34.54,112.26a1.2,1.2,0,0,1-1.43-1v.06c0,1,.62,1.64,1.47,1.47a2.24,2.24,0,0,0,1.6-2.1,1.54,1.54,0,0,0,0-.49A2.23,2.23,0,0,1,34.54,112.26Z"/><path class="cls-6" d="M37.61,111.45a1.2,1.2,0,0,1-1.43-1v.06c0,1,.63,1.64,1.48,1.46a2.22,2.22,0,0,0,1.59-2.09,1.54,1.54,0,0,0,0-.49A2.23,2.23,0,0,1,37.61,111.45Z"/><path class="cls-6" d="M40.63,110.46a1.2,1.2,0,0,1-1.43-1v.06c0,1,.63,1.64,1.48,1.47a2.24,2.24,0,0,0,1.59-2.1,1.54,1.54,0,0,0-.05-.49A2.23,2.23,0,0,1,40.63,110.46Z"/><path class="cls-6" d="M49.88,107.57a1.2,1.2,0,0,1-1.37-1.07s0,0,0,.06c-.08,1,.54,1.69,1.39,1.57a2.21,2.21,0,0,0,1.7-2,1.67,1.67,0,0,0,0-.5A2.21,2.21,0,0,1,49.88,107.57Z"/><path class="cls-6" d="M53,106.94a1.2,1.2,0,0,1-1.37-1.06s0,0,0,.06c-.08,1,.54,1.68,1.4,1.56a2.21,2.21,0,0,0,1.69-2,1.62,1.62,0,0,0,0-.5A2.21,2.21,0,0,1,53,106.94Z"/><path class="cls-6" d="M56,106.13a1.2,1.2,0,0,1-1.37-1.06.13.13,0,0,1,0,.06c-.08,1,.54,1.68,1.4,1.56a2.21,2.21,0,0,0,1.69-2,1.62,1.62,0,0,0,0-.5A2.2,2.2,0,0,1,56,106.13Z"/><path class="cls-6" d="M62,104.36a1.19,1.19,0,0,1-1.36-1.07s0,0,0,.06c-.09,1,.54,1.69,1.39,1.57a2.24,2.24,0,0,0,1.7-2,2,2,0,0,0,0-.5A2.22,2.22,0,0,1,62,104.36Z"/><path class="cls-6" d="M65.09,103.73a1.19,1.19,0,0,1-1.36-1.07s0,0,0,.06c-.09,1,.54,1.69,1.39,1.57a2.23,2.23,0,0,0,1.7-2,2.07,2.07,0,0,0,0-.5A2.21,2.21,0,0,1,65.09,103.73Z"/><path class="cls-6" d="M68.14,102.92a1.2,1.2,0,0,1-1.36-1.06s0,0,0,.06c-.08,1,.54,1.68,1.39,1.56a2.23,2.23,0,0,0,1.7-2,2,2,0,0,0,0-.5A2.21,2.21,0,0,1,68.14,102.92Z"/><path class="cls-6" d="M37.8,116.37a1.29,1.29,0,0,1-1.49-1s0,0,0,.06a1.37,1.37,0,0,0,1.58,1.47,2,2,0,0,0,1.51-2,1.53,1.53,0,0,0-.08-.49A2,2,0,0,1,37.8,116.37Z"/><path class="cls-6" d="M40.88,115.62a1.32,1.32,0,0,1-1.5-1v.06A1.37,1.37,0,0,0,41,116.16a2,2,0,0,0,1.52-2,1.85,1.85,0,0,0-.08-.48A2,2,0,0,1,40.88,115.62Z"/><path class="cls-6" d="M43.89,114.69a1.29,1.29,0,0,1-1.49-1s0,0,0,.05A1.39,1.39,0,0,0,44,115.24a2,2,0,0,0,1.51-2,1.53,1.53,0,0,0-.08-.49A2,2,0,0,1,43.89,114.69Z"/><path class="cls-6" d="M50.21,113.08a1.29,1.29,0,0,1-1.5-1s0,0,0,.06a1.37,1.37,0,0,0,1.58,1.47,2,2,0,0,0,1.52-2,2.51,2.51,0,0,0-.08-.49A2,2,0,0,1,50.21,113.08Z"/><path class="cls-6" d="M53.28,112.33a1.3,1.3,0,0,1-1.5-1v.06a1.37,1.37,0,0,0,1.58,1.47,2,2,0,0,0,1.51-2,1.86,1.86,0,0,0-.08-.49A2,2,0,0,1,53.28,112.33Z"/><path class="cls-6" d="M56.29,111.4a1.28,1.28,0,0,1-1.49-1s0,0,0,.06A1.37,1.37,0,0,0,56.37,112a2,2,0,0,0,1.51-2,1.62,1.62,0,0,0-.08-.49A2,2,0,0,1,56.29,111.4Z"/><path class="cls-6" d="M62.54,110a1.3,1.3,0,0,1-1.49-1s0,0,0,.06a1.37,1.37,0,0,0,1.58,1.47,2,2,0,0,0,1.51-2,1.51,1.51,0,0,0-.08-.48A2,2,0,0,1,62.54,110Z"/><path class="cls-6" d="M65.62,109.27a1.31,1.31,0,0,1-1.5-1v.06a1.36,1.36,0,0,0,1.57,1.47,2,2,0,0,0,1.52-2,2.41,2.41,0,0,0-.08-.48A2,2,0,0,1,65.62,109.27Z"/><path class="cls-6" d="M68.63,108.34a1.31,1.31,0,0,1-1.5-1v.06a1.38,1.38,0,0,0,1.58,1.48,2,2,0,0,0,1.51-2,1.53,1.53,0,0,0-.08-.49A2,2,0,0,1,68.63,108.34Z"/><path class="cls-6" d="M35.09,101.6a1.18,1.18,0,0,1-1.48-.88v.06c0,1,.72,1.59,1.56,1.36A2.24,2.24,0,0,0,36.66,100a1.53,1.53,0,0,0-.08-.49A2.24,2.24,0,0,1,35.09,101.6Z"/><path class="cls-6" d="M38.13,100.6a1.18,1.18,0,0,1-1.48-.88v.06c0,1,.72,1.59,1.56,1.37A2.25,2.25,0,0,0,39.7,99a1.53,1.53,0,0,0-.08-.49A2.24,2.24,0,0,1,38.13,100.6Z"/><path class="cls-6" d="M41.11,99.43a1.18,1.18,0,0,1-1.48-.88v.06c0,1,.72,1.59,1.56,1.37a2.25,2.25,0,0,0,1.49-2.18,1.51,1.51,0,0,0-.08-.48A2.23,2.23,0,0,1,41.11,99.43Z"/><path class="cls-6" d="M46.3,97a1.18,1.18,0,0,1-1.36-1.06.13.13,0,0,0,0,.06c-.09,1,.53,1.69,1.39,1.56a2.2,2.2,0,0,0,1.69-2,2.05,2.05,0,0,0,0-.5A2.21,2.21,0,0,1,46.3,97Z"/><path class="cls-6" d="M49.39,96.38A1.19,1.19,0,0,1,48,95.31s0,0,0,.06c-.09,1,.54,1.69,1.39,1.57a2.23,2.23,0,0,0,1.7-2,2,2,0,0,0,0-.5A2.22,2.22,0,0,1,49.39,96.38Z"/><path class="cls-6" d="M52.44,95.57a1.19,1.19,0,0,1-1.36-1.07s0,0,0,.06c-.09,1,.54,1.69,1.39,1.57a2.23,2.23,0,0,0,1.7-2,2,2,0,0,0,0-.5A2.21,2.21,0,0,1,52.44,95.57Z"/><path class="cls-6" d="M57.94,95A1.19,1.19,0,0,1,56.58,94s0,0,0,.06c-.08,1,.54,1.69,1.39,1.56a2.2,2.2,0,0,0,1.7-2,2,2,0,0,0,0-.5A2.19,2.19,0,0,1,57.94,95Z"/><path class="cls-6" d="M61,94.4a1.2,1.2,0,0,1-1.37-1.07s0,0,0,.06c-.08,1,.54,1.69,1.39,1.57a2.22,2.22,0,0,0,1.7-2,1.64,1.64,0,0,0,0-.5A2.22,2.22,0,0,1,61,94.4Z"/><path class="cls-6" d="M64.09,93.59a1.2,1.2,0,0,1-1.37-1.07s0,0,0,.06c-.08,1,.54,1.69,1.4,1.57a2.21,2.21,0,0,0,1.69-2,1.64,1.64,0,0,0,0-.5A2.22,2.22,0,0,1,64.09,93.59Z"/><path class="cls-6" d="M34.6,106.54a1.31,1.31,0,0,1-1.5-1v.06a1.37,1.37,0,0,0,1.58,1.47,2,2,0,0,0,1.51-2,1.86,1.86,0,0,0-.08-.49A2,2,0,0,1,34.6,106.54Z"/><path class="cls-6" d="M37.67,105.79a1.3,1.3,0,0,1-1.49-1s0,0,0,.06a1.37,1.37,0,0,0,1.58,1.47,2,2,0,0,0,1.51-2,1.51,1.51,0,0,0-.08-.48A2,2,0,0,1,37.67,105.79Z"/><path class="cls-6" d="M40.69,104.86a1.31,1.31,0,0,1-1.5-1v.05a1.38,1.38,0,0,0,1.57,1.48,2,2,0,0,0,1.52-2,1.86,1.86,0,0,0-.08-.49A2,2,0,0,1,40.69,104.86Z"/><path class="cls-6" d="M46.27,103.32a1.29,1.29,0,0,1-1.5-1s0,0,0,.06a1.37,1.37,0,0,0,1.58,1.47,2,2,0,0,0,1.52-2,2.39,2.39,0,0,0-.08-.49A2,2,0,0,1,46.27,103.32Z"/><path class="cls-6" d="M49.34,102.57a1.3,1.3,0,0,1-1.5-1v.06a1.37,1.37,0,0,0,1.58,1.47,2,2,0,0,0,1.51-2,1.53,1.53,0,0,0-.08-.49A2,2,0,0,1,49.34,102.57Z"/><path class="cls-6" d="M52.35,101.64a1.29,1.29,0,0,1-1.49-1s0,0,0,.06a1.37,1.37,0,0,0,1.58,1.47,2,2,0,0,0,1.51-2,1.62,1.62,0,0,0-.08-.49A2,2,0,0,1,52.35,101.64Z"/><path class="cls-6" d="M57.72,100.79a1.29,1.29,0,0,1-1.49-1s0,0,0,.06a1.38,1.38,0,0,0,1.58,1.47,2.06,2.06,0,0,0,1.52-2,1.85,1.85,0,0,0-.09-.49A2,2,0,0,1,57.72,100.79Z"/><path class="cls-6" d="M60.8,100a1.31,1.31,0,0,1-1.5-1v.06a1.38,1.38,0,0,0,1.58,1.47,2,2,0,0,0,1.51-2,1.86,1.86,0,0,0-.08-.49A2,2,0,0,1,60.8,100Z"/><path class="cls-6" d="M63.81,99.11a1.28,1.28,0,0,1-1.49-1s0,0,0,.06a1.37,1.37,0,0,0,1.58,1.47,2,2,0,0,0,1.51-2,1.62,1.62,0,0,0-.08-.49A2,2,0,0,1,63.81,99.11Z"/><path class="cls-6" d="M31.4,91.87a1.19,1.19,0,0,1-1.42-1s0,0,0,.06c0,1,.63,1.65,1.48,1.47a2.23,2.23,0,0,0,1.6-2.09,2,2,0,0,0-.06-.5A2.21,2.21,0,0,1,31.4,91.87Z"/><path class="cls-6" d="M34.47,91.06a1.19,1.19,0,0,1-1.42-1s0,0,0,.06c0,1,.63,1.64,1.48,1.47a2.23,2.23,0,0,0,1.6-2.09,2,2,0,0,0,0-.5A2.24,2.24,0,0,1,34.47,91.06Z"/><path class="cls-6" d="M37.49,90.07a1.19,1.19,0,0,1-1.42-1s0,0,0,.06c0,1,.63,1.64,1.48,1.47a2.23,2.23,0,0,0,1.6-2.09,2,2,0,0,0,0-.5A2.24,2.24,0,0,1,37.49,90.07Z"/><path class="cls-6" d="M42.63,88.49a1.2,1.2,0,0,1-1.36-1.07.13.13,0,0,0,0,.06c-.09,1,.53,1.69,1.39,1.56a2.2,2.2,0,0,0,1.69-2,2.05,2.05,0,0,0,0-.5A2.23,2.23,0,0,1,42.63,88.49Z"/><path class="cls-6" d="M45.72,87.86a1.19,1.19,0,0,1-1.36-1.07.13.13,0,0,0,0,.06c-.09,1,.54,1.69,1.39,1.57a2.23,2.23,0,0,0,1.7-2,2,2,0,0,0,0-.5A2.22,2.22,0,0,1,45.72,87.86Z"/><path class="cls-6" d="M48.77,87.05A1.19,1.19,0,0,1,47.41,86s0,0,0,.06c-.09,1,.54,1.69,1.39,1.57a2.23,2.23,0,0,0,1.7-2,2.07,2.07,0,0,0,0-.5A2.21,2.21,0,0,1,48.77,87.05Z"/><path class="cls-6" d="M54.76,85.27a1.2,1.2,0,0,1-1.37-1.06s0,0,0,.06c-.08,1,.54,1.68,1.39,1.56a2.21,2.21,0,0,0,1.7-2,1.64,1.64,0,0,0,0-.5A2.21,2.21,0,0,1,54.76,85.27Z"/><path class="cls-6" d="M57.85,84.65a1.2,1.2,0,0,1-1.37-1.07s0,0,0,.06c-.08,1,.54,1.69,1.39,1.57a2.22,2.22,0,0,0,1.7-2,1.64,1.64,0,0,0,0-.5A2.22,2.22,0,0,1,57.85,84.65Z"/><path class="cls-6" d="M60.9,83.84a1.2,1.2,0,0,1-1.37-1.07.13.13,0,0,1,0,.06c-.08,1,.54,1.69,1.4,1.57a2.21,2.21,0,0,0,1.69-2,1.64,1.64,0,0,0,0-.5A2.22,2.22,0,0,1,60.9,83.84Z"/><path class="cls-6" d="M30.56,97.28a1.29,1.29,0,0,1-1.5-1v.06a1.36,1.36,0,0,0,1.57,1.47,2,2,0,0,0,1.52-2,2.64,2.64,0,0,0-.08-.49A2,2,0,0,1,30.56,97.28Z"/><path class="cls-6" d="M33.63,96.53a1.28,1.28,0,0,1-1.49-1s0,0,0,.06a1.37,1.37,0,0,0,1.58,1.47,2,2,0,0,0,1.51-2,1.62,1.62,0,0,0-.08-.49A2,2,0,0,1,33.63,96.53Z"/><path class="cls-6" d="M36.65,95.61a1.31,1.31,0,0,1-1.5-1v.06a1.36,1.36,0,0,0,1.57,1.47,2,2,0,0,0,1.52-2,2.41,2.41,0,0,0-.08-.48A2,2,0,0,1,36.65,95.61Z"/><path class="cls-6" d="M43,94a1.31,1.31,0,0,1-1.5-1v.06A1.38,1.38,0,0,0,43,94.55a2,2,0,0,0,1.51-2,1.86,1.86,0,0,0-.08-.49A2,2,0,0,1,43,94Z"/><path class="cls-6" d="M46,93.25a1.29,1.29,0,0,1-1.49-1s0,0,0,.06a1.39,1.39,0,0,0,1.58,1.48,2,2,0,0,0,1.51-2,1.53,1.53,0,0,0-.08-.49A2,2,0,0,1,46,93.25Z"/><path class="cls-6" d="M49.05,92.32a1.29,1.29,0,0,1-1.5-1v.06a1.36,1.36,0,0,0,1.57,1.47,2,2,0,0,0,1.52-2,2.39,2.39,0,0,0-.08-.49A2,2,0,0,1,49.05,92.32Z"/><path class="cls-6" d="M55.3,90.93a1.29,1.29,0,0,1-1.5-1V90a1.36,1.36,0,0,0,1.57,1.47,2,2,0,0,0,1.52-2,2.64,2.64,0,0,0-.08-.49A2,2,0,0,1,55.3,90.93Z"/><path class="cls-6" d="M58.37,90.18a1.3,1.3,0,0,1-1.5-1v.06a1.37,1.37,0,0,0,1.58,1.47,2,2,0,0,0,1.51-2,1.53,1.53,0,0,0-.08-.49A2,2,0,0,1,58.37,90.18Z"/><path class="cls-6" d="M61.38,89.26a1.3,1.3,0,0,1-1.49-1s0,0,0,.06a1.37,1.37,0,0,0,1.58,1.47,2,2,0,0,0,1.52-2,1.86,1.86,0,0,0-.09-.48A2,2,0,0,1,61.38,89.26Z"/><path class="cls-5" d="M19.19,46.13c-1.84,8.75,8,36.85,10.29,38.23s22.57-6.14,32.7-6c1.8,0-5.37-34.86-9.21-36.55S22.42,30.8,19.19,46.13Z"/><path class="cls-6" d="M34.83,80.46a2.13,2.13,0,0,1-1.68,1.81,1.12,1.12,0,0,1-1.28-1s0,0,0,.06c-.1.93.48,1.59,1.31,1.49a2.16,2.16,0,0,0,1.69-1.87A1.81,1.81,0,0,0,34.83,80.46Z"/><path class="cls-6" d="M37.82,80s0,0,0-.06v-.06a2.14,2.14,0,0,1-1.68,1.81,1.14,1.14,0,0,1-1.29-1,.13.13,0,0,1,0,.06,1.21,1.21,0,0,0,1.31,1.49,2.14,2.14,0,0,0,1.67-1.78A1.6,1.6,0,0,1,37.82,80Z"/><path class="cls-6" d="M39.12,81a1.12,1.12,0,0,1-1.29-1v0s0,0,0,.06a1.6,1.6,0,0,0,0,.44,1.12,1.12,0,0,0,1.29,1,2.14,2.14,0,0,0,1.69-1.87,1.84,1.84,0,0,0,0-.47A2.13,2.13,0,0,1,39.12,81Z"/><path class="cls-6" d="M46,76.91a2.12,2.12,0,0,1-1.84,1.62A1.14,1.14,0,0,1,43,77.35s0,0,0,.06c-.21.92.29,1.66,1.11,1.65A2.11,2.11,0,0,0,46,77.38,1.91,1.91,0,0,0,46,76.91Z"/><path class="cls-6" d="M49,76.83s0,0,0-.06v0s0-.06,0-.08a2.12,2.12,0,0,1-1.84,1.62A1.14,1.14,0,0,1,46,77.15s0,0,0,.06c-.21.92.29,1.66,1.11,1.65a2.08,2.08,0,0,0,1.83-1.59A2.25,2.25,0,0,1,49,76.83Z"/><path class="cls-6" d="M50.13,78A1.13,1.13,0,0,1,49,76.79v0s0,0,0,.06a2.25,2.25,0,0,0,0,.44,1.16,1.16,0,0,0,1.16,1.22,2.13,2.13,0,0,0,1.86-1.68,2,2,0,0,0,0-.48A2.08,2.08,0,0,1,50.13,78Z"/><path class="cls-6" d="M57.24,76.52a2.1,2.1,0,0,1-1.84,1.62A1.14,1.14,0,0,1,54.25,77s0,0,0,.05c-.2.93.3,1.67,1.12,1.66A2.13,2.13,0,0,0,57.21,77,1.89,1.89,0,0,0,57.24,76.52Z"/><path class="cls-6" d="M60.22,76.44s0,0,0-.06h0v-.07a2.1,2.1,0,0,1-1.84,1.62,1.14,1.14,0,0,1-1.15-1.18s0,0,0,0c-.2.93.3,1.67,1.12,1.66a2.11,2.11,0,0,0,1.83-1.59A1.68,1.68,0,0,1,60.22,76.44Z"/><path class="cls-6" d="M60.24,76.39h0s0,0,0,.06a1.68,1.68,0,0,0,0,.44,1.14,1.14,0,0,0,1.15,1.21,1.76,1.76,0,0,0,1.12-.46c0-.14,0-.31,0-.5a1.67,1.67,0,0,1-1.07.43A1.13,1.13,0,0,1,60.24,76.39Z"/><path class="cls-6" d="M29.58,83.62a2.36,2.36,0,0,1-.21.65l.11.09.05,0a1.36,1.36,0,0,0,.06-.29A1.84,1.84,0,0,0,29.58,83.62Z"/><path class="cls-6" d="M27.15,79a1.85,1.85,0,0,1-.24.68L27,80a1.69,1.69,0,0,0,.14-.5A2.4,2.4,0,0,0,27.15,79Z"/><path class="cls-6" d="M28.43,70.78a2.11,2.11,0,0,1-1.76,1.72,1.14,1.14,0,0,1-1.22-1.1s0,0,0,0c-.15.93.39,1.63,1.22,1.58a2.13,2.13,0,0,0,1.77-1.78A1.49,1.49,0,0,0,28.43,70.78Z"/><path class="cls-6" d="M29.65,72.65A2.11,2.11,0,0,0,31.4,71a1.64,1.64,0,0,1,0-.44s0,0,0-.06h0V70.4a2.13,2.13,0,0,1-1.76,1.72A1.13,1.13,0,0,1,28.45,71s0,0,0,.06A1.21,1.21,0,0,0,29.65,72.65Z"/><path class="cls-6" d="M31.42,70.53a1.64,1.64,0,0,0,0,.44,1.14,1.14,0,0,0,1.23,1.13,2.13,2.13,0,0,0,1.78-1.77,2,2,0,0,0,0-.48,2.13,2.13,0,0,1-1.76,1.72,1.12,1.12,0,0,1-1.22-1.09h0S31.42,70.51,31.42,70.53Z"/><path class="cls-6" d="M41.71,70.55a2.11,2.11,0,0,0,1.85-1.68,1.61,1.61,0,0,0,0-.48A2.08,2.08,0,0,1,41.76,70a1.13,1.13,0,0,1-1.15-1.18.14.14,0,0,0,0,.06A1.23,1.23,0,0,0,41.71,70.55Z"/><path class="cls-6" d="M46.58,68.31s0,0,0,0h0v-.08a2.08,2.08,0,0,1-1.84,1.62,1.13,1.13,0,0,1-1.15-1.18s0,0,0,.06a1.23,1.23,0,0,0,1.12,1.66,2.13,2.13,0,0,0,1.83-1.59A1.4,1.4,0,0,1,46.58,68.31Z"/><path class="cls-6" d="M49.59,67.81a2.12,2.12,0,0,1-1.84,1.63,1.14,1.14,0,0,1-1.15-1.17h0s0,0,0,0a1.4,1.4,0,0,0,0,.45A1.15,1.15,0,0,0,47.69,70a2.12,2.12,0,0,0,1.86-1.68A1.59,1.59,0,0,0,49.59,67.81Z"/><path class="cls-6" d="M53.63,68.52a1.14,1.14,0,0,1-1.16-1.18s0,0,0,.06c-.21.92.29,1.66,1.11,1.65a2.12,2.12,0,0,0,1.86-1.68,1.91,1.91,0,0,0,0-.47A2.12,2.12,0,0,1,53.63,68.52Z"/><path class="cls-6" d="M58.44,66.82a.14.14,0,0,0,0-.06v0s0-.06,0-.08a2.12,2.12,0,0,1-1.84,1.62,1.15,1.15,0,0,1-1.16-1.18s0,0,0,.06c-.21.92.29,1.66,1.11,1.65a2.08,2.08,0,0,0,1.83-1.59A2.25,2.25,0,0,1,58.44,66.82Z"/><path class="cls-6" d="M59.61,67.94a1.14,1.14,0,0,1-1.15-1.16v0a.14.14,0,0,1,0,.06,2.25,2.25,0,0,0,0,.44,1.15,1.15,0,0,0,1.16,1.21,2,2,0,0,0,1.55-1c0-.13,0-.24-.07-.37A1.86,1.86,0,0,1,59.61,67.94Z"/><path class="cls-6" d="M30.91,75.11a1.92,1.92,0,0,1-1.67,1.68A1.23,1.23,0,0,1,28,75.67a.13.13,0,0,0,0,.06,1.3,1.3,0,0,0,1.3,1.59,1.94,1.94,0,0,0,1.69-1.73A1.52,1.52,0,0,0,30.91,75.11Z"/><path class="cls-6" d="M33.91,75.36a1.61,1.61,0,0,1,0-.44s0,0,0-.06h0s0-.05,0-.07a1.93,1.93,0,0,1-1.68,1.67A1.23,1.23,0,0,1,31,75.35a.13.13,0,0,0,0,.06A1.3,1.3,0,0,0,32.24,77,1.92,1.92,0,0,0,33.91,75.36Z"/><path class="cls-6" d="M33.9,74.92a1.61,1.61,0,0,0,0,.44,1.25,1.25,0,0,0,1.3,1.15,2,2,0,0,0,1.69-1.74,2.43,2.43,0,0,0,0-.47A1.93,1.93,0,0,1,35.2,76a1.24,1.24,0,0,1-1.28-1.11h0S33.9,74.9,33.9,74.92Z"/><path class="cls-6" d="M43.05,73.59a1.94,1.94,0,0,1-1.68,1.68,1.25,1.25,0,0,1-1.29-1.12.43.43,0,0,0,0,0,1.31,1.31,0,0,0,1.3,1.59,1.93,1.93,0,0,0,1.69-1.73A1.83,1.83,0,0,0,43.05,73.59Z"/><path class="cls-6" d="M44.38,75.47a1.93,1.93,0,0,0,1.67-1.64,1.61,1.61,0,0,1,0-.44s0,0,0-.06v-.06A1.94,1.94,0,0,1,44.37,75a1.25,1.25,0,0,1-1.29-1.12s0,0,0,0A1.31,1.31,0,0,0,44.38,75.47Z"/><path class="cls-6" d="M46,73.39a1.61,1.61,0,0,0,0,.44A1.24,1.24,0,0,0,47.34,75,1.94,1.94,0,0,0,49,73.25a1.82,1.82,0,0,0,0-.47,1.92,1.92,0,0,1-1.68,1.67,1.23,1.23,0,0,1-1.29-1.1v0S46,73.37,46,73.39Z"/><path class="cls-6" d="M55.11,72.73a1.83,1.83,0,0,0,0-.47,1.94,1.94,0,0,1-1.68,1.68,1.24,1.24,0,0,1-1.29-1.12s0,0,0,.05a1.3,1.3,0,0,0,1.3,1.59A1.94,1.94,0,0,0,55.11,72.73Z"/><path class="cls-6" d="M55.12,72.55a1.32,1.32,0,0,0,1.3,1.6,1.93,1.93,0,0,0,1.67-1.65,2.14,2.14,0,0,1,0-.44s0,0,0,0h0v-.08a1.94,1.94,0,0,1-1.68,1.68,1.25,1.25,0,0,1-1.29-1.12S55.12,72.53,55.12,72.55Z"/><path class="cls-6" d="M58.08,72.06a2.14,2.14,0,0,0,0,.44,1.25,1.25,0,0,0,1.3,1.15,1.94,1.94,0,0,0,1.69-1.73,1.46,1.46,0,0,0,0-.47,1.94,1.94,0,0,1-1.68,1.68A1.24,1.24,0,0,1,58.1,72h0S58.09,72,58.08,72.06Z"/><path class="cls-6" d="M28.55,62.49a1.13,1.13,0,0,1-1.29-1s0,0,0,.06c-.1.93.48,1.59,1.3,1.49a2.14,2.14,0,0,0,1.69-1.87,1.83,1.83,0,0,0,0-.47A2.13,2.13,0,0,1,28.55,62.49Z"/><path class="cls-6" d="M33.22,60.25a.13.13,0,0,1,0-.06v-.06a2.14,2.14,0,0,1-1.68,1.81,1.13,1.13,0,0,1-1.29-1s0,0,0,.06a1.21,1.21,0,0,0,1.3,1.49,2.14,2.14,0,0,0,1.67-1.78A2.15,2.15,0,0,1,33.22,60.25Z"/><path class="cls-6" d="M33.23,60.21v0a.13.13,0,0,0,0,.06,2.15,2.15,0,0,0,0,.44,1.14,1.14,0,0,0,1.3,1.05,2.16,2.16,0,0,0,1.69-1.87,1.47,1.47,0,0,0,0-.47,2.13,2.13,0,0,1-1.67,1.81A1.12,1.12,0,0,1,33.23,60.21Z"/><path class="cls-6" d="M38.55,58.45a1.23,1.23,0,0,0,1.12,1.66,2.13,2.13,0,0,0,1.86-1.68,2,2,0,0,0,0-.48,2.12,2.12,0,0,1-1.85,1.63,1.14,1.14,0,0,1-1.15-1.18S38.56,58.43,38.55,58.45Z"/><path class="cls-6" d="M44.54,57.88s0,0,0-.06h0s0,0,0-.08a2.12,2.12,0,0,1-1.84,1.63,1.15,1.15,0,0,1-1.16-1.18s0,0,0,0c-.21.92.29,1.67,1.11,1.66a2.09,2.09,0,0,0,1.83-1.59A2.25,2.25,0,0,1,44.54,57.88Z"/><path class="cls-6" d="M44.56,57.83h0s0,0,0,.06a2.25,2.25,0,0,0,0,.44,1.14,1.14,0,0,0,1.16,1.21,2.12,2.12,0,0,0,1.86-1.68,1.89,1.89,0,0,0,0-.47A2.09,2.09,0,0,1,45.71,59,1.14,1.14,0,0,1,44.56,57.83Z"/><path class="cls-6" d="M51,59.19A1.14,1.14,0,0,1,49.83,58s0,0,0,.05a1.23,1.23,0,0,0,1.12,1.66A2.11,2.11,0,0,0,52.78,58a1.61,1.61,0,0,0,0-.48A2.11,2.11,0,0,1,51,59.19Z"/><path class="cls-6" d="M55.8,57.49s0,0,0-.06h0v-.08A2.1,2.1,0,0,1,54,59a1.14,1.14,0,0,1-1.15-1.18s0,0,0,0a1.23,1.23,0,0,0,1.12,1.66,2.11,2.11,0,0,0,1.83-1.59A1.34,1.34,0,0,1,55.8,57.49Z"/><path class="cls-6" d="M57,58.61a1.14,1.14,0,0,1-1.15-1.17h0s0,0,0,.06a1.34,1.34,0,0,0,0,.44,1.14,1.14,0,0,0,1.15,1.21,2.12,2.12,0,0,0,1.86-1.68,1.93,1.93,0,0,0,0-.41v0A2.09,2.09,0,0,1,57,58.61Z"/><path class="cls-6" d="M26.16,66a1.31,1.31,0,0,0,1.3,1.6,2,2,0,0,0,1.69-1.74,1.83,1.83,0,0,0,0-.47,1.94,1.94,0,0,1-1.68,1.68A1.24,1.24,0,0,1,26.17,66S26.16,66,26.16,66Z"/><path class="cls-6" d="M32.12,65.22l0,0h0V65.1a1.94,1.94,0,0,1-1.68,1.68,1.23,1.23,0,0,1-1.29-1.12.43.43,0,0,1,0,0,1.31,1.31,0,0,0,1.3,1.6,1.93,1.93,0,0,0,1.67-1.65A2.12,2.12,0,0,1,32.12,65.22Z"/><path class="cls-6" d="M35.12,65.08a1.46,1.46,0,0,0,0-.47,1.94,1.94,0,0,1-1.68,1.68,1.24,1.24,0,0,1-1.28-1.11h0l0,0a2.12,2.12,0,0,0,0,.44,1.25,1.25,0,0,0,1.3,1.15A1.94,1.94,0,0,0,35.12,65.08Z"/><path class="cls-6" d="M37.6,64.42s0,0,0,.06a1.31,1.31,0,0,0,1.3,1.59,1.94,1.94,0,0,0,1.69-1.74,1.84,1.84,0,0,0,0-.47,1.93,1.93,0,0,1-1.68,1.68A1.24,1.24,0,0,1,37.6,64.42Z"/><path class="cls-6" d="M40.59,64.16a1.31,1.31,0,0,0,1.3,1.59,1.93,1.93,0,0,0,1.67-1.65,2.06,2.06,0,0,1,0-.43.13.13,0,0,1,0-.06h0v-.08a1.93,1.93,0,0,1-1.68,1.68A1.23,1.23,0,0,1,40.6,64.1S40.59,64.14,40.59,64.16Z"/><path class="cls-6" d="M43.56,63.67a2.06,2.06,0,0,0,0,.43,1.25,1.25,0,0,0,1.3,1.16,2,2,0,0,0,1.69-1.74,1.47,1.47,0,0,0,0-.47,1.92,1.92,0,0,1-1.67,1.68,1.24,1.24,0,0,1-1.29-1.11h0A.13.13,0,0,0,43.56,63.67Z"/><path class="cls-6" d="M51.73,63.4a1.83,1.83,0,0,0,0-.47A1.94,1.94,0,0,1,50,64.61a1.25,1.25,0,0,1-1.29-1.12s0,0,0,0A1.31,1.31,0,0,0,50,65.13,1.93,1.93,0,0,0,51.73,63.4Z"/><path class="cls-6" d="M54.71,63.17a2.15,2.15,0,0,1,0-.44.07.07,0,0,1,0,0h0v-.08A1.94,1.94,0,0,1,53,64.29a1.24,1.24,0,0,1-1.29-1.12.43.43,0,0,1,0,0,1.31,1.31,0,0,0,1.3,1.6A1.93,1.93,0,0,0,54.71,63.17Z"/><path class="cls-6" d="M54.71,62.73a2.15,2.15,0,0,0,0,.44A1.25,1.25,0,0,0,56,64.32a1.94,1.94,0,0,0,1.69-1.73,1.46,1.46,0,0,0,0-.47A1.93,1.93,0,0,1,56,63.8a1.24,1.24,0,0,1-1.29-1.11h0A.07.07,0,0,0,54.71,62.73Z"/><path class="cls-6" d="M26.28,53.36a2.12,2.12,0,0,0,1.77-1.77,1.56,1.56,0,0,0,0-.48,2.11,2.11,0,0,1-1.76,1.72,1.13,1.13,0,0,1-1.22-1.1.14.14,0,0,1,0,.06C24.91,52.71,25.45,53.42,26.28,53.36Z"/><path class="cls-6" d="M29.28,53A2.11,2.11,0,0,0,31,51.3a1.64,1.64,0,0,1,0-.44s0,0,0-.06h0v-.08a2.12,2.12,0,0,1-1.76,1.72,1.13,1.13,0,0,1-1.23-1.1s0,0,0,.06A1.21,1.21,0,0,0,29.28,53Z"/><path class="cls-6" d="M31.05,50.86a1.64,1.64,0,0,0,0,.44,1.14,1.14,0,0,0,1.23,1.13A2.13,2.13,0,0,0,34,50.66a2,2,0,0,0,0-.48,2.13,2.13,0,0,1-1.76,1.72,1.13,1.13,0,0,1-1.22-1.09h0S31.05,50.84,31.05,50.86Z"/><path class="cls-6" d="M37.29,51.59a2.1,2.1,0,0,0,1.85-1.68,1.52,1.52,0,0,0,0-.47,2.12,2.12,0,0,1-1.84,1.62,1.13,1.13,0,0,1-1.15-1.18.14.14,0,0,0,0,.06C36,50.86,36.46,51.6,37.29,51.59Z"/><path class="cls-6" d="M40.29,51.39a2.1,2.1,0,0,0,1.83-1.59,1.34,1.34,0,0,1,0-.44.43.43,0,0,1,0,0h0a.21.21,0,0,1,0-.08,2.09,2.09,0,0,1-1.84,1.62,1.13,1.13,0,0,1-1.15-1.18.14.14,0,0,0,0,.06C39,50.66,39.46,51.4,40.29,51.39Z"/><path class="cls-6" d="M42.16,49.36a1.34,1.34,0,0,0,0,.44A1.14,1.14,0,0,0,43.27,51a2.12,2.12,0,0,0,1.86-1.68,2,2,0,0,0,0-.48,2.1,2.1,0,0,1-1.84,1.62,1.12,1.12,0,0,1-1.15-1.16h0A.43.43,0,0,0,42.16,49.36Z"/><path class="cls-6" d="M49.15,50.1A2.13,2.13,0,0,0,51,48.42a2,2,0,0,0,0-.48,2.12,2.12,0,0,1-1.84,1.63,1.15,1.15,0,0,1-1.16-1.18s0,0,0,0A1.23,1.23,0,0,0,49.15,50.1Z"/><path class="cls-6" d="M54,47.87s0,0,0-.06h0s0,0,0-.08a2.12,2.12,0,0,1-1.84,1.63,1.15,1.15,0,0,1-1.16-1.18s0,0,0,.05a1.23,1.23,0,0,0,1.11,1.66A2.09,2.09,0,0,0,54,48.31,2.25,2.25,0,0,1,54,47.87Z"/><path class="cls-6" d="M55.19,49A1.14,1.14,0,0,1,54,47.82h0s0,0,0,.06a2.25,2.25,0,0,0,0,.44,1.14,1.14,0,0,0,1.16,1.21,1.85,1.85,0,0,0,1.33-.68c0-.12-.08-.24-.11-.35A1.81,1.81,0,0,1,55.19,49Z"/><path class="cls-6" d="M26.51,56.63a1.47,1.47,0,0,0,0-.47,1.93,1.93,0,0,1-1.68,1.68,1.23,1.23,0,0,1-1.28-1.12s0,0,0,.06a1.32,1.32,0,0,0,1.31,1.59A2,2,0,0,0,26.51,56.63Z"/><path class="cls-6" d="M29.48,56a.43.43,0,0,0,0-.05h0s0-.05,0-.08a1.93,1.93,0,0,1-1.67,1.68,1.23,1.23,0,0,1-1.29-1.12s0,0,0,.06a1.31,1.31,0,0,0,1.31,1.59,1.93,1.93,0,0,0,1.67-1.65A1.6,1.6,0,0,1,29.48,56Z"/><path class="cls-6" d="M32.47,55.82a1.84,1.84,0,0,0,0-.47A1.94,1.94,0,0,1,30.78,57a1.24,1.24,0,0,1-1.28-1.11h0a.43.43,0,0,1,0,.05,1.6,1.6,0,0,0,0,.44,1.25,1.25,0,0,0,1.29,1.16A1.94,1.94,0,0,0,32.47,55.82Z"/><path class="cls-6" d="M37,56.84a1.94,1.94,0,0,0,1.69-1.73,1.91,1.91,0,0,0,0-.48A1.93,1.93,0,0,1,37,56.31a1.24,1.24,0,0,1-1.29-1.12s0,0,0,.06A1.31,1.31,0,0,0,37,56.84Z"/><path class="cls-6" d="M40,56.52a2,2,0,0,0,1.68-1.64,1.61,1.61,0,0,1,0-.44.13.13,0,0,1,0-.06h0v-.08A1.92,1.92,0,0,1,40,56a1.23,1.23,0,0,1-1.29-1.12s0,0,0,.06A1.31,1.31,0,0,0,40,56.52Z"/><path class="cls-6" d="M41.62,54.44a1.61,1.61,0,0,0,0,.44A1.24,1.24,0,0,0,42.92,56a2,2,0,0,0,1.69-1.74,1.47,1.47,0,0,0,0-.47,1.92,1.92,0,0,1-1.67,1.68,1.24,1.24,0,0,1-1.29-1.11h0A.13.13,0,0,0,41.62,54.44Z"/><path class="cls-6" d="M49,55.51a1.94,1.94,0,0,0,1.69-1.73,1.91,1.91,0,0,0,0-.48A1.93,1.93,0,0,1,49,55a1.23,1.23,0,0,1-1.29-1.12s0,0,0,.06A1.3,1.3,0,0,0,49,55.51Z"/><path class="cls-6" d="M50.7,53.6A1.3,1.3,0,0,0,52,55.19a1.92,1.92,0,0,0,1.67-1.64,2.14,2.14,0,0,1,0-.44.13.13,0,0,0,0-.06h0V53A1.92,1.92,0,0,1,52,54.66a1.23,1.23,0,0,1-1.29-1.11A.43.43,0,0,0,50.7,53.6Z"/><path class="cls-6" d="M53.66,53.11a2.14,2.14,0,0,0,0,.44A1.25,1.25,0,0,0,55,54.7,2,2,0,0,0,56.66,53a1.89,1.89,0,0,0,0-.48A1.93,1.93,0,0,1,55,54.17a1.24,1.24,0,0,1-1.28-1.11h0A.13.13,0,0,1,53.66,53.11Z"/><path class="cls-6" d="M56.26,48.2c3,10.95,5.28,28.65,4,28.63-9.39-.14-27,6.87-31.45,6.71a2.69,2.69,0,0,0,.68.82c2.3,1.39,22.57-6.14,32.7-6C63.53,78.4,59.82,58.7,56.26,48.2Z"/><path class="cls-6" d="M62.45,76.63c-10.62.82-26.48,4.19-28.6,2.91-2.31-1.38,2.26-27.33-4.63-35.29-.18-.22-9-2.92-10,1.88-1.84,8.75,7.58,38,9.88,39.42s23-7.33,33.11-7.17C62.43,78.38,62.5,77.73,62.45,76.63Z"/><path class="cls-3" d="M19.26,65.28s-2.57,7.33-2.22,9,9,13.77,12.27,17.29L23.8,98.21S4.64,84.2,3,78.8s3.26-17,3.26-17Z"/><path class="cls-4" d="M23.82,95.68c-6.6-6.83-9.64-14.58-6.8-17.33a3.51,3.51,0,0,1,1.87-.88A17.28,17.28,0,0,1,17,74.23c-.35-1.62,2.22-9,2.22-9l-13-3.48S1.39,73.4,3,78.8,23.8,98.21,23.8,98.21L25,96.8C24.57,96.44,24.19,96.06,23.82,95.68Z"/><path class="cls-5" d="M31,48.28,21.8,40.81C4.76,49.2,0,68.55,0,68.55s16.89,9.52,27.48,7.37C31.12,66.26,32.09,53.5,31,48.28Z"/><path class="cls-6" d="M2.91,68.77a1.73,1.73,0,0,1,.18-.36l0,0h0l0-.06a2.23,2.23,0,0,1-1.27.81l.39.2A2.38,2.38,0,0,0,2.91,68.77Z"/><path class="cls-6" d="M5.83,69.42A1.29,1.29,0,0,0,6,69a2.09,2.09,0,0,1-2.25.8,1.08,1.08,0,0,1-.65-1.44h0l0,0a1.73,1.73,0,0,0-.18.36,1.17,1.17,0,0,0,0,.86l1.41.69A2.19,2.19,0,0,0,5.83,69.42Z"/><path class="cls-6" d="M11.52,69.39A2.06,2.06,0,0,1,9.21,70a1.09,1.09,0,0,1-.46-1.52.08.08,0,0,0,0,0,1.17,1.17,0,0,0,.21,1.91,2.07,2.07,0,0,0,2.35-.6A1.7,1.7,0,0,0,11.52,69.39Z"/><path class="cls-6" d="M14.15,70.61h0a.43.43,0,0,0,0-.07,2.05,2.05,0,0,1-2.31.57,1.1,1.1,0,0,1-.47-1.52l0,0a1.16,1.16,0,0,0,.21,1.9A2,2,0,0,0,13.93,71a1.83,1.83,0,0,1,.18-.3S14.14,70.62,14.15,70.61Z"/><path class="cls-6" d="M14.61,72.13a1.09,1.09,0,0,1-.46-1.51h0s0,0,0,0a1.83,1.83,0,0,0-.18.3,1.11,1.11,0,0,0,.4,1.61A2.06,2.06,0,0,0,16.68,72a1.58,1.58,0,0,0,.24-.39A2,2,0,0,1,14.61,72.13Z"/><path class="cls-6" d="M19.06,74.63a1.09,1.09,0,0,1-.47-1.52.08.08,0,0,1,0,0,1.17,1.17,0,0,0,.22,1.91,2.07,2.07,0,0,0,2.35-.6,2.13,2.13,0,0,0,.25-.39A2,2,0,0,1,19.06,74.63Z"/><path class="cls-6" d="M24,75.33l0,0h0l.05-.06a2.25,2.25,0,0,1-1.66.71l1,.06a2.61,2.61,0,0,0,.44-.37A1.92,1.92,0,0,1,24,75.33Z"/><path class="cls-6" d="M21.26,74.28a.08.08,0,0,1,0,0A1.28,1.28,0,0,0,21,75.79c.4.06.8.1,1.2.14a1.57,1.57,0,0,1-.47-.13A1.09,1.09,0,0,1,21.26,74.28Z"/><path class="cls-6" d="M24,75.3h0l0,0a1.92,1.92,0,0,0-.18.31,1.2,1.2,0,0,0-.15.38h.26A1.35,1.35,0,0,1,24,75.3Z"/><path class="cls-6" d="M10.49,60.15a1.17,1.17,0,0,0,.21,1.91,2.06,2.06,0,0,0,2.35-.61,1.47,1.47,0,0,0,.25-.38,2.06,2.06,0,0,1-2.31.56,1.09,1.09,0,0,1-.46-1.52Z"/><path class="cls-6" d="M15.93,62.29h0l0-.07a2.08,2.08,0,0,1-2.32.57,1.1,1.1,0,0,1-.46-1.52l0,0a1.16,1.16,0,0,0,.22,1.9,2,2,0,0,0,2.34-.59,1.83,1.83,0,0,1,.18-.3Z"/><path class="cls-6" d="M18.46,63.63a1.58,1.58,0,0,0,.24-.39,2,2,0,0,1-2.31.57,1.09,1.09,0,0,1-.46-1.51h0l0,0a1.83,1.83,0,0,0-.18.3,1.1,1.1,0,0,0,.39,1.6A2.07,2.07,0,0,0,18.46,63.63Z"/><path class="cls-6" d="M23.92,65.47a1.62,1.62,0,0,0,.25-.39,2.07,2.07,0,0,1-2.31.57,1.09,1.09,0,0,1-.47-1.52l0,0a1.16,1.16,0,0,0,.22,1.9A2.05,2.05,0,0,0,23.92,65.47Z"/><path class="cls-6" d="M26.8,66.3h0l0-.06a2.06,2.06,0,0,1-2.32.56,1.09,1.09,0,0,1-.46-1.52.08.08,0,0,1,0,0,1.17,1.17,0,0,0,.22,1.91,2.07,2.07,0,0,0,2.34-.59,1.92,1.92,0,0,1,.18-.31Z"/><path class="cls-6" d="M27.26,67.82a1.08,1.08,0,0,1-.46-1.51h0l0,0a1.92,1.92,0,0,0-.18.31,1.09,1.09,0,0,0,.39,1.6,2.06,2.06,0,0,0,2.35-.6,1.7,1.7,0,0,0,.25-.39A2,2,0,0,1,27.26,67.82Z"/><path class="cls-6" d="M4.66,63.52a1.71,1.71,0,0,0,.2-.41,1.88,1.88,0,0,1-2.15.69c-.07.15-.13.31-.19.46A1.89,1.89,0,0,0,4.66,63.52Z"/><path class="cls-6" d="M10.29,65.66a2.2,2.2,0,0,0,.2-.41,1.89,1.89,0,0,1-2.2.68,1.18,1.18,0,0,1-.6-1.53l0,0a1.26,1.26,0,0,0,.41,1.94A1.9,1.9,0,0,0,10.29,65.66Z"/><path class="cls-6" d="M13.18,66.37h0s0,0,0-.07A1.89,1.89,0,0,1,11,67a1.19,1.19,0,0,1-.6-1.53s0,0,0,0a1.26,1.26,0,0,0,.41,1.94A1.89,1.89,0,0,0,13,66.73a1.83,1.83,0,0,1,.14-.32Z"/><path class="cls-6" d="M13.55,68.35a1.89,1.89,0,0,0,2.23-.73,1.87,1.87,0,0,0,.2-.4,1.88,1.88,0,0,1-2.2.68,1.18,1.18,0,0,1-.6-1.52h0l0,0a1.83,1.83,0,0,0-.14.32A1.19,1.19,0,0,0,13.55,68.35Z"/><path class="cls-6" d="M19,70.62a1.9,1.9,0,0,0,2.23-.73,1.87,1.87,0,0,0,.2-.4,1.89,1.89,0,0,1-2.2.68,1.18,1.18,0,0,1-.6-1.53l0,0A1.26,1.26,0,0,0,19,70.62Z"/><path class="cls-6" d="M24.13,70.61h0l0-.07a1.87,1.87,0,0,1-2.2.68,1.17,1.17,0,0,1-.6-1.52l0,0a1.26,1.26,0,0,0,.41,1.94A1.89,1.89,0,0,0,24,71a1.83,1.83,0,0,1,.14-.32S24.12,70.62,24.13,70.61Z"/><path class="cls-6" d="M24.73,72.14a1.19,1.19,0,0,1-.6-1.52h0s0,0,0,0A1.83,1.83,0,0,0,24,71a1.19,1.19,0,0,0,.55,1.62,1.89,1.89,0,0,0,2.23-.73,1.73,1.73,0,0,0,.2-.41A1.89,1.89,0,0,1,24.73,72.14Z"/><path class="cls-6" d="M13.64,52.25a2.05,2.05,0,0,0,2.36-.6,1.58,1.58,0,0,0,.24-.39,2.05,2.05,0,0,1-2.31.57,1.1,1.1,0,0,1-.46-1.52s0,0,0,0A1.16,1.16,0,0,0,13.64,52.25Z"/><path class="cls-6" d="M18.87,52.48v0a.43.43,0,0,1,0-.07A2,2,0,0,1,16.6,53a1.09,1.09,0,0,1-.46-1.52l0,0a1.17,1.17,0,0,0,.21,1.91,2.08,2.08,0,0,0,2.35-.59,1.59,1.59,0,0,1,.17-.31Z"/><path class="cls-6" d="M19.33,54a1.08,1.08,0,0,1-.46-1.5v0l0,0a1.59,1.59,0,0,0-.17.31,1.09,1.09,0,0,0,.39,1.6,2.07,2.07,0,0,0,2.35-.6,1.65,1.65,0,0,0,.24-.39A2,2,0,0,1,19.33,54Z"/><path class="cls-6" d="M23.78,56.51A1.09,1.09,0,0,1,23.32,55l0,0a1.17,1.17,0,0,0,.21,1.91,2.07,2.07,0,0,0,2.35-.6,1.7,1.7,0,0,0,.25-.39A2.06,2.06,0,0,1,23.78,56.51Z"/><path class="cls-6" d="M28.72,57.17h0l0-.06a2.06,2.06,0,0,1-2.31.56A1.09,1.09,0,0,1,26,56.16l0,0a1.17,1.17,0,0,0,.21,1.91,2.05,2.05,0,0,0,2.34-.6,2.38,2.38,0,0,1,.18-.3S28.71,57.18,28.72,57.17Z"/><path class="cls-6" d="M29.18,58.69a1.08,1.08,0,0,1-.46-1.51h0s0,0,0,0a2.38,2.38,0,0,0-.18.3,1.1,1.1,0,0,0,.4,1.61,2.07,2.07,0,0,0,2.35-.6s0-.08.07-.12,0-.09,0-.14A2,2,0,0,1,29.18,58.69Z"/><path class="cls-6" d="M10.29,57a1.91,1.91,0,0,0,2.24-.73,1.73,1.73,0,0,0,.2-.41,1.9,1.9,0,0,1-2.2.69A1.18,1.18,0,0,1,9.93,55l0,0A1.26,1.26,0,0,0,10.29,57Z"/><path class="cls-6" d="M12.65,56.07l0,0A1.25,1.25,0,0,0,13,58.05a1.87,1.87,0,0,0,2.22-.71,1.83,1.83,0,0,1,.14-.32s0,0,0,0h0a.15.15,0,0,1,0-.07,1.89,1.89,0,0,1-2.2.68A1.18,1.18,0,0,1,12.65,56.07Z"/><path class="cls-6" d="M15.38,57a1.83,1.83,0,0,0-.14.32A1.19,1.19,0,0,0,15.79,59,1.9,1.9,0,0,0,18,58.23a1.73,1.73,0,0,0,.2-.41,1.87,1.87,0,0,1-2.2.68,1.17,1.17,0,0,1-.6-1.51h0S15.39,57,15.38,57Z"/><path class="cls-6" d="M22.73,60a1.89,1.89,0,0,1-2.2.68,1.18,1.18,0,0,1-.6-1.53s0,0,0,0a1.26,1.26,0,0,0,.41,1.94,1.89,1.89,0,0,0,2.23-.72A1.93,1.93,0,0,0,22.73,60Z"/><path class="cls-6" d="M25.42,61.15h0l0-.07a1.88,1.88,0,0,1-2.2.69,1.2,1.2,0,0,1-.6-1.53l0,0A1.26,1.26,0,0,0,23,62.23a1.89,1.89,0,0,0,2.22-.72,2.22,2.22,0,0,1,.14-.32S25.41,61.17,25.42,61.15Z"/><path class="cls-6" d="M25.42,61.16h0s0,0,0,0a2.22,2.22,0,0,0-.14.32,1.19,1.19,0,0,0,.55,1.62A1.88,1.88,0,0,0,28,62.41a1.93,1.93,0,0,0,.2-.41,1.88,1.88,0,0,1-2.2.68A1.18,1.18,0,0,1,25.42,61.16Z"/><path class="cls-6" d="M18.09,45.1a2.06,2.06,0,0,0,2.34-.59,1.92,1.92,0,0,1,.18-.31s0,0,0,0h0l0-.06a2,2,0,0,1-2.31.56,1,1,0,0,1-.37-.3l-.38.25A1,1,0,0,0,18.09,45.1Z"/><path class="cls-6" d="M20.61,44.2a1.92,1.92,0,0,0-.18.31,1.1,1.1,0,0,0,.4,1.6,2.07,2.07,0,0,0,2.35-.6,1.65,1.65,0,0,0,.24-.39,2,2,0,0,1-2.31.56,1.09,1.09,0,0,1-.46-1.51h0S20.62,44.19,20.61,44.2Z"/><path class="cls-6" d="M26.58,47.52A1.09,1.09,0,0,1,26.12,46l0,0A1.17,1.17,0,0,0,26.29,48a2.07,2.07,0,0,0,2.35-.6l.07-.11-.08-.07A2,2,0,0,1,26.58,47.52Z"/><path class="cls-6" d="M29,49.12a2,2,0,0,0,1.86-.19l-.25-.19a1.76,1.76,0,0,1-1.32-.05,1.07,1.07,0,0,1-.49-1.42l0,0A1.16,1.16,0,0,0,29,49.12Z"/><path class="cls-6" d="M31.13,49.38c0-.05,0-.1,0-.14A.68.68,0,0,0,31.13,49.38Z"/><path class="cls-6" d="M15,47.53a1.73,1.73,0,0,0,.2-.41,2,2,0,0,1-1.68.81l-.43.4A1.91,1.91,0,0,0,15,47.53Z"/><path class="cls-6" d="M15.5,49.32a1.87,1.87,0,0,0,2.22-.71,1.87,1.87,0,0,1,.15-.32l0,0h0l0-.07a1.88,1.88,0,0,1-2.2.68,1.19,1.19,0,0,1-.6-1.53l0,0A1.24,1.24,0,0,0,15.5,49.32Z"/><path class="cls-6" d="M17.87,48.29a1.87,1.87,0,0,0-.15.32,1.19,1.19,0,0,0,.55,1.62,1.89,1.89,0,0,0,2.23-.73,1.73,1.73,0,0,0,.2-.41,1.89,1.89,0,0,1-2.2.69,1.19,1.19,0,0,1-.6-1.52h0Z"/><path class="cls-6" d="M23.73,52.5A1.89,1.89,0,0,0,26,51.77a1.73,1.73,0,0,0,.2-.41,1.89,1.89,0,0,1-2.2.69,1.19,1.19,0,0,1-.6-1.53s0,0,0,0A1.26,1.26,0,0,0,23.73,52.5Z"/><path class="cls-6" d="M28.85,52.49h0l0-.07a1.88,1.88,0,0,1-2.2.68,1.19,1.19,0,0,1-.6-1.53l0,0a1.25,1.25,0,0,0,.4,1.94,1.88,1.88,0,0,0,2.22-.71,1.87,1.87,0,0,1,.15-.32Z"/><path class="cls-6" d="M29.45,54a1.17,1.17,0,0,1-.6-1.51h0l0,0a1.87,1.87,0,0,0-.15.32,1.18,1.18,0,0,0,.55,1.61,1.87,1.87,0,0,0,2.23-.72s0-.05,0-.07a1,1,0,0,1,0-.17A1.84,1.84,0,0,1,29.45,54Z"/><path class="cls-6" d="M31,48.28,21.8,40.81C4.76,49.2,0,68.55,0,68.55S1.9,69.62,4.81,71A42.94,42.94,0,0,1,7.69,59.9c4.1-10.29,10.9-17.45,15-15.6,9.08,4.08,7.88,19.94,3.77,30.23a16.38,16.38,0,0,1-.76,1.63c.61,0,2-.14,2.53-.26C31.88,66.24,32.09,53.5,31,48.28Z"/><path class="cls-6" d="M37.48,55c11.21,3.35,21-.59,18.6-10.52A5.64,5.64,0,0,0,54.67,42a23.75,23.75,0,0,0-2-1.64A21.4,21.4,0,0,0,49,38.5a1.71,1.71,0,0,0-2,1.28C39.57,37.62,27.56,35.46,22,40.93l-.15-.12c-.67.33-1.33.69-2,1.06C22,48.7,29,52.43,37.48,55Z"/><path class="cls-17" d="M21.8,40.81c0,5.7,17.92,14.23,26.82,13.51s9.11-11.26,5.12-14-12.9-5-15.76-9.11-5.12-15.87-5.12-15.87L22.11,23.51S24,31,28.35,33.24c0,0-2,.1-1.12,1.22C27.23,34.46,21.8,37.94,21.8,40.81Z"/><path class="cls-18" d="M30.4,43.76c0-4.13,10.8-5.31,17.21-5.31a17.28,17.28,0,0,1,3.43.33c.11-.19,2-1-2.4-1.91-4-.8-8.93-3.2-10.66-5.68-2.87-4.1-5.12-15.87-5.12-15.87L22.11,23.51S24,31,28.35,33.24c0,0-2,.1-1.12,1.22,0,0-5.43,3.48-5.43,6.35,0,5.7,17.92,14.23,26.82,13.51a8.27,8.27,0,0,0,5-2C45.1,56.73,30.4,47.57,30.4,43.76Z"/><polygon class="cls-19" points="46.86 13.9 52.72 20.69 50.1 21.39 50.33 21.71 54.05 21.09 46.77 13.38 46.86 13.9"/><path class="cls-20" d="M45.49,13.61l-2.1.42c.12,1.39.56,3.54,2.06,3.12S45.49,13.61,45.49,13.61Z"/><polygon class="cls-8" points="47.35 14.63 40.8 15.74 40.27 13.41 46.53 12.51 47.35 14.63"/><path class="cls-21" d="M47,13.64l-.09-.13h0l-.39-1h-.07c-.36-1.11-.53-2.57-1-3.59l-9.92,5.61a15.81,15.81,0,0,0,.85,3.55,7,7,0,0,0,1.41,2.38l9.85-6.11Z"/><path class="cls-22" d="M35.84,31.42l2.54.27a3.65,3.65,0,0,1-.4-.5c-1.44-2.05-2.72-6-3.64-9.48l-2.19-4.82-9.93,7a25.65,25.65,0,0,0,1.11,3l7.05-5.09Z"/><path class="cls-23" d="M22.33,25.18S36.11,13.33,48.5,8.83C48.5,8.83,40.3-6,26,2.76,14.14,10,22.33,25.18,22.33,25.18Z"/><path class="cls-24" d="M39.49,10.7c-7.88,0-14.27-3.34-14.27-7.45v0c-11,7.4-3.11,22-3.11,22S34,15,45.65,10A25.36,25.36,0,0,1,39.49,10.7Z"/><path class="cls-25" d="M44.71,5C41.79,2,36.41-1.53,29,2.16,35.68-.11,39.43,3.09,42.35,6Z"/><path class="cls-23" d="M21.53,21.32c-1.78-4.45-3.05-11.49,3.53-16.4-4.91,5-3.29,10.34-1.63,14.72Z"/><path class="cls-26" d="M47.49,8.52c.12.3,7.08,10.25,7.08,10.25l1.93-.32L48.24,7.81Z"/><polygon class="cls-23" points="44.86 7.33 53.63 18.95 55.25 18.64 46.21 6.37 44.86 7.33"/><polygon class="cls-26" points="38.98 12.76 42.58 27.91 41.93 28.7 37.83 29.07 33.33 16.74 38.98 12.76"/><polygon class="cls-24" points="37.14 13.57 41.22 28.32 36.81 29.86 30.99 17.53 37.14 13.57"/><path class="cls-27" d="M13.75,173.72H25.89s.47-4.58-1.18-4.91S15.73,171.73,13.75,173.72Z"/><path class="cls-27" d="M83.08,173.72H69.62s-.52-4.58,1.3-4.91S80.88,171.73,83.08,173.72Z"/><path class="cls-22" d="M45.2,37.61C37,37.55,28.58,34,30.29,33.68,31.63,33.47,39.26,36.87,45.2,37.61Z"/><path class="cls-22" d="M43,36.85c-7.83-2.35-14.93-8.16-13.22-7.94C31.15,29.08,37.52,34.47,43,36.85Z"/><path class="cls-18" d="M35.66,45c.35,6,9.85,8,15.14,6.79A5.07,5.07,0,0,0,54.88,47a6.66,6.66,0,0,1-7.62,4.38C37.48,49.9,35.66,45,35.66,45Z"/><polygon class="cls-4" points="85.85 79.3 87.28 71.09 78.43 69.24 78.99 79.5 85.85 79.3"/><polygon class="cls-4" points="22.96 97.01 29.39 91.71 23.87 84.55 17.62 92.69 22.96 97.01"/><path class="cls-23" d="M36.51,30.59,30.24,17.32l7.25-4.68,4.44,16.05ZM31.75,17.75l5.37,11.38L40.5,28,36.78,14.5Z"/><path class="cls-26" d="M20.34,23.9a17.12,17.12,0,0,0,1.27,2.4s14.5-13,27.74-17.67A16.94,16.94,0,0,0,48.1,6.74C36.28,11.31,23.63,21.23,20.34,23.9Z"/><path class="cls-18" d="M48.6,38c-16.83,1-15.42,6-15.42,6,.55-2.49,5-3.86,17.86-5.27Z"/><path class="cls-26" d="M37.19,26.45a.89.89,0,1,0,.88-.88A.88.88,0,0,0,37.19,26.45Z"/><path class="cls-26" d="M35.86,22.72a.89.89,0,1,0,.89-.89A.88.88,0,0,0,35.86,22.72Z"/><circle class="cls-26" cx="35.37" cy="18.93" r="0.88"/><path class="cls-4" d="M84.28,77.42a.73.73,0,0,0,1,.15.74.74,0,1,0-.89-1.18A.73.73,0,0,0,84.28,77.42Z"/><path class="cls-4" d="M87.2,77.63a.73.73,0,0,0,1,.15.75.75,0,0,0,.15-1,.74.74,0,1,0-1.18.88Z"/><path class="cls-28" d="M44.68,26.36c.62-2.49,3.11-3.09,5.58-2.48l-.1.38c-1.11-.41-4.06.2-4.58,2.26Z"/><path class="cls-28" d="M49.39,25.44A1,1,0,0,0,48.32,25c-.57.08-1,.58-1,.76s.49-.16,1.07-.25S49.42,25.63,49.39,25.44Z"/><path class="cls-29" d="M39.35,13.42a59.29,59.29,0,0,1,10-4.79A16.94,16.94,0,0,0,48.1,6.74a77.22,77.22,0,0,0-11,5.47A10.15,10.15,0,0,0,39.35,13.42Z"/><path class="cls-7" d="M87.94,79.23c4.09,0,9.57,4.57,9.82,5.11,4.3,9.28,5.22-1.22,3.92-5.28-.58-1.78-3.53-6.3-7-6.62-1.75-.17-7.18-.2-10.7-.64C84,71.8,87.05,79.24,87.94,79.23Z"/><path class="cls-7" d="M93.52,75.84c-1.27.59.2,7.86.17,8.41-.08,1.07-1.21,2.82-1.44,3.84s2.09,1.88,2.64,1.73c.76-.21,1.75-2.87,1.92-3.85s.49-2.85,1.93-3.6C101.1,81.15,96.83,74.28,93.52,75.84Z"/><polygon class="cls-30" points="89.74 80.16 91.95 71.75 82.61 69.22 82.88 80.6 89.74 80.16"/><path class="cls-31" d="M56.63,103l-4.43-.08c-1.63,6.86-13,13-13,13L52.44,119S55.47,113.51,56.63,103Z"/><path class="cls-32" d="M48.89,112.69a26.1,26.1,0,0,1-9.25,3.36l12.8,3s2.33-4.26,3.69-12.41A26.16,26.16,0,0,1,48.89,112.69Z"/><path class="cls-7" d="M31.8,95.4c3.76.08,5.66.12,6.76,1.16s1.94,5.08,1.53,6.06-4.18-.2-4.88-.36-1.1-1.89-.54-2.24,2.61-.54,2.59-.89a2.06,2.06,0,0,0-.32-.81S31.79,97.89,31.8,95.4Z"/><polygon class="cls-14" points="57.05 101.94 2.41 99.49 1.37 103.29 57.06 103.36 57.05 101.94"/><path class="cls-7" d="M28.27,91.14s2.85,3.6,4.07,4.06a36.67,36.67,0,0,1,6.18,3.48c.76.48,1.33,5,1.31,6.67-1-.34-8.79,1.76-8.79,1.76a25.23,25.23,0,0,1-4.32-5.32,25.58,25.58,0,0,0-4.45-4.45C20.18,95.63,28.27,91.14,28.27,91.14Z"/><path class="cls-7" d="M35.68,102.16c.23-1.09,2.33-1.26,2.63-.7s2.65,3.7,2.12,4.36-2.21,1.22-2.65.82S35.49,103.05,35.68,102.16Z"/><path class="cls-7" d="M32.54,102.68c.23-1.1,2.33-1.27,2.64-.71s2.64,3.7,2.11,4.36-2.21,1.22-2.65.82S32.35,103.56,32.54,102.68Z"/><path class="cls-7" d="M29.57,103.53c.26-1,2.3-1.33,2.57-.81s2.43,3.35,1.89,4-2.17,1.29-2.58.93S29.37,104.38,29.57,103.53Z"/><polygon class="cls-30" points="25.34 100.19 32.5 95.26 27.06 87.25 19.85 96.06 25.34 100.19"/><path class="cls-4" d="M22.44,95.27a.74.74,0,1,0,.74-.74A.74.74,0,0,0,22.44,95.27Z"/><circle class="cls-4" cx="25.39" cy="97.19" r="0.74"/></g></g></g></svg>