<svg xmlns="http://www.w3.org/2000/svg" viewBox="0 0 152.65 214.9"><defs><style>.cls-1{isolation:isolate;}.cls-2{fill:#ff9566;}.cls-3{fill:#ce8034;}.cls-4{fill:#d19546;}.cls-5{fill:#7a2d37;}.cls-6{fill:#c41c30;}.cls-7{fill:#d63440;}.cls-8{fill:#b2aa96;}.cls-9{fill:#a09784;}.cls-10{fill:#dd7026;}.cls-11{fill:#c1843d;}.cls-12{fill:#9e5133;}.cls-13{fill:#561d26;}.cls-14{fill:#bfb8a6;}.cls-15{fill:#847b6a;}.cls-16{fill:#a0182f;}.cls-17{fill:#ffb882;}.cls-18{fill:#a05d4b;}.cls-19{fill:#f29e2f;}.cls-20{fill:#ffb655;}.cls-21,.cls-27{opacity:0.6;mix-blend-mode:multiply;}.cls-22,.cls-27{fill:#843131;}.cls-23{fill:#752938;}.cls-24{fill:#70362b;}.cls-25{fill:#998f7a;}.cls-26{fill:#c9c0a9;}.cls-28{fill:#9e5433;}.cls-29{fill:#4f3029;}.cls-30{fill:#7f3c2a;}.cls-31{fill:#ea7b59;}.cls-32{fill:#c43f3f;}.cls-33{fill:#dd9f4e;}.cls-34{fill:#bf2639;}.cls-35{fill:#f2c56b;}</style></defs><g class="cls-1"><g id="Layer_2" data-name="Layer 2"><g id="_11" data-name="11"><path class="cls-2" d="M105.44,103.91s2.62.33,3.53-.55a35.07,35.07,0,0,1,5.64-4.56c.74-.47,5,.91,6.4,1.59-.72.76-2.06,8.45-2.06,8.45a24.27,24.27,0,0,1-6.45,1.61c-.83,0-2.75,1.15-4.61,1.63C105.35,112.73,105.44,103.91,105.44,103.91Z"/><polygon class="cls-3" points="60.86 43.29 34.3 43.29 33.31 61.3 61.84 61.3 60.86 43.29"/><path class="cls-4" d="M49.15,23H46c1.63,4.64,1.64,7.34,0,12h3.14C48.05,30.56,47.84,27.44,49.15,23Z"/><path class="cls-5" d="M17.52,76.38c-2.7,6.31,0,84.84,0,110.09,0,6.76,14.64,14.41,34.9,11.71S81.68,204,90,201.33c0,0-3.37-14.41-1.8-27.24s-5.4-98.81-9.45-101.64S17.52,76.38,17.52,76.38Z"/><path class="cls-2" d="M8.38,93.31c-4.22,4-8.85,14.83-8.31,16.77s14.58,1.08,14.58,1.08l8.09-11.89Z"/><path class="cls-6" d="M8.09,89.72c-.28.22-3.8,6.24-3.8,6.24S15.86,104,23.62,109.35l5.32-19.46S14.64,84.54,8.09,89.72Z"/><path class="cls-7" d="M21.86,102.32l-16-9C5,94.69,4.29,96,4.29,96S14.35,103,22,108.25Z"/><polygon class="cls-8" points="5.18 91.94 20.33 100.1 23.8 95.49 9.91 85.51 5.18 91.94"/><polygon class="cls-9" points="7.73 88.64 22.05 97.93 25.51 93.32 11.62 83.34 7.73 88.64"/><path class="cls-2" d="M73.14,99.45c2.92,6.3,6.65,15.55,8.53,16.29s9.48-10.52,9.48-10.52L86,93.92Z"/><path class="cls-7" d="M85.73,87.21C86,87.47,91,98.29,91,98.29s-12,5.89-17.48,8.32L67.29,91.26S79.71,81.21,85.73,87.21Z"/><path class="cls-6" d="M76.15,101.24l13-6.95c-1.45-3.11-3.24-6.92-3.39-7.08-6-6-18.44,4.05-18.44,4.05l6.21,15.35,1.44-.65Z"/><path class="cls-10" d="M30.8,116.44a1.61,1.61,0,1,0,1.9,1.23A1.6,1.6,0,0,0,30.8,116.44Z"/><polygon class="cls-10" points="27.49 130.24 30.66 117.43 31.86 117.45 31.22 130.72 27.49 130.24"/><polygon class="cls-10" points="23.43 129.42 34.84 131 35.16 128.53 24.11 126.8 23.43 129.42"/><path class="cls-11" d="M27.52,130.08s-6.93,39.83-6.54,42.5a18.75,18.75,0,0,0,1.59,5s3.53-1.54,4.36-4,4.3-43.05,4.3-43.05Z"/><path class="cls-12" d="M27.52,130.08S26,139,24.37,148.7a80.26,80.26,0,0,1,2.13,19.19c0,2.39-.09,4.72-.25,7a4.53,4.53,0,0,0,.68-1.26c.82-2.51,4.3-43.05,4.3-43.05Z"/><path class="cls-13" d="M69.78,117.51C56,117,46.6,118,32.7,118.19l.69,7h35.8Z"/><path class="cls-8" d="M26.13,81.34l5.58,38.83c12.92-2.15,22.7-1.86,39-.34V78S34.58,77.79,26.13,81.34Z"/><path class="cls-14" d="M64.93,85.78H54.45c-6.13,8.75-10.53,18.1-15.44,31.47l14.22-.54C55.2,105.77,57.77,96.42,64.93,85.78Z"/><path class="cls-15" d="M67.86,78v39.91c-14-1.53-22.33-1.81-33.4.33L29.8,80.31a20,20,0,0,0-3.67,1l5.58,38.83c12.92-2.15,22.7-1.86,39-.34V78Z"/><path class="cls-9" d="M66.6,76.75v39.91c-13.06-1.53-20.89-1.81-31.23.33L31,79.1a17.78,17.78,0,0,0-3.43,1L32.79,119c12.08-2.15,21.23-1.87,36.48-.34V76.75Z"/><rect class="cls-9" x="49.22" y="83.08" width="1.51" height="34.42" transform="translate(-2.83 1.46) rotate(-1.63)"/><path class="cls-9" d="M33.21,113.78l.16,1c11.7-2.24,20.61-2,35.5-.63l0-1C54,111.76,44.93,111.58,33.21,113.78Z"/><path class="cls-9" d="M32.77,108.56l.16,1c11.7-2.23,20.61-2,35.5-.62l0-1C53.58,106.55,44.49,106.36,32.77,108.56Z"/><path class="cls-9" d="M32.33,103.35l.15,1c11.7-2.24,20.61-2,35.51-.63l0-1C53.14,101.33,44.05,101.15,32.33,103.35Z"/><path class="cls-9" d="M31.88,98.13l.16,1c11.7-2.23,20.61-2,35.5-.62l0-1C52.69,96.12,43.6,95.93,31.88,98.13Z"/><path class="cls-9" d="M31.44,92.92l.16,1c11.69-2.24,20.6-2,35.5-.63l0-1C52.25,90.9,43.16,90.72,31.44,92.92Z"/><path class="cls-9" d="M31,88.3l.16,1c11.7-2.23,20.61-2,35.5-.62l0-1C51.83,86.29,42.73,86.11,31,88.3Z"/><path class="cls-16" d="M33.26,165.47a75.84,75.84,0,0,0,44.17-1.17,27.59,27.59,0,0,0-19.36-6C46.37,159.21,33.26,165.47,33.26,165.47Z"/><polygon class="cls-17" points="75.94 172.35 73.24 157.49 63.47 157.58 75.37 200.63 75.94 172.35"/><path class="cls-2" d="M74.77,167.18l.24,0-1.77-9.71-9.77.09,3.63,13.14A10.88,10.88,0,0,1,74.77,167.18Z"/><polygon class="cls-17" points="33.33 175.86 33.38 160.84 42.68 158.33 36.43 202.57 33.33 175.86"/><path class="cls-2" d="M34.06,170.71a8.62,8.62,0,0,1,6.41,3.3l2.21-15.68-9.3,2.51,0,9.93C33.58,170.75,33.82,170.71,34.06,170.71Z"/><path class="cls-7" d="M70.76,125.15a1.61,1.61,0,0,0,.12-.66c-.11-3.33-8.76-2.93-19.44-2.58s-19.35.53-19.24,3.86a1.79,1.79,0,0,0,.17.66h-.06l-3.05,41.13c11.07,3.77,24.88-4,48.17-3.26Z"/><path class="cls-6" d="M44.39,158.38l-3.6-2.33v-34.6l21.7.24,4.08,31.15-3,3.65-2.88-2.92L58,157.07l-3.71-2.65-3.18,3.25-3.71-2.38Z"/><path class="cls-6" d="M63.41,164.84l-1.3-29a121.78,121.78,0,0,1-4.65,29.78Q60.31,165.17,63.41,164.84Z"/><path class="cls-6" d="M35.18,153.05c-1.34-11.54-.51-22.23,1.89-30.21-2.66.45-4.57,1.06-5,2.23s-1,11.47-2.79,42.49a23.09,23.09,0,0,0,9,1A91.56,91.56,0,0,1,35.18,153.05Z"/><path class="cls-6" d="M70.66,123.7c-.71-1.22-3-1.75-6.41-1.93,3.64,7.06,6.45,16.5,7.67,27a92.86,92.86,0,0,1,.51,15.47c1.62,0,3.28,0,5,0C72.7,130.77,70.66,123.7,70.66,123.7Z"/><path class="cls-18" d="M91.47,214.9H78.54s.33-5.52,2.08-5.86S92.55,213.39,91.47,214.9Z"/><path class="cls-17" d="M89.19,213.86H79.86s.24-3.57,1.5-3.78S90,212.89,89.19,213.86Z"/><rect class="cls-18" x="84.47" y="210.67" width="1.35" height="3.82" transform="translate(95.8 -16.17) rotate(24.5)"/><polygon class="cls-18" points="84.24 210.56 83.02 210.01 80.34 213.97 81.56 214.52 84.24 210.56"/><path class="cls-18" d="M24.09,214.9H37s-.33-5.52-2.08-5.86S23,213.39,24.09,214.9Z"/><path class="cls-17" d="M26.37,213.86H35.7s-.24-3.57-1.5-3.78S25.59,212.89,26.37,213.86Z"/><rect class="cls-18" x="29.74" y="210.67" width="1.35" height="3.82" transform="translate(146.22 393.42) rotate(155.51)"/><polygon class="cls-18" points="31.32 210.56 32.54 210.01 35.22 213.97 34 214.52 31.32 210.56"/><path class="cls-19" d="M40.37,180.5c-4.44-8.94-7-10.2-10.44-5.26l3.93,33.91,1.85.88A69.73,69.73,0,0,0,40.37,180.5Z"/><path class="cls-20" d="M37.62,176.49c-2.62-4.08-4.57-4-7-.28l3,27.73c2.66-1.88,4.65-9.48,4.65-18.59A55.89,55.89,0,0,0,37.62,176.49Z"/><path class="cls-19" d="M67,177.43c2.82-8.19,8.79-9.62,10.56-7.15l3.88,38.94-1.73,1S68.14,195.74,67,177.43Z"/><path class="cls-20" d="M80.46,202.42l-3.07-30.87c-1.3-1.81-5-1.35-7.81,2.65.2,2.71.55,5.68,1.07,8.78,2,12.17,5.75,21.69,8.35,21.26C79.6,204.14,80.09,203.49,80.46,202.42Z"/><polygon class="cls-8" points="7.69 86.07 22.54 97.33 26.14 93.22 14.78 79.52 7.69 86.07"/><polygon class="cls-9" points="10.71 83.41 24.75 95.01 28.53 91.16 17 77.19 10.71 83.41"/><g class="cls-21"><path class="cls-22" d="M48.92,88.38c7.7.4,17.24,3.25,21.79,9.29V80.9L68,78c-3.12,0-8.58.08-14.63.29L26.13,81.34l2.61,18.14C33,93.32,41.74,88,48.92,88.38Z"/></g><polygon class="cls-8" points="9.94 79.82 25.74 93.97 30.2 89.9 19.04 73.21 9.94 79.82"/><polygon class="cls-9" points="12.78 77.81 27.71 92.08 32.55 88.75 21 71.32 12.78 77.81"/><polygon class="cls-8" points="13.63 75.33 29.05 91.72 36.29 87.51 24.16 69.63 13.63 75.33"/><polygon class="cls-8" points="90.53 91.82 73.76 100.27 71.92 95.41 86.67 85.8 90.53 91.82"/><polygon class="cls-9" points="88.25 88.27 72.89 98.12 70.73 93.58 85.48 83.97 88.25 88.27"/><polygon class="cls-8" points="87.91 85.62 72.51 96.88 69.74 93.36 81.12 78.67 87.91 85.62"/><polygon class="cls-9" points="85.05 82.69 70.33 94.2 68.19 91.55 79.57 76.85 85.05 82.69"/><polygon class="cls-8" points="86.01 79.16 69.62 93.31 65 89.24 76.58 72.55 86.01 79.16"/><polygon class="cls-9" points="82.94 77.08 67.17 91.16 62.84 87.85 74.14 70.92 82.94 77.08"/><polygon class="cls-8" points="82.18 74.67 66.19 91.06 60.83 87.58 71.26 68.97 82.18 74.67"/><path class="cls-23" d="M26.08,70.53l-2,1.69c16.44,24.88,44.82,50.25,44.82,50.25l1-2.64S43.39,96.77,26.08,70.53Z"/><path class="cls-13" d="M43.5,93.12A214,214,0,0,1,26.08,70.53l-2,1.69A210.7,210.7,0,0,0,40.9,94,21.32,21.32,0,0,1,43.5,93.12Z"/><path class="cls-13" d="M63,113.5A16.75,16.75,0,0,1,61,115c4.78,4.64,7.91,7.45,7.91,7.45l1-2.64S67.2,117.51,63,113.5Z"/><rect class="cls-20" x="51.64" y="104.26" width="4.61" height="3.56" transform="translate(93.62 -6.12) rotate(46.44)"/><path class="cls-7" d="M13.37,77.41C29.7,93.67,63.52,88.32,73,80.38s6.49-10,3.33-9.39a5.21,5.21,0,0,0-7-2.19S65.37,64,60,66.28a35,35,0,0,1-25.41.06c-10-3.91-4.56,1.87-4.56,1.87S9.43,71,13.37,77.41Z"/><path class="cls-6" d="M76.33,71a5.21,5.21,0,0,0-7-2.19S65.37,64,60,66.28a35,35,0,0,1-25.41.06c-10-3.91-4.56,1.87-4.56,1.87S9.43,71,13.37,77.41C29.7,93.67,63.52,88.32,73,80.38S79.49,70.37,76.33,71ZM45.16,87.19c-10.47,0-19-3.36-19-7.51s8.79-5.2,19.26-5.2,18.66,1,18.66,5.2S55.63,87.19,45.16,87.19Z"/><path class="cls-2" d="M55.68,59.5H39.47V71.66c6.33,2.2,10.39,2,16.21,0Z"/><path class="cls-17" d="M30.28,121.59,16.06,107.84S.75,100.76.88,110.92c.11,9,25.69,14.5,25.69,14.5Z"/><path class="cls-2" d="M2,108.4a6.56,6.56,0,0,1,.34-2.3C.91,106.87,0,108.31,0,110.79c.11,9,26.57,14.63,26.57,14.63S2.12,116.51,2,108.4Z"/><path class="cls-17" d="M110.46,103.38,89.68,102s-15,4.59-7.25,13.08c6.83,7.53,29.13-5.81,29.13-5.81Z"/><path class="cls-2" d="M83,113c-1.88-2.07-2.36-3.94-2-5.59-1.79,2.2-2.34,5,.66,8.31,6.83,7.53,32-6.3,32-6.3l0-2C108.45,110.13,88.92,119.51,83,113Z"/><polygon class="cls-24" points="96.56 5.71 96.4 8.41 152.49 12.44 152.65 9.75 96.56 5.71"/><polygon class="cls-18" points="110.21 214.37 107.52 214.21 123.05 0 125.75 0.16 110.21 214.37"/><polygon class="cls-24" points="121.81 17.08 117.61 74.98 120.32 74.98 124.52 17.08 121.81 17.08"/><path class="cls-7" d="M146.84,8.81,101.21,4.72,102,59.55c11-6.82,24.51.3,44.17-3.5Z"/><polygon class="cls-8" points="45.81 124.16 46.72 124.26 47.97 154.35 51.06 156.34 53.71 153.63 51.87 123.78 52.77 123.89 54.84 153.48 57.92 155.68 60.17 152.81 57.01 123.61 57.92 123.71 61.29 152.67 63.62 155.03 65.99 152.1 62.01 121.74 41.45 121.51 41.45 155.17 44.35 157.04 46.84 154.49 45.81 124.16"/><path class="cls-25" d="M46.06,131.47l-.25-7.31.91.1L47,131a27.47,27.47,0,0,1,5-1.9l.18,0-.32-5.29.9.1.35,5a27.09,27.09,0,0,1,4.39-.61l-.5-4.64.91.1.52,4.49a24.21,24.21,0,0,1,4.46.33l-.9-6.79-20.55-.23v13.2A24.67,24.67,0,0,1,46.06,131.47Z"/><polygon class="cls-13" points="36.28 122.27 27.2 130.14 26.75 134 38.48 122.34 36.28 122.27"/><path class="cls-26" d="M44.4,157.43l-3.26-2.1V121.2l21.13.24,4,30.75-2.67,3.29L61,152.81v-.1L57.65,124l-.3,0,3.13,29L58,156.1l-3.44-2.45-2-29.49-.3,0L54,153.74l-2.92,3-3.43-2.21-1.25-30-.29,0,1,30.11ZM41.75,155l2.56,1.66,2.22-2.29-1-30.55L47,124v.26l1.24,29.93L51,156l2.38-2.44-1.86-30.07,1.51.17,2.08,29.71,2.73,2,2-2.55-3.19-29.46,1.52.17,0,.24,3.36,28.87,2,2L65.67,152l-3.93-30-20-.23Z"/><path class="cls-26" d="M40.25,122.72a2.84,2.84,0,1,0,2.84-2.83A2.84,2.84,0,0,0,40.25,122.72Z"/><path class="cls-26" d="M46.38,122.5A2.65,2.65,0,1,0,49,119.85,2.65,2.65,0,0,0,46.38,122.5Z"/><path class="cls-26" d="M52.28,122.65a2.5,2.5,0,1,0,2.5-2.5A2.49,2.49,0,0,0,52.28,122.65Z"/><path class="cls-26" d="M57.69,122.8A2.84,2.84,0,1,0,60.53,120,2.84,2.84,0,0,0,57.69,122.8Z"/><path class="cls-8" d="M47.44,122.38a1.67,1.67,0,1,0,1.67-1.66A1.67,1.67,0,0,0,47.44,122.38Z"/><path class="cls-25" d="M49.11,121.55a1.65,1.65,0,0,1,1.6,1.25,1.47,1.47,0,0,0,.06-.42,1.67,1.67,0,0,0-3.33,0,1.93,1.93,0,0,0,.06.42A1.66,1.66,0,0,1,49.11,121.55Z"/><path class="cls-8" d="M41.43,122.57a1.67,1.67,0,1,0,1.66-1.66A1.66,1.66,0,0,0,41.43,122.57Z"/><path class="cls-25" d="M43.09,121.74A1.66,1.66,0,0,1,44.7,123a1.93,1.93,0,0,0,.06-.42,1.67,1.67,0,0,0-3.33,0,1.47,1.47,0,0,0,.06.42A1.65,1.65,0,0,1,43.09,121.74Z"/><circle class="cls-8" cx="54.74" cy="122.61" r="1.66"/><path class="cls-25" d="M54.74,121.78A1.66,1.66,0,0,1,56.35,123a2,2,0,0,0,.06-.42,1.67,1.67,0,1,0-3.33,0,1.52,1.52,0,0,0,.06.42A1.65,1.65,0,0,1,54.74,121.78Z"/><path class="cls-8" d="M59,122.76a1.67,1.67,0,1,0,1.66-1.66A1.66,1.66,0,0,0,59,122.76Z"/><path class="cls-25" d="M60.68,121.93a1.66,1.66,0,0,1,1.61,1.25,1.93,1.93,0,0,0,.06-.42,1.67,1.67,0,0,0-3.33,0,1.47,1.47,0,0,0,.06.42A1.65,1.65,0,0,1,60.68,121.93Z"/><path class="cls-7" d="M55,79.18C65,74.76,66.61,68.65,70,70,79.16,73.56,58.2,80.5,55,79.18Z"/><path class="cls-7" d="M47.48,86.48c12.1-5.14,23.78-11.94,23.5-8.57C70.64,82,50.19,88.21,47.48,86.48Z"/><path class="cls-6" d="M41.12,79.37c8.86,2.73,22.4.15,31.25-6.43A24.94,24.94,0,0,1,57.9,81,31.61,31.61,0,0,1,41.12,79.37Z"/><path class="cls-6" d="M17.73,73.06c4.94,6.38,19.43,11,33.93,10.19,0,0-11,2.48-20.91-.83S17.73,73.06,17.73,73.06Z"/><path class="cls-27" d="M45.21,75.74c10.78,0,20-2.92,24-7.07-.67-.75-4.35-4.48-9.22-2.39a27,27,0,0,1-4.29,1.4V59.5H39.47v8.33a32.34,32.34,0,0,1-4.91-1.49c-10-3.91-4.56,1.87-4.56,1.87a69.92,69.92,0,0,0-7.58,1.55C26.86,73.32,35.4,75.74,45.21,75.74Z"/><path class="cls-28" d="M29.69,59.26c.41,3.28,8.31,5.9,18,5.9,10,0,18.06-2.77,18.06-6.17v0a46.61,46.61,0,0,0-17.56-3.36A47.76,47.76,0,0,0,29.69,59.26Z"/><polygon class="cls-28" points="59.39 43.29 35.77 43.29 34.89 62.2 60.27 62.2 59.39 43.29"/><path class="cls-17" d="M37.43,43.19c.09,5.44.7,19.29.7,19.29a11.07,11.07,0,0,0,8.67,4c7.41,0,10.93-3.86,10.93-3.86V42.86Z"/><path class="cls-29" d="M44.1,51.71a3.44,3.44,0,0,0,.1-.8c0-1.1-.5-2-1.12-2s-1.12.88-1.12,2a3.44,3.44,0,0,0,.1.8Z"/><polygon class="cls-30" points="46 48.6 39.02 47.05 39.02 49.5 46 50.11 46 48.6"/><path class="cls-29" d="M52.8,51.71a3.44,3.44,0,0,0,.1-.8c0-1.1-.51-2-1.13-2s-1.12.88-1.12,2a3.44,3.44,0,0,0,.1.8Z"/><polygon class="cls-30" points="48.2 48.6 55.18 47.05 55.18 49.5 48.2 50.11 48.2 48.6"/><path class="cls-31" d="M48.2,50.11H46L45.43,59a3.88,3.88,0,0,0,3.92-.16Z"/><path class="cls-17" d="M47.87,49.67H46.35L46,58.52a2,2,0,0,0,2.69-.16Z"/><path class="cls-31" d="M44.81,61.86a32.82,32.82,0,0,1,5.47-.32,3.31,3.31,0,0,0-2.67-.74A11.54,11.54,0,0,0,44.81,61.86Z"/><path class="cls-31" d="M49.26,62.71c0-.15-.56-.27-1.26-.27s-1.27.12-1.27.27S47.3,63,48,63,49.26,62.85,49.26,62.71Z"/><g class="cls-21"><path class="cls-32" d="M57.73,44.48H37.46c.15,6.06.67,18,.67,18a10.94,10.94,0,0,0,6.08,3.73C43.7,61.22,43.14,54,43.14,54L40.6,52.83,40,48.05H54.39l-.46,4.79L51.46,54s-.2,6.06-.52,12.07a14.84,14.84,0,0,0,6.18-2.86l.61-13.6Z"/></g><path class="cls-4" d="M60.75,38.33A1.84,1.84,0,0,0,60,36.86C52.4,31.12,42.42,30.58,35,37a1.54,1.54,0,0,0-.54,1.17v7.75H60.75Z"/><path class="cls-33" d="M47.82,42.15c6,0,10.79-2.16,10.79-4.82a2.29,2.29,0,0,0-.13-.73c-6.41-4.58-14.52-5.2-21-.67a2.46,2.46,0,0,0-.46,1.4C37,40,41.86,42.15,47.82,42.15Z"/><polygon class="cls-4" points="37.78 45.54 35.68 45.54 37.09 65.63 43.56 67.52 41.29 54.41 38.73 53.24 37.78 45.54"/><polygon class="cls-4" points="56.91 45.54 58.97 45.54 58.06 65.63 51.76 67.52 53.68 54.41 56.16 53.24 56.91 45.54"/><path class="cls-7" d="M39.13,29.54C40.5,26.15,43.81,23,47.69,23s7.14,3.09,8.53,6.44a28.45,28.45,0,0,1,15,9.3A24.28,24.28,0,1,0,24.19,39,28.2,28.2,0,0,1,39.13,29.54Z"/><path class="cls-6" d="M37.62,27.62,25,24.41c-.24.63-.45,1.27-.64,1.92L37.13,28Z"/><path class="cls-6" d="M38.93,24.22l-9.18-7.56c-.43.47-.85,1-1.24,1.46l9.83,6.15Z"/><path class="cls-6" d="M42.22,21.42,38.29,10.58c-.55.24-1.09.51-1.62.78l5,9.84Z"/><path class="cls-6" d="M49.23,21,48.76,8.75c-.36,0-.71-.05-1.07-.05s-.57,0-.85,0l1.93,11.93Z"/><path class="cls-6" d="M52.21,21.26l7.4-9.42c-.54-.31-1.1-.58-1.66-.85l-5.84,9.69Z"/><path class="cls-6" d="M55.92,23.37l11.33-4.73c-.38-.52-.77-1-1.19-1.51l-10,5.69Z"/><path class="cls-6" d="M58.06,27.63l13.31,0c-.15-.66-.32-1.33-.52-2L58.46,27.19Z"/><path class="cls-6" d="M47.38,18.63A13.08,13.08,0,0,0,34.32,31.26a30.47,30.47,0,0,1,4.81-1.72C40.5,26.15,43.81,23,47.69,23s7.14,3.09,8.53,6.44a31.71,31.71,0,0,1,4.19,1.41A13.07,13.07,0,0,0,47.38,18.63Z"/><path class="cls-33" d="M47.63,23c-3.94,0-7.47,3.08-8.85,7.22.22-.07,2-.14,2.16-.2,1.08-3.27,3-5.59,6.75-5.59s5.65,2.28,6.74,5.51c.21.06,2,.15,2.26.22A9.63,9.63,0,0,0,47.63,23Z"/><path class="cls-34" d="M101.21,4.72l.4,29.88C103.07,24.21,106.2,17,109.82,17c5,0,9.08,13.76,9.08,30.72,0,3.06-.14,6-.38,8.79l1.51.08a83.34,83.34,0,0,1-.53-9.4c0-18.76,6.06-34,13.54-34,6.63,0,12.14,11.94,13.31,27.7l.49-32.14Z"/><path class="cls-33" d="M51,68.37,53.13,54l2.46-1.16.77-7.9h3.25l-1,21.14Zm3.21-13.56L52.5,66.66l5-1.49.86-19h-.88l-.73,7.49Z"/><path class="cls-33" d="M44.32,68.37l-7.8-2.28L35,44.94h3.29l1,7.89L41.83,54Zm-6.65-3.21,5.13,1.5-2-11.84-2.58-1.17-.92-7.5h-.92Z"/><path class="cls-33" d="M62.61,46.29a3.7,3.7,0,0,0-3.81-3.58H36.09a3.69,3.69,0,0,0-3.81,3.58Z"/><path class="cls-35" d="M58.23,43H36.67a3.71,3.71,0,0,0-2.53,1c2.31.73,7.46,1.23,13.45,1.23,5.81,0,10.82-.48,13.23-1.16A3.72,3.72,0,0,0,58.23,43Z"/><path class="cls-35" d="M57.54,37.49c.26-.86-1.85-2.25-4.71-3.09s-5.37-.84-5.63,0,1.85,2.25,4.71,3.09S57.29,38.35,57.54,37.49Z"/><path class="cls-35" d="M46.81,36.93c.16-.54-.82-1.31-2.2-1.72s-2.62-.3-2.78.25.83,1.31,2.2,1.72S46.65,37.48,46.81,36.93Z"/><path class="cls-35" d="M114.71,37.12c.16.23.22.34.22.41s-.14.09-.29.09l-1.76,0c-.26,0-.29-.36-.67-1-.2-.34-.65-1.16-1.07-1.93l-.79-1.41c.05.67.08,1.28.12,1.84,0,.94.11,2,.16,2.12a.71.71,0,0,1,0,.14c0,.23-.15.29-.45.24s-1.6.12-2,.12-.34-.12-.34-.32,0-.2,0-.33c0-.33-.12-2.25-.12-3.41a4.57,4.57,0,0,1,.05-.79,15.68,15.68,0,0,0,.07-2c0-1.05,0-2.18-.06-2.62,0-.12,0-.23,0-.32,0-.5.18-.44.34-.44s1.13-.14,2.05-.14c2.42,0,3.49,1.3,3.49,3a3.27,3.27,0,0,1-.73,2,4.15,4.15,0,0,1-.71.74l1.09,1.82C113.89,35.83,114.5,36.83,114.71,37.12Zm-4-5.82a.75.75,0,0,0,.43-.76c0-.6-.25-.81-.5-.81a.46.46,0,0,0-.29.11s0,.44,0,.8a1.84,1.84,0,0,0-.06.5c0,.05,0,.09,0,.13s0,.07,0,.12A1,1,0,0,0,110.68,31.3Z"/><path class="cls-35" d="M123.07,32.62c0,2.07-1,5.21-3.44,5.21-3.41,0-3.68-3.87-3.68-5.42,0-4.11,2.21-5.1,3.57-5.1C122.9,27.31,123.07,30.53,123.07,32.62Zm-2.74.12c0-.73-.26-1.43-.71-1.43s-.78.95-.78,1.56,0,1.33.67,1.33S120.33,33.46,120.33,32.74Z"/><path class="cls-35" d="M125.61,32.23c0,.48,0,2.23-.06,2.83,0,.2,0,.5,0,.81,0,.62,0,1.32,0,1.45v0c0,.17-.08.24-.22.23a4.46,4.46,0,0,0-.5,0c-.06,0-.08,0-.08-.1s0-.14,0-.26c0-.3-.08-3.6-.08-4.36s0-2.63.1-3.13.09-1.66.09-2V27.7c0-.27.09-.23.2-.22h.51c.17,0,.28.14.31.41a7.92,7.92,0,0,0,.49,1.72c.2.56,1.36,3.36,1.66,4,.14.33.35.92.54,1.45l.34,1,.2-.33.44-.79c.33-.61,1.52-2.64,1.89-3.44s1-1.9,1.17-2.36.56-1.62.79-1.62.13.13.13.33-.07.76-.1,1.2c0,.75,0,2.08,0,2.75s0,2.67-.08,3.23l0,2.33v0c0,.1-.06.15-.17.15a4.87,4.87,0,0,1-.54,0c-.06,0-.08,0-.08-.11s0-.15,0-.25,0-3.14.11-3.86c0-.34,0-.94,0-1.44,0-.3,0-.6,0-.91-.14.22-.28.44-.39.65s-.44.79-.61,1.06c-.29.53-1.15,2.16-1.4,2.62s-1.12,2-1.24,2.21-.31.47-.45.47-.17-.1-.25-.31-.62-1.66-.82-2.09-.86-1.87-1-2.4c-.11-.27-.3-.84-.48-1.36-.11-.3-.24-.63-.35-.95l0,.52C125.61,31.61,125.61,32,125.61,32.23Z"/><path class="cls-35" d="M135.87,33c0,.33.06.47.06.8l0,1.7c0,.24,0,.5,0,.72s0,.24,0,.35c.2,0,.4,0,.59,0h1c.57,0,1.08,0,1.64,0s1.09,0,1.51,0,.82,0,1,0,.17.07.17.23,0,.28,0,.44-.09.17-.32.17h-.28c-.28,0-1,0-1.7,0-.38,0-.77,0-1.11,0h-.87c-.83,0-1.71,0-2,0s-.36-.08-.36-.21,0-.14,0-.23a.72.72,0,0,0,0-.13c0-.1,0-.19,0-.81,0-.88-.07-2-.07-2.95s.12-2.37.12-3,0-1.66,0-2.19.75-.28,1.23-.28,1.77-.09,2.61-.09,2.38.05,2.7.05.27.22.27.38v.16c0,.14,0,.33-.07.33s-.2-.05-.49-.05H137c-.24,0-.5,0-.7,0l-.36,0,0,.39c0,.21,0,.46,0,.67,0,.4.07.77.07,1.1v.57c0,.12,0,.23,0,.36h1c.27,0,.59-.05,1.07-.05s1,.05,1.22.05.43,0,.8,0,.76,0,1.08,0h.32c.17,0,.2.12.19.18s0,.4,0,.52,0,.15-.24.15-1.55-.15-2.14-.15-1.32,0-1.94,0a7.3,7.3,0,0,1-.92,0,3,3,0,0,1-.43,0l0,.23A3.23,3.23,0,0,0,135.87,33Z"/><path class="cls-17" d="M108.34,104.31c.61-3.26,4.13-7.27,5.5-7.81s3.12.94,3.81,1.69-.82,4.44-1.26,5-2.1.19-2.18-.44.6-2.51.28-2.64a2,2,0,0,0-.84-.06S112.6,106.69,108.34,104.31Z"/><path class="cls-17" d="M116.51,102.73c-.87-.65-.16-2.57.46-2.6s4.34-.81,4.7-.07.17,2.44-.37,2.66S117.21,103.26,116.51,102.73Z"/><path class="cls-17" d="M115.67,105.7c-.87-.65-.16-2.57.46-2.6s4.34-.81,4.7-.07.17,2.44-.37,2.66S116.37,106.23,115.67,105.7Z"/><path class="cls-17" d="M115.2,108.66c-.82-.66-.23-2.57.34-2.59s3.94-.76,4.3,0,.23,2.44-.25,2.65S115.87,109.19,115.2,108.66Z"/><path class="cls-17" d="M24.71,116.94s2.7,2.55,3.74,2.78a32.51,32.51,0,0,1,5.78,2.22c.77.34,1.61,3,2,4.68-1-.21-6.78,4.79-6.78,4.79a26.23,26.23,0,0,1-4.63-4.91c-.43-.68-2.05-4.1-3.59-5.13C19.52,120.2,24.71,116.94,24.71,116.94Z"/><path class="cls-17" d="M28.06,120c3-.46,4.59-.69,5.73.06s2.89,4.45,2.78,5.47-3.74.39-4.4.32-1.33-1.67-.92-2.08,2.11-.87,2-1.2a2.34,2.34,0,0,0-.44-.69S28.45,122.16,28.06,120Z"/><path class="cls-17" d="M32,124.81c-.12-1.21,1.55-1.85,2-1.32s3.42,3.48,3.19,4.35-1.53,1.93-2,1.54S32.09,125.81,32,124.81Z"/><path class="cls-17" d="M29.57,126c-.09-1.22,1.57-1.86,2-1.32s3.31,3.52,3,4.41-1.53,1.93-2,1.54S29.64,127.05,29.57,126Z"/><path class="cls-17" d="M27.37,127.6c0-1.2,1.54-1.93,1.88-1.43s2.92,3.24,2.65,4.12-1.51,2-1.95,1.65S27.4,128.59,27.37,127.6Z"/></g></g></g></svg>